M48
;Layer_Color=6321
;FILE_FORMAT=2:5
INCH,LZ
;TYPE=PLATED
T1F00S00C0.02000
T2F00S00C0.02500
T3F00S00C0.02800
T4F00S00C0.03800
T5F00S00C0.03937
T6F00S00C0.04000
%
T01
X0635Y11825
X0665Y118
Y11725
X0624685Y11975
X0609685
X0612185Y12125
X0587185Y12225
X0575Y12325
Y11841
X058Y11825
X0585
X0595
X0569685Y11775
X05556Y11789
X055Y11825
X0545
X0535
X052
X051
X0495
X049
X048
X0475
X047
X04778Y11912
X04924Y11908
X05012Y11913
X0499685Y12375
X0534685Y12225
X0557185Y11975
X0459685Y1195
X046Y11825
X0455
X045
X044
X0435
X0425
X0418937Y11775
X041Y11825
X0398622Y118
X0391122
X038Y11825
X0355Y118
Y11725
X0349685Y12175
X0332185Y1205
X0317185Y12225
Y12325
X0314685Y12375
Y12475
X0370807Y12375
X0389685Y124
X0304685Y13125
Y1335
X0309685Y1395
X0324685Y1405
X0369685
X0414685
X0417185Y1395
Y1385
Y137
X0437185
X0447185Y13675
Y1375
Y13825
X0397185Y1385
X0392185Y137
X0387185Y1365
X0382185Y1355
X0377185Y1345
X0372185Y1335
X0344685Y13425
Y1375
X0404685Y136
X0399685Y132
X0389685Y13175
X0429685Y132
X0449685Y13275
X0432185Y12625
X0380807Y1263189
X0370807
X0360807
X0347185Y12875
X0349685Y1295
X0337185Y12875
X0499685Y1285
Y125
X0512185Y1315
X0562185Y131
X0572185
X0567185Y129
X0612185Y1305
X06164Y13239
X0469685Y13325
X0497185Y14025
X0642185Y13325
X0647185Y131
X0699685Y1285
X0714685
X0652185Y14175
X0647185Y14325
X0697185Y1475
X0707185Y1485
X0702185Y1495
X0614685Y14925
X0582185Y14675
X0552185Y14475
X0457185Y14775
X0452185Y14825
X0382185Y1465
X0374685Y1445
X0379685Y1435
X0387185Y1425
X0397185Y1415
X0402185Y141
X0412185Y1415
X0407185Y1425
X0337185Y14275
Y14175
Y14375
Y14475
Y14575
T02
X0632185Y124
X0652185
X0682185
X0724685
Y1215
X0602185Y124
X0582185
X0552185
X0447185
Y123
Y122
X0417185
Y123
Y124
X0315591Y11925
X0309685
X0294685Y12575
Y12675
Y12775
Y12875
Y12975
Y13075
Y13175
Y13275
Y13375
Y13475
X0302185Y1365
X0297185Y13825
X0322185
X032187Y1365
X0324685Y13475
Y13375
Y13275
Y13175
Y13075
Y12975
Y12875
Y12775
Y12675
Y12575
X0360807Y1278189
X0380807
Y1303189
X0360807
X0419685Y13075
X043937
X0447185Y129
Y128
Y127
Y126
Y125
X0417185
Y126
Y127
Y128
Y129
X0474685Y13475
Y13575
Y13675
Y13775
Y13875
Y13975
X0534685
Y13875
Y13775
Y13675
Y13575
Y13475
X0567185Y13475
Y13575
Y13675
Y13775
Y13875
Y13975
X05575Y132
X0577185
X0582185Y13
Y129
Y128
Y127
Y126
Y125
X0602185
Y126
Y127
Y128
Y129
Y13
X06075Y132
X0552185Y13
Y129
Y128
Y127
Y126
Y125
X0632185
Y126
Y127
Y128
Y129
Y13
X0652185
Y129
Y128
Y127
Y126
Y125
X0682185
Y126
Y127
Y128
Y129
Y13
X0677185Y132
X06575
X0627185
Y13475
Y13575
Y13675
Y13775
Y13875
Y13975
X0729685Y1339685
Y132
X0627185Y14075
Y14175
Y14275
Y14375
Y14475
Y14575
Y14675
Y14775
Y14875
Y14975
X0659685Y1495
Y1514685
X0607185Y15125
X05875
X0577185
X0552185
X0567185Y14975
Y14875
Y14775
Y14675
Y14575
Y14475
Y14375
Y14275
Y14175
Y14075
X0534685Y14075
Y14175
Y14275
Y14375
Y14475
Y14575
Y14675
Y14775
Y14875
Y14975
X0514685Y15125
X0495
X0474685Y14975
Y14875
Y14775
Y14675
Y14575
Y14475
Y14375
Y14275
Y14175
Y14075
X0450591Y151
X0444685
X0327185Y15025
Y14925
Y14825
Y14725
Y14625
Y14525
Y14425
Y14325
Y14225
Y14125
X032187Y15175
X0302185
X0297185Y15025
Y14925
Y14825
Y14725
Y14625
Y14525
Y14425
Y14325
Y14225
Y14125
T03
X06403Y12325
X0467185Y13625
X03293Y13946
X0498435Y13775
X0499685Y13575
T04
X0704685Y12575
Y12675
Y12775
T05
X0711968Y1359409
X0729685
Y1385
X0711968
Y1414409
X0729685
Y144
X0711968
T06
X0712185Y11875
Y11975
X0722185
Y11875
X0427185Y133
Y134
Y135
Y136
Y137
Y138
Y139
Y14
X0357185
Y139
Y138
Y137
Y136
Y135
Y134
Y133
X0647185Y14775
Y14875
X0684685Y1485
Y1475
Y1465
Y1495
Y1505
Y1515
X0427185Y152
Y151
Y15
Y149
Y148
Y147
Y146
Y145
Y144
Y143
Y142
Y141
X0357185
Y142
Y143
Y144
Y145
Y146
Y147
Y148
Y149
Y15
Y151
Y152
X0401122Y150813
Y145813
M30
