G04*
G04 #@! TF.GenerationSoftware,Altium Limited,CircuitStudio,1.5.2 (30)*
G04*
G04 Layer_Physical_Order=2*
G04 Layer_Color=16750950*
%FSLAX25Y25*%
%MOIN*%
G70*
G01*
G75*
%ADD11C,0.01000*%
%ADD13C,0.00800*%
%ADD14C,0.00600*%
%ADD18C,0.06500*%
%ADD27C,0.04000*%
%ADD28C,0.08000*%
%ADD29C,0.07800*%
G04:AMPARAMS|DCode=30|XSize=85mil|YSize=85mil|CornerRadius=0mil|HoleSize=0mil|Usage=FLASHONLY|Rotation=0.000|XOffset=0mil|YOffset=0mil|HoleType=Round|Shape=Relief|Width=10mil|Gap=10mil|Entries=4|*
%AMTHD30*
7,0,0,0.08500,0.06500,0.01000,45*
%
%ADD30THD30*%
%ADD31C,0.06000*%
G04:AMPARAMS|DCode=32|XSize=100mil|YSize=100mil|CornerRadius=0mil|HoleSize=0mil|Usage=FLASHONLY|Rotation=0.000|XOffset=0mil|YOffset=0mil|HoleType=Round|Shape=Relief|Width=10mil|Gap=10mil|Entries=4|*
%AMTHD32*
7,0,0,0.10000,0.08000,0.01000,45*
%
%ADD32THD32*%
%ADD33C,0.07937*%
G04:AMPARAMS|DCode=34|XSize=99.37mil|YSize=99.37mil|CornerRadius=0mil|HoleSize=0mil|Usage=FLASHONLY|Rotation=0.000|XOffset=0mil|YOffset=0mil|HoleType=Round|Shape=Relief|Width=10mil|Gap=10mil|Entries=4|*
%AMTHD34*
7,0,0,0.09937,0.07937,0.01000,45*
%
%ADD34THD34*%
%ADD35C,0.06800*%
G04:AMPARAMS|DCode=36|XSize=80mil|YSize=80mil|CornerRadius=0mil|HoleSize=0mil|Usage=FLASHONLY|Rotation=0.000|XOffset=0mil|YOffset=0mil|HoleType=Round|Shape=Relief|Width=10mil|Gap=10mil|Entries=4|*
%AMTHD36*
7,0,0,0.08000,0.06000,0.01000,45*
%
%ADD36THD36*%
D11*
X744626Y1118252D02*
Y1131063D01*
X272185Y1111378D02*
Y1120252D01*
X524400Y1119252D02*
X744626D01*
X272185D02*
X489211D01*
X738626Y1121252D02*
X744626Y1119252D01*
X738626Y1117252D02*
X744626Y1119252D01*
X272185D02*
X278185Y1117252D01*
X272185Y1119252D02*
X278185Y1121252D01*
X227878Y1528701D02*
X236752D01*
X213130Y1135000D02*
X229878D01*
X228878Y1347845D02*
Y1528701D01*
Y1135000D02*
Y1312656D01*
X226878Y1522701D02*
X228878Y1528701D01*
X230878Y1522701D01*
X228878Y1135000D02*
X230878Y1141000D01*
X226878D02*
X228878Y1135000D01*
X401000Y1167500D02*
X409000D01*
X401000Y1135000D02*
Y1167500D01*
X350000Y1135000D02*
X401000D01*
X409000D02*
Y1167500D01*
Y1135000D02*
X670000D01*
X272185Y1131063D02*
Y1138937D01*
X268248Y1135000D02*
X276122D01*
X349700D02*
X401000D01*
X409000D02*
Y1167500D01*
X401000Y1135000D02*
Y1167500D01*
X409000Y1135000D02*
X670300D01*
X674300Y1139000D02*
Y1167500D01*
X670300Y1135000D02*
X674300Y1139000D01*
X344937D02*
Y1167480D01*
Y1139000D02*
X348937Y1135000D01*
X349700D01*
X272185Y1167480D02*
Y1528701D01*
X744626D01*
Y1167500D02*
Y1528701D01*
X674300Y1167500D02*
X744449D01*
X272185Y1167480D02*
X344937D01*
D13*
X332912Y1091563D02*
X331662Y1092813D01*
X329163D01*
X327913Y1091563D01*
Y1086565D01*
X329163Y1085315D01*
X331662D01*
X332912Y1086565D01*
Y1089064D01*
X330413D01*
X335411Y1085315D02*
Y1092813D01*
X340409Y1085315D01*
Y1092813D01*
X342909D02*
Y1085315D01*
X346657D01*
X347907Y1086565D01*
Y1091563D01*
X346657Y1092813D01*
X342909D01*
X402500Y1160500D02*
X406499D01*
X402500Y1157834D01*
X406499D01*
X402500Y1155835D02*
Y1154502D01*
X403166Y1153835D01*
X404499D01*
X405166Y1154502D01*
Y1155835D01*
X404499Y1156501D01*
X403166D01*
X402500Y1155835D01*
X405832Y1151836D02*
X405166D01*
Y1152503D01*
Y1151170D01*
Y1151836D01*
X403166D01*
X402500Y1151170D01*
X405166Y1146504D02*
Y1148504D01*
X404499Y1149170D01*
X403166D01*
X402500Y1148504D01*
Y1146504D01*
X406499Y1145172D02*
X402500D01*
X404499D01*
X405166Y1144505D01*
Y1143172D01*
X404499Y1142506D01*
X402500D01*
D14*
X490811Y1115653D02*
X492810D01*
X491810D01*
Y1121651D01*
X490811Y1120651D01*
X499808Y1115653D02*
X495809D01*
X499808Y1119652D01*
Y1120651D01*
X498808Y1121651D01*
X496809D01*
X495809Y1120651D01*
X501807D02*
X502807Y1121651D01*
X504806D01*
X505806Y1120651D01*
Y1116653D01*
X504806Y1115653D01*
X502807D01*
X501807Y1116653D01*
Y1120651D01*
X507805Y1115653D02*
Y1116653D01*
X508805D01*
Y1115653D01*
X507805D01*
X512804Y1120651D02*
X513803Y1121651D01*
X515802D01*
X516802Y1120651D01*
Y1116653D01*
X515802Y1115653D01*
X513803D01*
X512804Y1116653D01*
Y1120651D01*
X518802D02*
X519801Y1121651D01*
X521801D01*
X522800Y1120651D01*
Y1116653D01*
X521801Y1115653D01*
X519801D01*
X518802Y1116653D01*
Y1120651D01*
X232477Y1314256D02*
Y1316255D01*
Y1315255D01*
X226479D01*
X227479Y1314256D01*
Y1319254D02*
X226479Y1320254D01*
Y1322253D01*
X227479Y1323253D01*
X231477D01*
X232477Y1322253D01*
Y1320254D01*
X231477Y1319254D01*
X227479D01*
Y1325252D02*
X226479Y1326252D01*
Y1328251D01*
X227479Y1329251D01*
X231477D01*
X232477Y1328251D01*
Y1326252D01*
X231477Y1325252D01*
X227479D01*
X232477Y1331250D02*
X231477D01*
Y1332250D01*
X232477D01*
Y1331250D01*
X227479Y1336248D02*
X226479Y1337248D01*
Y1339248D01*
X227479Y1340247D01*
X231477D01*
X232477Y1339248D01*
Y1337248D01*
X231477Y1336248D01*
X227479D01*
Y1342247D02*
X226479Y1343246D01*
Y1345245D01*
X227479Y1346245D01*
X231477D01*
X232477Y1345245D01*
Y1343246D01*
X231477Y1342247D01*
X227479D01*
D18*
X724685Y1215000D02*
D03*
Y1240000D02*
D03*
X380807Y1278189D02*
D03*
Y1303189D02*
D03*
X297185Y1382500D02*
D03*
X322185D02*
D03*
X321870Y1365000D02*
D03*
Y1517500D02*
D03*
X495000Y1512500D02*
D03*
X444685Y1510000D02*
D03*
X659685Y1514685D02*
D03*
X587500Y1512500D02*
D03*
X552185D02*
D03*
X577185D02*
D03*
X729685Y1339685D02*
D03*
X657500Y1320000D02*
D03*
X607500D02*
D03*
X557500D02*
D03*
X439370Y1307500D02*
D03*
X360807Y1278189D02*
D03*
Y1303189D02*
D03*
X567185Y1497500D02*
D03*
Y1487500D02*
D03*
Y1477500D02*
D03*
Y1467500D02*
D03*
Y1457500D02*
D03*
Y1447500D02*
D03*
Y1437500D02*
D03*
Y1427500D02*
D03*
Y1417500D02*
D03*
Y1407500D02*
D03*
Y1397500D02*
D03*
Y1387500D02*
D03*
Y1377500D02*
D03*
Y1367500D02*
D03*
Y1357500D02*
D03*
X627185Y1497500D02*
D03*
Y1487500D02*
D03*
Y1477500D02*
D03*
Y1467500D02*
D03*
Y1457500D02*
D03*
Y1447500D02*
D03*
Y1437500D02*
D03*
Y1427500D02*
D03*
Y1417500D02*
D03*
Y1407500D02*
D03*
Y1397500D02*
D03*
Y1387500D02*
D03*
Y1377500D02*
D03*
Y1367500D02*
D03*
Y1357500D02*
D03*
Y1347500D02*
D03*
X474685Y1497500D02*
D03*
Y1487500D02*
D03*
Y1477500D02*
D03*
Y1467500D02*
D03*
Y1457500D02*
D03*
Y1447500D02*
D03*
Y1437500D02*
D03*
Y1427500D02*
D03*
Y1417500D02*
D03*
Y1407500D02*
D03*
Y1397500D02*
D03*
Y1387500D02*
D03*
Y1377500D02*
D03*
Y1367500D02*
D03*
Y1357500D02*
D03*
X534685Y1497500D02*
D03*
Y1487500D02*
D03*
Y1477500D02*
D03*
Y1467500D02*
D03*
Y1457500D02*
D03*
Y1447500D02*
D03*
Y1437500D02*
D03*
Y1427500D02*
D03*
Y1417500D02*
D03*
Y1407500D02*
D03*
Y1397500D02*
D03*
Y1387500D02*
D03*
Y1377500D02*
D03*
Y1367500D02*
D03*
Y1357500D02*
D03*
Y1347500D02*
D03*
X602185Y1250000D02*
D03*
Y1260000D02*
D03*
Y1270000D02*
D03*
Y1280000D02*
D03*
Y1290000D02*
D03*
Y1300000D02*
D03*
X632185Y1240000D02*
D03*
Y1300000D02*
D03*
Y1290000D02*
D03*
Y1280000D02*
D03*
Y1270000D02*
D03*
Y1260000D02*
D03*
Y1250000D02*
D03*
X417185Y1230000D02*
D03*
Y1240000D02*
D03*
Y1250000D02*
D03*
Y1260000D02*
D03*
Y1270000D02*
D03*
Y1280000D02*
D03*
Y1290000D02*
D03*
X447185Y1270000D02*
D03*
Y1260000D02*
D03*
Y1250000D02*
D03*
Y1240000D02*
D03*
Y1230000D02*
D03*
Y1220000D02*
D03*
Y1290000D02*
D03*
X324685Y1307500D02*
D03*
Y1297500D02*
D03*
X294685Y1267500D02*
D03*
X324685Y1257500D02*
D03*
Y1267500D02*
D03*
Y1277500D02*
D03*
Y1287500D02*
D03*
X294685Y1277500D02*
D03*
Y1347500D02*
D03*
Y1337500D02*
D03*
Y1327500D02*
D03*
Y1317500D02*
D03*
Y1307500D02*
D03*
Y1297500D02*
D03*
Y1287500D02*
D03*
X324685Y1327500D02*
D03*
Y1317500D02*
D03*
Y1337500D02*
D03*
Y1347500D02*
D03*
X327185Y1462500D02*
D03*
Y1452500D02*
D03*
X297185Y1422500D02*
D03*
X327185Y1412500D02*
D03*
Y1422500D02*
D03*
Y1432500D02*
D03*
Y1442500D02*
D03*
X297185Y1432500D02*
D03*
Y1502500D02*
D03*
Y1492500D02*
D03*
Y1482500D02*
D03*
Y1472500D02*
D03*
Y1462500D02*
D03*
Y1452500D02*
D03*
Y1442500D02*
D03*
X327185Y1482500D02*
D03*
Y1472500D02*
D03*
Y1492500D02*
D03*
Y1502500D02*
D03*
X552185Y1250000D02*
D03*
Y1260000D02*
D03*
Y1270000D02*
D03*
Y1280000D02*
D03*
Y1290000D02*
D03*
Y1300000D02*
D03*
X582185Y1240000D02*
D03*
Y1300000D02*
D03*
Y1290000D02*
D03*
Y1280000D02*
D03*
Y1270000D02*
D03*
Y1260000D02*
D03*
Y1250000D02*
D03*
X652185D02*
D03*
Y1260000D02*
D03*
Y1270000D02*
D03*
Y1280000D02*
D03*
Y1290000D02*
D03*
Y1300000D02*
D03*
X682185Y1240000D02*
D03*
Y1300000D02*
D03*
Y1290000D02*
D03*
Y1280000D02*
D03*
Y1270000D02*
D03*
Y1260000D02*
D03*
Y1250000D02*
D03*
X309685Y1192500D02*
D03*
D27*
X348937Y1135000D02*
X401000D01*
Y1167500D01*
X409000D01*
Y1135000D02*
Y1167500D01*
Y1135000D02*
X670300D01*
X674300Y1139000D01*
Y1167500D01*
X744626D01*
Y1528701D01*
X272185D02*
X744626D01*
X272185Y1167480D02*
Y1528701D01*
Y1167480D02*
X344937D01*
Y1139000D02*
Y1167480D01*
Y1139000D02*
X348937Y1135000D01*
D28*
X401122Y1458130D02*
D03*
Y1508130D02*
D03*
X712185Y1197500D02*
D03*
Y1187500D02*
D03*
X722185Y1197500D02*
D03*
Y1187500D02*
D03*
X427185Y1520000D02*
D03*
Y1510000D02*
D03*
Y1490000D02*
D03*
Y1480000D02*
D03*
Y1470000D02*
D03*
Y1460000D02*
D03*
Y1440000D02*
D03*
Y1430000D02*
D03*
Y1420000D02*
D03*
Y1410000D02*
D03*
Y1390000D02*
D03*
Y1380000D02*
D03*
Y1370000D02*
D03*
Y1360000D02*
D03*
Y1340000D02*
D03*
Y1330000D02*
D03*
X357185D02*
D03*
Y1340000D02*
D03*
Y1360000D02*
D03*
Y1370000D02*
D03*
Y1380000D02*
D03*
Y1390000D02*
D03*
Y1410000D02*
D03*
Y1420000D02*
D03*
Y1430000D02*
D03*
Y1440000D02*
D03*
Y1460000D02*
D03*
Y1470000D02*
D03*
Y1480000D02*
D03*
Y1490000D02*
D03*
Y1510000D02*
D03*
Y1520000D02*
D03*
X684685Y1475000D02*
D03*
Y1485000D02*
D03*
Y1495000D02*
D03*
Y1505000D02*
D03*
Y1515000D02*
D03*
X647185Y1487500D02*
D03*
Y1477500D02*
D03*
D29*
X704685Y1277500D02*
D03*
Y1267500D02*
D03*
Y1257500D02*
D03*
D30*
X302185Y1365000D02*
D03*
Y1517500D02*
D03*
X514685Y1512500D02*
D03*
X450591Y1510000D02*
D03*
X659685Y1495000D02*
D03*
X607185Y1512500D02*
D03*
X729685Y1320000D02*
D03*
X677185D02*
D03*
X627185D02*
D03*
X577185D02*
D03*
X419685Y1307500D02*
D03*
X567185Y1347500D02*
D03*
X474685Y1347500D02*
D03*
X602185Y1240000D02*
D03*
X417185Y1220000D02*
D03*
X447185Y1280000D02*
D03*
X294685Y1257500D02*
D03*
X297185Y1412500D02*
D03*
X552185Y1240000D02*
D03*
X652185D02*
D03*
X315591Y1192500D02*
D03*
D31*
X360807Y1263189D02*
D03*
X370807D02*
D03*
X380807D02*
D03*
X344685Y1342500D02*
D03*
X332185Y1205000D02*
D03*
X349685Y1217500D02*
D03*
X609685Y1197500D02*
D03*
X624685D02*
D03*
X714685Y1285000D02*
D03*
X699685D02*
D03*
X647185Y1310000D02*
D03*
X612185Y1305000D02*
D03*
X652185Y1417500D02*
D03*
X647185Y1432500D02*
D03*
X642185Y1332500D02*
D03*
X512185Y1315000D02*
D03*
X582185Y1467500D02*
D03*
X452185Y1482500D02*
D03*
X457185Y1477500D02*
D03*
X429685Y1320000D02*
D03*
X399685D02*
D03*
X402185Y1410000D02*
D03*
X349685Y1295000D02*
D03*
X459685Y1195000D02*
D03*
X469685Y1332500D02*
D03*
X499685Y1237500D02*
D03*
Y1250000D02*
D03*
X612185Y1212500D02*
D03*
X575000Y1232500D02*
D03*
X370807Y1237500D02*
D03*
X557185Y1197500D02*
D03*
X572185Y1310000D02*
D03*
X562185D02*
D03*
X432185Y1262500D02*
D03*
X497185Y1402500D02*
D03*
X499685Y1285000D02*
D03*
X534685Y1222500D02*
D03*
X552185Y1447500D02*
D03*
X567185Y1290000D02*
D03*
X587185Y1222500D02*
D03*
X569685Y1177500D02*
D03*
X555600Y1178900D02*
D03*
X575000Y1184100D02*
D03*
X477800Y1191200D02*
D03*
X492400Y1190800D02*
D03*
X501200Y1191300D02*
D03*
X616400Y1323900D02*
D03*
X389685Y1240000D02*
D03*
Y1317500D02*
D03*
X449685Y1327500D02*
D03*
X397185Y1415000D02*
D03*
X387185Y1425000D02*
D03*
X379685Y1435000D02*
D03*
X382185Y1465000D02*
D03*
X374685Y1445000D02*
D03*
X397185Y1385000D02*
D03*
X392185Y1370000D02*
D03*
X387185Y1365000D02*
D03*
X382185Y1355000D02*
D03*
X372185Y1335000D02*
D03*
X377185Y1345000D02*
D03*
X417185Y1395000D02*
D03*
Y1385000D02*
D03*
Y1370000D02*
D03*
X447185Y1367500D02*
D03*
Y1375000D02*
D03*
Y1382500D02*
D03*
X437185Y1370000D02*
D03*
X344685Y1375000D02*
D03*
X337185Y1417500D02*
D03*
Y1427500D02*
D03*
Y1437500D02*
D03*
Y1447500D02*
D03*
Y1457500D02*
D03*
X324685Y1405000D02*
D03*
X369685D02*
D03*
X414685D02*
D03*
X412185Y1415000D02*
D03*
X407185Y1425000D02*
D03*
X580000Y1182500D02*
D03*
X550000D02*
D03*
X520000D02*
D03*
X510000D02*
D03*
X490000D02*
D03*
X480000D02*
D03*
X470000D02*
D03*
X460000D02*
D03*
X450000D02*
D03*
X440000D02*
D03*
X635000D02*
D03*
X595000D02*
D03*
X585000D02*
D03*
X545000D02*
D03*
X535000D02*
D03*
X495000D02*
D03*
X475000D02*
D03*
X455000D02*
D03*
X435000D02*
D03*
X425000D02*
D03*
X410000D02*
D03*
X380000D02*
D03*
X314685Y1247500D02*
D03*
Y1237500D02*
D03*
X317185Y1232500D02*
D03*
Y1222500D02*
D03*
X309685Y1395000D02*
D03*
X304685Y1335000D02*
D03*
Y1312500D02*
D03*
X404685Y1360000D02*
D03*
X347185Y1287500D02*
D03*
X337185D02*
D03*
X614685Y1492500D02*
D03*
X697185Y1475000D02*
D03*
X702185Y1495000D02*
D03*
X707185Y1485000D02*
D03*
X391122Y1180000D02*
D03*
X398622D02*
D03*
D32*
X427185Y1500000D02*
D03*
Y1450000D02*
D03*
Y1400000D02*
D03*
Y1350000D02*
D03*
X357185D02*
D03*
Y1400000D02*
D03*
Y1450000D02*
D03*
Y1500000D02*
D03*
X684685Y1465000D02*
D03*
D33*
X711968Y1440000D02*
D03*
Y1414409D02*
D03*
X729685Y1385000D02*
D03*
Y1359409D02*
D03*
D34*
Y1440000D02*
D03*
Y1414409D02*
D03*
X711968Y1385000D02*
D03*
Y1359409D02*
D03*
D35*
X467185Y1362500D02*
D03*
X499685Y1357500D02*
D03*
X498435Y1377500D02*
D03*
X640300Y1232500D02*
D03*
X329300Y1394600D02*
D03*
D36*
X665000Y1180000D02*
D03*
Y1172500D02*
D03*
X418937Y1177500D02*
D03*
X355000Y1172500D02*
D03*
Y1180000D02*
D03*
M02*
