G04*
G04 #@! TF.GenerationSoftware,Altium Limited,CircuitStudio,1.5.2 (30)*
G04*
G04 Layer_Physical_Order=1*
G04 Layer_Color=255*
%FSLAX25Y25*%
%MOIN*%
G70*
G01*
G75*
%ADD10R,0.06500X0.32500*%
%ADD11C,0.01000*%
%ADD12C,0.05000*%
%ADD13C,0.00800*%
%ADD14C,0.00600*%
%ADD15C,0.07000*%
%ADD16C,0.04000*%
%ADD17R,0.06500X0.06500*%
%ADD18C,0.06500*%
%ADD19R,0.04000X0.04000*%
%ADD20R,0.10000X0.05000*%
%ADD21O,0.10000X0.05000*%
%ADD22R,0.07000X0.07000*%
%ADD23C,0.05906*%
%ADD24C,0.06300*%
%ADD25R,0.06300X0.06300*%
%ADD26C,0.05000*%
D10*
X395000Y1152500D02*
D03*
X665000D02*
D03*
X655000D02*
D03*
X645000D02*
D03*
X635000D02*
D03*
X355000D02*
D03*
X365000D02*
D03*
X375000D02*
D03*
X385000D02*
D03*
X415000D02*
D03*
X425000D02*
D03*
X435000D02*
D03*
X445000D02*
D03*
X455000D02*
D03*
X465000D02*
D03*
X475000D02*
D03*
X485000D02*
D03*
X495000D02*
D03*
X505000D02*
D03*
X515000D02*
D03*
X525000D02*
D03*
X535000D02*
D03*
X545000D02*
D03*
X555000D02*
D03*
X565000D02*
D03*
X575000D02*
D03*
X585000D02*
D03*
X595000D02*
D03*
X605000D02*
D03*
X615000D02*
D03*
X625000D02*
D03*
D11*
X365400Y1329800D02*
Y1341785D01*
X362185Y1345000D02*
X365400Y1341785D01*
X347185Y1345000D02*
X362185D01*
X344685Y1342500D02*
X347185Y1345000D01*
X309685Y1212500D02*
X342185D01*
X304685Y1217500D02*
X309685Y1212500D01*
X304685Y1217500D02*
Y1232500D01*
X342185Y1212500D02*
X347185Y1207500D01*
X349685Y1215000D02*
Y1217500D01*
Y1215000D02*
X354685Y1210000D01*
X607185D01*
X332185Y1205000D02*
X509685D01*
X347185Y1207500D02*
X587185D01*
X607185Y1210000D02*
X615000Y1202185D01*
X364685Y1212500D02*
X612185D01*
X354685Y1222500D02*
X364685Y1212500D01*
X317185Y1222500D02*
X354685D01*
X587185Y1207500D02*
X597185Y1197500D01*
X609685D01*
X625000Y1152500D02*
Y1197185D01*
X297185Y1200000D02*
X434685D01*
X286900Y1210285D02*
X297185Y1200000D01*
X286900Y1210285D02*
Y1332215D01*
X440000Y1182500D02*
Y1194685D01*
X434685Y1200000D02*
X440000Y1194685D01*
X294685Y1277500D02*
X302185D01*
X304685Y1275000D01*
Y1232500D02*
Y1275000D01*
X317185Y1360000D02*
Y1485000D01*
Y1300000D02*
Y1327500D01*
X312185Y1355000D02*
X317185Y1360000D01*
X312185Y1332500D02*
Y1355000D01*
Y1332500D02*
X317185Y1327500D01*
X314685Y1362500D02*
Y1492500D01*
Y1280000D02*
Y1325000D01*
X309685Y1357500D02*
X314685Y1362500D01*
X309685Y1330000D02*
Y1357500D01*
Y1330000D02*
X314685Y1325000D01*
X604685Y1222500D02*
X704685D01*
X714685Y1232500D01*
Y1285000D01*
X527185Y1305000D02*
X612185D01*
X682185Y1260000D02*
X689685D01*
X697185Y1267500D01*
X704685D01*
X697185Y1310000D02*
X704685Y1302500D01*
Y1277500D02*
Y1302500D01*
X632185Y1310000D02*
X697185D01*
X734685Y1190000D02*
Y1202500D01*
X732185Y1205000D02*
X734685Y1202500D01*
X702185Y1205000D02*
X732185D01*
X722185Y1187500D02*
X732185D01*
X734685Y1190000D01*
X692185Y1195000D02*
X702185Y1205000D01*
X637185Y1195000D02*
X692185D01*
X614685Y1217500D02*
X637185Y1195000D01*
X607185Y1217500D02*
X614685D01*
X712185Y1187500D02*
X722185Y1197500D01*
X640000Y1187500D02*
X712185D01*
X635000Y1182500D02*
X640000Y1187500D01*
X637185Y1417500D02*
X652185D01*
X612185Y1432500D02*
X647185D01*
X497185Y1332500D02*
X642185D01*
X512185Y1315000D02*
X712185D01*
X582185Y1467500D02*
X627185D01*
X559685Y1477500D02*
X567185D01*
X549685Y1487500D02*
X559685Y1477500D01*
X534685Y1487500D02*
X549685D01*
X514685D02*
X534685D01*
X509685Y1482500D02*
X514685Y1487500D01*
X452185Y1482500D02*
X509685D01*
X457185Y1477500D02*
X474685D01*
X524685Y1227500D02*
X657185D01*
X507185Y1245000D02*
X524685Y1227500D01*
X357185Y1245000D02*
X507185D01*
X504685Y1217500D02*
X599685D01*
X499685Y1222500D02*
X504685Y1217500D01*
X499685Y1222500D02*
Y1237500D01*
X489685Y1215000D02*
X604685D01*
X479685Y1225000D02*
X489685Y1215000D01*
X374685Y1225000D02*
X479685D01*
X399685Y1320000D02*
X429685D01*
X402185Y1410000D02*
X427185D01*
X349685Y1295000D02*
X382185D01*
X387185Y1290000D01*
X404685D01*
X442185Y1362500D02*
X492185D01*
X459685Y1187815D02*
X465000Y1182500D01*
X459685Y1187815D02*
Y1195000D01*
X489700Y1332500D02*
X494700Y1337500D01*
X444685Y1332500D02*
X489700D01*
X644685Y1260000D02*
X652185D01*
X642185Y1257500D02*
X644685Y1260000D01*
X642185Y1250000D02*
Y1257500D01*
X489685Y1340000D02*
X499685Y1350000D01*
X442185Y1340000D02*
X489685D01*
X437185Y1345000D02*
X442185Y1340000D01*
X499685Y1350000D02*
Y1357500D01*
X498900Y1357500D02*
X509685D01*
X514685Y1337500D02*
X524685Y1347500D01*
X494700Y1337500D02*
X514685D01*
X524685Y1347500D02*
X534685D01*
X674685Y1240000D02*
X682185D01*
X669685Y1245000D02*
X674685Y1240000D01*
X669685Y1245000D02*
Y1260000D01*
X619685Y1285000D02*
X638500D01*
X609685Y1295000D02*
X619685Y1285000D01*
X529685Y1295000D02*
X609685D01*
X664685Y1265000D02*
X669685Y1260000D01*
X595700Y1265000D02*
X664685D01*
X510000Y1182500D02*
Y1189685D01*
X508385Y1191300D02*
X510000Y1189685D01*
X501200Y1191300D02*
X508385D01*
X327185Y1250000D02*
X389685D01*
X324685Y1247500D02*
X327185Y1250000D01*
X314685Y1247500D02*
X324685D01*
X370807Y1228878D02*
X374685Y1225000D01*
X370807Y1228878D02*
Y1237500D01*
X344685Y1232500D02*
X357185Y1245000D01*
X317185Y1232500D02*
X344685D01*
X729685Y1332500D02*
Y1339685D01*
X712185Y1315000D02*
X729685Y1332500D01*
X597185Y1285000D02*
X602185Y1290000D01*
X569685Y1285000D02*
X597185D01*
X564685Y1280000D02*
X569685Y1285000D01*
X552185Y1280000D02*
X564685D01*
X580000Y1182500D02*
Y1192185D01*
X574685Y1197500D02*
X580000Y1192185D01*
X557185Y1197500D02*
X574685D01*
X669685Y1285000D02*
X699685D01*
X664685Y1290000D02*
X669685Y1285000D01*
X652185Y1290000D02*
X664685D01*
X599685Y1217500D02*
X604685Y1222500D01*
Y1215000D02*
X607185Y1217500D01*
X638500Y1285000D02*
X643100Y1289600D01*
X637185Y1245000D02*
X642185Y1250000D01*
X587185Y1245000D02*
X637185D01*
X494685Y1255000D02*
X499685Y1250000D01*
X437185Y1255000D02*
X494685D01*
X659685Y1250000D02*
X662185Y1247500D01*
Y1232500D02*
Y1247500D01*
X657185Y1227500D02*
X662185Y1232500D01*
X542185Y1270000D02*
X552185D01*
X574685D02*
X582185D01*
X552185Y1260000D02*
X564685D01*
X574685Y1270000D01*
X537185Y1265000D02*
X542185Y1270000D01*
X537185Y1237500D02*
Y1265000D01*
Y1237500D02*
X542185Y1232500D01*
X575000D01*
X519685Y1285000D02*
X529685Y1295000D01*
X499685Y1285000D02*
X519685D01*
X309685Y1242500D02*
X314685Y1237500D01*
X389685Y1250000D02*
X399685Y1260000D01*
Y1276385D01*
X408300Y1285000D01*
X424685D01*
X562185Y1310000D02*
X572185D01*
X429685Y1260000D02*
X432185Y1262500D01*
X417185Y1260000D02*
X429685D01*
X498900Y1357500D02*
X499685D01*
X498900Y1357500D02*
X498900Y1357500D01*
X428800Y1280000D02*
X433800Y1285000D01*
X499685D01*
X492185Y1372500D02*
X497185Y1377500D01*
X534685Y1222500D02*
X587185D01*
X552185Y1290000D02*
X567185D01*
X624685Y1302500D02*
X632185Y1310000D01*
X624685Y1292500D02*
Y1302500D01*
Y1292500D02*
X627185Y1290000D01*
X432185Y1250000D02*
X437185Y1255000D01*
X582185Y1250000D02*
X587185Y1245000D01*
X627185Y1290000D02*
X632185D01*
X493585Y1323900D02*
X616400D01*
X489685Y1320000D02*
X493585Y1323900D01*
X469685Y1320000D02*
X489685D01*
X487585Y1322900D02*
X497185Y1332500D01*
X473500Y1322900D02*
X487585D01*
X442185Y1335000D02*
X444685Y1332500D01*
X372185Y1335000D02*
X442185D01*
X465785Y1323900D02*
X469685Y1320000D01*
X371300Y1323900D02*
X465785D01*
X662200Y1275000D02*
X667200Y1280000D01*
X619685Y1275000D02*
X662200D01*
X614685Y1270000D02*
X619685Y1275000D01*
X602100Y1270000D02*
X614685D01*
X517385Y1295200D02*
X527185Y1305000D01*
X434885Y1295200D02*
X517385D01*
X424685Y1285000D02*
X434885Y1295200D01*
X594685Y1260000D02*
X602185D01*
X589685Y1255000D02*
X594685Y1260000D01*
X565600Y1255000D02*
X589685D01*
X560600Y1250000D02*
X565600Y1255000D01*
X584685Y1232500D02*
X640300D01*
X582185Y1235000D02*
X584685Y1232500D01*
X582185Y1235000D02*
Y1240000D01*
X652185Y1250000D02*
X659685D01*
X492400Y1190800D02*
Y1197285D01*
X487185Y1202500D02*
X492400Y1197285D01*
X449685Y1202500D02*
X487185D01*
X445000Y1197815D02*
X449685Y1202500D01*
X445000Y1182500D02*
Y1197815D01*
X477800Y1191200D02*
Y1196885D01*
X474685Y1200000D02*
X477800Y1196885D01*
X454685Y1200000D02*
X474685D01*
X450000Y1195315D02*
X454685Y1200000D01*
X450000Y1182500D02*
Y1195315D01*
X509685Y1205000D02*
X515000Y1199685D01*
X555600Y1178900D02*
X568285D01*
X569685Y1177500D01*
X309685Y1242500D02*
Y1315000D01*
X497185Y1377500D02*
X534685D01*
X643100Y1289600D02*
Y1296700D01*
X646400Y1300000D01*
X652185D01*
X417185Y1280000D02*
X428800D01*
X417185Y1250000D02*
X432185D01*
X286900Y1332215D02*
X292185Y1337500D01*
X573300Y1185800D02*
X575000Y1184100D01*
X528300Y1185800D02*
X573300D01*
X525000Y1182500D02*
X528300Y1185800D01*
X590700Y1270000D02*
X595700Y1265000D01*
X582185Y1270000D02*
X590700D01*
X449685Y1327500D02*
X468900D01*
X473500Y1322900D01*
X365400Y1329800D02*
X371300Y1323900D01*
X329300Y1394600D02*
X361800D01*
X366400Y1390000D01*
X427185D01*
X667200Y1280000D02*
X682185D01*
X552185Y1250000D02*
X560600D01*
X684685Y1475000D02*
X697185D01*
X582185Y1280000D02*
X602185D01*
X404685Y1290000D02*
X417185D01*
X389685Y1240000D02*
X417185D01*
X362185Y1320000D02*
X387185D01*
X389685Y1317500D01*
X339685Y1415000D02*
X397185D01*
X337185Y1417500D02*
X339685Y1415000D01*
Y1425000D02*
X387185D01*
X339685Y1435000D02*
X379685D01*
X339685Y1445000D02*
X374685D01*
X397185Y1385000D02*
X417185D01*
X412185Y1395000D02*
X417185D01*
X402185Y1405000D02*
X412185Y1395000D01*
X369685Y1405000D02*
X402185D01*
X392185Y1370000D02*
X417185D01*
X387185Y1365000D02*
X439685D01*
X382185Y1355000D02*
X462185D01*
X377185Y1345000D02*
X437185D01*
X357185Y1325000D02*
X362185Y1320000D01*
X357185Y1325000D02*
Y1330000D01*
X447185Y1367500D02*
X474685D01*
X474685Y1367500D01*
X447185Y1375000D02*
X457185D01*
X459685Y1372500D01*
X492185D01*
X447185Y1382500D02*
X492185D01*
X497185Y1387500D01*
X534685D01*
X439685Y1365000D02*
X442185Y1362500D01*
X492185D02*
X497185Y1367500D01*
X534685D01*
X462185Y1355000D02*
X464685Y1357500D01*
X474685D01*
X509685D02*
X534685D01*
X349685Y1465000D02*
X382185D01*
X342185Y1457500D02*
X349685Y1465000D01*
X337185Y1457500D02*
X342185D01*
X337185Y1427500D02*
X339685Y1425000D01*
X337185Y1437500D02*
X339685Y1435000D01*
X337185Y1447500D02*
X339685Y1445000D01*
X324685Y1405000D02*
X369685D01*
X404685Y1360000D02*
X427185D01*
X414685Y1405000D02*
X444685D01*
X412185Y1415000D02*
X444685D01*
X407185Y1425000D02*
X442185D01*
X342185Y1260000D02*
Y1332500D01*
X339685Y1257500D02*
X342185Y1260000D01*
Y1332500D02*
X349685Y1340000D01*
X357185D01*
X442185Y1432500D02*
Y1500000D01*
X439685Y1430000D02*
X442185Y1432500D01*
X427185Y1430000D02*
X439685D01*
X444685Y1427500D02*
Y1492500D01*
X442185Y1425000D02*
X444685Y1427500D01*
X447185Y1417500D02*
Y1482500D01*
X444685Y1415000D02*
X447185Y1417500D01*
X449685Y1410000D02*
Y1467500D01*
X444685Y1405000D02*
X449685Y1410000D01*
X344685Y1375000D02*
X434685D01*
X447185Y1387500D01*
X474685D01*
X627185Y1417500D02*
X637185D01*
X607185Y1427500D02*
X612185Y1432500D01*
X567185Y1427500D02*
X607185D01*
X635000Y1152500D02*
Y1182500D01*
X615000Y1152500D02*
Y1202185D01*
X595000Y1152500D02*
Y1182500D01*
X585000Y1152500D02*
Y1182500D01*
X545000Y1152500D02*
Y1182500D01*
X535000Y1152500D02*
Y1182500D01*
X525000Y1152500D02*
Y1182500D01*
X515000Y1152500D02*
Y1199685D01*
X495000Y1152500D02*
Y1182500D01*
X475000Y1152500D02*
Y1182500D01*
X465000Y1152500D02*
Y1182500D01*
X455000Y1152500D02*
Y1182500D01*
X445000Y1152500D02*
Y1182500D01*
X435000Y1152500D02*
Y1182500D01*
X425000Y1152500D02*
Y1182500D01*
X410000D02*
X415000Y1177500D01*
Y1152500D02*
Y1177500D01*
X380000Y1182500D02*
X385000Y1177500D01*
Y1152500D02*
Y1177500D01*
X312185Y1250000D02*
X314685Y1247500D01*
X312185Y1250000D02*
Y1322500D01*
X427185Y1370000D02*
X437185D01*
X367185Y1497500D02*
Y1517500D01*
X364685Y1495000D02*
X367185Y1497500D01*
X342185Y1495000D02*
X364685D01*
X309685Y1362500D02*
Y1395000D01*
X304685Y1357500D02*
X309685Y1362500D01*
X304685Y1335000D02*
Y1357500D01*
X292185Y1337500D02*
X294685D01*
X307185Y1327500D02*
X312185Y1322500D01*
X294685Y1327500D02*
X307185D01*
X304685Y1300000D02*
Y1312500D01*
X302185Y1297500D02*
X304685Y1300000D01*
X294685Y1297500D02*
X302185D01*
X449685Y1467500D02*
X454685Y1472500D01*
X492185D01*
X497185Y1477500D01*
X534685D01*
X447185Y1482500D02*
X452185Y1487500D01*
X474685D01*
X444685Y1492500D02*
X449685Y1497500D01*
X474685D01*
X307185Y1317500D02*
X309685Y1315000D01*
X294685Y1317500D02*
X307185D01*
X314685Y1492500D02*
X319685Y1497500D01*
X314685Y1280000D02*
X317185Y1277500D01*
Y1485000D02*
X319685Y1487500D01*
X317185Y1300000D02*
X319685Y1297500D01*
X324685D01*
X380807Y1263189D02*
X382874D01*
X387185Y1267500D01*
Y1280000D01*
X379685Y1287500D02*
X387185Y1280000D01*
X347185Y1287500D02*
X379685D01*
X372874Y1278189D02*
X380807D01*
X370807Y1276122D02*
X372874Y1278189D01*
X370807Y1263189D02*
Y1276122D01*
X360807Y1263189D02*
Y1278189D01*
X324685Y1287500D02*
X337185D01*
X324685Y1257500D02*
X339685D01*
X317185Y1277500D02*
X324685D01*
X319685Y1497500D02*
X332185D01*
X344685Y1510000D01*
X357185D01*
Y1520000D02*
X364685D01*
X367185Y1517500D01*
X334685Y1487500D02*
X342185Y1495000D01*
X369685Y1492500D02*
Y1512500D01*
X367185Y1490000D02*
X369685Y1492500D01*
X357185Y1490000D02*
X367185D01*
X379685Y1497500D02*
X384685Y1502500D01*
X379685Y1477500D02*
Y1497500D01*
X372185Y1470000D02*
X379685Y1477500D01*
X369685Y1512500D02*
X382185Y1525000D01*
X692185D01*
X374685Y1485000D02*
Y1510000D01*
X369685Y1480000D02*
X374685Y1485000D01*
X357185Y1480000D02*
X369685D01*
X379685Y1515000D02*
X432185D01*
X374685Y1510000D02*
X379685Y1515000D01*
X357185Y1470000D02*
X372185D01*
X384685Y1502500D02*
X409685D01*
X319685Y1487500D02*
X334685D01*
X344685Y1360000D02*
X357185D01*
X339685Y1355000D02*
X344685Y1360000D01*
X339685Y1315000D02*
Y1355000D01*
X332185Y1307500D02*
X339685Y1315000D01*
X324685Y1307500D02*
X332185D01*
X342185Y1380000D02*
X357185D01*
X337185Y1375000D02*
X342185Y1380000D01*
X337185Y1322500D02*
Y1375000D01*
X332185Y1317500D02*
X337185Y1322500D01*
X324685Y1317500D02*
X332185D01*
X342185Y1390000D02*
X357185D01*
X334685Y1382500D02*
X342185Y1390000D01*
X334685Y1330000D02*
Y1382500D01*
X332185Y1327500D02*
X334685Y1330000D01*
X324685Y1327500D02*
X332185D01*
X294685Y1380000D02*
X297185Y1382500D01*
X294685Y1347500D02*
Y1380000D01*
X584685Y1492500D02*
X614685D01*
X572185Y1505000D02*
X584685Y1492500D01*
X447185Y1505000D02*
X572185D01*
X442185Y1500000D02*
X447185Y1505000D01*
X427185Y1380000D02*
X434685D01*
X447185Y1392500D01*
X492185D01*
X497185Y1397500D01*
X534685D01*
X707185Y1485000D02*
Y1510000D01*
X692185Y1525000D02*
X707185Y1510000D01*
X702185Y1495000D02*
Y1507500D01*
X687185Y1522500D02*
X702185Y1507500D01*
X439685Y1522500D02*
X687185D01*
X697185Y1475000D02*
Y1505000D01*
X692185Y1510000D02*
X697185Y1505000D01*
X674685Y1510000D02*
X692185D01*
X664685Y1520000D02*
X674685Y1510000D01*
X442185Y1520000D02*
X664685D01*
X437185Y1515000D02*
X442185Y1520000D01*
X437185Y1510000D02*
Y1515000D01*
X432185Y1505000D02*
X437185Y1510000D01*
X412185Y1505000D02*
X432185D01*
X409685Y1502500D02*
X412185Y1505000D01*
X432185Y1515000D02*
X439685Y1522500D01*
X444685Y1517500D02*
X644685D01*
X439685Y1512500D02*
X444685Y1517500D01*
X644685D02*
X657185Y1505000D01*
X684685D01*
X439685Y1462500D02*
Y1512500D01*
X437185Y1460000D02*
X439685Y1462500D01*
X427185Y1460000D02*
X437185D01*
X474685Y1357500D02*
X492185D01*
X557185Y1362500D02*
X607185D01*
X534685Y1377500D02*
X552185D01*
X557185Y1462500D02*
X644685D01*
X534685Y1467500D02*
X552185D01*
X349685Y1490000D02*
X357185D01*
X474685Y1487500D02*
X492185D01*
X497185Y1492500D01*
X552185D01*
X557185Y1487500D01*
X567185D01*
X557185Y1467500D02*
X567185D01*
X552185Y1472500D02*
X557185Y1467500D01*
X497185Y1472500D02*
X552185D01*
X492185Y1467500D02*
X497185Y1472500D01*
X474685Y1467500D02*
X492185D01*
X557185Y1457500D02*
X567185D01*
X552185Y1462500D02*
X557185Y1457500D01*
X497185Y1462500D02*
X552185D01*
X492185Y1457500D02*
X497185Y1462500D01*
X474685Y1457500D02*
X492185D01*
X557185Y1447500D02*
X567185D01*
X552185Y1452500D02*
X557185Y1447500D01*
X497185Y1452500D02*
X552185D01*
X492185Y1447500D02*
X497185Y1452500D01*
X474685Y1447500D02*
X492185D01*
X557185Y1437500D02*
X567185D01*
X552185Y1442500D02*
X557185Y1437500D01*
X497185Y1442500D02*
X552185D01*
X492185Y1437500D02*
X497185Y1442500D01*
X474685Y1437500D02*
X492185D01*
X557185Y1427500D02*
X567185D01*
X552185Y1432500D02*
X557185Y1427500D01*
X497185Y1432500D02*
X552185D01*
X492185Y1427500D02*
X497185Y1432500D01*
X474685Y1427500D02*
X492185D01*
X557185Y1417500D02*
X567185D01*
X552185Y1422500D02*
X557185Y1417500D01*
X497185Y1422500D02*
X552185D01*
X492185Y1417500D02*
X497185Y1422500D01*
X474685Y1417500D02*
X492185D01*
X557185Y1407500D02*
X567185D01*
X552185Y1412500D02*
X557185Y1407500D01*
X497185Y1412500D02*
X552185D01*
X492185Y1407500D02*
X497185Y1412500D01*
X474685Y1407500D02*
X492185D01*
X557185Y1397500D02*
X567185D01*
X552185Y1402500D02*
X557185Y1397500D01*
X492185D02*
X497185Y1402500D01*
X557185Y1387500D02*
X567185D01*
X552185Y1392500D02*
X557185Y1387500D01*
X497185Y1392500D02*
X552185D01*
X492185Y1387500D02*
X497185Y1392500D01*
X557185Y1377500D02*
X567185D01*
X552185Y1382500D02*
X557185Y1377500D01*
X497185Y1382500D02*
X552185D01*
X492185Y1377500D02*
X497185Y1382500D01*
X474685Y1377500D02*
X492185D01*
X557185Y1367500D02*
X567185D01*
X552185Y1372500D02*
X557185Y1367500D01*
X497185Y1372500D02*
X552185D01*
X492185Y1367500D02*
X497185Y1372500D01*
X474685Y1367500D02*
X492185D01*
X557185Y1357500D02*
X567185D01*
X552185Y1362500D02*
X557185Y1357500D01*
X497185Y1362500D02*
X552185D01*
X492185Y1357500D02*
X497185Y1362500D01*
X557185Y1497500D02*
X567185D01*
X552185Y1502500D02*
X557185Y1497500D01*
X497185Y1502500D02*
X552185D01*
X492185Y1497500D02*
X497185Y1502500D01*
X474685Y1497500D02*
X492185D01*
X534685Y1367500D02*
X552185D01*
X557185Y1362500D01*
X607185D02*
X612185Y1367500D01*
X627185D01*
X612185Y1357500D02*
X627185D01*
X607185Y1352500D02*
X612185Y1357500D01*
X557185Y1352500D02*
X607185D01*
X552185Y1357500D02*
X557185Y1352500D01*
X534685Y1357500D02*
X552185D01*
X612185Y1347500D02*
X627185D01*
X607185Y1342500D02*
X612185Y1347500D01*
X557185Y1342500D02*
X607185D01*
X552185Y1347500D02*
X557185Y1342500D01*
X534685Y1347500D02*
X552185D01*
X612185Y1377500D02*
X627185D01*
X607185Y1372500D02*
X612185Y1377500D01*
X557185Y1372500D02*
X607185D01*
X552185Y1377500D02*
X557185Y1372500D01*
X612185Y1387500D02*
X627185D01*
X607185Y1382500D02*
X612185Y1387500D01*
X557185Y1382500D02*
X607185D01*
X552185Y1387500D02*
X557185Y1382500D01*
X534685Y1387500D02*
X552185D01*
X612185Y1407500D02*
X627185D01*
X607185Y1402500D02*
X612185Y1407500D01*
X557185Y1402500D02*
X607185D01*
X552185Y1407500D02*
X557185Y1402500D01*
X534685Y1407500D02*
X552185D01*
X612185Y1417500D02*
X627185D01*
X607185Y1412500D02*
X612185Y1417500D01*
X557185Y1412500D02*
X607185D01*
X552185Y1417500D02*
X557185Y1412500D01*
X534685Y1417500D02*
X552185D01*
X612185Y1427500D02*
X627185D01*
X607185Y1422500D02*
X612185Y1427500D01*
X557185Y1422500D02*
X607185D01*
X552185Y1427500D02*
X557185Y1422500D01*
X534685Y1427500D02*
X552185D01*
X612185Y1437500D02*
X627185D01*
X607185Y1432500D02*
X612185Y1437500D01*
X557185Y1432500D02*
X607185D01*
X552185Y1437500D02*
X557185Y1432500D01*
X534685Y1437500D02*
X552185D01*
X612185Y1447500D02*
X627185D01*
X607185Y1442500D02*
X612185Y1447500D01*
X557185Y1442500D02*
X607185D01*
X552185Y1447500D02*
X557185Y1442500D01*
X534685Y1447500D02*
X552185D01*
X612185Y1457500D02*
X627185D01*
X607185Y1452500D02*
X612185Y1457500D01*
X557185Y1452500D02*
X607185D01*
X552185Y1457500D02*
X557185Y1452500D01*
X534685Y1457500D02*
X552185D01*
X612185Y1477500D02*
X627185D01*
X607185Y1472500D02*
X612185Y1477500D01*
X557185Y1472500D02*
X607185D01*
X552185Y1477500D02*
X557185Y1472500D01*
X534685Y1477500D02*
X552185D01*
X577185Y1505000D02*
Y1512500D01*
Y1505000D02*
X579685Y1502500D01*
X634685D01*
X637185Y1500000D01*
Y1487500D02*
Y1500000D01*
X627185Y1487500D02*
X637185D01*
X647185D01*
X552185Y1467500D02*
X557185Y1462500D01*
X644685D02*
X647185Y1465000D01*
Y1477500D01*
X474685Y1397500D02*
X492185D01*
X497185Y1402500D02*
X552185D01*
X327185Y1482500D02*
X342185D01*
X349685Y1490000D01*
Y1480000D02*
X357185D01*
X342185Y1472500D02*
X349685Y1480000D01*
X327185Y1472500D02*
X342185D01*
X349685Y1470000D02*
X357185D01*
X342185Y1462500D02*
X349685Y1470000D01*
X327185Y1462500D02*
X342185D01*
X349685Y1460000D02*
X357185D01*
X342185Y1452500D02*
X349685Y1460000D01*
X327185Y1452500D02*
X342185D01*
X327185Y1442500D02*
X337185D01*
X339685Y1440000D01*
X357185D01*
X339685Y1430000D02*
X357185D01*
X337185Y1432500D02*
X339685Y1430000D01*
X327185Y1432500D02*
X337185D01*
X339685Y1420000D02*
X357185D01*
X337185Y1422500D02*
X339685Y1420000D01*
X327185Y1422500D02*
X337185D01*
X339685Y1410000D02*
X357185D01*
X337185Y1412500D02*
X339685Y1410000D01*
X327185Y1412500D02*
X337185D01*
X474685Y1387500D02*
X492185D01*
X744626Y1118252D02*
Y1131063D01*
X272185Y1111378D02*
Y1120252D01*
X524400Y1119252D02*
X744626D01*
X272185D02*
X489211D01*
X738626Y1121252D02*
X744626Y1119252D01*
X738626Y1117252D02*
X744626Y1119252D01*
X272185D02*
X278185Y1117252D01*
X272185Y1119252D02*
X278185Y1121252D01*
X227878Y1528701D02*
X236752D01*
X213130Y1135000D02*
X229878D01*
X228878Y1347845D02*
Y1528701D01*
Y1135000D02*
Y1312656D01*
X226878Y1522701D02*
X228878Y1528701D01*
X230878Y1522701D01*
X228878Y1135000D02*
X230878Y1141000D01*
X226878D02*
X228878Y1135000D01*
X401000Y1167500D02*
X409000D01*
X401000Y1135000D02*
Y1167500D01*
X350000Y1135000D02*
X401000D01*
X409000D02*
Y1167500D01*
Y1135000D02*
X670000D01*
X272185Y1131063D02*
Y1138937D01*
X268248Y1135000D02*
X276122D01*
X349700D02*
X401000D01*
X409000D02*
Y1167500D01*
X401000Y1135000D02*
Y1167500D01*
X409000Y1135000D02*
X670300D01*
X674300Y1139000D02*
Y1167500D01*
X670300Y1135000D02*
X674300Y1139000D01*
X344937D02*
Y1167480D01*
Y1139000D02*
X348937Y1135000D01*
X349700D01*
X272185Y1167480D02*
Y1528701D01*
X744626D01*
Y1167500D02*
Y1528701D01*
X674300Y1167500D02*
X744449D01*
X272185Y1167480D02*
X344937D01*
D12*
X665000Y1152500D02*
Y1172500D01*
X355000D02*
Y1180000D01*
X665000Y1172500D02*
Y1180000D01*
X355000Y1152500D02*
Y1172500D01*
D13*
X327913Y1092813D02*
X332912D01*
X330413D01*
Y1085315D01*
X336661D02*
X339160D01*
X340409Y1086565D01*
Y1089064D01*
X339160Y1090313D01*
X336661D01*
X335411Y1089064D01*
Y1086565D01*
X336661Y1085315D01*
X342909Y1082816D02*
Y1090313D01*
X346657D01*
X347907Y1089064D01*
Y1086565D01*
X346657Y1085315D01*
X342909D01*
X357904Y1092813D02*
Y1085315D01*
X362902D01*
X366651Y1090313D02*
X369150D01*
X370400Y1089064D01*
Y1085315D01*
X366651D01*
X365401Y1086565D01*
X366651Y1087814D01*
X370400D01*
X372899Y1090313D02*
Y1086565D01*
X374149Y1085315D01*
X377897D01*
Y1084065D01*
X376648Y1082816D01*
X375398D01*
X377897Y1085315D02*
Y1090313D01*
X384145Y1085315D02*
X381646D01*
X380396Y1086565D01*
Y1089064D01*
X381646Y1090313D01*
X384145D01*
X385395Y1089064D01*
Y1087814D01*
X380396D01*
X387894Y1090313D02*
Y1085315D01*
Y1087814D01*
X389144Y1089064D01*
X390393Y1090313D01*
X391643D01*
X402500Y1160500D02*
X406499D01*
X402500Y1157834D01*
X406499D01*
X402500Y1155835D02*
Y1154502D01*
X403166Y1153835D01*
X404499D01*
X405166Y1154502D01*
Y1155835D01*
X404499Y1156501D01*
X403166D01*
X402500Y1155835D01*
X405832Y1151836D02*
X405166D01*
Y1152503D01*
Y1151170D01*
Y1151836D01*
X403166D01*
X402500Y1151170D01*
X405166Y1146504D02*
Y1148504D01*
X404499Y1149170D01*
X403166D01*
X402500Y1148504D01*
Y1146504D01*
X406499Y1145172D02*
X402500D01*
X404499D01*
X405166Y1144505D01*
Y1143172D01*
X404499Y1142506D01*
X402500D01*
D14*
X490811Y1115653D02*
X492810D01*
X491810D01*
Y1121651D01*
X490811Y1120651D01*
X499808Y1115653D02*
X495809D01*
X499808Y1119652D01*
Y1120651D01*
X498808Y1121651D01*
X496809D01*
X495809Y1120651D01*
X501807D02*
X502807Y1121651D01*
X504806D01*
X505806Y1120651D01*
Y1116653D01*
X504806Y1115653D01*
X502807D01*
X501807Y1116653D01*
Y1120651D01*
X507805Y1115653D02*
Y1116653D01*
X508805D01*
Y1115653D01*
X507805D01*
X512804Y1120651D02*
X513803Y1121651D01*
X515802D01*
X516802Y1120651D01*
Y1116653D01*
X515802Y1115653D01*
X513803D01*
X512804Y1116653D01*
Y1120651D01*
X518802D02*
X519801Y1121651D01*
X521801D01*
X522800Y1120651D01*
Y1116653D01*
X521801Y1115653D01*
X519801D01*
X518802Y1116653D01*
Y1120651D01*
X232477Y1314256D02*
Y1316255D01*
Y1315255D01*
X226479D01*
X227479Y1314256D01*
Y1319254D02*
X226479Y1320254D01*
Y1322253D01*
X227479Y1323253D01*
X231477D01*
X232477Y1322253D01*
Y1320254D01*
X231477Y1319254D01*
X227479D01*
Y1325252D02*
X226479Y1326252D01*
Y1328251D01*
X227479Y1329251D01*
X231477D01*
X232477Y1328251D01*
Y1326252D01*
X231477Y1325252D01*
X227479D01*
X232477Y1331250D02*
X231477D01*
Y1332250D01*
X232477D01*
Y1331250D01*
X227479Y1336248D02*
X226479Y1337248D01*
Y1339248D01*
X227479Y1340247D01*
X231477D01*
X232477Y1339248D01*
Y1337248D01*
X231477Y1336248D01*
X227479D01*
Y1342247D02*
X226479Y1343246D01*
Y1345245D01*
X227479Y1346245D01*
X231477D01*
X232477Y1345245D01*
Y1343246D01*
X231477Y1342247D01*
X227479D01*
D15*
X401122Y1458130D02*
D03*
Y1508130D02*
D03*
X427185Y1520000D02*
D03*
Y1510000D02*
D03*
Y1500000D02*
D03*
Y1490000D02*
D03*
Y1480000D02*
D03*
Y1470000D02*
D03*
Y1460000D02*
D03*
Y1450000D02*
D03*
Y1440000D02*
D03*
Y1430000D02*
D03*
Y1420000D02*
D03*
Y1410000D02*
D03*
Y1400000D02*
D03*
Y1390000D02*
D03*
Y1380000D02*
D03*
Y1370000D02*
D03*
Y1360000D02*
D03*
Y1350000D02*
D03*
Y1340000D02*
D03*
Y1330000D02*
D03*
X357185D02*
D03*
Y1340000D02*
D03*
Y1350000D02*
D03*
Y1360000D02*
D03*
Y1370000D02*
D03*
Y1380000D02*
D03*
Y1390000D02*
D03*
Y1400000D02*
D03*
Y1410000D02*
D03*
Y1420000D02*
D03*
Y1430000D02*
D03*
Y1440000D02*
D03*
Y1450000D02*
D03*
Y1460000D02*
D03*
Y1470000D02*
D03*
Y1480000D02*
D03*
Y1490000D02*
D03*
Y1500000D02*
D03*
Y1510000D02*
D03*
D16*
X724685Y1215000D02*
D03*
Y1240000D02*
D03*
X380807Y1278189D02*
D03*
Y1303189D02*
D03*
X297185Y1382500D02*
D03*
X322185D02*
D03*
X321870Y1365000D02*
D03*
X302185D02*
D03*
X321870Y1517500D02*
D03*
X302185D02*
D03*
X495000Y1512500D02*
D03*
X514685D02*
D03*
X450591Y1510000D02*
D03*
X444685D02*
D03*
X659685Y1514685D02*
D03*
Y1495000D02*
D03*
X587500Y1512500D02*
D03*
X607185D02*
D03*
X552185D02*
D03*
X577185D02*
D03*
X729685Y1339685D02*
D03*
Y1320000D02*
D03*
X657500D02*
D03*
X677185D02*
D03*
X607500D02*
D03*
X627185D02*
D03*
X557500D02*
D03*
X577185D02*
D03*
X439370Y1307500D02*
D03*
X419685D02*
D03*
X360807Y1263189D02*
D03*
X370807D02*
D03*
X360807Y1278189D02*
D03*
Y1303189D02*
D03*
X315591Y1192500D02*
D03*
X309685D02*
D03*
X344685Y1342500D02*
D03*
X332185Y1205000D02*
D03*
X349685Y1217500D02*
D03*
X609685Y1197500D02*
D03*
X624685D02*
D03*
X714685Y1285000D02*
D03*
X699685D02*
D03*
X647185Y1310000D02*
D03*
X612185Y1305000D02*
D03*
X652185Y1417500D02*
D03*
X647185Y1432500D02*
D03*
X642185Y1332500D02*
D03*
X512185Y1315000D02*
D03*
X582185Y1467500D02*
D03*
X452185Y1482500D02*
D03*
X457185Y1477500D02*
D03*
X429685Y1320000D02*
D03*
X399685D02*
D03*
X402185Y1410000D02*
D03*
X349685Y1295000D02*
D03*
X459685Y1195000D02*
D03*
X469685Y1332500D02*
D03*
X499685Y1237500D02*
D03*
Y1250000D02*
D03*
X612185Y1212500D02*
D03*
X575000Y1232500D02*
D03*
X370807Y1237500D02*
D03*
X557185Y1197500D02*
D03*
X572185Y1310000D02*
D03*
X562185D02*
D03*
X432185Y1262500D02*
D03*
X497185Y1402500D02*
D03*
X499685Y1285000D02*
D03*
X534685Y1222500D02*
D03*
X552185Y1447500D02*
D03*
X567185Y1290000D02*
D03*
X587185Y1222500D02*
D03*
X569685Y1177500D02*
D03*
X555600Y1178900D02*
D03*
X575000Y1184100D02*
D03*
X477800Y1191200D02*
D03*
X492400Y1190800D02*
D03*
X501200Y1191300D02*
D03*
X616400Y1323900D02*
D03*
X389685Y1240000D02*
D03*
Y1317500D02*
D03*
X449685Y1327500D02*
D03*
X397185Y1415000D02*
D03*
X387185Y1425000D02*
D03*
X379685Y1435000D02*
D03*
X382185Y1465000D02*
D03*
X374685Y1445000D02*
D03*
X397185Y1385000D02*
D03*
X392185Y1370000D02*
D03*
X387185Y1365000D02*
D03*
X382185Y1355000D02*
D03*
X372185Y1335000D02*
D03*
X377185Y1345000D02*
D03*
X417185Y1395000D02*
D03*
Y1385000D02*
D03*
Y1370000D02*
D03*
X447185Y1367500D02*
D03*
Y1375000D02*
D03*
Y1382500D02*
D03*
X437185Y1370000D02*
D03*
X344685Y1375000D02*
D03*
X337185Y1417500D02*
D03*
Y1427500D02*
D03*
Y1437500D02*
D03*
Y1447500D02*
D03*
Y1457500D02*
D03*
X324685Y1405000D02*
D03*
X369685D02*
D03*
X414685D02*
D03*
X412185Y1415000D02*
D03*
X407185Y1425000D02*
D03*
X580000Y1182500D02*
D03*
X550000D02*
D03*
X520000D02*
D03*
X510000D02*
D03*
X490000D02*
D03*
X480000D02*
D03*
X470000D02*
D03*
X460000D02*
D03*
X450000D02*
D03*
X440000D02*
D03*
X635000D02*
D03*
X595000D02*
D03*
X585000D02*
D03*
X545000D02*
D03*
X535000D02*
D03*
X495000D02*
D03*
X475000D02*
D03*
X455000D02*
D03*
X435000D02*
D03*
X425000D02*
D03*
X410000D02*
D03*
X380000D02*
D03*
X314685Y1247500D02*
D03*
Y1237500D02*
D03*
X317185Y1232500D02*
D03*
Y1222500D02*
D03*
X309685Y1395000D02*
D03*
X304685Y1335000D02*
D03*
Y1312500D02*
D03*
X404685Y1360000D02*
D03*
X347185Y1287500D02*
D03*
X337185D02*
D03*
X614685Y1492500D02*
D03*
X697185Y1475000D02*
D03*
X702185Y1495000D02*
D03*
X707185Y1485000D02*
D03*
X391122Y1180000D02*
D03*
X398622D02*
D03*
X665000D02*
D03*
Y1172500D02*
D03*
X418937Y1177500D02*
D03*
X355000Y1172500D02*
D03*
Y1180000D02*
D03*
D17*
X704685Y1277500D02*
D03*
X712185Y1197500D02*
D03*
X722185D02*
D03*
X647185Y1487500D02*
D03*
D18*
X704685Y1267500D02*
D03*
Y1257500D02*
D03*
X712185Y1187500D02*
D03*
X722185D02*
D03*
X647185Y1477500D02*
D03*
D19*
X380807Y1263189D02*
D03*
D20*
X567185Y1497500D02*
D03*
X474685Y1497500D02*
D03*
X602185Y1300000D02*
D03*
X417185Y1290000D02*
D03*
X294685Y1347500D02*
D03*
X297185Y1502500D02*
D03*
X552185Y1300000D02*
D03*
X652185D02*
D03*
D21*
X567185Y1487500D02*
D03*
Y1477500D02*
D03*
Y1467500D02*
D03*
Y1457500D02*
D03*
Y1447500D02*
D03*
Y1437500D02*
D03*
Y1427500D02*
D03*
Y1417500D02*
D03*
Y1407500D02*
D03*
Y1397500D02*
D03*
Y1387500D02*
D03*
Y1377500D02*
D03*
Y1367500D02*
D03*
Y1357500D02*
D03*
Y1347500D02*
D03*
X627185Y1497500D02*
D03*
Y1487500D02*
D03*
Y1477500D02*
D03*
Y1467500D02*
D03*
Y1457500D02*
D03*
Y1447500D02*
D03*
Y1437500D02*
D03*
Y1427500D02*
D03*
Y1417500D02*
D03*
Y1407500D02*
D03*
Y1397500D02*
D03*
Y1387500D02*
D03*
Y1377500D02*
D03*
Y1367500D02*
D03*
Y1357500D02*
D03*
Y1347500D02*
D03*
X474685Y1487500D02*
D03*
Y1477500D02*
D03*
Y1467500D02*
D03*
Y1457500D02*
D03*
Y1447500D02*
D03*
Y1437500D02*
D03*
Y1427500D02*
D03*
Y1417500D02*
D03*
Y1407500D02*
D03*
Y1397500D02*
D03*
Y1387500D02*
D03*
Y1377500D02*
D03*
Y1367500D02*
D03*
Y1357500D02*
D03*
Y1347500D02*
D03*
X534685Y1497500D02*
D03*
Y1487500D02*
D03*
Y1477500D02*
D03*
Y1467500D02*
D03*
Y1457500D02*
D03*
Y1447500D02*
D03*
Y1437500D02*
D03*
Y1427500D02*
D03*
Y1417500D02*
D03*
Y1407500D02*
D03*
Y1397500D02*
D03*
Y1387500D02*
D03*
Y1377500D02*
D03*
Y1367500D02*
D03*
Y1357500D02*
D03*
Y1347500D02*
D03*
X602185Y1240000D02*
D03*
Y1250000D02*
D03*
Y1260000D02*
D03*
Y1270000D02*
D03*
Y1280000D02*
D03*
Y1290000D02*
D03*
X632185Y1240000D02*
D03*
Y1300000D02*
D03*
Y1290000D02*
D03*
Y1280000D02*
D03*
Y1270000D02*
D03*
Y1260000D02*
D03*
Y1250000D02*
D03*
X417185Y1230000D02*
D03*
Y1240000D02*
D03*
Y1250000D02*
D03*
Y1260000D02*
D03*
Y1270000D02*
D03*
Y1280000D02*
D03*
Y1220000D02*
D03*
X447185Y1270000D02*
D03*
Y1260000D02*
D03*
Y1250000D02*
D03*
Y1240000D02*
D03*
Y1230000D02*
D03*
Y1220000D02*
D03*
Y1280000D02*
D03*
Y1290000D02*
D03*
X324685Y1307500D02*
D03*
Y1297500D02*
D03*
X294685Y1267500D02*
D03*
Y1257500D02*
D03*
X324685D02*
D03*
Y1267500D02*
D03*
Y1277500D02*
D03*
Y1287500D02*
D03*
X294685Y1277500D02*
D03*
Y1337500D02*
D03*
Y1327500D02*
D03*
Y1317500D02*
D03*
Y1307500D02*
D03*
Y1297500D02*
D03*
Y1287500D02*
D03*
X324685Y1327500D02*
D03*
Y1317500D02*
D03*
Y1337500D02*
D03*
Y1347500D02*
D03*
X327185Y1462500D02*
D03*
Y1452500D02*
D03*
X297185Y1422500D02*
D03*
Y1412500D02*
D03*
X327185D02*
D03*
Y1422500D02*
D03*
Y1432500D02*
D03*
Y1442500D02*
D03*
X297185Y1432500D02*
D03*
Y1492500D02*
D03*
Y1482500D02*
D03*
Y1472500D02*
D03*
Y1462500D02*
D03*
Y1452500D02*
D03*
Y1442500D02*
D03*
X327185Y1482500D02*
D03*
Y1472500D02*
D03*
Y1492500D02*
D03*
Y1502500D02*
D03*
X552185Y1240000D02*
D03*
Y1250000D02*
D03*
Y1260000D02*
D03*
Y1270000D02*
D03*
Y1280000D02*
D03*
Y1290000D02*
D03*
X582185Y1240000D02*
D03*
Y1300000D02*
D03*
Y1290000D02*
D03*
Y1280000D02*
D03*
Y1270000D02*
D03*
Y1260000D02*
D03*
Y1250000D02*
D03*
X652185Y1240000D02*
D03*
Y1250000D02*
D03*
Y1260000D02*
D03*
Y1270000D02*
D03*
Y1280000D02*
D03*
Y1290000D02*
D03*
X682185Y1240000D02*
D03*
Y1300000D02*
D03*
Y1290000D02*
D03*
Y1280000D02*
D03*
Y1270000D02*
D03*
Y1260000D02*
D03*
Y1250000D02*
D03*
D22*
X357185Y1520000D02*
D03*
D23*
X711968Y1440000D02*
D03*
X729685D02*
D03*
X711968Y1414409D02*
D03*
X729685D02*
D03*
X711968Y1385000D02*
D03*
X729685D02*
D03*
X711968Y1359409D02*
D03*
X729685D02*
D03*
D24*
X684685Y1465000D02*
D03*
Y1475000D02*
D03*
Y1485000D02*
D03*
Y1495000D02*
D03*
Y1505000D02*
D03*
D25*
Y1515000D02*
D03*
D26*
X467185Y1362500D02*
D03*
X499685Y1357500D02*
D03*
X498435Y1377500D02*
D03*
X640300Y1232500D02*
D03*
X329300Y1394600D02*
D03*
M02*
