G04*
G04 #@! TF.GenerationSoftware,Altium Limited,CircuitStudio,1.5.2 (30)*
G04*
G04 Layer_Color=6750207*
%FSLAX25Y25*%
%MOIN*%
G70*
G01*
G75*
%ADD11C,0.01000*%
%ADD13C,0.00800*%
%ADD14C,0.00600*%
%ADD38C,0.00050*%
G36*
X661298Y1355038D02*
X661298Y1355038D01*
X661402Y1355017D01*
X661498Y1354954D01*
X661503Y1354961D01*
X661567Y1354935D01*
X661625Y1354794D01*
X661670Y1354686D01*
X661658Y1354684D01*
X661684Y1354553D01*
X661670Y1354553D01*
Y1353490D01*
X661368D01*
Y1353627D01*
X661362Y1353627D01*
X661332Y1353553D01*
X661232Y1353511D01*
Y1353511D01*
X661127Y1353468D01*
X661125Y1353481D01*
X660995Y1353456D01*
X660989Y1353457D01*
X660989Y1353459D01*
X660762Y1353504D01*
X660763Y1353509D01*
X660578Y1353586D01*
X660583Y1353590D01*
X660560Y1353599D01*
X660493Y1353759D01*
X660493Y1353760D01*
X660419Y1353940D01*
X660422Y1353946D01*
X660419Y1353946D01*
X660416Y1353951D01*
X660488Y1354125D01*
X660488Y1354125D01*
X660559Y1354294D01*
X660561Y1354292D01*
X660566Y1354302D01*
X660735Y1354372D01*
X660733Y1354377D01*
X660943Y1354419D01*
X660948Y1354418D01*
X660947Y1354406D01*
X661368D01*
X661381Y1354570D01*
X661384Y1354577D01*
X661349Y1354661D01*
X661349Y1354661D01*
X661329Y1354711D01*
X661292Y1354726D01*
X661293Y1354727D01*
X661195Y1354768D01*
X661194Y1354761D01*
X661078Y1354784D01*
X661058Y1354780D01*
X661058Y1354785D01*
X661054Y1354786D01*
X660959Y1354767D01*
X660957Y1354781D01*
X660878Y1354748D01*
X660879Y1354747D01*
X660797Y1354713D01*
X660771Y1354651D01*
X660772Y1354650D01*
X660771Y1354651D01*
X660771Y1354651D01*
X660521Y1354848D01*
X660555Y1354931D01*
X660748Y1355011D01*
X660748Y1355011D01*
X660883Y1355066D01*
X660885Y1355052D01*
X661025Y1355080D01*
X661043Y1355076D01*
X661042Y1355080D01*
X661065Y1355085D01*
X661298Y1355038D01*
D02*
G37*
G36*
X654975D02*
X654975Y1355038D01*
X655079Y1355017D01*
X655175Y1354954D01*
X655180Y1354961D01*
X655244Y1354935D01*
X655302Y1354794D01*
Y1354794D01*
X655347Y1354686D01*
X655335Y1354684D01*
X655361Y1354553D01*
X655347Y1354553D01*
Y1353490D01*
X655045D01*
Y1353627D01*
X655040Y1353627D01*
X655009Y1353553D01*
X654909Y1353511D01*
Y1353511D01*
X654804Y1353468D01*
X654802Y1353481D01*
X654673Y1353456D01*
X654666Y1353457D01*
X654666Y1353459D01*
X654439Y1353504D01*
X654440Y1353509D01*
X654255Y1353586D01*
X654260Y1353590D01*
X654237Y1353599D01*
X654171Y1353759D01*
X654171Y1353760D01*
X654096Y1353940D01*
X654099Y1353946D01*
X654096Y1353945D01*
X654094Y1353951D01*
X654165Y1354125D01*
X654166Y1354125D01*
X654236Y1354294D01*
X654239Y1354292D01*
X654243Y1354302D01*
X654412Y1354372D01*
X654410Y1354377D01*
X654620Y1354419D01*
X654625Y1354418D01*
X654625Y1354406D01*
X655045D01*
X655058Y1354570D01*
X655061Y1354577D01*
X655026Y1354661D01*
X655026Y1354661D01*
X655006Y1354711D01*
X654969Y1354726D01*
X654970Y1354727D01*
X654872Y1354768D01*
X654871Y1354761D01*
X654755Y1354784D01*
X654735Y1354780D01*
X654735Y1354785D01*
X654731Y1354786D01*
X654636Y1354767D01*
X654635Y1354781D01*
X654555Y1354748D01*
X654556Y1354747D01*
X654474Y1354713D01*
X654449Y1354651D01*
X654450Y1354650D01*
X654449Y1354651D01*
X654449Y1354651D01*
X654198Y1354848D01*
X654232Y1354931D01*
X654425Y1355011D01*
X654425Y1355011D01*
X654560Y1355066D01*
X654562Y1355052D01*
X654702Y1355080D01*
X654720Y1355076D01*
X654720Y1355080D01*
X654742Y1355085D01*
X654975Y1355038D01*
D02*
G37*
G36*
X652944Y1356113D02*
D01*
D01*
D01*
D01*
D02*
G37*
G36*
X662078Y1355965D02*
X661766D01*
Y1356101D01*
X661748Y1356059D01*
X661587Y1355993D01*
X661587Y1355993D01*
X661369Y1355902D01*
X661358Y1355907D01*
X661359Y1355907D01*
X661179Y1355982D01*
X661175Y1355971D01*
X661167Y1355973D01*
X661005Y1356081D01*
X660995Y1356070D01*
X660949Y1356089D01*
X660881Y1356253D01*
X660881D01*
X660837Y1356359D01*
X660849Y1356361D01*
X660825Y1356482D01*
X660826Y1356485D01*
X660839Y1356485D01*
Y1357517D01*
X661151D01*
X661120Y1356592D01*
X661117Y1356584D01*
X661172Y1356450D01*
X661172Y1356451D01*
X661223Y1356330D01*
X661222Y1356329D01*
X661223Y1356327D01*
X661338Y1356280D01*
X661338Y1356280D01*
X661456Y1356231D01*
X661460Y1356232D01*
X661460Y1356233D01*
X661464Y1356232D01*
X661580Y1356280D01*
X661580Y1356280D01*
X661694Y1356327D01*
X661695Y1356329D01*
X661694Y1356330D01*
X661744Y1356451D01*
X661745Y1356450D01*
X661800Y1356584D01*
X661797Y1356592D01*
X661766Y1356592D01*
Y1357517D01*
X662078D01*
Y1355965D01*
D02*
G37*
G36*
X664491Y1356412D02*
X664491Y1356411D01*
X664479Y1356421D01*
X664491Y1356412D01*
D02*
G37*
G36*
X658013Y1353496D02*
X657701D01*
X657726Y1353636D01*
X657712Y1353602D01*
X657520Y1353523D01*
X657519Y1353523D01*
X657306Y1353434D01*
X657300Y1353437D01*
X657301Y1353430D01*
X657296Y1353428D01*
X657165Y1353483D01*
X657166Y1353485D01*
X657053Y1353532D01*
X657053Y1353532D01*
X656903Y1353594D01*
X656872Y1353669D01*
X656872Y1353668D01*
X656787Y1353872D01*
X656797Y1353873D01*
X656766Y1354029D01*
X656766Y1354029D01*
X656736Y1354254D01*
X656739Y1354274D01*
X656739Y1354274D01*
X656737Y1354293D01*
X656766Y1354515D01*
X656766Y1354515D01*
X656766Y1354515D01*
X656766Y1354515D01*
X656797Y1354669D01*
X656787Y1354671D01*
X656872Y1354875D01*
X656871Y1354875D01*
X656901Y1354948D01*
X657053Y1355011D01*
X657053Y1355011D01*
X657166Y1355057D01*
X657165Y1355060D01*
X657296Y1355114D01*
X657301Y1355112D01*
X657300Y1355101D01*
X657307Y1355103D01*
X657518Y1355016D01*
X657519Y1355018D01*
X657701Y1354897D01*
Y1355674D01*
X658013D01*
Y1353496D01*
D02*
G37*
G36*
X659902D02*
X659627D01*
X659302Y1354581D01*
X659297D01*
X658973Y1353496D01*
X658697D01*
X658201Y1355048D01*
X658531D01*
X658829Y1353961D01*
X658835D01*
X659186Y1355048D01*
X659414D01*
X659764Y1353961D01*
X659771D01*
X660068Y1355048D01*
X660398D01*
X659902Y1353496D01*
D02*
G37*
G36*
X656431Y1355107D02*
X656431Y1355105D01*
X656431Y1355105D01*
X656597Y1355036D01*
X656597Y1355036D01*
X656770Y1354964D01*
X656755Y1354946D01*
X656538Y1354688D01*
X656427Y1354735D01*
X656323Y1354778D01*
X656323Y1354780D01*
X656323Y1354780D01*
X656104Y1354689D01*
X656107Y1354685D01*
X656086Y1354676D01*
X656044Y1354576D01*
X656044Y1354576D01*
X655987Y1354438D01*
X655991Y1354428D01*
X656021Y1354429D01*
Y1353496D01*
X655709D01*
Y1355048D01*
X656021D01*
Y1354912D01*
X656013Y1354893D01*
X656021Y1354882D01*
Y1354912D01*
X656038Y1354953D01*
X656200Y1355020D01*
X656201Y1355020D01*
X656421Y1355111D01*
X656431Y1355107D01*
D02*
G37*
G36*
X663742Y1355077D02*
X663747Y1355078D01*
X663985Y1355031D01*
X663986Y1355032D01*
X663992Y1355031D01*
X664195Y1354895D01*
X664214Y1354915D01*
X664240Y1354904D01*
X664333Y1354680D01*
X664342Y1354684D01*
X664395Y1354422D01*
X664392Y1354410D01*
X664381Y1354411D01*
Y1354154D01*
X663378Y1354155D01*
X663374Y1354144D01*
X663439Y1353986D01*
X663440Y1353986D01*
X663494Y1353856D01*
X663505Y1353852D01*
X663503Y1353850D01*
X663637Y1353794D01*
X663636Y1353794D01*
X663778Y1353735D01*
X663784Y1353738D01*
X663784Y1353735D01*
X663786Y1353734D01*
X663965Y1353808D01*
X663966Y1353808D01*
X664147Y1353883D01*
X664152Y1353895D01*
X664124Y1353921D01*
X664354Y1353725D01*
X664319Y1353672D01*
X664228Y1353611D01*
X664239Y1353597D01*
X664091Y1353536D01*
X664096Y1353523D01*
X663792Y1353462D01*
X663789Y1353463D01*
X663790Y1353464D01*
X663552Y1353511D01*
X663552Y1353509D01*
X663494Y1353521D01*
X663326Y1353633D01*
X663321Y1353625D01*
X663249Y1353655D01*
X663220Y1353725D01*
X663217Y1353723D01*
X663157Y1353868D01*
X663150Y1353866D01*
X663114Y1354047D01*
X663113Y1354046D01*
X663071Y1354257D01*
X663073Y1354266D01*
X663073Y1354266D01*
X663072Y1354274D01*
X663112Y1354475D01*
X663113Y1354475D01*
X663148Y1354651D01*
X663150Y1354650D01*
X663160Y1354701D01*
X663218Y1354788D01*
X663213Y1354792D01*
X663255Y1354893D01*
X663295Y1354909D01*
X663306Y1354897D01*
X663515Y1355036D01*
X663515Y1355036D01*
X663521Y1355022D01*
X663742Y1355114D01*
X663742Y1355077D01*
D02*
G37*
G36*
X662759Y1355107D02*
X662758Y1355105D01*
X662758Y1355105D01*
X662925Y1355036D01*
X662925Y1355036D01*
X663097Y1354964D01*
X663082Y1354946D01*
X662866Y1354688D01*
X662755Y1354735D01*
X662755D01*
X662651Y1354778D01*
X662651Y1354780D01*
X662650Y1354780D01*
X662431Y1354689D01*
X662435Y1354685D01*
X662413Y1354676D01*
X662372Y1354576D01*
X662371Y1354576D01*
X662314Y1354438D01*
X662318Y1354428D01*
X662349Y1354429D01*
Y1353496D01*
X662037D01*
Y1355048D01*
X662349D01*
Y1354912D01*
X662341Y1354893D01*
X662349Y1354882D01*
Y1354912D01*
X662366Y1354953D01*
X662528Y1355020D01*
X662528Y1355020D01*
X662748Y1355111D01*
X662759Y1355107D01*
D02*
G37*
G36*
X664151Y1357548D02*
X664151Y1357548D01*
X664155Y1357549D01*
X664318Y1357516D01*
X664318Y1357516D01*
X664415Y1357497D01*
X664468Y1357461D01*
X664469Y1357462D01*
X664681Y1357321D01*
X664714Y1357271D01*
X664709Y1357266D01*
X664493Y1357071D01*
X664469Y1357129D01*
X664335Y1357184D01*
X664334Y1357183D01*
X664166Y1357253D01*
X664163Y1357252D01*
X664164Y1357258D01*
X664153Y1357262D01*
X663986Y1357193D01*
X663986Y1357193D01*
X663861Y1357141D01*
X663849Y1357111D01*
X663847Y1357112D01*
X663781Y1356952D01*
X663783Y1356951D01*
X663744Y1356752D01*
X663746Y1356739D01*
X663746Y1356740D01*
X663744Y1356727D01*
X663783Y1356528D01*
X663781Y1356528D01*
X663847Y1356368D01*
X663849Y1356369D01*
X663860Y1356340D01*
X663986Y1356288D01*
X663986Y1356288D01*
X664153Y1356219D01*
X664164Y1356223D01*
X664163Y1356229D01*
X664166Y1356228D01*
X664335Y1356298D01*
X664336Y1356297D01*
X664466Y1356351D01*
X664491Y1356411D01*
X664714Y1356210D01*
X664681Y1356161D01*
X664469Y1356019D01*
X664469Y1356020D01*
X664416Y1355985D01*
X664318Y1355966D01*
Y1355966D01*
X664155Y1355933D01*
X664151Y1355934D01*
X664151Y1355934D01*
X664148Y1355933D01*
X663892Y1355984D01*
X663891Y1355982D01*
X663870Y1355986D01*
X663661Y1356126D01*
X663649Y1356111D01*
X663604Y1356130D01*
X663561Y1356232D01*
X663569Y1356237D01*
X663503Y1356337D01*
X663496Y1356372D01*
X663493Y1356371D01*
X663459Y1356541D01*
X663459Y1356541D01*
X663421Y1356732D01*
X663422Y1356739D01*
X663422Y1356739D01*
X663421Y1356746D01*
X663459Y1356938D01*
X663459Y1356937D01*
X663493Y1357108D01*
X663496Y1357107D01*
X663503Y1357143D01*
X663569Y1357243D01*
X663561Y1357248D01*
X663605Y1357352D01*
X663648Y1357370D01*
X663661Y1357355D01*
X663872Y1357496D01*
X663891Y1357500D01*
X663891Y1357498D01*
X664148Y1357549D01*
X664151Y1357548D01*
D02*
G37*
G36*
X659917Y1357549D02*
X659916Y1357548D01*
X659924Y1357550D01*
X660079Y1357519D01*
X660081Y1357527D01*
X660211Y1357473D01*
X660211Y1357473D01*
X660312Y1357406D01*
X660322Y1357419D01*
X660407Y1357384D01*
X660416Y1357362D01*
X660416Y1357362D01*
X660518Y1357115D01*
X660519Y1357116D01*
X660550Y1356961D01*
X660556Y1356962D01*
X660597Y1356757D01*
X660594Y1356743D01*
X660595Y1356743D01*
X660598Y1356728D01*
X660557Y1356520D01*
X660550Y1356521D01*
X660519Y1356365D01*
X660518Y1356365D01*
X660416Y1356119D01*
X660413Y1356121D01*
X660402Y1356095D01*
X660321Y1356062D01*
X660312Y1356074D01*
X660211Y1356007D01*
X660211Y1356008D01*
X660081Y1355954D01*
X660079Y1355963D01*
X659924Y1355932D01*
X659916Y1355933D01*
X659917Y1355933D01*
X659909Y1355932D01*
X659752Y1355963D01*
X659750Y1355954D01*
X659620Y1356008D01*
X659620Y1356007D01*
X659520Y1356074D01*
X659510Y1356061D01*
X659432Y1356094D01*
X659420Y1356123D01*
X659416Y1356118D01*
X659314Y1356365D01*
X659313Y1356365D01*
X659282Y1356521D01*
X659275Y1356520D01*
X659234Y1356728D01*
X659237Y1356743D01*
X659238Y1356743D01*
D01*
D01*
D01*
D01*
X659238Y1356743D01*
X659277Y1356743D01*
X659238Y1356743D01*
X659235Y1356757D01*
X659276Y1356962D01*
X659282Y1356961D01*
X659313Y1357116D01*
X659314Y1357115D01*
X659416Y1357362D01*
X659418Y1357361D01*
X659428Y1357385D01*
X659510Y1357419D01*
X659520Y1357406D01*
X659620Y1357473D01*
X659620Y1357473D01*
X659750Y1357527D01*
X659752Y1357519D01*
X659909Y1357550D01*
X659917Y1357549D01*
D02*
G37*
G36*
X654744Y1357546D02*
X654749Y1357547D01*
X654987Y1357500D01*
X654988Y1357501D01*
X654994Y1357500D01*
X655197Y1357364D01*
X655216Y1357384D01*
X655242Y1357374D01*
X655335Y1357150D01*
X655345Y1357153D01*
X655397Y1356891D01*
X655394Y1356880D01*
X655383Y1356880D01*
Y1356623D01*
X654380Y1356624D01*
X654376Y1356614D01*
X654441Y1356455D01*
X654442Y1356455D01*
X654496Y1356326D01*
X654507Y1356321D01*
X654505Y1356319D01*
X654639Y1356264D01*
X654638Y1356263D01*
X654780Y1356205D01*
X654786Y1356207D01*
X654786Y1356205D01*
X654788Y1356203D01*
X654967Y1356277D01*
X654968Y1356277D01*
X655149Y1356353D01*
X655154Y1356364D01*
X655126Y1356390D01*
X655356Y1356194D01*
X655321Y1356141D01*
X655230Y1356081D01*
X655241Y1356066D01*
X655093Y1356005D01*
X655098Y1355992D01*
X654794Y1355932D01*
X654791Y1355932D01*
X654791Y1355933D01*
X654554Y1355980D01*
X654554Y1355978D01*
X654496Y1355990D01*
X654328Y1356102D01*
X654323Y1356094D01*
X654251Y1356124D01*
X654222Y1356194D01*
X654219Y1356192D01*
X654159Y1356337D01*
X654152Y1356335D01*
X654116Y1356516D01*
X654115Y1356516D01*
X654073Y1356726D01*
X654075Y1356735D01*
X654075Y1356735D01*
X654074Y1356743D01*
X654114Y1356945D01*
X654115Y1356944D01*
X654150Y1357120D01*
X654152Y1357119D01*
X654162Y1357170D01*
X654221Y1357257D01*
X654215Y1357261D01*
X654257Y1357362D01*
X654297Y1357378D01*
X654308Y1357366D01*
X654517Y1357505D01*
X654517Y1357506D01*
X654523Y1357491D01*
X654744Y1357583D01*
X654744Y1357546D01*
D02*
G37*
G36*
X665440D02*
X665445Y1357547D01*
X665684Y1357500D01*
X665684Y1357501D01*
X665690Y1357500D01*
X665894Y1357364D01*
X665912Y1357384D01*
X665938Y1357374D01*
X666031Y1357150D01*
X666041Y1357153D01*
X666093Y1356891D01*
X666091Y1356880D01*
X666079Y1356880D01*
Y1356623D01*
X665076Y1356624D01*
X665072Y1356614D01*
X665138Y1356455D01*
X665138Y1356455D01*
X665192Y1356326D01*
X665203Y1356321D01*
X665201Y1356319D01*
X665335Y1356264D01*
X665335Y1356263D01*
X665477Y1356205D01*
X665482Y1356207D01*
X665482Y1356205D01*
X665485Y1356203D01*
X665664Y1356277D01*
X665664Y1356277D01*
X665845Y1356353D01*
X665850Y1356364D01*
X665823Y1356390D01*
X666052Y1356194D01*
X666017Y1356141D01*
X665927Y1356081D01*
X665937Y1356066D01*
X665789Y1356005D01*
X665794Y1355992D01*
X665490Y1355932D01*
X665488Y1355932D01*
X665488Y1355933D01*
X665251Y1355980D01*
X665250Y1355978D01*
X665192Y1355990D01*
X665025Y1356102D01*
X665019Y1356094D01*
X664948Y1356124D01*
X664919Y1356194D01*
X664916Y1356192D01*
X664856Y1356337D01*
X664849Y1356335D01*
X664813Y1356516D01*
X664812Y1356516D01*
X664770Y1356726D01*
X664772Y1356735D01*
X664772Y1356735D01*
X664770Y1356743D01*
X664810Y1356945D01*
X664811Y1356944D01*
X664846Y1357120D01*
X664849Y1357119D01*
X664859Y1357171D01*
X664917Y1357257D01*
X664911Y1357261D01*
X664953Y1357362D01*
X664993Y1357379D01*
X665004Y1357366D01*
X665213Y1357505D01*
X665213Y1357506D01*
X665219Y1357491D01*
X665440Y1357583D01*
X665440Y1357546D01*
D02*
G37*
G36*
X653479Y1357529D02*
X653478Y1357526D01*
X653591Y1357480D01*
X653591Y1357480D01*
X653748Y1357415D01*
X653777Y1357346D01*
X653773Y1357343D01*
X653857Y1357140D01*
X653848Y1357138D01*
X653878Y1356983D01*
X653878Y1356983D01*
X653908Y1356759D01*
X653905Y1356739D01*
X653905Y1356739D01*
X653907Y1356720D01*
X653878Y1356497D01*
X653878Y1356497D01*
X653848Y1356342D01*
X653857Y1356340D01*
X653773Y1356137D01*
X653775Y1356136D01*
X653746Y1356065D01*
X653591Y1356001D01*
X653590Y1356001D01*
X653478Y1355955D01*
X653479Y1355952D01*
X653349Y1355898D01*
X653344Y1355900D01*
X653345Y1355912D01*
X653337Y1355908D01*
X653126Y1355996D01*
X653125Y1355992D01*
X652944Y1356113D01*
Y1356130D01*
X652934Y1356120D01*
X652944Y1356113D01*
X652944Y1354912D01*
X652961Y1354953D01*
X653123Y1355020D01*
X653123Y1355020D01*
X653343Y1355111D01*
X653354Y1355107D01*
X653353Y1355105D01*
X653531Y1355031D01*
X653535Y1355042D01*
X653540Y1355041D01*
X653704Y1354931D01*
X653714Y1354943D01*
X653760Y1354923D01*
X653828Y1354759D01*
X653828D01*
X653872Y1354653D01*
X653860Y1354651D01*
X653884Y1354531D01*
X653883Y1354527D01*
X653870Y1354528D01*
Y1353496D01*
X653558D01*
X653589Y1354420D01*
X653592Y1354427D01*
X653537Y1354560D01*
X653537Y1354560D01*
X653487Y1354681D01*
X653487Y1354681D01*
X653485Y1354685D01*
X653372Y1354731D01*
X653372Y1354731D01*
X653256Y1354780D01*
X653252Y1354778D01*
X653253Y1354779D01*
X653249Y1354781D01*
X653130Y1354731D01*
X653130Y1354731D01*
X653016Y1354684D01*
X653015Y1354681D01*
X653015Y1354681D01*
X652965Y1354560D01*
X652964Y1354560D01*
X652909Y1354427D01*
X652912Y1354420D01*
X652944Y1354420D01*
Y1353496D01*
X652632D01*
Y1357517D01*
X652944D01*
X652920Y1357374D01*
X652936Y1357411D01*
X653125Y1357490D01*
X653125Y1357490D01*
X653339Y1357578D01*
X653345Y1357576D01*
X653344Y1357581D01*
X653349Y1357582D01*
X653479Y1357529D01*
D02*
G37*
G36*
X659328Y1369220D02*
X659346Y1369177D01*
X659344Y1369177D01*
X659612Y1367783D01*
X659630Y1367740D01*
X659658Y1367728D01*
X660825Y1367245D01*
X660854Y1367233D01*
X660897Y1367251D01*
X660896Y1367252D01*
X662071Y1368048D01*
X662114Y1368066D01*
X662171Y1368042D01*
X662171D01*
X662167Y1368038D01*
X663175Y1367038D01*
X663199Y1366981D01*
X663181Y1366938D01*
X663180Y1366939D01*
X662383Y1365764D01*
X662366Y1365721D01*
X662378Y1365693D01*
X662861Y1364525D01*
X662873Y1364497D01*
X662916Y1364479D01*
X662916Y1364480D01*
X664310Y1364213D01*
X664353Y1364195D01*
X664376Y1364138D01*
X664370D01*
X664376Y1362718D01*
X664353Y1362660D01*
X664310Y1362643D01*
X664310Y1362644D01*
X662916Y1362377D01*
X662873Y1362359D01*
X662861Y1362330D01*
X662861D01*
X662378Y1361163D01*
X662366Y1361135D01*
X662383Y1361092D01*
X662385Y1361092D01*
X663181Y1359918D01*
X663199Y1359875D01*
X663175Y1359818D01*
X663171Y1359822D01*
X662171Y1358813D01*
X662114Y1358790D01*
X662071Y1358807D01*
X662072Y1358809D01*
X660897Y1359605D01*
X660854Y1359623D01*
X660825Y1359611D01*
X660291Y1359390D01*
X660262Y1359378D01*
X660205Y1359402D01*
X660193Y1359431D01*
X660193D01*
X659209Y1361841D01*
X659197Y1361869D01*
X659221Y1361926D01*
X659247Y1361937D01*
X659256Y1361918D01*
X659744Y1362245D01*
X660107Y1362788D01*
X660234Y1363428D01*
X660107Y1364068D01*
X659744Y1364611D01*
X659201Y1364974D01*
X658561Y1365101D01*
X657920Y1364974D01*
X657377Y1364611D01*
X657015Y1364068D01*
X656887Y1363428D01*
X657015Y1362788D01*
X657377Y1362245D01*
X657866Y1361918D01*
X657875Y1361937D01*
X657901Y1361926D01*
X657924Y1361869D01*
X657913Y1361841D01*
X656929Y1359431D01*
X656917Y1359402D01*
X656859Y1359378D01*
X656831Y1359390D01*
X656296Y1359611D01*
X656267Y1359623D01*
X656224Y1359605D01*
X656225Y1359604D01*
X655051Y1358807D01*
X655008Y1358790D01*
X654951Y1358813D01*
X654955Y1358818D01*
X653946Y1359818D01*
Y1359818D01*
X653923Y1359875D01*
X653940Y1359918D01*
X653942Y1359917D01*
X654738Y1361092D01*
X654756Y1361135D01*
X654744Y1361163D01*
X654260Y1362330D01*
X654249Y1362359D01*
X654206Y1362377D01*
X654205Y1362375D01*
X652812Y1362643D01*
X652769Y1362660D01*
X652745Y1362718D01*
X652751D01*
X652745Y1364138D01*
X652769Y1364195D01*
X652812Y1364213D01*
X652812Y1364212D01*
X654206Y1364479D01*
X654249Y1364497D01*
X654260Y1364525D01*
X654744Y1365693D01*
X654756Y1365721D01*
X654738Y1365764D01*
X654737Y1365763D01*
X653940Y1366938D01*
X653923Y1366981D01*
X653946Y1367038D01*
Y1367038D01*
X653951Y1367034D01*
X654951Y1368042D01*
X654951D01*
X655008Y1368066D01*
X655051Y1368048D01*
X655050Y1368047D01*
X656224Y1367251D01*
X656267Y1367233D01*
X656296Y1367245D01*
Y1367245D01*
X657463Y1367728D01*
X657492Y1367740D01*
X657510Y1367783D01*
X657508Y1367783D01*
X657775Y1369177D01*
X657793Y1369220D01*
X657851Y1369244D01*
Y1369237D01*
X659271Y1369244D01*
X659328Y1369220D01*
D02*
G37*
G36*
X651707Y1357549D02*
X651707Y1357548D01*
X651714Y1357550D01*
X651869Y1357519D01*
X651871Y1357527D01*
X652001Y1357473D01*
X652001Y1357473D01*
X652102Y1357406D01*
X652112Y1357419D01*
X652197Y1357384D01*
X652206Y1357362D01*
X652206Y1357362D01*
X652308Y1357115D01*
X652309Y1357116D01*
X652340Y1356961D01*
X652346Y1356962D01*
X652387Y1356757D01*
X652384Y1356743D01*
X652385Y1356743D01*
X652388Y1356728D01*
X652347Y1356520D01*
X652340Y1356521D01*
X652309Y1356365D01*
X652308Y1356365D01*
X652206Y1356119D01*
X652203Y1356121D01*
X652192Y1356095D01*
X652111Y1356062D01*
X652102Y1356074D01*
X652001Y1356007D01*
X652001Y1356008D01*
X651871Y1355954D01*
X651869Y1355963D01*
X651714Y1355932D01*
X651707Y1355933D01*
X651707Y1355933D01*
X651699Y1355932D01*
X651542Y1355963D01*
X651540Y1355954D01*
X651410Y1356008D01*
X651410Y1356007D01*
X651310Y1356074D01*
X651300Y1356061D01*
X651222Y1356094D01*
X651210Y1356123D01*
X651206Y1356118D01*
X651104Y1356365D01*
X651103Y1356365D01*
X651072Y1356521D01*
X651065Y1356520D01*
X651024Y1356728D01*
X651027Y1356743D01*
X651028Y1356743D01*
D01*
D01*
D01*
D01*
X651028Y1356743D01*
X651067Y1356743D01*
X651028Y1356743D01*
X651025Y1356757D01*
X651066Y1356962D01*
X651072Y1356961D01*
X651103Y1357116D01*
X651104Y1357115D01*
X651206Y1357362D01*
X651208Y1357361D01*
X651218Y1357385D01*
X651300Y1357419D01*
X651310Y1357406D01*
X651410Y1357473D01*
X651410Y1357473D01*
X651540Y1357527D01*
X651542Y1357519D01*
X651699Y1357550D01*
X651707Y1357549D01*
D02*
G37*
G36*
X658627Y1357521D02*
X658627Y1357521D01*
X658790Y1357488D01*
X658791Y1357491D01*
X658811Y1357487D01*
X659050Y1357328D01*
X659046Y1357324D01*
X658853Y1357096D01*
X658670Y1357219D01*
X658670Y1357219D01*
X658662Y1357200D01*
X658448Y1357289D01*
X658437Y1357285D01*
X658439Y1357279D01*
X658428Y1357283D01*
X658310Y1357234D01*
X658311Y1357230D01*
X658224Y1357195D01*
X658224Y1357195D01*
X658213Y1357190D01*
X658157Y1357058D01*
X658159Y1357053D01*
X658162Y1357053D01*
X658183Y1357004D01*
X658182Y1357004D01*
X658204Y1356952D01*
X658207Y1356950D01*
X658209Y1356952D01*
X658277Y1356923D01*
X658277Y1356922D01*
X658376Y1356881D01*
X658377Y1356907D01*
X658634Y1356896D01*
X658746Y1356874D01*
X658748Y1356882D01*
X658841Y1356844D01*
Y1356844D01*
X658975Y1356788D01*
X658990Y1356750D01*
X658994Y1356752D01*
X659059Y1356596D01*
X659059Y1356596D01*
X659128Y1356429D01*
X659126Y1356424D01*
X659115Y1356425D01*
X659119Y1356416D01*
X659038Y1356221D01*
X659039Y1356221D01*
X658990Y1356103D01*
X658900Y1356066D01*
X658897Y1356071D01*
X658783Y1355996D01*
X658690Y1355977D01*
X658690Y1355977D01*
X658449Y1355929D01*
X658441Y1355931D01*
X658441Y1355930D01*
X658434Y1355929D01*
X658070Y1356001D01*
X658069Y1355998D01*
X658068Y1355998D01*
X657747Y1356212D01*
X657758Y1356223D01*
X657967Y1356430D01*
X658195Y1356277D01*
X658196Y1356279D01*
X658459Y1356226D01*
X658465Y1356228D01*
X658465Y1356197D01*
X658470Y1356195D01*
X658588Y1356244D01*
X658588Y1356247D01*
X658686Y1356288D01*
X658685Y1356289D01*
X658734Y1356310D01*
X658751Y1356352D01*
X658751Y1356352D01*
X658785Y1356436D01*
X658784Y1356440D01*
X658782Y1356439D01*
X658783Y1356442D01*
X658760Y1356500D01*
X658760Y1356500D01*
X658742Y1356543D01*
X658727Y1356549D01*
X658728Y1356551D01*
X658665Y1356577D01*
X658665Y1356577D01*
X658583Y1356611D01*
X658581Y1356592D01*
X658305Y1356584D01*
X658130Y1356656D01*
X658130Y1356656D01*
X657968Y1356723D01*
X657974Y1356729D01*
X657949Y1356739D01*
X657892Y1356878D01*
X657892Y1356878D01*
X657821Y1357048D01*
X657825Y1357057D01*
X657824Y1357055D01*
X657820Y1357067D01*
X657901Y1357264D01*
X657901Y1357264D01*
X657956Y1357395D01*
X658019Y1357422D01*
X658015Y1357427D01*
X658210Y1357508D01*
X658211Y1357507D01*
X658430Y1357550D01*
X658438Y1357549D01*
X658438Y1357556D01*
X658444Y1357557D01*
X658627Y1357521D01*
D02*
G37*
G36*
X663154Y1357576D02*
X663154Y1357574D01*
X663154Y1357574D01*
X663320Y1357505D01*
X663320Y1357505D01*
X663493Y1357434D01*
X663478Y1357415D01*
X663261Y1357158D01*
X663150Y1357204D01*
X663046Y1357247D01*
X663046Y1357249D01*
X663046Y1357249D01*
X662827Y1357158D01*
X662830Y1357154D01*
X662809Y1357145D01*
X662767Y1357045D01*
X662767Y1357045D01*
X662710Y1356907D01*
X662714Y1356897D01*
X662744Y1356898D01*
Y1355965D01*
X662432D01*
Y1357517D01*
X662744D01*
Y1357381D01*
X662736Y1357362D01*
X662744Y1357351D01*
Y1357381D01*
X662761Y1357422D01*
X662923Y1357489D01*
X662923Y1357489D01*
X663144Y1357580D01*
X663154Y1357576D01*
D02*
G37*
G36*
X656378Y1357576D02*
X656377Y1357574D01*
X656555Y1357500D01*
X656559Y1357511D01*
X656563Y1357510D01*
X656728Y1357400D01*
X656738Y1357412D01*
X656784Y1357392D01*
X656852Y1357228D01*
X656852D01*
X656896Y1357123D01*
X656884Y1357121D01*
X656908Y1357000D01*
X656907Y1356997D01*
X656894Y1356997D01*
Y1355965D01*
X656582D01*
X656613Y1356889D01*
X656616Y1356896D01*
X656561Y1357029D01*
X656561Y1357029D01*
X656510Y1357150D01*
X656511Y1357150D01*
X656509Y1357154D01*
X656396Y1357201D01*
X656396Y1357201D01*
X656280Y1357249D01*
X656276Y1357247D01*
X656277Y1357248D01*
X656273Y1357250D01*
X656154Y1357201D01*
X656154Y1357201D01*
X656040Y1357154D01*
X656039Y1357150D01*
X656039Y1357150D01*
X655989Y1357029D01*
X655988Y1357029D01*
X655933Y1356896D01*
X655936Y1356889D01*
X655967Y1356889D01*
Y1355965D01*
X655655D01*
Y1357517D01*
X655967D01*
Y1357381D01*
X655960Y1357362D01*
X655967Y1357351D01*
Y1357381D01*
X655984Y1357422D01*
X656147Y1357489D01*
X656147Y1357489D01*
X656367Y1357580D01*
X656378Y1357576D01*
D02*
G37*
%LPC*%
G36*
X657391Y1354793D02*
X657295Y1354753D01*
X657296Y1354749D01*
X657218Y1354717D01*
X657219Y1354717D01*
X657168Y1354696D01*
X657129Y1354603D01*
X657127Y1354603D01*
X657064Y1354284D01*
X657066Y1354274D01*
X657063Y1354261D01*
X657128Y1353939D01*
X657129Y1353939D01*
X657168Y1353846D01*
X657219Y1353825D01*
X657218Y1353825D01*
X657296Y1353793D01*
X657295Y1353789D01*
X657391Y1353749D01*
X657396Y1353752D01*
X657396Y1353754D01*
X657401Y1353752D01*
X657495Y1353791D01*
X657495Y1353794D01*
X657571Y1353826D01*
X657571Y1353826D01*
X657618Y1353846D01*
X657659Y1353945D01*
X657661Y1353945D01*
X657725Y1354269D01*
X657724Y1354274D01*
X657724Y1354274D01*
X657725Y1354276D01*
X657661Y1354597D01*
X657659Y1354597D01*
X657618Y1354697D01*
X657571Y1354716D01*
X657571Y1354716D01*
X657495Y1354748D01*
X657495Y1354751D01*
X657401Y1354790D01*
X657396Y1354788D01*
X657396Y1354753D01*
X657396Y1354788D01*
X657396Y1354788D01*
X657396Y1354791D01*
X657391Y1354793D01*
D02*
G37*
G36*
X663738Y1354799D02*
X663615Y1354748D01*
X663615Y1354748D01*
X663496Y1354699D01*
X663494Y1354695D01*
X663494Y1354695D01*
X663441Y1354565D01*
X663440Y1354566D01*
X663376Y1354411D01*
X663414Y1354411D01*
X664106Y1354412D01*
X664042Y1354565D01*
X664041Y1354565D01*
X663988Y1354695D01*
X663987Y1354695D01*
X663985Y1354700D01*
X663868Y1354748D01*
X663868Y1354748D01*
X663746Y1354799D01*
X663742Y1354797D01*
X663742Y1354797D01*
X663738Y1354799D01*
D02*
G37*
G36*
X652944Y1354912D02*
X652936Y1354893D01*
X652944Y1354882D01*
Y1354912D01*
D02*
G37*
G36*
X661003Y1354190D02*
X660886Y1354141D01*
X660887Y1354138D01*
X660802Y1354103D01*
X660803Y1354101D01*
X660777Y1354090D01*
X660756Y1354041D01*
X660756Y1354041D01*
X660727Y1353968D01*
X660730Y1353960D01*
X660729Y1353961D01*
X660729Y1353960D01*
X660758Y1353888D01*
X660758Y1353888D01*
X660783Y1353828D01*
X660804Y1353819D01*
X660802Y1353817D01*
X660896Y1353778D01*
X660896Y1353776D01*
X661018Y1353725D01*
X661028Y1353729D01*
X661027Y1353753D01*
X661053Y1353747D01*
X661190Y1353775D01*
X661191Y1353766D01*
X661297Y1353810D01*
X661298Y1353810D01*
X661319Y1353818D01*
X661329Y1353843D01*
X661330Y1353842D01*
X661351Y1353892D01*
X661353Y1353891D01*
X661407Y1354023D01*
X661402Y1354036D01*
X661368Y1354035D01*
Y1354150D01*
X661003Y1354190D01*
D02*
G37*
G36*
X654681D02*
X654564Y1354141D01*
X654564Y1354138D01*
X654480Y1354103D01*
X654481Y1354101D01*
X654454Y1354090D01*
X654434Y1354041D01*
X654434Y1354041D01*
X654404Y1353968D01*
X654407Y1353961D01*
X654406Y1353961D01*
X654406Y1353960D01*
X654435Y1353888D01*
X654435Y1353888D01*
X654460Y1353828D01*
X654481Y1353819D01*
X654479Y1353817D01*
X654574Y1353778D01*
X654573Y1353776D01*
X654695Y1353725D01*
X654705Y1353729D01*
X654704Y1353753D01*
X654730Y1353747D01*
X654867Y1353775D01*
X654868Y1353766D01*
X654974Y1353810D01*
X654975Y1353810D01*
X654996Y1353818D01*
X655006Y1353843D01*
X655007Y1353842D01*
X655028Y1353892D01*
X655030Y1353891D01*
X655085Y1354023D01*
X655079Y1354037D01*
X655045Y1354035D01*
Y1354150D01*
X654681Y1354190D01*
D02*
G37*
G36*
X653255Y1357262D02*
X653249Y1357259D01*
X653250Y1357258D01*
X653245Y1357260D01*
X653150Y1357220D01*
X653150Y1357217D01*
X653073Y1357185D01*
X653073Y1357185D01*
X653026Y1357166D01*
X652985Y1357066D01*
X652984Y1357066D01*
X652920Y1356743D01*
X652920Y1356739D01*
X652921Y1356739D01*
X652920Y1356735D01*
X652984Y1356413D01*
X652985Y1356414D01*
X653026Y1356315D01*
X653073Y1356295D01*
X653073Y1356295D01*
X653150Y1356263D01*
X653149Y1356260D01*
X653245Y1356220D01*
X653249Y1356222D01*
X653250Y1356258D01*
X653250Y1356223D01*
X653249Y1356222D01*
X653249Y1356221D01*
X653255Y1356219D01*
X653351Y1356259D01*
X653350Y1356262D01*
X653427Y1356294D01*
X653427Y1356295D01*
X653477Y1356316D01*
X653516Y1356409D01*
X653518Y1356408D01*
X653581Y1356728D01*
X653579Y1356740D01*
X653579Y1356739D01*
X653581Y1356750D01*
X653518Y1357072D01*
X653516Y1357071D01*
X653477Y1357165D01*
X653427Y1357186D01*
X653427Y1357186D01*
X653350Y1357218D01*
X653351Y1357222D01*
X653255Y1357262D01*
D02*
G37*
G36*
X661766Y1356130D02*
Y1356101D01*
X661773Y1356119D01*
X661766Y1356130D01*
D02*
G37*
G36*
X654740Y1357269D02*
X654617Y1357218D01*
X654617Y1357217D01*
X654498Y1357168D01*
X654496Y1357164D01*
X654496Y1357164D01*
X654443Y1357034D01*
X654442Y1357035D01*
X654378Y1356880D01*
X654416Y1356880D01*
X655107Y1356881D01*
X655044Y1357035D01*
X655043Y1357034D01*
X654990Y1357164D01*
X654989Y1357164D01*
X654987Y1357169D01*
X654870Y1357217D01*
X654870Y1357217D01*
X654748Y1357268D01*
X654744Y1357266D01*
X654744Y1357267D01*
X654740Y1357269D01*
D02*
G37*
G36*
X665436Y1357269D02*
X665313Y1357218D01*
X665313Y1357217D01*
X665194Y1357168D01*
X665193Y1357164D01*
X665193Y1357164D01*
X665139Y1357034D01*
X665138Y1357035D01*
X665074Y1356880D01*
X665113Y1356880D01*
X665804Y1356881D01*
X665740Y1357035D01*
X665740Y1357034D01*
X665686Y1357164D01*
X665685Y1357164D01*
X665683Y1357169D01*
X665566Y1357217D01*
X665566Y1357217D01*
X665444Y1357268D01*
X665440Y1357266D01*
X665441Y1357267D01*
X665436Y1357269D01*
D02*
G37*
G36*
X659908Y1357252D02*
X659768Y1357194D01*
X659768Y1357194D01*
X659680Y1357158D01*
X659661Y1357112D01*
X659657Y1357115D01*
X659601Y1356979D01*
X659605Y1356977D01*
X659587Y1356885D01*
X659574Y1356886D01*
X659547Y1356754D01*
X659549Y1356743D01*
X659547Y1356743D01*
X659545Y1356732D01*
X659572Y1356596D01*
X659586Y1356597D01*
X659605Y1356503D01*
X659600Y1356501D01*
X659657Y1356365D01*
X659661Y1356369D01*
X659680Y1356323D01*
X659768Y1356286D01*
X659768Y1356286D01*
X659908Y1356229D01*
X659917Y1356232D01*
X659916Y1356232D01*
X659917Y1356232D01*
X659917Y1356232D01*
X659925Y1356229D01*
X660064Y1356286D01*
X660064Y1356286D01*
X660154Y1356324D01*
X660173Y1356368D01*
X660176Y1356366D01*
X660231Y1356501D01*
X660236Y1356500D01*
X660275Y1356594D01*
X660257Y1356594D01*
X660284Y1356728D01*
X660282Y1356739D01*
X660244Y1356739D01*
X660282Y1356740D01*
X660282Y1356739D01*
X660282D01*
X660284Y1356750D01*
X660258Y1356885D01*
X660275Y1356885D01*
X660236Y1356979D01*
X660231Y1356978D01*
X660175Y1357114D01*
X660173Y1357112D01*
X660154Y1357157D01*
X660064Y1357194D01*
X660064Y1357194D01*
X659925Y1357252D01*
X659917Y1357249D01*
X659917Y1357248D01*
X659916Y1357248D01*
X659917Y1357249D01*
X659908Y1357252D01*
D02*
G37*
G36*
X651698Y1357252D02*
X651558Y1357194D01*
X651558Y1357194D01*
X651470Y1357158D01*
X651451Y1357112D01*
X651447Y1357115D01*
X651391Y1356979D01*
X651395Y1356977D01*
X651377Y1356885D01*
X651364Y1356886D01*
X651337Y1356754D01*
X651339Y1356743D01*
X651337Y1356743D01*
X651335Y1356732D01*
X651362Y1356596D01*
X651376Y1356597D01*
X651395Y1356503D01*
X651391Y1356501D01*
X651447Y1356366D01*
X651451Y1356369D01*
X651470Y1356323D01*
X651558Y1356286D01*
X651558Y1356287D01*
X651698Y1356229D01*
X651707Y1356232D01*
X651706Y1356232D01*
X651707Y1356232D01*
X651707Y1356232D01*
X651715Y1356229D01*
X651854Y1356286D01*
X651854Y1356286D01*
X651944Y1356324D01*
X651963Y1356368D01*
X651966Y1356366D01*
X652021Y1356501D01*
X652026Y1356500D01*
X652065Y1356594D01*
X652048Y1356594D01*
X652074Y1356728D01*
X652072Y1356739D01*
X652072D01*
X652074Y1356750D01*
X652048Y1356885D01*
X652065Y1356885D01*
X652026Y1356979D01*
X652021Y1356978D01*
X651965Y1357114D01*
X651963Y1357112D01*
X651944Y1357157D01*
X651854Y1357194D01*
X651854Y1357194D01*
X651715Y1357252D01*
X651707Y1357249D01*
X651707Y1357248D01*
X651706Y1357248D01*
X651707Y1357249D01*
X651698Y1357252D01*
D02*
G37*
%LPD*%
G36*
X652072Y1356739D02*
X652034Y1356739D01*
X652072Y1356740D01*
X652072Y1356739D01*
D02*
G37*
G36*
X657066Y1354274D02*
X657066Y1354274D01*
X657066Y1354274D01*
X657066Y1354274D01*
D02*
G37*
D11*
X455512Y1510000D02*
G03*
X455512Y1510000I-7874J0D01*
G01*
X355575Y1267189D02*
G03*
X386039Y1267189I15232J0D01*
G01*
X594685Y1502500D02*
G03*
X599685Y1502500I2500J0D01*
G01*
X502185Y1502500D02*
G03*
X507185Y1502500I2500J0D01*
G01*
X614685Y1305000D02*
G03*
X619685Y1305000I2500J0D01*
G01*
X429685Y1295000D02*
G03*
X434685Y1295000I2500J0D01*
G01*
X307185Y1352500D02*
G03*
X312185Y1352500I2500J0D01*
G01*
X309685Y1507500D02*
G03*
X314685Y1507500I2500J0D01*
G01*
X564685Y1305000D02*
G03*
X569685Y1305000I2500J0D01*
G01*
X664685Y1305000D02*
G03*
X669685Y1305000I2500J0D01*
G01*
X728701Y1427205D02*
G03*
X728701Y1427205I-7874J0D01*
G01*
Y1372205D02*
G03*
X728701Y1372205I-7874J0D01*
G01*
X320512Y1192500D02*
G03*
X320512Y1192500I-7874J0D01*
G01*
X699685Y1252500D02*
X709685D01*
X699685D02*
Y1282500D01*
X709685D01*
Y1252500D02*
Y1282500D01*
X355575Y1267189D02*
Y1269957D01*
X386039Y1267189D02*
Y1269957D01*
X355575D02*
X386039D01*
X717185Y1182500D02*
Y1202500D01*
X707185Y1182500D02*
X717185D01*
X707185D02*
Y1202500D01*
X717185D01*
X727185Y1182500D02*
Y1202500D01*
X717185Y1182500D02*
X727185D01*
X717185D02*
Y1202500D01*
X727185D01*
X575685Y1502500D02*
X594685D01*
X599685D02*
X618685D01*
Y1342500D02*
Y1502500D01*
X575685Y1342500D02*
X618685D01*
X575685D02*
Y1502500D01*
X483185Y1502500D02*
X502185D01*
X507185D02*
X526185D01*
Y1342500D02*
Y1502500D01*
X483185Y1342500D02*
X526185D01*
X483185D02*
Y1502500D01*
X407933Y1525394D02*
Y1530787D01*
X376437D02*
X407933D01*
X376437Y1525394D02*
Y1530787D01*
Y1517008D02*
Y1525394D01*
Y1517008D02*
X407933D01*
Y1525394D01*
X433268Y1324606D02*
Y1525394D01*
X350590Y1324606D02*
X433268D01*
X350590Y1525394D02*
X433268D01*
X350590Y1324606D02*
Y1525394D01*
X733622Y1440984D02*
X735590D01*
Y1414409D02*
Y1440984D01*
X733622Y1414409D02*
X735590D01*
X706063Y1440000D02*
X708031D01*
X706063Y1413425D02*
Y1440000D01*
Y1413425D02*
X708031D01*
X733622Y1385984D02*
X735590D01*
Y1359409D02*
Y1385984D01*
X733622Y1359409D02*
X735590D01*
X706063Y1385000D02*
X708031D01*
X706063Y1358425D02*
Y1385000D01*
Y1358425D02*
X708031D01*
X652185Y1472500D02*
Y1492500D01*
X642185Y1472500D02*
X652185D01*
X642185D02*
Y1492500D01*
X652185D01*
X614687Y1243999D02*
X613687Y1242999D01*
Y1241000D01*
X614687Y1240000D01*
X615686D01*
X616686Y1241000D01*
Y1242999D01*
X617686Y1243999D01*
X618685D01*
X619685Y1242999D01*
Y1241000D01*
X618685Y1240000D01*
X619685Y1245998D02*
X613687D01*
X619685Y1249997D01*
X613687D01*
Y1251996D02*
Y1255995D01*
X614687D01*
X618685Y1251996D01*
X619685D01*
Y1260993D02*
X613687D01*
X616686Y1257994D01*
Y1261993D01*
X613687Y1263992D02*
X619685D01*
Y1267991D01*
X614687Y1273989D02*
X613687Y1272989D01*
Y1270990D01*
X614687Y1269990D01*
X615686D01*
X616686Y1270990D01*
Y1272989D01*
X617686Y1273989D01*
X618685D01*
X619685Y1272989D01*
Y1270990D01*
X618685Y1269990D01*
X614687Y1275988D02*
X613687Y1276988D01*
Y1278987D01*
X614687Y1279987D01*
X618685D01*
X619685Y1278987D01*
Y1276988D01*
X618685Y1275988D01*
X614687D01*
X619685Y1284986D02*
X613687D01*
X616686Y1281986D01*
Y1285985D01*
X619685Y1287984D02*
X613687D01*
X619685Y1291983D01*
X613687D01*
X429686Y1231499D02*
X428687Y1230499D01*
Y1228500D01*
X429686Y1227500D01*
X430686D01*
X431686Y1228500D01*
Y1230499D01*
X432686Y1231499D01*
X433685D01*
X434685Y1230499D01*
Y1228500D01*
X433685Y1227500D01*
X434685Y1233498D02*
X428687D01*
X434685Y1237497D01*
X428687D01*
Y1239496D02*
Y1243495D01*
X429686D01*
X433685Y1239496D01*
X434685D01*
Y1248493D02*
X428687D01*
X431686Y1245494D01*
Y1249493D01*
X428687Y1251492D02*
X434685D01*
Y1255491D01*
X429686Y1261489D02*
X428687Y1260489D01*
Y1258490D01*
X429686Y1257490D01*
X430686D01*
X431686Y1258490D01*
Y1260489D01*
X432686Y1261489D01*
X433685D01*
X434685Y1260489D01*
Y1258490D01*
X433685Y1257490D01*
X434685Y1263488D02*
Y1265488D01*
Y1264488D01*
X428687D01*
X429686Y1263488D01*
X428687Y1272486D02*
Y1268487D01*
X431686D01*
X430686Y1270486D01*
Y1271486D01*
X431686Y1272486D01*
X433685D01*
X434685Y1271486D01*
Y1269486D01*
X433685Y1268487D01*
X428687Y1274485D02*
Y1278483D01*
X429686D01*
X433685Y1274485D01*
X434685D01*
Y1280483D02*
X428687D01*
X434685Y1284482D01*
X428687D01*
X307187Y1263999D02*
X306187Y1262999D01*
Y1261000D01*
X307187Y1260000D01*
X308186D01*
X309186Y1261000D01*
Y1262999D01*
X310186Y1263999D01*
X311185D01*
X312185Y1262999D01*
Y1261000D01*
X311185Y1260000D01*
X312185Y1265998D02*
X306187D01*
X312185Y1269997D01*
X306187D01*
Y1271996D02*
Y1275995D01*
X307187D01*
X311185Y1271996D01*
X312185D01*
Y1280993D02*
X306187D01*
X309186Y1277994D01*
Y1281993D01*
X306187Y1283992D02*
X312185D01*
Y1287991D01*
X306187Y1289990D02*
X310186D01*
X312185Y1291990D01*
X310186Y1293989D01*
X306187D01*
X307187Y1299987D02*
X306187Y1298987D01*
Y1296988D01*
X307187Y1295988D01*
X311185D01*
X312185Y1296988D01*
Y1298987D01*
X311185Y1299987D01*
X312185Y1305985D02*
Y1301986D01*
X308186Y1305985D01*
X307187D01*
X306187Y1304985D01*
Y1302986D01*
X307187Y1301986D01*
X312185Y1310983D02*
X306187D01*
X309186Y1307985D01*
Y1311983D01*
X306187Y1317981D02*
Y1313982D01*
X309186D01*
X308186Y1315982D01*
Y1316982D01*
X309186Y1317981D01*
X311185D01*
X312185Y1316982D01*
Y1314982D01*
X311185Y1313982D01*
X312185Y1319981D02*
X308186D01*
X306187Y1321980D01*
X308186Y1323979D01*
X312185D01*
X309186D01*
Y1319981D01*
X312185Y1325979D02*
X306187D01*
X312185Y1329977D01*
X306187D01*
X309687Y1426499D02*
X308687Y1425499D01*
Y1423500D01*
X309687Y1422500D01*
X310686D01*
X311686Y1423500D01*
Y1425499D01*
X312686Y1426499D01*
X313685D01*
X314685Y1425499D01*
Y1423500D01*
X313685Y1422500D01*
X314685Y1428498D02*
X308687D01*
X314685Y1432497D01*
X308687D01*
Y1434496D02*
Y1438495D01*
X309687D01*
X313685Y1434496D01*
X314685D01*
Y1443493D02*
X308687D01*
X311686Y1440494D01*
Y1444493D01*
X308687Y1446492D02*
X314685D01*
Y1450491D01*
X308687Y1452490D02*
X312686D01*
X314685Y1454490D01*
X312686Y1456489D01*
X308687D01*
X309687Y1462487D02*
X308687Y1461487D01*
Y1459488D01*
X309687Y1458488D01*
X313685D01*
X314685Y1459488D01*
Y1461487D01*
X313685Y1462487D01*
X314685Y1468485D02*
Y1464486D01*
X310686Y1468485D01*
X309687D01*
X308687Y1467485D01*
Y1465486D01*
X309687Y1464486D01*
X314685Y1473483D02*
X308687D01*
X311686Y1470485D01*
Y1474483D01*
X308687Y1480481D02*
Y1476482D01*
X311686D01*
X310686Y1478482D01*
Y1479482D01*
X311686Y1480481D01*
X313685D01*
X314685Y1479482D01*
Y1477482D01*
X313685Y1476482D01*
X314685Y1482481D02*
X310686D01*
X308687Y1484480D01*
X310686Y1486479D01*
X314685D01*
X311686D01*
Y1482481D01*
X314685Y1488479D02*
X308687D01*
X314685Y1492477D01*
X308687D01*
X564687Y1246499D02*
X563687Y1245499D01*
Y1243500D01*
X564687Y1242500D01*
X565686D01*
X566686Y1243500D01*
Y1245499D01*
X567686Y1246499D01*
X568685D01*
X569685Y1245499D01*
Y1243500D01*
X568685Y1242500D01*
X569685Y1248498D02*
X563687D01*
X569685Y1252497D01*
X563687D01*
Y1254496D02*
Y1258495D01*
X564687D01*
X568685Y1254496D01*
X569685D01*
Y1263493D02*
X563687D01*
X566686Y1260494D01*
Y1264493D01*
X563687Y1266492D02*
X569685D01*
Y1270491D01*
X564687Y1276489D02*
X563687Y1275489D01*
Y1273490D01*
X564687Y1272490D01*
X565686D01*
X566686Y1273490D01*
Y1275489D01*
X567686Y1276489D01*
X568685D01*
X569685Y1275489D01*
Y1273490D01*
X568685Y1272490D01*
X569685Y1282487D02*
Y1278488D01*
X565686Y1282487D01*
X564687D01*
X563687Y1281487D01*
Y1279488D01*
X564687Y1278488D01*
X563687Y1284486D02*
Y1288485D01*
X564687D01*
X568685Y1284486D01*
X569685D01*
Y1290485D02*
X563687D01*
X569685Y1294483D01*
X563687D01*
X664686Y1246499D02*
X663687Y1245499D01*
Y1243500D01*
X664686Y1242500D01*
X665686D01*
X666686Y1243500D01*
Y1245499D01*
X667686Y1246499D01*
X668685D01*
X669685Y1245499D01*
Y1243500D01*
X668685Y1242500D01*
X669685Y1248498D02*
X663687D01*
X669685Y1252497D01*
X663687D01*
Y1254496D02*
Y1258495D01*
X664686D01*
X668685Y1254496D01*
X669685D01*
Y1263493D02*
X663687D01*
X666686Y1260494D01*
Y1264493D01*
X663687Y1266492D02*
X669685D01*
Y1270491D01*
X664686Y1276489D02*
X663687Y1275489D01*
Y1273490D01*
X664686Y1272490D01*
X665686D01*
X666686Y1273490D01*
Y1275489D01*
X667686Y1276489D01*
X668685D01*
X669685Y1275489D01*
Y1273490D01*
X668685Y1272490D01*
X664686Y1278488D02*
X663687Y1279488D01*
Y1281487D01*
X664686Y1282487D01*
X665686D01*
X666686Y1281487D01*
Y1280488D01*
Y1281487D01*
X667686Y1282487D01*
X668685D01*
X669685Y1281487D01*
Y1279488D01*
X668685Y1278488D01*
X669685Y1288485D02*
Y1284486D01*
X665686Y1288485D01*
X664686D01*
X663687Y1287486D01*
Y1285486D01*
X664686Y1284486D01*
X669685Y1290485D02*
X663687D01*
X669685Y1294483D01*
X663687D01*
X744626Y1118252D02*
Y1131063D01*
X272185Y1111378D02*
Y1120252D01*
X524400Y1119252D02*
X744626D01*
X272185D02*
X489211D01*
X738626Y1121252D02*
X744626Y1119252D01*
X738626Y1117252D02*
X744626Y1119252D01*
X272185D02*
X278185Y1117252D01*
X272185Y1119252D02*
X278185Y1121252D01*
X227878Y1528701D02*
X236752D01*
X213130Y1135000D02*
X229878D01*
X228878Y1347845D02*
Y1528701D01*
Y1135000D02*
Y1312656D01*
X226878Y1522701D02*
X228878Y1528701D01*
X230878Y1522701D01*
X228878Y1135000D02*
X230878Y1141000D01*
X226878D02*
X228878Y1135000D01*
X401000Y1167500D02*
X409000D01*
X401000Y1135000D02*
Y1167500D01*
X350000Y1135000D02*
X401000D01*
X409000D02*
Y1167500D01*
Y1135000D02*
X670000D01*
X272185Y1131063D02*
Y1138937D01*
X268248Y1135000D02*
X276122D01*
X349700D02*
X401000D01*
X409000D02*
Y1167500D01*
X401000Y1135000D02*
Y1167500D01*
X409000Y1135000D02*
X670300D01*
X674300Y1139000D02*
Y1167500D01*
X670300Y1135000D02*
X674300Y1139000D01*
X344937D02*
Y1167480D01*
Y1139000D02*
X348937Y1135000D01*
X349700D01*
X272185Y1167480D02*
Y1528701D01*
X744626D01*
Y1167500D02*
Y1528701D01*
X674300Y1167500D02*
X744449D01*
X272185Y1167480D02*
X344937D01*
D13*
X720685Y1220000D02*
Y1235000D01*
Y1220000D02*
X728685D01*
Y1235000D01*
X720685D02*
X728685D01*
X376807Y1283189D02*
X384807D01*
X376807D02*
Y1298189D01*
X384807D01*
Y1283189D02*
Y1298189D01*
X302185Y1378500D02*
Y1386500D01*
X317185D01*
Y1378500D02*
Y1386500D01*
X302185Y1378500D02*
X317185D01*
X305138Y1359094D02*
Y1370906D01*
Y1359094D02*
X318917D01*
Y1370906D01*
X305138D02*
X318917D01*
X305138Y1511594D02*
Y1523405D01*
Y1511594D02*
X318917D01*
Y1523405D01*
X305138D02*
X318917D01*
X511732Y1506594D02*
Y1518406D01*
X497953D02*
X511732D01*
X497953Y1506594D02*
Y1518406D01*
Y1506594D02*
X511732D01*
X443701Y1505079D02*
X445669D01*
X444685Y1504094D02*
Y1506063D01*
X653779Y1497953D02*
X665590D01*
Y1511732D01*
X653779D02*
X665590D01*
X653779Y1497953D02*
Y1511732D01*
X604232Y1506594D02*
Y1518406D01*
X590453D02*
X604232D01*
X590453Y1506594D02*
Y1518406D01*
Y1506594D02*
X604232D01*
X557185Y1516500D02*
X572185D01*
X557185Y1508500D02*
Y1516500D01*
Y1508500D02*
X572185D01*
Y1516500D01*
X723779Y1322953D02*
X735590D01*
Y1336732D01*
X723779D02*
X735590D01*
X723779Y1322953D02*
Y1336732D01*
X674232Y1314095D02*
Y1325906D01*
X660453D02*
X674232D01*
X660453Y1314095D02*
Y1325906D01*
Y1314095D02*
X674232D01*
X624232D02*
Y1325906D01*
X610453D02*
X624232D01*
X610453Y1314095D02*
Y1325906D01*
Y1314095D02*
X624232D01*
X574232D02*
Y1325906D01*
X560453D02*
X574232D01*
X560453Y1314095D02*
Y1325906D01*
Y1314095D02*
X574232D01*
X422638Y1301594D02*
Y1313406D01*
Y1301594D02*
X436417D01*
Y1313406D01*
X422638D02*
X436417D01*
X356807Y1283189D02*
X364807D01*
X356807D02*
Y1298189D01*
X364807D01*
Y1283189D02*
Y1298189D01*
X609685Y1235000D02*
X624685D01*
X609685D02*
Y1305000D01*
X614685D01*
X624685Y1235000D02*
Y1305000D01*
X619685D02*
X624685D01*
X424685Y1215000D02*
X439685D01*
X424685D02*
Y1295000D01*
X429685D01*
X439685Y1215000D02*
Y1295000D01*
X434685D02*
X439685D01*
X312185Y1352500D02*
X317185D01*
Y1252500D02*
Y1352500D01*
X302185D02*
X307185D01*
X302185Y1252500D02*
Y1352500D01*
Y1252500D02*
X317185D01*
X314685Y1507500D02*
X319685D01*
Y1407500D02*
Y1507500D01*
X304685D02*
X309685D01*
X304685Y1407500D02*
Y1507500D01*
Y1407500D02*
X319685D01*
X559685Y1235000D02*
X574685D01*
X559685D02*
Y1305000D01*
X564685D01*
X574685Y1235000D02*
Y1305000D01*
X569685D02*
X574685D01*
X659685Y1235000D02*
X674685D01*
X659685D02*
Y1305000D01*
X664685D01*
X674685Y1235000D02*
Y1305000D01*
X669685D02*
X674685D01*
X308701Y1187579D02*
X310669D01*
X309685Y1186594D02*
Y1188563D01*
X362185Y1287666D02*
Y1285000D01*
X359519Y1287666D01*
X358853D01*
X358186Y1286999D01*
Y1285666D01*
X358853Y1285000D01*
X358186Y1288999D02*
X362185D01*
X360852D01*
X358186Y1291665D01*
X360186Y1289665D01*
X362185Y1291665D01*
X358186Y1292997D02*
Y1295663D01*
X358853D01*
X361519Y1292997D01*
X362185D01*
X561684Y1510000D02*
Y1513999D01*
X559685Y1511999D01*
X562351D01*
X563684Y1513999D02*
Y1510000D01*
Y1511333D01*
X566350Y1513999D01*
X564350Y1511999D01*
X566350Y1510000D01*
X567682Y1513999D02*
X570348D01*
Y1513332D01*
X567682Y1510666D01*
Y1510000D01*
X727185Y1224499D02*
X723186D01*
X725186Y1222500D01*
Y1225166D01*
X723186Y1226499D02*
X727185D01*
X725852D01*
X723186Y1229165D01*
X725186Y1227165D01*
X727185Y1229165D01*
X723186Y1230497D02*
Y1233163D01*
X723853D01*
X726518Y1230497D01*
X727185D01*
X382185Y1286999D02*
X378186D01*
X380186Y1285000D01*
Y1287666D01*
X378186Y1288999D02*
X382185D01*
X380852D01*
X378186Y1291665D01*
X380186Y1289665D01*
X382185Y1291665D01*
X378186Y1292997D02*
Y1295663D01*
X378853D01*
X381519Y1292997D01*
X382185D01*
X306684Y1380000D02*
Y1383999D01*
X304685Y1381999D01*
X307351D01*
X308684Y1383999D02*
Y1380000D01*
Y1381333D01*
X311350Y1383999D01*
X309350Y1381999D01*
X311350Y1380000D01*
X312682Y1383999D02*
X315348D01*
Y1383332D01*
X312682Y1380667D01*
Y1380000D01*
X612185Y1320832D02*
X612851Y1321499D01*
X614184D01*
X614851Y1320832D01*
Y1318167D01*
X614184Y1317500D01*
X612851D01*
X612185Y1318167D01*
Y1320832D01*
X616184Y1317500D02*
Y1318167D01*
X616850D01*
Y1317500D01*
X616184D01*
X619516D02*
X620849D01*
X620182D01*
Y1321499D01*
X619516Y1320832D01*
X658853Y1500000D02*
X658186Y1500667D01*
Y1501999D01*
X658853Y1502666D01*
X661518D01*
X662185Y1501999D01*
Y1500667D01*
X661518Y1500000D01*
X658853D01*
X662185Y1503999D02*
X661518D01*
Y1504665D01*
X662185D01*
Y1503999D01*
Y1507331D02*
Y1508664D01*
Y1507997D01*
X658186D01*
X658853Y1507331D01*
X562185Y1320832D02*
X562851Y1321499D01*
X564184D01*
X564851Y1320832D01*
Y1318167D01*
X564184Y1317500D01*
X562851D01*
X562185Y1318167D01*
Y1320832D01*
X566184Y1317500D02*
Y1318167D01*
X566850D01*
Y1317500D01*
X566184D01*
X569516D02*
X570849D01*
X570182D01*
Y1321499D01*
X569516Y1320832D01*
X307185Y1365832D02*
X307852Y1366499D01*
X309184D01*
X309851Y1365832D01*
Y1363167D01*
X309184Y1362500D01*
X307852D01*
X307185Y1363167D01*
Y1365832D01*
X311184Y1362500D02*
Y1363167D01*
X311850D01*
Y1362500D01*
X311184D01*
X314516D02*
X315849D01*
X315182D01*
Y1366499D01*
X314516Y1365832D01*
X424685Y1308332D02*
X425351Y1308999D01*
X426684D01*
X427351Y1308332D01*
Y1305667D01*
X426684Y1305000D01*
X425351D01*
X424685Y1305667D01*
Y1308332D01*
X428684Y1305000D02*
Y1305667D01*
X429350D01*
Y1305000D01*
X428684D01*
X432016D02*
X433349D01*
X432682D01*
Y1308999D01*
X432016Y1308332D01*
X592185Y1513332D02*
X592851Y1513999D01*
X594184D01*
X594851Y1513332D01*
Y1510666D01*
X594184Y1510000D01*
X592851D01*
X592185Y1510666D01*
Y1513332D01*
X596184Y1510000D02*
Y1510666D01*
X596850D01*
Y1510000D01*
X596184D01*
X599516D02*
X600849D01*
X600182D01*
Y1513999D01*
X599516Y1513332D01*
X499685D02*
X500351Y1513999D01*
X501684D01*
X502351Y1513332D01*
Y1510666D01*
X501684Y1510000D01*
X500351D01*
X499685Y1510666D01*
Y1513332D01*
X503684Y1510000D02*
Y1510666D01*
X504350D01*
Y1510000D01*
X503684D01*
X507016D02*
X508349D01*
X507682D01*
Y1513999D01*
X507016Y1513332D01*
X728853Y1325000D02*
X728186Y1325667D01*
Y1326999D01*
X728853Y1327666D01*
X731519D01*
X732185Y1326999D01*
Y1325667D01*
X731519Y1325000D01*
X728853D01*
X732185Y1328999D02*
X731519D01*
Y1329665D01*
X732185D01*
Y1328999D01*
Y1332331D02*
Y1333664D01*
Y1332997D01*
X728186D01*
X728853Y1332331D01*
X307185Y1518332D02*
X307852Y1518999D01*
X309184D01*
X309851Y1518332D01*
Y1515666D01*
X309184Y1515000D01*
X307852D01*
X307185Y1515666D01*
Y1518332D01*
X311184Y1515000D02*
Y1515666D01*
X311850D01*
Y1515000D01*
X311184D01*
X314516D02*
X315849D01*
X315182D01*
Y1518999D01*
X314516Y1518332D01*
X662185Y1320832D02*
X662851Y1321499D01*
X664184D01*
X664851Y1320832D01*
Y1318167D01*
X664184Y1317500D01*
X662851D01*
X662185Y1318167D01*
Y1320832D01*
X666184Y1317500D02*
Y1318167D01*
X666850D01*
Y1317500D01*
X666184D01*
X669516D02*
X670849D01*
X670182D01*
Y1321499D01*
X669516Y1320832D01*
X702351Y1248999D02*
X701018D01*
X701684D01*
Y1245667D01*
X701018Y1245000D01*
X700351D01*
X699685Y1245667D01*
X703684Y1245000D02*
Y1248999D01*
X705683D01*
X706350Y1248332D01*
Y1246999D01*
X705683Y1246333D01*
X703684D01*
X709682Y1245000D02*
Y1248999D01*
X707682Y1246999D01*
X710348D01*
X596097Y1385697D02*
X595430Y1385031D01*
Y1383698D01*
X596097Y1383031D01*
X596763D01*
X597430Y1383698D01*
Y1385031D01*
X598096Y1385697D01*
X598763D01*
X599429Y1385031D01*
Y1383698D01*
X598763Y1383031D01*
X596097Y1389696D02*
X595430Y1389030D01*
Y1387697D01*
X596097Y1387030D01*
X596763D01*
X597430Y1387697D01*
Y1389030D01*
X598096Y1389696D01*
X598763D01*
X599429Y1389030D01*
Y1387697D01*
X598763Y1387030D01*
X595430Y1391029D02*
Y1393695D01*
Y1392362D01*
X599429D01*
X596097Y1395028D02*
X595430Y1395694D01*
Y1397027D01*
X596097Y1397693D01*
X596763D01*
X597430Y1397027D01*
Y1396360D01*
Y1397027D01*
X598096Y1397693D01*
X598763D01*
X599429Y1397027D01*
Y1395694D01*
X598763Y1395028D01*
Y1399026D02*
X599429Y1399693D01*
Y1401026D01*
X598763Y1401692D01*
X596097D01*
X595430Y1401026D01*
Y1399693D01*
X596097Y1399026D01*
X596763D01*
X597430Y1399693D01*
Y1401692D01*
X596097Y1405691D02*
X595430Y1405024D01*
Y1403691D01*
X596097Y1403025D01*
X596763D01*
X597430Y1403691D01*
Y1405024D01*
X598096Y1405691D01*
X598763D01*
X599429Y1405024D01*
Y1403691D01*
X598763Y1403025D01*
X595430Y1409690D02*
Y1407024D01*
X597430D01*
Y1408357D01*
Y1407024D01*
X599429D01*
X596097Y1411022D02*
X595430Y1411689D01*
Y1413022D01*
X596097Y1413688D01*
X598763D01*
X599429Y1413022D01*
Y1411689D01*
X598763Y1411022D01*
X596097D01*
X599429Y1417021D02*
X595430D01*
X597430Y1415021D01*
Y1417687D01*
X596097Y1419020D02*
X595430Y1419686D01*
Y1421019D01*
X596097Y1421686D01*
X598763D01*
X599429Y1421019D01*
Y1419686D01*
X598763Y1419020D01*
X596097D01*
X597430Y1423019D02*
Y1425684D01*
X595430Y1427017D02*
Y1429683D01*
X596097D01*
X598763Y1427017D01*
X599429D01*
X596097Y1431016D02*
X595430Y1431682D01*
Y1433015D01*
X596097Y1433682D01*
X598763D01*
X599429Y1433015D01*
Y1431682D01*
X598763Y1431016D01*
X596097D01*
X592185Y1336499D02*
Y1333167D01*
X592851Y1332500D01*
X594184D01*
X594851Y1333167D01*
Y1336499D01*
X596184Y1332500D02*
X597517D01*
X596850D01*
Y1336499D01*
X596184Y1335832D01*
X599516D02*
X600182Y1336499D01*
X601515D01*
X602182Y1335832D01*
Y1333167D01*
X601515Y1332500D01*
X600182D01*
X599516Y1333167D01*
Y1335832D01*
X347185Y1300000D02*
Y1303999D01*
X349184D01*
X349851Y1303332D01*
Y1301999D01*
X349184Y1301333D01*
X347185D01*
X348518D02*
X349851Y1300000D01*
X351184Y1303332D02*
X351850Y1303999D01*
X353183D01*
X353850Y1303332D01*
Y1302666D01*
X353183Y1301999D01*
X352517D01*
X353183D01*
X353850Y1301333D01*
Y1300667D01*
X353183Y1300000D01*
X351850D01*
X351184Y1300667D01*
X664851Y1330832D02*
X664184Y1331499D01*
X662851D01*
X662185Y1330832D01*
Y1328166D01*
X662851Y1327500D01*
X664184D01*
X664851Y1328166D01*
X668183Y1327500D02*
Y1331499D01*
X666184Y1329499D01*
X668850D01*
X329851Y1520832D02*
X329184Y1521499D01*
X327852D01*
X327185Y1520832D01*
Y1518167D01*
X327852Y1517500D01*
X329184D01*
X329851Y1518167D01*
X331184Y1521499D02*
X333850D01*
Y1520832D01*
X331184Y1518167D01*
Y1517500D01*
X609685Y1311499D02*
Y1308167D01*
X610352Y1307500D01*
X611684D01*
X612351Y1308167D01*
Y1311499D01*
X613684Y1307500D02*
X615017D01*
X614350D01*
Y1311499D01*
X613684Y1310832D01*
X509980Y1383032D02*
X507314D01*
X505982Y1384365D01*
X507314Y1385697D01*
X509980D01*
X507981D01*
Y1383032D01*
X506648Y1389696D02*
X505982Y1389030D01*
Y1387697D01*
X506648Y1387030D01*
X507314D01*
X507981Y1387697D01*
Y1389030D01*
X508647Y1389696D01*
X509314D01*
X509980Y1389030D01*
Y1387697D01*
X509314Y1387030D01*
X505982Y1393695D02*
X506648Y1392362D01*
X507981Y1391029D01*
X509314D01*
X509980Y1391696D01*
Y1393029D01*
X509314Y1393695D01*
X508647D01*
X507981Y1393029D01*
Y1391029D01*
X506648Y1397694D02*
X505982Y1397027D01*
Y1395694D01*
X506648Y1395028D01*
X509314D01*
X509980Y1395694D01*
Y1397027D01*
X509314Y1397694D01*
X509980Y1401026D02*
X505982D01*
X507981Y1399026D01*
Y1401692D01*
X506648Y1403025D02*
X505982Y1403692D01*
Y1405025D01*
X506648Y1405691D01*
X509314D01*
X509980Y1405025D01*
Y1403692D01*
X509314Y1403025D01*
X506648D01*
Y1407024D02*
X505982Y1407690D01*
Y1409023D01*
X506648Y1409690D01*
X509314D01*
X509980Y1409023D01*
Y1407690D01*
X509314Y1407024D01*
X506648D01*
Y1411023D02*
X505982Y1411689D01*
Y1413022D01*
X506648Y1413688D01*
X507314D01*
X507981Y1413022D01*
X508647Y1413688D01*
X509314D01*
X509980Y1413022D01*
Y1411689D01*
X509314Y1411023D01*
X508647D01*
X507981Y1411689D01*
X507314Y1411023D01*
X506648D01*
X507981Y1411689D02*
Y1413022D01*
Y1415021D02*
Y1417687D01*
X505982Y1421686D02*
Y1419020D01*
X507981D01*
X507314Y1420353D01*
Y1421019D01*
X507981Y1421686D01*
X509314D01*
X509980Y1421019D01*
Y1419687D01*
X509314Y1419020D01*
X505982Y1425685D02*
Y1423019D01*
X507981D01*
X507314Y1424352D01*
Y1425018D01*
X507981Y1425685D01*
X509314D01*
X509980Y1425018D01*
Y1423685D01*
X509314Y1423019D01*
X509980Y1427017D02*
X505982D01*
Y1429017D01*
X506648Y1429683D01*
X507981D01*
X508647Y1429017D01*
Y1427017D01*
X506648Y1433682D02*
X505982Y1433016D01*
Y1431683D01*
X506648Y1431016D01*
X509314D01*
X509980Y1431683D01*
Y1433016D01*
X509314Y1433682D01*
X509980Y1435015D02*
X505982D01*
X509980Y1437681D01*
X505982D01*
X497185Y1336499D02*
Y1333167D01*
X497852Y1332500D01*
X499184D01*
X499851Y1333167D01*
Y1336499D01*
X501184Y1332500D02*
X502517D01*
X501850D01*
Y1336499D01*
X501184Y1335833D01*
X504516D02*
X505182Y1336499D01*
X506515D01*
X507182Y1335833D01*
Y1335166D01*
X506515Y1334500D01*
X505849D01*
X506515D01*
X507182Y1333833D01*
Y1333167D01*
X506515Y1332500D01*
X505182D01*
X504516Y1333167D01*
X427185Y1208999D02*
Y1205667D01*
X427851Y1205000D01*
X429184D01*
X429851Y1205667D01*
Y1208999D01*
X431184Y1208332D02*
X431850Y1208999D01*
X433183D01*
X433849Y1208332D01*
Y1207666D01*
X433183Y1206999D01*
X433849Y1206333D01*
Y1205667D01*
X433183Y1205000D01*
X431850D01*
X431184Y1205667D01*
Y1206333D01*
X431850Y1206999D01*
X431184Y1207666D01*
Y1208332D01*
X431850Y1206999D02*
X433183D01*
X307185Y1248999D02*
Y1245667D01*
X307851Y1245000D01*
X309184D01*
X309851Y1245667D01*
Y1248999D01*
X311184D02*
X313849D01*
Y1248332D01*
X311184Y1245667D01*
Y1245000D01*
X304685Y1403999D02*
Y1400667D01*
X305351Y1400000D01*
X306684D01*
X307351Y1400667D01*
Y1403999D01*
X311350D02*
X310017Y1403332D01*
X308684Y1401999D01*
Y1400667D01*
X309350Y1400000D01*
X310683D01*
X311350Y1400667D01*
Y1401333D01*
X310683Y1401999D01*
X308684D01*
X549685Y1311499D02*
Y1308167D01*
X550351Y1307500D01*
X551684D01*
X552351Y1308167D01*
Y1311499D01*
X556350D02*
X553684D01*
Y1309499D01*
X555017Y1310166D01*
X555683D01*
X556350Y1309499D01*
Y1308167D01*
X555683Y1307500D01*
X554350D01*
X553684Y1308167D01*
X664685Y1311499D02*
Y1308167D01*
X665351Y1307500D01*
X666684D01*
X667351Y1308167D01*
Y1311499D01*
X670683Y1307500D02*
Y1311499D01*
X668684Y1309499D01*
X671349D01*
X685354Y1451853D02*
Y1448521D01*
X686021Y1447854D01*
X687354D01*
X688020Y1448521D01*
Y1451853D01*
X689353Y1451187D02*
X690019Y1451853D01*
X691352D01*
X692019Y1451187D01*
Y1450520D01*
X691352Y1449854D01*
X690686D01*
X691352D01*
X692019Y1449187D01*
Y1448521D01*
X691352Y1447854D01*
X690019D01*
X689353Y1448521D01*
X398780Y1384468D02*
X394781D01*
Y1386468D01*
X395447Y1387134D01*
X396780D01*
X397447Y1386468D01*
Y1384468D01*
Y1385801D02*
X398780Y1387134D01*
Y1388467D02*
X394781D01*
Y1390467D01*
X395447Y1391133D01*
X396780D01*
X397447Y1390467D01*
Y1388467D01*
X394781Y1392466D02*
Y1393799D01*
Y1393132D01*
X398780D01*
Y1392466D01*
Y1393799D01*
X399446Y1395798D02*
Y1398464D01*
X398780Y1399797D02*
X394781D01*
Y1401796D01*
X395447Y1402463D01*
X396780D01*
X397447Y1401796D01*
Y1399797D01*
X394781Y1403796D02*
Y1405128D01*
Y1404462D01*
X398780D01*
Y1403796D01*
Y1405128D01*
X395447Y1409794D02*
X394781Y1409127D01*
Y1407794D01*
X395447Y1407128D01*
X398113D01*
X398780Y1407794D01*
Y1409127D01*
X398113Y1409794D01*
X394781Y1413126D02*
Y1411793D01*
X395447Y1411127D01*
X398113D01*
X398780Y1411793D01*
Y1413126D01*
X398113Y1413792D01*
X395447D01*
X394781Y1413126D01*
X409685Y1321499D02*
Y1318167D01*
X410352Y1317500D01*
X411684D01*
X412351Y1318167D01*
Y1321499D01*
X416350Y1317500D02*
X413684D01*
X416350Y1320166D01*
Y1320832D01*
X415683Y1321499D01*
X414350D01*
X413684Y1320832D01*
X717134Y1405832D02*
X716468Y1406499D01*
X715135D01*
X714468Y1405832D01*
Y1405166D01*
X715135Y1404499D01*
X716468D01*
X717134Y1403833D01*
Y1403166D01*
X716468Y1402500D01*
X715135D01*
X714468Y1403166D01*
X718467Y1406499D02*
Y1402500D01*
X719800Y1403833D01*
X721133Y1402500D01*
Y1406499D01*
X725132Y1402500D02*
X722466D01*
X725132Y1405166D01*
Y1405832D01*
X724465Y1406499D01*
X723132D01*
X722466Y1405832D01*
X719634Y1353332D02*
X718968Y1353999D01*
X717635D01*
X716968Y1353332D01*
Y1352666D01*
X717635Y1351999D01*
X718968D01*
X719634Y1351333D01*
Y1350666D01*
X718968Y1350000D01*
X717635D01*
X716968Y1350666D01*
X720967Y1353999D02*
Y1350000D01*
X722300Y1351333D01*
X723633Y1350000D01*
Y1353999D01*
X724966Y1350000D02*
X726299D01*
X725632D01*
Y1353999D01*
X724966Y1353332D01*
X319685Y1387500D02*
Y1391499D01*
X321684D01*
X322351Y1390832D01*
Y1389499D01*
X321684Y1388833D01*
X319685D01*
X321018D02*
X322351Y1387500D01*
X326349D02*
X323684D01*
X326349Y1390166D01*
Y1390832D01*
X325683Y1391499D01*
X324350D01*
X323684Y1390832D01*
X389685Y1300000D02*
Y1303999D01*
X391684D01*
X392351Y1303332D01*
Y1301999D01*
X391684Y1301333D01*
X389685D01*
X391018D02*
X392351Y1300000D01*
X393684D02*
X395017D01*
X394350D01*
Y1303999D01*
X393684Y1303332D01*
X362185Y1258999D02*
Y1255000D01*
X364184D01*
X364851Y1255667D01*
Y1256333D01*
X364184Y1256999D01*
X362185D01*
X364184D01*
X364851Y1257666D01*
Y1258332D01*
X364184Y1258999D01*
X362185D01*
X368849Y1258332D02*
X368183Y1258999D01*
X366850D01*
X366184Y1258332D01*
Y1255667D01*
X366850Y1255000D01*
X368183D01*
X368849Y1255667D01*
X372848Y1258999D02*
X371515Y1258332D01*
X370182Y1256999D01*
Y1255667D01*
X370849Y1255000D01*
X372182D01*
X372848Y1255667D01*
Y1256333D01*
X372182Y1256999D01*
X370182D01*
X374181Y1258332D02*
X374848Y1258999D01*
X376181D01*
X376847Y1258332D01*
Y1257666D01*
X376181Y1256999D01*
X375514D01*
X376181D01*
X376847Y1256333D01*
Y1255667D01*
X376181Y1255000D01*
X374848D01*
X374181Y1255667D01*
X378180D02*
X378846Y1255000D01*
X380179D01*
X380846Y1255667D01*
Y1258332D01*
X380179Y1258999D01*
X378846D01*
X378180Y1258332D01*
Y1257666D01*
X378846Y1256999D01*
X380846D01*
X370973Y1243855D02*
Y1246521D01*
X370306Y1247188D01*
X368973D01*
X368307Y1246521D01*
Y1243855D01*
X368973Y1243189D01*
X370306D01*
X369640Y1244522D02*
X370973Y1243189D01*
X370306D02*
X370973Y1243855D01*
X372306Y1243189D02*
X373639D01*
X372972D01*
Y1247188D01*
X372306Y1246521D01*
X712351Y1333332D02*
X711684Y1333999D01*
X710351D01*
X709685Y1333332D01*
Y1330667D01*
X710351Y1330000D01*
X711684D01*
X712351Y1330667D01*
X713684Y1330000D02*
X715017D01*
X714350D01*
Y1333999D01*
X713684Y1333332D01*
X719682Y1333999D02*
X717016D01*
Y1331999D01*
X718349Y1332666D01*
X719015D01*
X719682Y1331999D01*
Y1330667D01*
X719015Y1330000D01*
X717682D01*
X717016Y1330667D01*
X522351Y1515832D02*
X521684Y1516499D01*
X520352D01*
X519685Y1515832D01*
Y1513167D01*
X520352Y1512500D01*
X521684D01*
X522351Y1513167D01*
X523684Y1512500D02*
X525017D01*
X524350D01*
Y1516499D01*
X523684Y1515832D01*
X527016D02*
X527682Y1516499D01*
X529015D01*
X529682Y1515832D01*
Y1515166D01*
X529015Y1514499D01*
X528349D01*
X529015D01*
X529682Y1513833D01*
Y1513167D01*
X529015Y1512500D01*
X527682D01*
X527016Y1513167D01*
X614851Y1515832D02*
X614184Y1516499D01*
X612851D01*
X612185Y1515832D01*
Y1513167D01*
X612851Y1512500D01*
X614184D01*
X614851Y1513167D01*
X616184Y1512500D02*
X617517D01*
X616850D01*
Y1516499D01*
X616184Y1515832D01*
X619516D02*
X620182Y1516499D01*
X621515D01*
X622182Y1515832D01*
Y1513167D01*
X621515Y1512500D01*
X620182D01*
X619516Y1513167D01*
Y1515832D01*
X444851Y1315832D02*
X444184Y1316499D01*
X442851D01*
X442185Y1315832D01*
Y1313167D01*
X442851Y1312500D01*
X444184D01*
X444851Y1313167D01*
X446184Y1315832D02*
X446850Y1316499D01*
X448183D01*
X448849Y1315832D01*
Y1315166D01*
X448183Y1314499D01*
X448849Y1313833D01*
Y1313167D01*
X448183Y1312500D01*
X446850D01*
X446184Y1313167D01*
Y1313833D01*
X446850Y1314499D01*
X446184Y1315166D01*
Y1315832D01*
X446850Y1314499D02*
X448183D01*
X324851Y1373332D02*
X324184Y1373999D01*
X322851D01*
X322185Y1373332D01*
Y1370667D01*
X322851Y1370000D01*
X324184D01*
X324851Y1370667D01*
X328850Y1373999D02*
X327517Y1373332D01*
X326184Y1371999D01*
Y1370667D01*
X326850Y1370000D01*
X328183D01*
X328850Y1370667D01*
Y1371333D01*
X328183Y1371999D01*
X326184D01*
X567351Y1330832D02*
X566684Y1331499D01*
X565351D01*
X564685Y1330832D01*
Y1328166D01*
X565351Y1327500D01*
X566684D01*
X567351Y1328166D01*
X571349Y1331499D02*
X568684D01*
Y1329499D01*
X570017Y1330166D01*
X570683D01*
X571349Y1329499D01*
Y1328166D01*
X570683Y1327500D01*
X569350D01*
X568684Y1328166D01*
X647351Y1508332D02*
X646684Y1508999D01*
X645352D01*
X644685Y1508332D01*
Y1505667D01*
X645352Y1505000D01*
X646684D01*
X647351Y1505667D01*
X648684Y1508332D02*
X649350Y1508999D01*
X650683D01*
X651349Y1508332D01*
Y1507666D01*
X650683Y1506999D01*
X650017D01*
X650683D01*
X651349Y1506333D01*
Y1505667D01*
X650683Y1505000D01*
X649350D01*
X648684Y1505667D01*
X617351Y1330832D02*
X616684Y1331499D01*
X615351D01*
X614685Y1330832D01*
Y1328166D01*
X615351Y1327500D01*
X616684D01*
X617351Y1328166D01*
X618684Y1327500D02*
X620017D01*
X619350D01*
Y1331499D01*
X618684Y1330832D01*
X362185Y1175000D02*
Y1178999D01*
X364184D01*
X364851Y1178332D01*
Y1176999D01*
X364184Y1176333D01*
X362185D01*
X366184Y1175000D02*
X367517D01*
X366850D01*
Y1178999D01*
X366184Y1178332D01*
X459685Y1502500D02*
X461018D01*
X460352D01*
Y1506499D01*
X459685Y1505832D01*
X463017D02*
X463684Y1506499D01*
X465017D01*
X465683Y1505832D01*
Y1503166D01*
X465017Y1502500D01*
X463684D01*
X463017Y1503166D01*
Y1505832D01*
X467016Y1506499D02*
Y1503166D01*
X467682Y1502500D01*
X469015D01*
X469682Y1503166D01*
Y1506499D01*
X473680D02*
X471015D01*
Y1504499D01*
X472348D01*
X471015D01*
Y1502500D01*
X462351Y1513332D02*
X461684Y1513999D01*
X460352D01*
X459685Y1513332D01*
Y1510666D01*
X460352Y1510000D01*
X461684D01*
X462351Y1510666D01*
X466350Y1510000D02*
X463684D01*
X466350Y1512666D01*
Y1513332D01*
X465683Y1513999D01*
X464350D01*
X463684Y1513332D01*
X305100Y1177300D02*
X306433D01*
X305766D01*
Y1181299D01*
X305100Y1180632D01*
X308432D02*
X309099Y1181299D01*
X310432D01*
X311098Y1180632D01*
Y1177966D01*
X310432Y1177300D01*
X309099D01*
X308432Y1177966D01*
Y1180632D01*
X312431Y1181299D02*
Y1177966D01*
X313097Y1177300D01*
X314430D01*
X315097Y1177966D01*
Y1181299D01*
X319095D02*
X316430D01*
Y1179299D01*
X317763D01*
X316430D01*
Y1177300D01*
X307766Y1207032D02*
X307099Y1207699D01*
X305766D01*
X305100Y1207032D01*
Y1204366D01*
X305766Y1203700D01*
X307099D01*
X307766Y1204366D01*
X309099Y1203700D02*
X310432D01*
X309765D01*
Y1207699D01*
X309099Y1207032D01*
X315097Y1207699D02*
X313764Y1207032D01*
X312431Y1205699D01*
Y1204366D01*
X313097Y1203700D01*
X314430D01*
X315097Y1204366D01*
Y1205033D01*
X314430Y1205699D01*
X312431D01*
X379685Y1481499D02*
Y1477500D01*
X381684D01*
X382351Y1478166D01*
Y1480832D01*
X381684Y1481499D01*
X379685D01*
X386350Y1477500D02*
X383684D01*
X386350Y1480166D01*
Y1480832D01*
X385683Y1481499D01*
X384350D01*
X383684Y1480832D01*
X700686Y1190166D02*
Y1188833D01*
Y1189499D01*
X704018D01*
X704685Y1188833D01*
Y1188167D01*
X704018Y1187500D01*
X704685Y1191499D02*
X700686D01*
Y1193498D01*
X701353Y1194164D01*
X702686D01*
X703352Y1193498D01*
Y1191499D01*
X704685Y1195497D02*
Y1196830D01*
Y1196164D01*
X700686D01*
X701353Y1195497D01*
X730686Y1187666D02*
Y1186333D01*
Y1186999D01*
X734019D01*
X734685Y1186333D01*
Y1185666D01*
X734019Y1185000D01*
X734685Y1188999D02*
X730686D01*
Y1190998D01*
X731353Y1191665D01*
X732686D01*
X733352Y1190998D01*
Y1188999D01*
X734685Y1195663D02*
Y1192997D01*
X732019Y1195663D01*
X731353D01*
X730686Y1194997D01*
Y1193664D01*
X731353Y1192997D01*
X642185Y1465000D02*
Y1468999D01*
X644184D01*
X644851Y1468332D01*
Y1466999D01*
X644184Y1466333D01*
X642185D01*
X646184Y1465000D02*
X647517D01*
X646850D01*
Y1468999D01*
X646184Y1468332D01*
X649516D02*
X650182Y1468999D01*
X651515D01*
X652182Y1468332D01*
Y1465666D01*
X651515Y1465000D01*
X650182D01*
X649516Y1465666D01*
Y1468332D01*
X712185Y1225000D02*
Y1228999D01*
X714184D01*
X714851Y1228332D01*
Y1226999D01*
X714184Y1226333D01*
X712185D01*
X713518D02*
X714851Y1225000D01*
X718850Y1228999D02*
X716184D01*
Y1226999D01*
X717517Y1227666D01*
X718183D01*
X718850Y1226999D01*
Y1225667D01*
X718183Y1225000D01*
X716850D01*
X716184Y1225667D01*
X562185Y1520000D02*
Y1523999D01*
X564184D01*
X564851Y1523332D01*
Y1521999D01*
X564184Y1521333D01*
X562185D01*
X563518D02*
X564851Y1520000D01*
X568850Y1523999D02*
X567517Y1523332D01*
X566184Y1521999D01*
Y1520667D01*
X566850Y1520000D01*
X568183D01*
X568850Y1520667D01*
Y1521333D01*
X568183Y1521999D01*
X566184D01*
X712185Y1255667D02*
X712851Y1255000D01*
X714184D01*
X714851Y1255667D01*
Y1256333D01*
X714184Y1256999D01*
X712851D01*
X712185Y1257666D01*
Y1258332D01*
X712851Y1258999D01*
X714184D01*
X714851Y1258332D01*
X713518Y1258999D02*
Y1255000D01*
X716184D02*
X717517D01*
X716850D01*
Y1258999D01*
X716184Y1258332D01*
X719516D02*
X720182Y1258999D01*
X721515D01*
X722182Y1258332D01*
Y1255667D01*
X721515Y1255000D01*
X720182D01*
X719516Y1255667D01*
Y1258332D01*
X723515Y1255000D02*
Y1255667D01*
X724181D01*
Y1255000D01*
X723515D01*
X726847D02*
Y1255667D01*
X727513D01*
Y1255000D01*
X726847D01*
X730179Y1255667D02*
X730846Y1255000D01*
X732178D01*
X732845Y1255667D01*
Y1256333D01*
X732178Y1256999D01*
X730846D01*
X730179Y1257666D01*
Y1258332D01*
X730846Y1258999D01*
X732178D01*
X732845Y1258332D01*
X731512Y1258999D02*
Y1255000D01*
X734178D02*
X735511D01*
X734844D01*
Y1258999D01*
X734178Y1258332D01*
X740176Y1258999D02*
X737510D01*
Y1256999D01*
X738843D01*
X737510D01*
Y1255000D01*
X712185Y1275667D02*
X712851Y1275000D01*
X714184D01*
X714851Y1275667D01*
Y1276333D01*
X714184Y1276999D01*
X712851D01*
X712185Y1277666D01*
Y1278332D01*
X712851Y1278999D01*
X714184D01*
X714851Y1278332D01*
X713518Y1278999D02*
Y1275000D01*
X716184Y1278332D02*
X716850Y1278999D01*
X718183D01*
X718850Y1278332D01*
Y1275667D01*
X718183Y1275000D01*
X716850D01*
X716184Y1275667D01*
Y1278332D01*
X720182D02*
X720849Y1278999D01*
X722182D01*
X722848Y1278332D01*
Y1275667D01*
X722182Y1275000D01*
X720849D01*
X720182Y1275667D01*
Y1278332D01*
X724181Y1275000D02*
Y1275667D01*
X724848D01*
Y1275000D01*
X724181D01*
X727513D02*
Y1275667D01*
X728180D01*
Y1275000D01*
X727513D01*
X730846Y1275667D02*
X731512Y1275000D01*
X732845D01*
X733511Y1275667D01*
Y1276333D01*
X732845Y1276999D01*
X731512D01*
X730846Y1277666D01*
Y1278332D01*
X731512Y1278999D01*
X732845D01*
X733511Y1278332D01*
X732178Y1278999D02*
Y1275000D01*
X734844Y1278332D02*
X735511Y1278999D01*
X736844D01*
X737510Y1278332D01*
Y1275667D01*
X736844Y1275000D01*
X735511D01*
X734844Y1275667D01*
Y1278332D01*
X741509Y1278999D02*
X738843D01*
Y1276999D01*
X740176D01*
X738843D01*
Y1275000D01*
X327913Y1092813D02*
X332912D01*
X330413D01*
Y1085315D01*
X336661D02*
X339160D01*
X340409Y1086565D01*
Y1089064D01*
X339160Y1090313D01*
X336661D01*
X335411Y1089064D01*
Y1086565D01*
X336661Y1085315D01*
X342909Y1082816D02*
Y1090313D01*
X346657D01*
X347907Y1089064D01*
Y1086565D01*
X346657Y1085315D01*
X342909D01*
X361652Y1092813D02*
X359153D01*
X357904Y1091563D01*
Y1086565D01*
X359153Y1085315D01*
X361652D01*
X362902Y1086565D01*
Y1091563D01*
X361652Y1092813D01*
X365401Y1090313D02*
X367900Y1085315D01*
X370400Y1090313D01*
X376648Y1085315D02*
X374149D01*
X372899Y1086565D01*
Y1089064D01*
X374149Y1090313D01*
X376648D01*
X377897Y1089064D01*
Y1087814D01*
X372899D01*
X380396Y1090313D02*
Y1085315D01*
Y1087814D01*
X381646Y1089064D01*
X382896Y1090313D01*
X384145D01*
X387894Y1085315D02*
X390393D01*
X389144D01*
Y1092813D01*
X387894D01*
X395392Y1090313D02*
X397891D01*
X399140Y1089064D01*
Y1085315D01*
X395392D01*
X394142Y1086565D01*
X395392Y1087814D01*
X399140D01*
X401640Y1090313D02*
Y1086565D01*
X402889Y1085315D01*
X406638D01*
Y1084065D01*
X405388Y1082816D01*
X404139D01*
X406638Y1085315D02*
Y1090313D01*
X402500Y1160500D02*
X406499D01*
X402500Y1157834D01*
X406499D01*
X402500Y1155835D02*
Y1154502D01*
X403166Y1153835D01*
X404499D01*
X405166Y1154502D01*
Y1155835D01*
X404499Y1156501D01*
X403166D01*
X402500Y1155835D01*
X405832Y1151836D02*
X405166D01*
Y1152503D01*
Y1151170D01*
Y1151836D01*
X403166D01*
X402500Y1151170D01*
X405166Y1146504D02*
Y1148504D01*
X404499Y1149170D01*
X403166D01*
X402500Y1148504D01*
Y1146504D01*
X406499Y1145172D02*
X402500D01*
X404499D01*
X405166Y1144505D01*
Y1143172D01*
X404499Y1142506D01*
X402500D01*
D14*
X757185Y1510000D02*
G03*
X757185Y1469326I45677J-20337D01*
G01*
X393622Y1495630D02*
X408622D01*
X393622Y1468130D02*
X408622D01*
Y1498130D01*
X393622D02*
X408622D01*
X393622Y1468130D02*
Y1498130D01*
X757185Y1510000D02*
Y1517500D01*
Y1462500D02*
Y1470000D01*
X747185Y1462500D02*
X757185D01*
X747185Y1517500D02*
X757185D01*
X677185Y1455000D02*
Y1525000D01*
X747185D01*
Y1455000D02*
Y1525000D01*
X677185Y1455000D02*
X747185D01*
X489685Y1262498D02*
Y1259166D01*
X491351Y1257500D01*
X493017Y1259166D01*
Y1262498D01*
X494683Y1257500D02*
X496349D01*
X495516D01*
Y1262498D01*
X494683Y1261665D01*
X498849Y1257500D02*
Y1258333D01*
X499682D01*
Y1257500D01*
X498849D01*
X503014Y1261665D02*
X503847Y1262498D01*
X505513D01*
X506346Y1261665D01*
Y1258333D01*
X505513Y1257500D01*
X503847D01*
X503014Y1258333D01*
Y1261665D01*
X469685Y1265000D02*
Y1269998D01*
X471351Y1268332D01*
X473017Y1269998D01*
Y1265000D01*
X475516Y1268332D02*
X477183D01*
X478016Y1267499D01*
Y1265000D01*
X475516D01*
X474683Y1265833D01*
X475516Y1266666D01*
X478016D01*
X479682Y1265000D02*
X482181D01*
X483014Y1265833D01*
X482181Y1266666D01*
X480515D01*
X479682Y1267499D01*
X480515Y1268332D01*
X483014D01*
X484680Y1265000D02*
X487179D01*
X488012Y1265833D01*
X487179Y1266666D01*
X485513D01*
X484680Y1267499D01*
X485513Y1268332D01*
X488012D01*
X498009Y1269165D02*
X497176Y1269998D01*
X495510D01*
X494677Y1269165D01*
Y1268332D01*
X495510Y1267499D01*
X497176D01*
X498009Y1266666D01*
Y1265833D01*
X497176Y1265000D01*
X495510D01*
X494677Y1265833D01*
X500508Y1269165D02*
Y1268332D01*
X499675D01*
X501341D01*
X500508D01*
Y1265833D01*
X501341Y1265000D01*
X504674D02*
X506340D01*
X507173Y1265833D01*
Y1267499D01*
X506340Y1268332D01*
X504674D01*
X503841Y1267499D01*
Y1265833D01*
X504674Y1265000D01*
X508839Y1268332D02*
Y1265000D01*
Y1266666D01*
X509672Y1267499D01*
X510505Y1268332D01*
X511338D01*
X514670D02*
X516336D01*
X517170Y1267499D01*
Y1265000D01*
X514670D01*
X513837Y1265833D01*
X514670Y1266666D01*
X517170D01*
X520502Y1263334D02*
X521335D01*
X522168Y1264167D01*
Y1268332D01*
X519669D01*
X518836Y1267499D01*
Y1265833D01*
X519669Y1265000D01*
X522168D01*
X526333D02*
X524667D01*
X523834Y1265833D01*
Y1267499D01*
X524667Y1268332D01*
X526333D01*
X527166Y1267499D01*
Y1266666D01*
X523834D01*
X479685Y1277498D02*
X483017D01*
X481351D01*
Y1272500D01*
X488016Y1276665D02*
X487183Y1277498D01*
X485516D01*
X484683Y1276665D01*
Y1275832D01*
X485516Y1274999D01*
X487183D01*
X488016Y1274166D01*
Y1273333D01*
X487183Y1272500D01*
X485516D01*
X484683Y1273333D01*
X494680Y1272500D02*
Y1277498D01*
X497179D01*
X498012Y1276665D01*
Y1274999D01*
X497179Y1274166D01*
X494680D01*
X499679Y1272500D02*
X501345D01*
X500512D01*
Y1275832D01*
X499679D01*
X507176D02*
X504677D01*
X503844Y1274999D01*
Y1273333D01*
X504677Y1272500D01*
X507176D01*
X509675D02*
X511341D01*
X512175Y1273333D01*
Y1274999D01*
X511341Y1275832D01*
X509675D01*
X508842Y1274999D01*
Y1273333D01*
X509675Y1272500D01*
X498017Y1369165D02*
X497184Y1369998D01*
X495518D01*
X494685Y1369165D01*
Y1368332D01*
X495518Y1367499D01*
X497184D01*
X498017Y1366666D01*
Y1365833D01*
X497184Y1365000D01*
X495518D01*
X494685Y1365833D01*
X499683Y1365000D02*
Y1369998D01*
X502183D01*
X503016Y1369165D01*
Y1367499D01*
X502183Y1366666D01*
X499683D01*
X501349D02*
X503016Y1365000D01*
X504682D02*
Y1368332D01*
X506348Y1369998D01*
X508014Y1368332D01*
Y1365000D01*
Y1367499D01*
X504682D01*
X509680Y1365000D02*
Y1369998D01*
X511346Y1368332D01*
X513012Y1369998D01*
Y1365000D01*
X588017Y1369998D02*
X584685D01*
Y1367499D01*
X586351D01*
X584685D01*
Y1365000D01*
X589683Y1369998D02*
Y1365000D01*
X593016D01*
X594682D02*
Y1368332D01*
X596348Y1369998D01*
X598014Y1368332D01*
Y1365000D01*
Y1367499D01*
X594682D01*
X603012Y1369165D02*
X602179Y1369998D01*
X600513D01*
X599680Y1369165D01*
Y1368332D01*
X600513Y1367499D01*
X602179D01*
X603012Y1366666D01*
Y1365833D01*
X602179Y1365000D01*
X600513D01*
X599680Y1365833D01*
X604678Y1369998D02*
Y1365000D01*
Y1367499D01*
X608011D01*
Y1369998D01*
Y1365000D01*
X679685Y1367500D02*
Y1372498D01*
X683017Y1367500D01*
Y1372498D01*
X684683Y1367500D02*
Y1372498D01*
X686349Y1370832D01*
X688016Y1372498D01*
Y1367500D01*
X689682Y1372498D02*
X691348D01*
X690515D01*
Y1367500D01*
X689682D01*
X691348D01*
X679685Y1422500D02*
Y1427498D01*
X682184D01*
X683017Y1426665D01*
Y1424999D01*
X682184Y1424166D01*
X679685D01*
X681351D02*
X683017Y1422500D01*
X687183D02*
X685516D01*
X684683Y1423333D01*
Y1424999D01*
X685516Y1425832D01*
X687183D01*
X688016Y1424999D01*
Y1424166D01*
X684683D01*
X689682Y1422500D02*
X692181D01*
X693014Y1423333D01*
X692181Y1424166D01*
X690515D01*
X689682Y1424999D01*
X690515Y1425832D01*
X693014D01*
X697179Y1422500D02*
X695513D01*
X694680Y1423333D01*
Y1424999D01*
X695513Y1425832D01*
X697179D01*
X698012Y1424999D01*
Y1424166D01*
X694680D01*
X700512Y1426665D02*
Y1425832D01*
X699679D01*
X701345D01*
X700512D01*
Y1423333D01*
X701345Y1422500D01*
X490811Y1115653D02*
X492810D01*
X491810D01*
Y1121651D01*
X490811Y1120651D01*
X499808Y1115653D02*
X495809D01*
X499808Y1119652D01*
Y1120651D01*
X498808Y1121651D01*
X496809D01*
X495809Y1120651D01*
X501807D02*
X502807Y1121651D01*
X504806D01*
X505806Y1120651D01*
Y1116653D01*
X504806Y1115653D01*
X502807D01*
X501807Y1116653D01*
Y1120651D01*
X507805Y1115653D02*
Y1116653D01*
X508805D01*
Y1115653D01*
X507805D01*
X512804Y1120651D02*
X513803Y1121651D01*
X515802D01*
X516802Y1120651D01*
Y1116653D01*
X515802Y1115653D01*
X513803D01*
X512804Y1116653D01*
Y1120651D01*
X518802D02*
X519801Y1121651D01*
X521801D01*
X522800Y1120651D01*
Y1116653D01*
X521801Y1115653D01*
X519801D01*
X518802Y1116653D01*
Y1120651D01*
X232477Y1314256D02*
Y1316255D01*
Y1315255D01*
X226479D01*
X227479Y1314256D01*
Y1319254D02*
X226479Y1320254D01*
Y1322253D01*
X227479Y1323253D01*
X231477D01*
X232477Y1322253D01*
Y1320254D01*
X231477Y1319254D01*
X227479D01*
Y1325252D02*
X226479Y1326252D01*
Y1328251D01*
X227479Y1329251D01*
X231477D01*
X232477Y1328251D01*
Y1326252D01*
X231477Y1325252D01*
X227479D01*
X232477Y1331250D02*
X231477D01*
Y1332250D01*
X232477D01*
Y1331250D01*
X227479Y1336248D02*
X226479Y1337248D01*
Y1339248D01*
X227479Y1340247D01*
X231477D01*
X232477Y1339248D01*
Y1337248D01*
X231477Y1336248D01*
X227479D01*
Y1342247D02*
X226479Y1343246D01*
Y1345245D01*
X227479Y1346245D01*
X231477D01*
X232477Y1345245D01*
Y1343246D01*
X231477Y1342247D01*
X227479D01*
D38*
X659247Y1361937D02*
G03*
X659209Y1361841I31J-68D01*
G01*
X660193Y1359431D02*
G03*
X660291Y1359390I69J28D01*
G01*
X660896Y1359604D02*
G03*
X660825Y1359611I-42J-62D01*
G01*
X662072Y1358809D02*
G03*
X662167Y1358818I42J62D01*
G01*
X663171Y1359822D02*
G03*
X663180Y1359917I-53J53D01*
G01*
X662378Y1361163D02*
G03*
X662385Y1361092I69J-29D01*
G01*
X662916Y1362375D02*
G03*
X662861Y1362330I14J-74D01*
G01*
X664310Y1362644D02*
G03*
X664370Y1362718I-14J74D01*
G01*
Y1364138D02*
G03*
X664310Y1364212I-75J0D01*
G01*
X662861Y1364525D02*
G03*
X662916Y1364480I69J29D01*
G01*
X662385Y1365763D02*
G03*
X662378Y1365693I62J-42D01*
G01*
X663180Y1366939D02*
G03*
X663171Y1367034I-62J42D01*
G01*
X662167Y1368038D02*
G03*
X662072Y1368047I-53J-53D01*
G01*
X660825Y1367245D02*
G03*
X660896Y1367252I29J69D01*
G01*
X659613Y1367783D02*
G03*
X659658Y1367728I74J14D01*
G01*
X659344Y1369177D02*
G03*
X659271Y1369237I-74J-14D01*
G01*
X657851D02*
G03*
X657777Y1369177I0J-75D01*
G01*
X657463Y1367728D02*
G03*
X657508Y1367783I-29J69D01*
G01*
X656225Y1367252D02*
G03*
X656296Y1367245I42J62D01*
G01*
X655050Y1368047D02*
G03*
X654955Y1368038I-42J-62D01*
G01*
X653951Y1367034D02*
G03*
X653942Y1366939I53J-53D01*
G01*
X654744Y1365693D02*
G03*
X654737Y1365763I-69J29D01*
G01*
X654205Y1364480D02*
G03*
X654260Y1364525I-14J74D01*
G01*
X652812Y1364212D02*
G03*
X652751Y1364138I14J-74D01*
G01*
Y1362718D02*
G03*
X652812Y1362644I75J0D01*
G01*
X654260Y1362330D02*
G03*
X654205Y1362375I-69J-29D01*
G01*
X654737Y1361092D02*
G03*
X654744Y1361163I-62J42D01*
G01*
X653942Y1359917D02*
G03*
X653951Y1359822I62J-42D01*
G01*
X654955Y1358818D02*
G03*
X655050Y1358809I53J53D01*
G01*
X656296Y1359611D02*
G03*
X656225Y1359604I-29J-69D01*
G01*
X656831Y1359390D02*
G03*
X656929Y1359431I29J69D01*
G01*
X657913Y1361841D02*
G03*
X657874Y1361937I-69J28D01*
G01*
X659247D02*
G03*
X657874Y1361937I-686J1491D01*
G01*
X652965Y1354560D02*
G03*
X652944Y1354420I393J-133D01*
G01*
X653031Y1354665D02*
G03*
X652965Y1354560I201J-198D01*
G01*
X653130Y1354731D02*
G03*
X653031Y1354665I108J-269D01*
G01*
X653253Y1354753D02*
G03*
X653130Y1354731I-4J-328D01*
G01*
X653372D02*
G03*
X653253Y1354753I-116J-294D01*
G01*
X653471Y1354665D02*
G03*
X653372Y1354731I-209J-204D01*
G01*
X653536Y1354560D02*
G03*
X653471Y1354665I-267J-93D01*
G01*
X653558Y1354420D02*
G03*
X653536Y1354560I-415J7D01*
G01*
X653870Y1354528D02*
G03*
X653860Y1354651I-693J4D01*
G01*
X653860D02*
G03*
X653828Y1354759I-508J-90D01*
G01*
X653828D02*
G03*
X653702Y1354928I-397J-165D01*
G01*
Y1354928D02*
G03*
X653531Y1355031I-415J-496D01*
G01*
Y1355031D02*
G03*
X653353Y1355066I-178J-447D01*
G01*
Y1355066D02*
G03*
X653123Y1355020I-10J-550D01*
G01*
Y1355020D02*
G03*
X652949Y1354882I195J-424D01*
G01*
X652944Y1356130D02*
G03*
X653127Y1355997I534J543D01*
G01*
Y1355997D02*
G03*
X653344Y1355947I210J424D01*
G01*
X653344Y1355947D02*
G03*
X653477Y1355961I4J593D01*
G01*
Y1355961D02*
G03*
X653589Y1356003I-96J429D01*
G01*
D02*
G03*
X653760Y1356147I-249J467D01*
G01*
D02*
G03*
X653847Y1356342I-365J281D01*
G01*
D02*
G03*
X653864Y1356497I-1126J203D01*
G01*
D02*
G03*
X653870Y1356739I-4294J223D01*
G01*
D02*
G03*
X653864Y1356983I-4343J19D01*
G01*
D02*
G03*
X653847Y1357138I-1134J-47D01*
G01*
D02*
G03*
X653760Y1357333I-463J-90D01*
G01*
D02*
G03*
X653589Y1357477I-436J-342D01*
G01*
D02*
G03*
X653477Y1357520I-209J-379D01*
G01*
D02*
G03*
X653344Y1357535I-128J-565D01*
G01*
D02*
G03*
X653125Y1357489I-6J-527D01*
G01*
X653125D02*
G03*
X652944Y1357354I229J-496D01*
G01*
X665139Y1357034D02*
G03*
X665113Y1356880I469J-161D01*
G01*
X665209Y1357148D02*
G03*
X665139Y1357034I220J-215D01*
G01*
X665313Y1357217D02*
G03*
X665209Y1357148I114J-282D01*
G01*
X665440Y1357241D02*
G03*
X665313Y1357217I-4J-338D01*
G01*
X665566D02*
G03*
X665440Y1357241I-122J-307D01*
G01*
X665669Y1357148D02*
G03*
X665566Y1357217I-219J-212D01*
G01*
X665739Y1357034D02*
G03*
X665669Y1357148I-295J-105D01*
G01*
X665767Y1356880D02*
G03*
X665739Y1357034I-507J-13D01*
G01*
X657758Y1356223D02*
G03*
X658076Y1356016I713J748D01*
G01*
D02*
G03*
X658441Y1355947I358J894D01*
G01*
D02*
G03*
X658689Y1355978I8J944D01*
G01*
Y1355978D02*
G03*
X658897Y1356071I-183J684D01*
G01*
D02*
G03*
X659037Y1356222I-222J347D01*
G01*
D02*
G03*
X659084Y1356424I-380J194D01*
G01*
D02*
G03*
X659057Y1356595I-541J5D01*
G01*
D02*
G03*
X658979Y1356740I-448J-148D01*
G01*
D02*
G03*
X658841Y1356844I-271J-218D01*
G01*
Y1356844D02*
G03*
X658746Y1356874I-204J-482D01*
G01*
Y1356874D02*
G03*
X658634Y1356889I-161J-749D01*
G01*
X658277Y1356924D02*
G03*
X658377Y1356907I123J415D01*
G01*
X658215Y1356959D02*
G03*
X658277Y1356924I103J112D01*
G01*
X658183Y1357004D02*
G03*
X658215Y1356959I142J68D01*
G01*
X658172Y1357053D02*
G03*
X658183Y1357004I116J0D01*
G01*
X658230Y1357188D02*
G03*
X658172Y1357053I115J-130D01*
G01*
X658311Y1357227D02*
G03*
X658230Y1357188I40J-184D01*
G01*
X658438Y1357241D02*
G03*
X658311Y1357227I-10J-518D01*
G01*
X658662Y1357200D02*
G03*
X658438Y1357241I-214J-545D01*
G01*
X658853Y1357096D02*
G03*
X658662Y1357200I-589J-858D01*
G01*
X659046Y1357324D02*
G03*
X658786Y1357477I-601J-721D01*
G01*
Y1357477D02*
G03*
X658627Y1357520I-281J-726D01*
G01*
D02*
G03*
X658438Y1357535I-182J-1147D01*
G01*
D02*
G03*
X658212Y1357504I-8J-801D01*
G01*
D02*
G03*
X658026Y1357413I166J-574D01*
G01*
D02*
G03*
X657901Y1357264I224J-312D01*
G01*
D02*
G03*
X657860Y1357056I446J-197D01*
G01*
D02*
G03*
X657892Y1356878I470J-8D01*
G01*
Y1356878D02*
G03*
X657987Y1356744I330J133D01*
G01*
D02*
G03*
X658130Y1356656I320J362D01*
G01*
Y1356656D02*
G03*
X658307Y1356617I215J557D01*
G01*
X658665Y1356576D02*
G03*
X658581Y1356592I-111J-359D01*
G01*
X658724Y1356545D02*
G03*
X658665Y1356576I-114J-148D01*
G01*
X658760Y1356500D02*
G03*
X658724Y1356545I-111J-50D01*
G01*
X658772Y1356439D02*
G03*
X658760Y1356500I-146J3D01*
G01*
X658750Y1356353D02*
G03*
X658772Y1356439I-148J83D01*
G01*
X658685Y1356290D02*
G03*
X658750Y1356353I-83J152D01*
G01*
X658586Y1356253D02*
G03*
X658685Y1356290I-75J343D01*
G01*
X658465Y1356240D02*
G03*
X658586Y1356253I5J544D01*
G01*
X658200Y1356290D02*
G03*
X658465Y1356240I259J646D01*
G01*
X657976Y1356439D02*
G03*
X658200Y1356290I490J491D01*
G01*
X666079Y1356880D02*
G03*
X666031Y1357150I-719J11D01*
G01*
D02*
G03*
X665887Y1357358I-528J-211D01*
G01*
D02*
G03*
X665680Y1357490I-457J-485D01*
G01*
D02*
G03*
X665440Y1357535I-235J-599D01*
G01*
D02*
G03*
X665219Y1357491I1J-590D01*
G01*
D02*
G03*
X665007Y1357362I301J-727D01*
G01*
D02*
G03*
X664917Y1357257I291J-344D01*
G01*
Y1357257D02*
G03*
X664852Y1357118I523J-328D01*
G01*
D02*
G03*
X664814Y1356944I922J-297D01*
G01*
D02*
G03*
X664801Y1356735I1556J-201D01*
G01*
X664801D02*
G03*
X664815Y1356516I1575J-9D01*
G01*
X664815D02*
G03*
X664857Y1356338I912J120D01*
G01*
D02*
G03*
X664927Y1356199I525J180D01*
G01*
Y1356199D02*
G03*
X665025Y1356102I325J229D01*
G01*
D02*
G03*
X665252Y1355986I522J744D01*
G01*
D02*
G03*
X665488Y1355947I236J699D01*
G01*
D02*
G03*
X665789Y1356005I2J807D01*
G01*
D02*
G03*
X665926Y1356081I-226J563D01*
G01*
D02*
G03*
X666049Y1356197I-448J599D01*
G01*
X665664Y1356277D02*
G03*
X665823Y1356390I-213J469D01*
G01*
X665482Y1356240D02*
G03*
X665664Y1356277I3J446D01*
G01*
X665335Y1356264D02*
G03*
X665482Y1356240I142J407D01*
G01*
X665217Y1356336D02*
G03*
X665335Y1356264I236J255D01*
G01*
X665139Y1356456D02*
G03*
X665217Y1356336I281J98D01*
G01*
X665113Y1356623D02*
G03*
X665139Y1356456I492J-10D01*
G01*
X653151Y1356268D02*
G03*
X653250Y1356258I94J446D01*
G01*
X653074Y1356297D02*
G03*
X653151Y1356268I130J225D01*
G01*
X652987Y1356414D02*
G03*
X653074Y1356297I184J46D01*
G01*
X652944Y1356739D02*
G03*
X652987Y1356414I1209J-4D01*
G01*
Y1357066D02*
G03*
X652944Y1356739I1177J-323D01*
G01*
X653074Y1357183D02*
G03*
X652987Y1357066I97J-164D01*
G01*
X653151Y1357213D02*
G03*
X653074Y1357183I53J-253D01*
G01*
X653250Y1357223D02*
G03*
X653151Y1357213I-5J-453D01*
G01*
X653349Y1357213D02*
G03*
X653250Y1357223I-94J-462D01*
G01*
X653426Y1357185D02*
G03*
X653349Y1357213I-130J-233D01*
G01*
X653514Y1357071D02*
G03*
X653426Y1357185I-180J-48D01*
G01*
X653558Y1356739D02*
G03*
X653514Y1357071I-1185J11D01*
G01*
X653514Y1356409D02*
G03*
X653558Y1356739I-1130J319D01*
G01*
X653426Y1356296D02*
G03*
X653514Y1356409I-91J161D01*
G01*
X653349Y1356267D02*
G03*
X653426Y1356296I-53J262D01*
G01*
X653250Y1356258D02*
G03*
X653349Y1356267I5J475D01*
G01*
X657701Y1354882D02*
G03*
X657517Y1355015I-573J-601D01*
G01*
D02*
G03*
X657301Y1355066I-210J-409D01*
G01*
Y1355066D02*
G03*
X657167Y1355051I-4J-588D01*
G01*
D02*
G03*
X657054Y1355008I96J-424D01*
G01*
D02*
G03*
X656885Y1354864I252J-465D01*
G01*
D02*
G03*
X656797Y1354669I359J-280D01*
G01*
D02*
G03*
X656780Y1354515I1147J-202D01*
G01*
D02*
G03*
X656775Y1354274I4386J-222D01*
G01*
D02*
G03*
X656780Y1354030I4504J-19D01*
G01*
D02*
G03*
X656797Y1353873I1194J48D01*
G01*
D02*
G03*
X656885Y1353678I438J80D01*
G01*
Y1353678D02*
G03*
X657054Y1353534I405J303D01*
G01*
D02*
G03*
X657167Y1353492I209J389D01*
G01*
Y1353492D02*
G03*
X657301Y1353478I129J589D01*
G01*
Y1353478D02*
G03*
X657519Y1353523I6J530D01*
G01*
D02*
G03*
X657701Y1353658I-229J500D01*
G01*
X662767Y1357045D02*
G03*
X662744Y1356898I393J-138D01*
G01*
X662838Y1357146D02*
G03*
X662767Y1357045I151J-180D01*
G01*
X663046Y1357223D02*
G03*
X662838Y1357146I-0J-320D01*
G01*
X663150Y1357203D02*
G03*
X663046Y1357223I-105J-277D01*
G01*
X663252Y1357146D02*
G03*
X663150Y1357203I-248J-322D01*
G01*
X663478Y1357415D02*
G03*
X663320Y1357505I-367J-460D01*
G01*
Y1357505D02*
G03*
X663154Y1357535I-166J-446D01*
G01*
Y1357535D02*
G03*
X662923Y1357489I-10J-550D01*
G01*
Y1357489D02*
G03*
X662750Y1357351I195J-424D01*
G01*
X660839Y1356485D02*
G03*
X660850Y1356361I701J-4D01*
G01*
D02*
G03*
X660881Y1356253I511J90D01*
G01*
X660881D02*
G03*
X661007Y1356084I394J163D01*
G01*
X661007Y1356084D02*
G03*
X661179Y1355982I410J492D01*
G01*
X661179D02*
G03*
X661359Y1355947I181J460D01*
G01*
Y1355947D02*
G03*
X661587Y1355993I10J544D01*
G01*
Y1355993D02*
G03*
X661759Y1356130I-194J422D01*
G01*
X661744Y1356451D02*
G03*
X661766Y1356592I-397J134D01*
G01*
X661678Y1356345D02*
G03*
X661744Y1356451I-198J196D01*
G01*
X661580Y1356280D02*
G03*
X661678Y1356345I-110J271D01*
G01*
X661460Y1356258D02*
G03*
X661580Y1356280I4J319D01*
G01*
X661338D02*
G03*
X661460Y1356258I118J309D01*
G01*
X661239Y1356345D02*
G03*
X661338Y1356280I206J203D01*
G01*
X661173Y1356451D02*
G03*
X661239Y1356345I263J91D01*
G01*
X661151Y1356592D02*
G03*
X661173Y1356451I419J-7D01*
G01*
X661350Y1353892D02*
G03*
X661368Y1354035I-461J131D01*
G01*
X661327Y1353844D02*
G03*
X661350Y1353892I-160J104D01*
G01*
X661296Y1353812D02*
G03*
X661327Y1353844I-67J96D01*
G01*
X661190Y1353775D02*
G03*
X661296Y1353812I-40J291D01*
G01*
X661027Y1353765D02*
G03*
X661190Y1353775I26J891D01*
G01*
X660897Y1353780D02*
G03*
X661027Y1353765I121J470D01*
G01*
X660810Y1353826D02*
G03*
X660897Y1353780I138J158D01*
G01*
X660759Y1353889D02*
G03*
X660810Y1353826I178J93D01*
G01*
X660742Y1353961D02*
G03*
X660759Y1353889I158J-1D01*
G01*
X660757Y1354041D02*
G03*
X660742Y1353961I163J-72D01*
G01*
X660805Y1354099D02*
G03*
X660757Y1354041I84J-120D01*
G01*
X660888Y1354135D02*
G03*
X660805Y1354099I56J-238D01*
G01*
X661004Y1354150D02*
G03*
X660888Y1354135I9J-533D01*
G01*
X663441Y1354565D02*
G03*
X663414Y1354411I469J-161D01*
G01*
X663511Y1354679D02*
G03*
X663441Y1354565I220J-215D01*
G01*
X663615Y1354748D02*
G03*
X663511Y1354679I114J-282D01*
G01*
X663742Y1354772D02*
G03*
X663615Y1354748I-4J-338D01*
G01*
X663868D02*
G03*
X663742Y1354772I-122J-307D01*
G01*
X663971Y1354679D02*
G03*
X663868Y1354748I-219J-212D01*
G01*
X664041Y1354565D02*
G03*
X663971Y1354679I-295J-105D01*
G01*
X664069Y1354411D02*
G03*
X664041Y1354565I-507J-13D01*
G01*
X656044Y1354576D02*
G03*
X656021Y1354429I393J-138D01*
G01*
X656115Y1354676D02*
G03*
X656044Y1354576I151J-180D01*
G01*
X656323Y1354753D02*
G03*
X656115Y1354676I-0J-320D01*
G01*
X656427Y1354734D02*
G03*
X656323Y1354753I-105J-277D01*
G01*
X656530Y1354677D02*
G03*
X656427Y1354734I-248J-322D01*
G01*
X656755Y1354946D02*
G03*
X656597Y1355036I-367J-460D01*
G01*
D02*
G03*
X656431Y1355066I-166J-446D01*
G01*
Y1355066D02*
G03*
X656201Y1355020I-10J-550D01*
G01*
Y1355020D02*
G03*
X656027Y1354882I195J-424D01*
G01*
X664381Y1354411D02*
G03*
X664333Y1354680I-720J11D01*
G01*
X664333D02*
G03*
X664189Y1354888I-528J-211D01*
G01*
D02*
G03*
X663981Y1355021I-457J-485D01*
G01*
D02*
G03*
X663742Y1355066I-235J-599D01*
G01*
D02*
G03*
X663521Y1355022I1J-590D01*
G01*
D02*
G03*
X663309Y1354892I301J-727D01*
G01*
D02*
G03*
X663219Y1354788I291J-344D01*
G01*
Y1354788D02*
G03*
X663154Y1354649I523J-328D01*
G01*
D02*
G03*
X663115Y1354475I922J-297D01*
G01*
D02*
G03*
X663102Y1354266I1556J-201D01*
G01*
X663102D02*
G03*
X663116Y1354047I1575J-9D01*
G01*
X663116D02*
G03*
X663158Y1353868I912J120D01*
G01*
D02*
G03*
X663228Y1353730I525J180D01*
G01*
Y1353730D02*
G03*
X663327Y1353633I325J229D01*
G01*
Y1353633D02*
G03*
X663554Y1353517I522J744D01*
G01*
Y1353517D02*
G03*
X663790Y1353478I236J699D01*
G01*
D02*
G03*
X664091Y1353536I2J807D01*
G01*
D02*
G03*
X664228Y1353612I-226J563D01*
G01*
D02*
G03*
X664350Y1353728I-448J599D01*
G01*
X663965Y1353808D02*
G03*
X664124Y1353921I-213J469D01*
G01*
X663784Y1353771D02*
G03*
X663965Y1353808I3J446D01*
G01*
X663637Y1353795D02*
G03*
X663784Y1353771I142J407D01*
G01*
X663518Y1353867D02*
G03*
X663637Y1353795I236J255D01*
G01*
X663440Y1353986D02*
G03*
X663518Y1353867I280J98D01*
G01*
X663414Y1354154D02*
G03*
X663440Y1353986I492J-10D01*
G01*
X661670Y1354553D02*
G03*
X661658Y1354684I-773J-5D01*
G01*
X661658D02*
G03*
X661625Y1354794I-512J-91D01*
G01*
X661625D02*
G03*
X661498Y1354954I-339J-140D01*
G01*
X661497Y1354954D02*
G03*
X661298Y1355038I-341J-530D01*
G01*
Y1355038D02*
G03*
X661043Y1355064I-233J-1011D01*
G01*
Y1355064D02*
G03*
X660885Y1355052I-18J-805D01*
G01*
Y1355052D02*
G03*
X660748Y1355011I105J-594D01*
G01*
D02*
G03*
X660534Y1354838I218J-490D01*
G01*
X660879Y1354747D02*
G03*
X660772Y1354650I88J-203D01*
G01*
X660959Y1354765D02*
G03*
X660879Y1354747I55J-428D01*
G01*
X661058Y1354772D02*
G03*
X660959Y1354765I-4J-735D01*
G01*
X661194Y1354761D02*
G03*
X661058Y1354772I-116J-621D01*
G01*
X661291Y1354724D02*
G03*
X661194Y1354761I-146J-238D01*
G01*
X661349Y1354661D02*
G03*
X661291Y1354724I-143J-73D01*
G01*
X661368Y1354571D02*
G03*
X661349Y1354661I-196J6D01*
G01*
X660947Y1354406D02*
G03*
X660735Y1354371I-4J-639D01*
G01*
Y1354371D02*
G03*
X660582Y1354272I130J-369D01*
G01*
D02*
G03*
X660489Y1354125I322J-306D01*
G01*
Y1354125D02*
G03*
X660458Y1353946I468J-173D01*
G01*
D02*
G03*
X660493Y1353760I470J-6D01*
G01*
D02*
G03*
X660601Y1353609I399J172D01*
G01*
D02*
G03*
X660764Y1353510I299J305D01*
G01*
D02*
G03*
X660989Y1353473I229J689D01*
G01*
D02*
G03*
X661125Y1353482I6J864D01*
G01*
D02*
G03*
X661231Y1353511I-68J463D01*
G01*
Y1353511D02*
G03*
X661361Y1353627I-92J234D01*
G01*
X655989Y1357029D02*
G03*
X655967Y1356889I393J-133D01*
G01*
X656055Y1357135D02*
G03*
X655989Y1357029I201J-198D01*
G01*
X656154Y1357201D02*
G03*
X656055Y1357135I108J-269D01*
G01*
X656277Y1357223D02*
G03*
X656154Y1357201I-4J-328D01*
G01*
X656396Y1357201D02*
G03*
X656277Y1357223I-116J-294D01*
G01*
X656495Y1357135D02*
G03*
X656396Y1357201I-209J-204D01*
G01*
X656560Y1357029D02*
G03*
X656495Y1357135I-267J-93D01*
G01*
X656582Y1356889D02*
G03*
X656560Y1357029I-415J7D01*
G01*
X656894Y1356997D02*
G03*
X656884Y1357121I-693J4D01*
G01*
D02*
G03*
X656852Y1357228I-508J-90D01*
G01*
X656852D02*
G03*
X656726Y1357397I-397J-165D01*
G01*
X656726Y1357397D02*
G03*
X656555Y1357500I-415J-496D01*
G01*
D02*
G03*
X656377Y1357535I-178J-447D01*
G01*
D02*
G03*
X656147Y1357489I-10J-550D01*
G01*
D02*
G03*
X655973Y1357351I195J-424D01*
G01*
X660240Y1356596D02*
G03*
X660244Y1356739I-2026J133D01*
G01*
X660227Y1356502D02*
G03*
X660240Y1356596I-563J125D01*
G01*
X660168Y1356372D02*
G03*
X660227Y1356502I-322J226D01*
G01*
X660064Y1356287D02*
G03*
X660168Y1356372I-105J233D01*
G01*
X659916Y1356258D02*
G03*
X660064Y1356287I8J353D01*
G01*
X659768Y1356287D02*
G03*
X659916Y1356258I140J328D01*
G01*
X659665Y1356372D02*
G03*
X659768Y1356287I204J141D01*
G01*
X659605Y1356503D02*
G03*
X659665Y1356372I343J79D01*
G01*
X659593Y1356597D02*
G03*
X659605Y1356503I638J32D01*
G01*
X659589Y1356743D02*
G03*
X659593Y1356597I2269J-11D01*
G01*
X659593Y1356884D02*
G03*
X659589Y1356743I2150J-131D01*
G01*
X659605Y1356977D02*
G03*
X659593Y1356884I610J-125D01*
G01*
X659665Y1357109D02*
G03*
X659605Y1356977I296J-215D01*
G01*
X659768Y1357194D02*
G03*
X659665Y1357109I102J-226D01*
G01*
X659916Y1357223D02*
G03*
X659768Y1357194I-8J-356D01*
G01*
X660064Y1357194D02*
G03*
X659916Y1357223I-139J-325D01*
G01*
X660168Y1357109D02*
G03*
X660064Y1357194I-209J-148D01*
G01*
X660227Y1356977D02*
G03*
X660168Y1357109I-397J-101D01*
G01*
X660240Y1356883D02*
G03*
X660227Y1356977I-576J-31D01*
G01*
X660244Y1356739D02*
G03*
X660240Y1356883I-2045J11D01*
G01*
X652030Y1356596D02*
G03*
X652034Y1356739I-2026J132D01*
G01*
X652017Y1356502D02*
G03*
X652030Y1356596I-563J125D01*
G01*
X651958Y1356372D02*
G03*
X652017Y1356502I-322J226D01*
G01*
X651854Y1356287D02*
G03*
X651958Y1356372I-105J233D01*
G01*
X651707Y1356258D02*
G03*
X651854Y1356287I8J353D01*
G01*
X651558D02*
G03*
X651707Y1356258I140J328D01*
G01*
X651456Y1356372D02*
G03*
X651558Y1356287I204J141D01*
G01*
X651395Y1356503D02*
G03*
X651456Y1356372I343J79D01*
G01*
X651383Y1356597D02*
G03*
X651395Y1356503I638J32D01*
G01*
X651380Y1356743D02*
G03*
X651383Y1356597I2269J-11D01*
G01*
X651383Y1356884D02*
G03*
X651380Y1356743I2150J-131D01*
G01*
X651395Y1356977D02*
G03*
X651383Y1356884I610J-125D01*
G01*
X651456Y1357109D02*
G03*
X651395Y1356977I296J-215D01*
G01*
X651558Y1357194D02*
G03*
X651456Y1357109I102J-226D01*
G01*
X651707Y1357223D02*
G03*
X651558Y1357194I-9J-356D01*
G01*
X651854D02*
G03*
X651707Y1357223I-139J-325D01*
G01*
X651958Y1357109D02*
G03*
X651854Y1357194I-209J-148D01*
G01*
X652017Y1356977D02*
G03*
X651958Y1357109I-397J-101D01*
G01*
X652030Y1356883D02*
G03*
X652017Y1356977I-576J-31D01*
G01*
X652034Y1356739D02*
G03*
X652030Y1356883I-2045J11D01*
G01*
X664335Y1356299D02*
G03*
X664479Y1356421I-215J398D01*
G01*
X664163Y1356258D02*
G03*
X664335Y1356299I3J367D01*
G01*
X663986Y1356288D02*
G03*
X664163Y1356258I167J446D01*
G01*
X663860Y1356378D02*
G03*
X663986Y1356288I239J201D01*
G01*
X663785Y1356529D02*
G03*
X663860Y1356378I384J99D01*
G01*
X663759Y1356739D02*
G03*
X663785Y1356529I785J-13D01*
G01*
X663785Y1356951D02*
G03*
X663759Y1356739I767J-199D01*
G01*
X663860Y1357102D02*
G03*
X663785Y1356951I311J-250D01*
G01*
X663986Y1357193D02*
G03*
X663860Y1357102I113J-291D01*
G01*
X664163Y1357223D02*
G03*
X663986Y1357193I-10J-475D01*
G01*
X664334Y1357182D02*
G03*
X664163Y1357223I-168J-328D01*
G01*
X664479Y1357061D02*
G03*
X664334Y1357182I-361J-283D01*
G01*
X664709Y1357266D02*
G03*
X664467Y1357459I-653J-570D01*
G01*
X664467D02*
G03*
X664318Y1357516I-290J-534D01*
G01*
X664318D02*
G03*
X664151Y1357535I-164J-695D01*
G01*
D02*
G03*
X663895Y1357489I-3J-715D01*
G01*
D02*
G03*
X663665Y1357350I284J-733D01*
G01*
D02*
G03*
X663569Y1357243I333J-390D01*
G01*
D02*
G03*
X663502Y1357105I524J-344D01*
G01*
D02*
G03*
X663461Y1356937I841J-293D01*
G01*
D02*
G03*
X663447Y1356739I1336J-191D01*
G01*
D02*
G03*
X663461Y1356541I1347J-7D01*
G01*
D02*
G03*
X663502Y1356374I876J125D01*
G01*
D02*
G03*
X663569Y1356237I586J205D01*
G01*
D02*
G03*
X663665Y1356130I422J280D01*
G01*
D02*
G03*
X663895Y1355993I513J598D01*
G01*
D02*
G03*
X664151Y1355947I253J676D01*
G01*
D02*
G03*
X664318Y1355966I4J720D01*
G01*
D02*
G03*
X664467Y1356023I-140J595D01*
G01*
D02*
G03*
X664709Y1356215I-403J754D01*
G01*
X655027Y1353892D02*
G03*
X655045Y1354035I-461J131D01*
G01*
X655005Y1353844D02*
G03*
X655027Y1353892I-160J104D01*
G01*
X654973Y1353812D02*
G03*
X655005Y1353844I-67J96D01*
G01*
X654867Y1353775D02*
G03*
X654973Y1353812I-40J291D01*
G01*
X654704Y1353765D02*
G03*
X654867Y1353775I26J891D01*
G01*
X654574Y1353780D02*
G03*
X654704Y1353765I121J470D01*
G01*
X654487Y1353826D02*
G03*
X654574Y1353780I138J158D01*
G01*
X654436Y1353889D02*
G03*
X654487Y1353826I178J93D01*
G01*
X654419Y1353961D02*
G03*
X654436Y1353889I158J-1D01*
G01*
X654434Y1354041D02*
G03*
X654419Y1353961I163J-72D01*
G01*
X654483Y1354099D02*
G03*
X654434Y1354041I84J-120D01*
G01*
X654565Y1354135D02*
G03*
X654483Y1354099I56J-238D01*
G01*
X654681Y1354150D02*
G03*
X654565Y1354135I9J-533D01*
G01*
X654443Y1357034D02*
G03*
X654416Y1356880I469J-161D01*
G01*
X654513Y1357148D02*
G03*
X654443Y1357034I220J-215D01*
G01*
X654617Y1357217D02*
G03*
X654513Y1357148I114J-282D01*
G01*
X654744Y1357241D02*
G03*
X654617Y1357217I-4J-338D01*
G01*
X654870Y1357217D02*
G03*
X654744Y1357241I-122J-307D01*
G01*
X654973Y1357148D02*
G03*
X654870Y1357217I-219J-212D01*
G01*
X655043Y1357034D02*
G03*
X654973Y1357148I-295J-105D01*
G01*
X655071Y1356880D02*
G03*
X655043Y1357034I-507J-13D01*
G01*
X655347Y1354553D02*
G03*
X655335Y1354684I-773J-5D01*
G01*
D02*
G03*
X655302Y1354794I-512J-91D01*
G01*
X655302D02*
G03*
X655175Y1354954I-339J-140D01*
G01*
X655175D02*
G03*
X654975Y1355038I-341J-530D01*
G01*
D02*
G03*
X654720Y1355064I-233J-1011D01*
G01*
Y1355064D02*
G03*
X654562Y1355052I-18J-805D01*
G01*
Y1355052D02*
G03*
X654425Y1355011I105J-594D01*
G01*
D02*
G03*
X654211Y1354838I218J-490D01*
G01*
X654556Y1354747D02*
G03*
X654450Y1354650I87J-203D01*
G01*
X654636Y1354765D02*
G03*
X654556Y1354747I55J-428D01*
G01*
X654735Y1354772D02*
G03*
X654636Y1354765I-4J-735D01*
G01*
X654871Y1354761D02*
G03*
X654735Y1354772I-116J-621D01*
G01*
X654968Y1354724D02*
G03*
X654871Y1354761I-146J-238D01*
G01*
X655026Y1354661D02*
G03*
X654968Y1354724I-143J-73D01*
G01*
X655045Y1354571D02*
G03*
X655026Y1354661I-196J6D01*
G01*
X654625Y1354406D02*
G03*
X654412Y1354371I-4J-639D01*
G01*
X654412Y1354371D02*
G03*
X654259Y1354272I130J-369D01*
G01*
X654259Y1354272D02*
G03*
X654166Y1354125I322J-306D01*
G01*
D02*
G03*
X654135Y1353946I468J-173D01*
G01*
D02*
G03*
X654171Y1353760I470J-6D01*
G01*
Y1353760D02*
G03*
X654278Y1353609I399J172D01*
G01*
D02*
G03*
X654441Y1353510I299J305D01*
G01*
D02*
G03*
X654666Y1353473I229J689D01*
G01*
D02*
G03*
X654802Y1353482I6J864D01*
G01*
D02*
G03*
X654909Y1353511I-68J463D01*
G01*
D02*
G03*
X655038Y1353627I-92J234D01*
G01*
X659277Y1356743D02*
G03*
X659286Y1356521I2181J-15D01*
G01*
D02*
G03*
X659316Y1356366I786J68D01*
G01*
D02*
G03*
X659445Y1356145I569J183D01*
G01*
D02*
G03*
X659521Y1356075I397J359D01*
G01*
Y1356075D02*
G03*
X659621Y1356010I505J672D01*
G01*
Y1356010D02*
G03*
X659752Y1355963I222J411D01*
G01*
D02*
G03*
X659916Y1355947I157J779D01*
G01*
D02*
G03*
X660079Y1355963I7J780D01*
G01*
D02*
G03*
X660210Y1356010I-94J463D01*
G01*
D02*
G03*
X660311Y1356075I-408J748D01*
G01*
Y1356075D02*
G03*
X660388Y1356145I-324J435D01*
G01*
D02*
G03*
X660516Y1356366I-438J402D01*
G01*
X660516D02*
G03*
X660545Y1356521I-763J223D01*
G01*
D02*
G03*
X660555Y1356743I-2191J207D01*
G01*
D02*
G03*
X660545Y1356961I-2133J14D01*
G01*
D02*
G03*
X660516Y1357115I-790J-69D01*
G01*
X660516D02*
G03*
X660388Y1357336I-566J-180D01*
G01*
Y1357336D02*
G03*
X660311Y1357405I-417J-389D01*
G01*
D02*
G03*
X660210Y1357471I-548J-735D01*
G01*
D02*
G03*
X660079Y1357519I-225J-408D01*
G01*
D02*
G03*
X659916Y1357535I-156J-747D01*
G01*
Y1357535D02*
G03*
X659752Y1357519I-8J-778D01*
G01*
Y1357519D02*
G03*
X659621Y1357471I93J-451D01*
G01*
D02*
G03*
X659521Y1357405I443J-789D01*
G01*
X659521D02*
G03*
X659445Y1357336I337J-450D01*
G01*
X659445D02*
G03*
X659316Y1357115I441J-404D01*
G01*
D02*
G03*
X659286Y1356961I754J-223D01*
G01*
D02*
G03*
X659277Y1356743I2104J-204D01*
G01*
X651067D02*
G03*
X651077Y1356521I2181J-15D01*
G01*
D02*
G03*
X651106Y1356366I786J68D01*
G01*
D02*
G03*
X651235Y1356145I569J183D01*
G01*
D02*
G03*
X651311Y1356075I397J359D01*
G01*
Y1356075D02*
G03*
X651411Y1356010I505J672D01*
G01*
Y1356010D02*
G03*
X651542Y1355963I222J411D01*
G01*
D02*
G03*
X651707Y1355947I157J779D01*
G01*
Y1355947D02*
G03*
X651869Y1355963I7J780D01*
G01*
Y1355963D02*
G03*
X652000Y1356010I-94J463D01*
G01*
D02*
G03*
X652101Y1356075I-408J748D01*
G01*
Y1356075D02*
G03*
X652178Y1356145I-324J435D01*
G01*
Y1356145D02*
G03*
X652306Y1356366I-438J402D01*
G01*
D02*
G03*
X652335Y1356521I-763J223D01*
G01*
D02*
G03*
X652345Y1356743I-2191J207D01*
G01*
D02*
G03*
X652335Y1356961I-2133J14D01*
G01*
D02*
G03*
X652306Y1357115I-790J-69D01*
G01*
D02*
G03*
X652178Y1357336I-566J-180D01*
G01*
D02*
G03*
X652101Y1357405I-417J-389D01*
G01*
D02*
G03*
X652000Y1357471I-548J-735D01*
G01*
D02*
G03*
X651869Y1357519I-225J-408D01*
G01*
D02*
G03*
X651707Y1357535I-156J-747D01*
G01*
D02*
G03*
X651542Y1357519I-8J-778D01*
G01*
X651542D02*
G03*
X651411Y1357471I93J-451D01*
G01*
X651411D02*
G03*
X651311Y1357405I443J-788D01*
G01*
Y1357405D02*
G03*
X651235Y1357336I337J-450D01*
G01*
Y1357336D02*
G03*
X651106Y1357115I441J-404D01*
G01*
X651106D02*
G03*
X651077Y1356961I754J-223D01*
G01*
D02*
G03*
X651067Y1356743I2104J-203D01*
G01*
X655383Y1356880D02*
G03*
X655335Y1357150I-719J11D01*
G01*
D02*
G03*
X655191Y1357358I-528J-211D01*
G01*
D02*
G03*
X654984Y1357490I-457J-485D01*
G01*
D02*
G03*
X654744Y1357535I-235J-599D01*
G01*
D02*
G03*
X654523Y1357491I1J-591D01*
G01*
D02*
G03*
X654311Y1357362I301J-727D01*
G01*
D02*
G03*
X654221Y1357257I291J-344D01*
G01*
X654221D02*
G03*
X654156Y1357118I523J-328D01*
G01*
X654156D02*
G03*
X654117Y1356944I922J-297D01*
G01*
X654117D02*
G03*
X654104Y1356735I1556J-201D01*
G01*
D02*
G03*
X654118Y1356516I1575J-9D01*
G01*
X654118D02*
G03*
X654160Y1356338I912J121D01*
G01*
X654160Y1356338D02*
G03*
X654230Y1356199I525J180D01*
G01*
X654230Y1356199D02*
G03*
X654328Y1356102I325J229D01*
G01*
Y1356102D02*
G03*
X654556Y1355986I522J744D01*
G01*
Y1355986D02*
G03*
X654791Y1355947I236J699D01*
G01*
D02*
G03*
X655093Y1356005I2J807D01*
G01*
D02*
G03*
X655230Y1356081I-226J563D01*
G01*
X655230D02*
G03*
X655352Y1356197I-448J599D01*
G01*
X654967Y1356277D02*
G03*
X655126Y1356390I-213J469D01*
G01*
X654786Y1356240D02*
G03*
X654967Y1356277I3J446D01*
G01*
X654639Y1356264D02*
G03*
X654786Y1356240I142J407D01*
G01*
X654520Y1356336D02*
G03*
X654639Y1356264I236J255D01*
G01*
X654442Y1356456D02*
G03*
X654520Y1356336I281J98D01*
G01*
X654416Y1356623D02*
G03*
X654442Y1356456I492J-10D01*
G01*
X657494Y1354744D02*
G03*
X657396Y1354753I-93J-436D01*
G01*
X657570Y1354714D02*
G03*
X657494Y1354744I-129J-222D01*
G01*
X657657Y1354596D02*
G03*
X657570Y1354714I-186J-47D01*
G01*
X657701Y1354274D02*
G03*
X657657Y1354596I-1188J2D01*
G01*
Y1353946D02*
G03*
X657701Y1354274I-1163J323D01*
G01*
X657570Y1353828D02*
G03*
X657657Y1353946I-99J165D01*
G01*
X657494Y1353799D02*
G03*
X657570Y1353828I-53J251D01*
G01*
X657396Y1353789D02*
G03*
X657494Y1353799I5J446D01*
G01*
X657297Y1353798D02*
G03*
X657396Y1353789I95J468D01*
G01*
X657219Y1353827D02*
G03*
X657297Y1353798I130J235D01*
G01*
X657131Y1353940D02*
G03*
X657219Y1353827I178J48D01*
G01*
X657087Y1354274D02*
G03*
X657131Y1353940I1188J-13D01*
G01*
X657131Y1354603D02*
G03*
X657087Y1354274I1125J-318D01*
G01*
X657219Y1354716D02*
G03*
X657131Y1354603I90J-161D01*
G01*
X657297Y1354744D02*
G03*
X657219Y1354716I53J-264D01*
G01*
X657396Y1354753D02*
G03*
X657297Y1354744I-5J-478D01*
G01*
X662372Y1354576D02*
G03*
X662349Y1354429I393J-138D01*
G01*
X662442Y1354676D02*
G03*
X662372Y1354576I151J-180D01*
G01*
X662651Y1354753D02*
G03*
X662442Y1354676I-0J-320D01*
G01*
X662755Y1354734D02*
G03*
X662651Y1354753I-105J-277D01*
G01*
X662857Y1354677D02*
G03*
X662755Y1354734I-248J-322D01*
G01*
X663082Y1354946D02*
G03*
X662925Y1355036I-367J-460D01*
G01*
D02*
G03*
X662758Y1355066I-166J-446D01*
G01*
D02*
G03*
X662528Y1355020I-10J-550D01*
G01*
D02*
G03*
X662354Y1354882I195J-424D01*
G01*
X659209Y1361840D02*
X660193Y1359431D01*
X660291Y1359390D02*
X660825Y1359611D01*
X660896Y1359604D02*
X662072Y1358809D01*
X662167Y1358818D02*
X663171Y1359822D01*
X662385Y1361092D02*
X663180Y1359917D01*
X662378Y1361163D02*
X662861Y1362330D01*
X662916Y1362375D02*
X664309Y1362644D01*
X664370Y1362718D02*
Y1364138D01*
X662916Y1364480D02*
X664309Y1364212D01*
X662378Y1365693D02*
X662861Y1364525D01*
X662385Y1365763D02*
X663180Y1366939D01*
X662167Y1368038D02*
X663171Y1367034D01*
X660896Y1367252D02*
X662072Y1368047D01*
X659658Y1367728D02*
X660825Y1367245D01*
X659345Y1369177D02*
X659613Y1367783D01*
X657851Y1369237D02*
X659271D01*
X657508Y1367783D02*
X657777Y1369177D01*
X656296Y1367245D02*
X657463Y1367728D01*
X655050Y1368047D02*
X656225Y1367252D01*
X653951Y1367034D02*
X654955Y1368038D01*
X653942Y1366939D02*
X654737Y1365763D01*
X654261Y1364525D02*
X654744Y1365693D01*
X652812Y1364212D02*
X654205Y1364480D01*
X652751Y1362718D02*
Y1364138D01*
X652812Y1362644D02*
X654205Y1362375D01*
X654261Y1362330D02*
X654744Y1361163D01*
X653942Y1359917D02*
X654737Y1361092D01*
X653951Y1359822D02*
X654955Y1358818D01*
X655050Y1358809D02*
X656225Y1359604D01*
X656296Y1359611D02*
X656831Y1359390D01*
X656929Y1359431D02*
X657913Y1361840D01*
X652632Y1353496D02*
X652944D01*
Y1354420D01*
X653558Y1353496D02*
Y1354420D01*
Y1353496D02*
X653870D01*
Y1354528D01*
X652944Y1354882D02*
X652949D01*
X652944D02*
Y1356130D01*
Y1357354D02*
Y1357517D01*
X652632D02*
X652944D01*
X652632Y1353496D02*
Y1357517D01*
X665113Y1356880D02*
X665767D01*
X658377Y1356907D02*
X658634Y1356889D01*
X658853Y1357096D02*
X659046Y1357324D01*
X658307Y1356617D02*
X658581Y1356592D01*
X657758Y1356224D02*
X657976Y1356439D01*
X666079Y1356623D02*
Y1356880D01*
X665823Y1356390D02*
X666049Y1356197D01*
X665113Y1356623D02*
X666079D01*
X657701Y1353496D02*
X658014D01*
Y1355674D01*
X657701D02*
X658014D01*
X657701Y1354882D02*
Y1355674D01*
Y1353496D02*
Y1353658D01*
X662432Y1355965D02*
X662744D01*
Y1356898D01*
X663253Y1357146D02*
X663478Y1357415D01*
X662744Y1357351D02*
X662750D01*
X662744D02*
Y1357517D01*
X662432D02*
X662744D01*
X662432Y1355965D02*
Y1357517D01*
X661759Y1356130D02*
X661766D01*
Y1355965D02*
Y1356130D01*
Y1355965D02*
X662078D01*
Y1357517D01*
X661766D02*
X662078D01*
X661766Y1356592D02*
Y1357517D01*
X661151Y1356592D02*
Y1357517D01*
X660839D02*
X661151D01*
X660839Y1356485D02*
Y1357517D01*
X661004Y1354150D02*
X661368D01*
Y1354036D02*
Y1354150D01*
X663414Y1354411D02*
X664069D01*
X655709Y1353496D02*
X656021D01*
Y1354429D01*
X656530Y1354677D02*
X656755Y1354946D01*
X656021Y1354882D02*
X656027D01*
X656021D02*
Y1355048D01*
X655709D02*
X656021D01*
X655709Y1353496D02*
Y1355048D01*
X664380Y1354154D02*
Y1354411D01*
X664124Y1353921D02*
X664350Y1353728D01*
X663414Y1354154D02*
X664380D01*
X661368Y1353490D02*
X661670D01*
Y1354553D01*
X660534Y1354838D02*
X660772Y1354650D01*
X661368Y1354406D02*
Y1354571D01*
X660947Y1354406D02*
X661368D01*
X661361Y1353627D02*
X661368D01*
Y1353490D02*
Y1353627D01*
X655655Y1355965D02*
X655967D01*
Y1356889D01*
X656582Y1355965D02*
Y1356889D01*
Y1355965D02*
X656894D01*
Y1356997D01*
X655967Y1357351D02*
X655973D01*
X655967D02*
Y1357517D01*
X655655D02*
X655967D01*
X655655Y1355965D02*
Y1357517D01*
X664479Y1357061D02*
X664709Y1357266D01*
X664479Y1356422D02*
X664709Y1356215D01*
X654681Y1354150D02*
X655045D01*
Y1354036D02*
Y1354150D01*
X654416Y1356880D02*
X655071D01*
X655045Y1353490D02*
X655347D01*
Y1354553D01*
X654211Y1354838D02*
X654450Y1354650D01*
X655045Y1354406D02*
Y1354571D01*
X654625Y1354406D02*
X655045D01*
X655038Y1353627D02*
X655045D01*
Y1353490D02*
Y1353627D01*
X655383Y1356623D02*
Y1356880D01*
X655126Y1356390D02*
X655352Y1356197D01*
X654416Y1356623D02*
X655383D01*
X659627Y1353496D02*
X659902D01*
X660398Y1355048D01*
X660068D02*
X660398D01*
X659771Y1353961D02*
X660068Y1355048D01*
X659764Y1353961D02*
X659771D01*
X659414Y1355048D02*
X659764Y1353961D01*
X659186Y1355048D02*
X659414D01*
X658835Y1353961D02*
X659186Y1355048D01*
X658829Y1353961D02*
X658835D01*
X658531Y1355048D02*
X658829Y1353961D01*
X658201Y1355048D02*
X658531D01*
X658201D02*
X658697Y1353496D01*
X658972D01*
X659297Y1354581D01*
X659302D01*
X659627Y1353496D01*
X662037D02*
X662349D01*
Y1354429D01*
X662857Y1354677D02*
X663082Y1354946D01*
X662349Y1354882D02*
X662354D01*
X662349D02*
Y1355048D01*
X662037D02*
X662349D01*
X662037Y1353496D02*
Y1355048D01*
M02*
