G04*
G04 #@! TF.GenerationSoftware,Altium Limited,CircuitStudio,1.5.2 (30)*
G04*
G04 Layer_Color=2752767*
%FSLAX25Y25*%
%MOIN*%
G70*
G01*
G75*
%ADD11C,0.01000*%
%ADD13C,0.00800*%
%ADD14C,0.00600*%
%ADD52C,0.00333*%
%ADD53C,0.01500*%
%ADD54C,0.01600*%
D11*
X744626Y1118252D02*
Y1131063D01*
X272185Y1111378D02*
Y1120252D01*
X524400Y1119252D02*
X744626D01*
X272185D02*
X489211D01*
X738626Y1121252D02*
X744626Y1119252D01*
X738626Y1117252D02*
X744626Y1119252D01*
X272185D02*
X278185Y1117252D01*
X272185Y1119252D02*
X278185Y1121252D01*
X227878Y1528701D02*
X236752D01*
X213130Y1135000D02*
X229878D01*
X228878Y1347845D02*
Y1528701D01*
Y1135000D02*
Y1312656D01*
X226878Y1522701D02*
X228878Y1528701D01*
X230878Y1522701D01*
X228878Y1135000D02*
X230878Y1141000D01*
X226878D02*
X228878Y1135000D01*
X401000Y1167500D02*
X409000D01*
X401000Y1135000D02*
Y1167500D01*
X350000Y1135000D02*
X401000D01*
X409000D02*
Y1167500D01*
Y1135000D02*
X670000D01*
X272185Y1131063D02*
Y1138937D01*
X268248Y1135000D02*
X276122D01*
X349700D02*
X401000D01*
X409000D02*
Y1167500D01*
X401000Y1135000D02*
Y1167500D01*
X409000Y1135000D02*
X670300D01*
X674300Y1139000D02*
Y1167500D01*
X670300Y1135000D02*
X674300Y1139000D01*
X344937D02*
Y1167480D01*
Y1139000D02*
X348937Y1135000D01*
X349700D01*
X272185Y1167480D02*
Y1528701D01*
X744626D01*
Y1167500D02*
Y1528701D01*
X674300Y1167500D02*
X744449D01*
X272185Y1167480D02*
X344937D01*
X1076702Y1309500D02*
Y1315498D01*
X1079701D01*
X1080701Y1314498D01*
Y1312499D01*
X1079701Y1311499D01*
X1076702D01*
X1078701D02*
X1080701Y1309500D01*
X1083700D02*
X1085699D01*
X1086699Y1310500D01*
Y1312499D01*
X1085699Y1313499D01*
X1083700D01*
X1082700Y1312499D01*
Y1310500D01*
X1083700Y1309500D01*
X1088698Y1313499D02*
Y1310500D01*
X1089698Y1309500D01*
X1092697D01*
Y1313499D01*
X1094696Y1309500D02*
Y1313499D01*
X1097695D01*
X1098695Y1312499D01*
Y1309500D01*
X1104693Y1315498D02*
Y1309500D01*
X1101694D01*
X1100694Y1310500D01*
Y1312499D01*
X1101694Y1313499D01*
X1104693D01*
X1076702Y1294500D02*
Y1300498D01*
X1079701D01*
X1080701Y1299498D01*
Y1297499D01*
X1079701Y1296499D01*
X1076702D01*
X1078701D02*
X1080701Y1294500D01*
X1083700D02*
X1085699D01*
X1086699Y1295500D01*
Y1297499D01*
X1085699Y1298499D01*
X1083700D01*
X1082700Y1297499D01*
Y1295500D01*
X1083700Y1294500D01*
X1088698Y1298499D02*
Y1295500D01*
X1089698Y1294500D01*
X1092697D01*
Y1298499D01*
X1094696Y1294500D02*
Y1298499D01*
X1097695D01*
X1098695Y1297499D01*
Y1294500D01*
X1104693Y1300498D02*
Y1294500D01*
X1101694D01*
X1100694Y1295500D01*
Y1297499D01*
X1101694Y1298499D01*
X1104693D01*
X1076702Y1279500D02*
Y1285498D01*
X1079701D01*
X1080701Y1284498D01*
Y1282499D01*
X1079701Y1281499D01*
X1076702D01*
X1078701D02*
X1080701Y1279500D01*
X1083700D02*
X1085699D01*
X1086699Y1280500D01*
Y1282499D01*
X1085699Y1283499D01*
X1083700D01*
X1082700Y1282499D01*
Y1280500D01*
X1083700Y1279500D01*
X1088698Y1283499D02*
Y1280500D01*
X1089698Y1279500D01*
X1092697D01*
Y1283499D01*
X1094696Y1279500D02*
Y1283499D01*
X1097695D01*
X1098695Y1282499D01*
Y1279500D01*
X1104693Y1285498D02*
Y1279500D01*
X1101694D01*
X1100694Y1280500D01*
Y1282499D01*
X1101694Y1283499D01*
X1104693D01*
X1076702Y1264500D02*
Y1270498D01*
X1079701D01*
X1080701Y1269498D01*
Y1267499D01*
X1079701Y1266499D01*
X1076702D01*
X1078701D02*
X1080701Y1264500D01*
X1083700D02*
X1085699D01*
X1086699Y1265500D01*
Y1267499D01*
X1085699Y1268499D01*
X1083700D01*
X1082700Y1267499D01*
Y1265500D01*
X1083700Y1264500D01*
X1088698Y1268499D02*
Y1265500D01*
X1089698Y1264500D01*
X1092697D01*
Y1268499D01*
X1094696Y1264500D02*
Y1268499D01*
X1097695D01*
X1098695Y1267499D01*
Y1264500D01*
X1104693Y1270498D02*
Y1264500D01*
X1101694D01*
X1100694Y1265500D01*
Y1267499D01*
X1101694Y1268499D01*
X1104693D01*
X1076702Y1249500D02*
Y1255498D01*
X1079701D01*
X1080701Y1254498D01*
Y1252499D01*
X1079701Y1251499D01*
X1076702D01*
X1078701D02*
X1080701Y1249500D01*
X1083700D02*
X1085699D01*
X1086699Y1250500D01*
Y1252499D01*
X1085699Y1253499D01*
X1083700D01*
X1082700Y1252499D01*
Y1250500D01*
X1083700Y1249500D01*
X1088698Y1253499D02*
Y1250500D01*
X1089698Y1249500D01*
X1092697D01*
Y1253499D01*
X1094696Y1249500D02*
Y1253499D01*
X1097695D01*
X1098695Y1252499D01*
Y1249500D01*
X1104693Y1255498D02*
Y1249500D01*
X1101694D01*
X1100694Y1250500D01*
Y1252499D01*
X1101694Y1253499D01*
X1104693D01*
X1076702Y1234500D02*
Y1240498D01*
X1079701D01*
X1080701Y1239498D01*
Y1237499D01*
X1079701Y1236499D01*
X1076702D01*
X1078701D02*
X1080701Y1234500D01*
X1083700D02*
X1085699D01*
X1086699Y1235500D01*
Y1237499D01*
X1085699Y1238499D01*
X1083700D01*
X1082700Y1237499D01*
Y1235500D01*
X1083700Y1234500D01*
X1088698Y1238499D02*
Y1235500D01*
X1089698Y1234500D01*
X1092697D01*
Y1238499D01*
X1094696Y1234500D02*
Y1238499D01*
X1097695D01*
X1098695Y1237499D01*
Y1234500D01*
X1104693Y1240498D02*
Y1234500D01*
X1101694D01*
X1100694Y1235500D01*
Y1237499D01*
X1101694Y1238499D01*
X1104693D01*
X1026114Y1309500D02*
Y1315498D01*
X1029113D01*
X1030113Y1314498D01*
Y1312499D01*
X1029113Y1311499D01*
X1026114D01*
X1032112Y1315498D02*
X1036111D01*
X1034112D01*
Y1309500D01*
X1038110Y1315498D02*
Y1309500D01*
Y1312499D01*
X1042109D01*
Y1315498D01*
Y1309500D01*
X1026114Y1294500D02*
Y1300498D01*
X1029113D01*
X1030113Y1299498D01*
Y1297499D01*
X1029113Y1296499D01*
X1026114D01*
X1032112Y1300498D02*
X1036111D01*
X1034112D01*
Y1294500D01*
X1038110Y1300498D02*
Y1294500D01*
Y1297499D01*
X1042109D01*
Y1300498D01*
Y1294500D01*
X1026114Y1279500D02*
Y1285498D01*
X1029113D01*
X1030113Y1284498D01*
Y1282499D01*
X1029113Y1281499D01*
X1026114D01*
X1032112Y1285498D02*
X1036111D01*
X1034112D01*
Y1279500D01*
X1038110Y1285498D02*
Y1279500D01*
Y1282499D01*
X1042109D01*
Y1285498D01*
Y1279500D01*
X1026114Y1264500D02*
Y1270498D01*
X1029113D01*
X1030113Y1269498D01*
Y1267499D01*
X1029113Y1266499D01*
X1026114D01*
X1032112Y1270498D02*
X1036111D01*
X1034112D01*
Y1264500D01*
X1038110Y1270498D02*
Y1264500D01*
Y1267499D01*
X1042109D01*
Y1270498D01*
Y1264500D01*
X1026114Y1249500D02*
Y1255498D01*
X1029113D01*
X1030113Y1254498D01*
Y1252499D01*
X1029113Y1251499D01*
X1026114D01*
X1032112Y1255498D02*
X1036111D01*
X1034112D01*
Y1249500D01*
X1038110Y1255498D02*
Y1249500D01*
Y1252499D01*
X1042109D01*
Y1255498D01*
Y1249500D01*
X1026114Y1234500D02*
Y1240498D01*
X1029113D01*
X1030113Y1239498D01*
Y1237499D01*
X1029113Y1236499D01*
X1026114D01*
X1032112Y1240498D02*
X1036111D01*
X1034112D01*
Y1234500D01*
X1038110Y1240498D02*
Y1234500D01*
Y1237499D01*
X1042109D01*
Y1240498D01*
Y1234500D01*
X891554Y1314498D02*
X892554Y1315498D01*
X894553D01*
X895553Y1314498D01*
Y1313499D01*
X894553Y1312499D01*
X893553D01*
X894553D01*
X895553Y1311499D01*
Y1310500D01*
X894553Y1309500D01*
X892554D01*
X891554Y1310500D01*
X897552Y1314498D02*
X898552Y1315498D01*
X900551D01*
X901551Y1314498D01*
Y1313499D01*
X900551Y1312499D01*
X901551Y1311499D01*
Y1310500D01*
X900551Y1309500D01*
X898552D01*
X897552Y1310500D01*
Y1311499D01*
X898552Y1312499D01*
X897552Y1313499D01*
Y1314498D01*
X898552Y1312499D02*
X900551D01*
X903550Y1309500D02*
Y1310500D01*
X904550D01*
Y1309500D01*
X903550D01*
X908548Y1314498D02*
X909548Y1315498D01*
X911547D01*
X912547Y1314498D01*
Y1310500D01*
X911547Y1309500D01*
X909548D01*
X908548Y1310500D01*
Y1314498D01*
X914546D02*
X915546Y1315498D01*
X917546D01*
X918545Y1314498D01*
Y1310500D01*
X917546Y1309500D01*
X915546D01*
X914546Y1310500D01*
Y1314498D01*
X920545Y1309500D02*
Y1313499D01*
X921544D01*
X922544Y1312499D01*
Y1309500D01*
Y1312499D01*
X923544Y1313499D01*
X924543Y1312499D01*
Y1309500D01*
X926543D02*
X928542D01*
X927542D01*
Y1313499D01*
X926543D01*
X931541Y1309500D02*
X933540D01*
X932541D01*
Y1315498D01*
X931541D01*
X944537Y1309500D02*
X942537Y1311499D01*
Y1313499D01*
X944537Y1315498D01*
X947536Y1314498D02*
X948536Y1315498D01*
X950535D01*
X951534Y1314498D01*
Y1310500D01*
X950535Y1309500D01*
X948536D01*
X947536Y1310500D01*
Y1314498D01*
X953534Y1309500D02*
Y1310500D01*
X954533D01*
Y1309500D01*
X953534D01*
X958532Y1310500D02*
X959532Y1309500D01*
X961531D01*
X962531Y1310500D01*
Y1314498D01*
X961531Y1315498D01*
X959532D01*
X958532Y1314498D01*
Y1313499D01*
X959532Y1312499D01*
X962531D01*
X968529Y1315498D02*
X966530Y1314498D01*
X964530Y1312499D01*
Y1310500D01*
X965530Y1309500D01*
X967529D01*
X968529Y1310500D01*
Y1311499D01*
X967529Y1312499D01*
X964530D01*
X974527Y1315498D02*
X970528D01*
Y1312499D01*
X972528Y1313499D01*
X973527D01*
X974527Y1312499D01*
Y1310500D01*
X973527Y1309500D01*
X971528D01*
X970528Y1310500D01*
X976526Y1309500D02*
Y1313499D01*
X977526D01*
X978526Y1312499D01*
Y1309500D01*
Y1312499D01*
X979525Y1313499D01*
X980525Y1312499D01*
Y1309500D01*
X982524D02*
Y1313499D01*
X983524D01*
X984524Y1312499D01*
Y1309500D01*
Y1312499D01*
X985524Y1313499D01*
X986523Y1312499D01*
Y1309500D01*
X988523D02*
X990522Y1311499D01*
Y1313499D01*
X988523Y1315498D01*
X895553Y1294500D02*
X891554D01*
X895553Y1298499D01*
Y1299498D01*
X894553Y1300498D01*
X892554D01*
X891554Y1299498D01*
X897552D02*
X898552Y1300498D01*
X900551D01*
X901551Y1299498D01*
Y1298499D01*
X900551Y1297499D01*
X901551Y1296499D01*
Y1295500D01*
X900551Y1294500D01*
X898552D01*
X897552Y1295500D01*
Y1296499D01*
X898552Y1297499D01*
X897552Y1298499D01*
Y1299498D01*
X898552Y1297499D02*
X900551D01*
X903550Y1294500D02*
Y1295500D01*
X904550D01*
Y1294500D01*
X903550D01*
X908548Y1299498D02*
X909548Y1300498D01*
X911547D01*
X912547Y1299498D01*
Y1295500D01*
X911547Y1294500D01*
X909548D01*
X908548Y1295500D01*
Y1299498D01*
X914546D02*
X915546Y1300498D01*
X917546D01*
X918545Y1299498D01*
Y1295500D01*
X917546Y1294500D01*
X915546D01*
X914546Y1295500D01*
Y1299498D01*
X920545Y1294500D02*
Y1298499D01*
X921544D01*
X922544Y1297499D01*
Y1294500D01*
Y1297499D01*
X923544Y1298499D01*
X924543Y1297499D01*
Y1294500D01*
X926543D02*
X928542D01*
X927542D01*
Y1298499D01*
X926543D01*
X931541Y1294500D02*
X933540D01*
X932541D01*
Y1300498D01*
X931541D01*
X944537Y1294500D02*
X942537Y1296499D01*
Y1298499D01*
X944537Y1300498D01*
X947536Y1299498D02*
X948536Y1300498D01*
X950535D01*
X951534Y1299498D01*
Y1295500D01*
X950535Y1294500D01*
X948536D01*
X947536Y1295500D01*
Y1299498D01*
X953534Y1294500D02*
Y1295500D01*
X954533D01*
Y1294500D01*
X953534D01*
X958532Y1300498D02*
X962531D01*
Y1299498D01*
X958532Y1295500D01*
Y1294500D01*
X964530D02*
X966530D01*
X965530D01*
Y1300498D01*
X964530Y1299498D01*
X969529Y1294500D02*
X971528D01*
X970528D01*
Y1300498D01*
X969529Y1299498D01*
X974527Y1294500D02*
Y1298499D01*
X975527D01*
X976526Y1297499D01*
Y1294500D01*
Y1297499D01*
X977526Y1298499D01*
X978526Y1297499D01*
Y1294500D01*
X980525D02*
Y1298499D01*
X981525D01*
X982524Y1297499D01*
Y1294500D01*
Y1297499D01*
X983524Y1298499D01*
X984524Y1297499D01*
Y1294500D01*
X986523D02*
X988523Y1296499D01*
Y1298499D01*
X986523Y1300498D01*
X891554Y1284498D02*
X892554Y1285498D01*
X894553D01*
X895553Y1284498D01*
Y1283499D01*
X894553Y1282499D01*
X893553D01*
X894553D01*
X895553Y1281499D01*
Y1280500D01*
X894553Y1279500D01*
X892554D01*
X891554Y1280500D01*
X897552D02*
X898552Y1279500D01*
X900551D01*
X901551Y1280500D01*
Y1284498D01*
X900551Y1285498D01*
X898552D01*
X897552Y1284498D01*
Y1283499D01*
X898552Y1282499D01*
X901551D01*
X903550Y1279500D02*
Y1280500D01*
X904550D01*
Y1279500D01*
X903550D01*
X908548Y1284498D02*
X909548Y1285498D01*
X911547D01*
X912547Y1284498D01*
Y1283499D01*
X911547Y1282499D01*
X910548D01*
X911547D01*
X912547Y1281499D01*
Y1280500D01*
X911547Y1279500D01*
X909548D01*
X908548Y1280500D01*
X914546Y1285498D02*
X918545D01*
Y1284498D01*
X914546Y1280500D01*
Y1279500D01*
X920545D02*
Y1283499D01*
X921544D01*
X922544Y1282499D01*
Y1279500D01*
Y1282499D01*
X923544Y1283499D01*
X924543Y1282499D01*
Y1279500D01*
X926543D02*
X928542D01*
X927542D01*
Y1283499D01*
X926543D01*
X931541Y1279500D02*
X933540D01*
X932541D01*
Y1285498D01*
X931541D01*
X944537Y1279500D02*
X942537Y1281499D01*
Y1283499D01*
X944537Y1285498D01*
X947536Y1279500D02*
X949535D01*
X948536D01*
Y1285498D01*
X947536Y1284498D01*
X952534Y1279500D02*
Y1280500D01*
X953534D01*
Y1279500D01*
X952534D01*
X957533Y1284498D02*
X958532Y1285498D01*
X960532D01*
X961531Y1284498D01*
Y1280500D01*
X960532Y1279500D01*
X958532D01*
X957533Y1280500D01*
Y1284498D01*
X963531D02*
X964530Y1285498D01*
X966530D01*
X967529Y1284498D01*
Y1280500D01*
X966530Y1279500D01*
X964530D01*
X963531Y1280500D01*
Y1284498D01*
X969529D02*
X970528Y1285498D01*
X972528D01*
X973527Y1284498D01*
Y1280500D01*
X972528Y1279500D01*
X970528D01*
X969529Y1280500D01*
Y1284498D01*
X975527Y1279500D02*
Y1283499D01*
X976526D01*
X977526Y1282499D01*
Y1279500D01*
Y1282499D01*
X978526Y1283499D01*
X979525Y1282499D01*
Y1279500D01*
X981525D02*
Y1283499D01*
X982524D01*
X983524Y1282499D01*
Y1279500D01*
Y1282499D01*
X984524Y1283499D01*
X985524Y1282499D01*
Y1279500D01*
X987523D02*
X989522Y1281499D01*
Y1283499D01*
X987523Y1285498D01*
X894553Y1264500D02*
Y1270498D01*
X891554Y1267499D01*
X895553D01*
X897552Y1269498D02*
X898552Y1270498D01*
X900551D01*
X901551Y1269498D01*
Y1265500D01*
X900551Y1264500D01*
X898552D01*
X897552Y1265500D01*
Y1269498D01*
X903550Y1264500D02*
Y1265500D01*
X904550D01*
Y1264500D01*
X903550D01*
X908548Y1269498D02*
X909548Y1270498D01*
X911547D01*
X912547Y1269498D01*
Y1265500D01*
X911547Y1264500D01*
X909548D01*
X908548Y1265500D01*
Y1269498D01*
X914546D02*
X915546Y1270498D01*
X917546D01*
X918545Y1269498D01*
Y1265500D01*
X917546Y1264500D01*
X915546D01*
X914546Y1265500D01*
Y1269498D01*
X920545Y1264500D02*
Y1268499D01*
X921544D01*
X922544Y1267499D01*
Y1264500D01*
Y1267499D01*
X923544Y1268499D01*
X924543Y1267499D01*
Y1264500D01*
X926543D02*
X928542D01*
X927542D01*
Y1268499D01*
X926543D01*
X931541Y1264500D02*
X933540D01*
X932541D01*
Y1270498D01*
X931541D01*
X944537Y1264500D02*
X942537Y1266499D01*
Y1268499D01*
X944537Y1270498D01*
X947536Y1264500D02*
X949535D01*
X948536D01*
Y1270498D01*
X947536Y1269498D01*
X952534Y1264500D02*
Y1265500D01*
X953534D01*
Y1264500D01*
X952534D01*
X957533Y1269498D02*
X958532Y1270498D01*
X960532D01*
X961531Y1269498D01*
Y1265500D01*
X960532Y1264500D01*
X958532D01*
X957533Y1265500D01*
Y1269498D01*
X963531Y1264500D02*
X965530D01*
X964530D01*
Y1270498D01*
X963531Y1269498D01*
X972528Y1270498D02*
X970528Y1269498D01*
X968529Y1267499D01*
Y1265500D01*
X969529Y1264500D01*
X971528D01*
X972528Y1265500D01*
Y1266499D01*
X971528Y1267499D01*
X968529D01*
X974527Y1264500D02*
Y1268499D01*
X975527D01*
X976526Y1267499D01*
Y1264500D01*
Y1267499D01*
X977526Y1268499D01*
X978526Y1267499D01*
Y1264500D01*
X980525D02*
Y1268499D01*
X981525D01*
X982524Y1267499D01*
Y1264500D01*
Y1267499D01*
X983524Y1268499D01*
X984524Y1267499D01*
Y1264500D01*
X986523D02*
X988523Y1266499D01*
Y1268499D01*
X986523Y1270498D01*
X895553Y1249500D02*
X891554D01*
X895553Y1253499D01*
Y1254498D01*
X894553Y1255498D01*
X892554D01*
X891554Y1254498D01*
X897552D02*
X898552Y1255498D01*
X900551D01*
X901551Y1254498D01*
Y1250500D01*
X900551Y1249500D01*
X898552D01*
X897552Y1250500D01*
Y1254498D01*
X903550Y1249500D02*
Y1250500D01*
X904550D01*
Y1249500D01*
X903550D01*
X908548Y1254498D02*
X909548Y1255498D01*
X911547D01*
X912547Y1254498D01*
Y1250500D01*
X911547Y1249500D01*
X909548D01*
X908548Y1250500D01*
Y1254498D01*
X914546D02*
X915546Y1255498D01*
X917546D01*
X918545Y1254498D01*
Y1250500D01*
X917546Y1249500D01*
X915546D01*
X914546Y1250500D01*
Y1254498D01*
X920545Y1249500D02*
Y1253499D01*
X921544D01*
X922544Y1252499D01*
Y1249500D01*
Y1252499D01*
X923544Y1253499D01*
X924543Y1252499D01*
Y1249500D01*
X926543D02*
X928542D01*
X927542D01*
Y1253499D01*
X926543D01*
X931541Y1249500D02*
X933540D01*
X932541D01*
Y1255498D01*
X931541D01*
X944537Y1249500D02*
X942537Y1251499D01*
Y1253499D01*
X944537Y1255498D01*
X947536Y1254498D02*
X948536Y1255498D01*
X950535D01*
X951534Y1254498D01*
Y1250500D01*
X950535Y1249500D01*
X948536D01*
X947536Y1250500D01*
Y1254498D01*
X953534Y1249500D02*
Y1250500D01*
X954533D01*
Y1249500D01*
X953534D01*
X962531Y1255498D02*
X958532D01*
Y1252499D01*
X960532Y1253499D01*
X961531D01*
X962531Y1252499D01*
Y1250500D01*
X961531Y1249500D01*
X959532D01*
X958532Y1250500D01*
X964530Y1254498D02*
X965530Y1255498D01*
X967529D01*
X968529Y1254498D01*
Y1250500D01*
X967529Y1249500D01*
X965530D01*
X964530Y1250500D01*
Y1254498D01*
X970528D02*
X971528Y1255498D01*
X973527D01*
X974527Y1254498D01*
Y1253499D01*
X973527Y1252499D01*
X974527Y1251499D01*
Y1250500D01*
X973527Y1249500D01*
X971528D01*
X970528Y1250500D01*
Y1251499D01*
X971528Y1252499D01*
X970528Y1253499D01*
Y1254498D01*
X971528Y1252499D02*
X973527D01*
X976526Y1249500D02*
Y1253499D01*
X977526D01*
X978526Y1252499D01*
Y1249500D01*
Y1252499D01*
X979525Y1253499D01*
X980525Y1252499D01*
Y1249500D01*
X982524D02*
Y1253499D01*
X983524D01*
X984524Y1252499D01*
Y1249500D01*
Y1252499D01*
X985524Y1253499D01*
X986523Y1252499D01*
Y1249500D01*
X988523D02*
X990522Y1251499D01*
Y1253499D01*
X988523Y1255498D01*
X895553Y1234500D02*
X891554D01*
X895553Y1238499D01*
Y1239498D01*
X894553Y1240498D01*
X892554D01*
X891554Y1239498D01*
X901551Y1240498D02*
X897552D01*
Y1237499D01*
X899551Y1238499D01*
X900551D01*
X901551Y1237499D01*
Y1235500D01*
X900551Y1234500D01*
X898552D01*
X897552Y1235500D01*
X903550Y1234500D02*
Y1235500D01*
X904550D01*
Y1234500D01*
X903550D01*
X908548Y1239498D02*
X909548Y1240498D01*
X911547D01*
X912547Y1239498D01*
Y1235500D01*
X911547Y1234500D01*
X909548D01*
X908548Y1235500D01*
Y1239498D01*
X914546D02*
X915546Y1240498D01*
X917546D01*
X918545Y1239498D01*
Y1235500D01*
X917546Y1234500D01*
X915546D01*
X914546Y1235500D01*
Y1239498D01*
X920545Y1234500D02*
Y1238499D01*
X921544D01*
X922544Y1237499D01*
Y1234500D01*
Y1237499D01*
X923544Y1238499D01*
X924543Y1237499D01*
Y1234500D01*
X926543D02*
X928542D01*
X927542D01*
Y1238499D01*
X926543D01*
X931541Y1234500D02*
X933540D01*
X932541D01*
Y1240498D01*
X931541D01*
X944537Y1234500D02*
X942537Y1236499D01*
Y1238499D01*
X944537Y1240498D01*
X947536Y1239498D02*
X948536Y1240498D01*
X950535D01*
X951534Y1239498D01*
Y1235500D01*
X950535Y1234500D01*
X948536D01*
X947536Y1235500D01*
Y1239498D01*
X953534Y1234500D02*
Y1235500D01*
X954533D01*
Y1234500D01*
X953534D01*
X962531Y1240498D02*
X960532Y1239498D01*
X958532Y1237499D01*
Y1235500D01*
X959532Y1234500D01*
X961531D01*
X962531Y1235500D01*
Y1236499D01*
X961531Y1237499D01*
X958532D01*
X964530Y1239498D02*
X965530Y1240498D01*
X967529D01*
X968529Y1239498D01*
Y1238499D01*
X967529Y1237499D01*
X966530D01*
X967529D01*
X968529Y1236499D01*
Y1235500D01*
X967529Y1234500D01*
X965530D01*
X964530Y1235500D01*
X974527Y1240498D02*
X970528D01*
Y1237499D01*
X972528Y1238499D01*
X973527D01*
X974527Y1237499D01*
Y1235500D01*
X973527Y1234500D01*
X971528D01*
X970528Y1235500D01*
X976526Y1234500D02*
Y1238499D01*
X977526D01*
X978526Y1237499D01*
Y1234500D01*
Y1237499D01*
X979525Y1238499D01*
X980525Y1237499D01*
Y1234500D01*
X982524D02*
Y1238499D01*
X983524D01*
X984524Y1237499D01*
Y1234500D01*
Y1237499D01*
X985524Y1238499D01*
X986523Y1237499D01*
Y1234500D01*
X988523D02*
X990522Y1236499D01*
Y1238499D01*
X988523Y1240498D01*
X821773Y1224498D02*
X822772Y1225498D01*
X824772D01*
X825771Y1224498D01*
Y1223499D01*
X824772Y1222499D01*
X823772D01*
X824772D01*
X825771Y1221499D01*
Y1220500D01*
X824772Y1219500D01*
X822772D01*
X821773Y1220500D01*
X827771Y1224498D02*
X828770Y1225498D01*
X830770D01*
X831769Y1224498D01*
Y1223499D01*
X830770Y1222499D01*
X831769Y1221499D01*
Y1220500D01*
X830770Y1219500D01*
X828770D01*
X827771Y1220500D01*
Y1221499D01*
X828770Y1222499D01*
X827771Y1223499D01*
Y1224498D01*
X828770Y1222499D02*
X830770D01*
X833769Y1224498D02*
X834768Y1225498D01*
X836768D01*
X837767Y1224498D01*
Y1223499D01*
X836768Y1222499D01*
X837767Y1221499D01*
Y1220500D01*
X836768Y1219500D01*
X834768D01*
X833769Y1220500D01*
Y1221499D01*
X834768Y1222499D01*
X833769Y1223499D01*
Y1224498D01*
X834768Y1222499D02*
X836768D01*
X845765Y1225498D02*
X849763D01*
X847764D01*
Y1219500D01*
X852763D02*
X854762D01*
X855762Y1220500D01*
Y1222499D01*
X854762Y1223499D01*
X852763D01*
X851763Y1222499D01*
Y1220500D01*
X852763Y1219500D01*
X858761Y1224498D02*
Y1223499D01*
X857761D01*
X859760D01*
X858761D01*
Y1220500D01*
X859760Y1219500D01*
X863759Y1223499D02*
X865758D01*
X866758Y1222499D01*
Y1219500D01*
X863759D01*
X862759Y1220500D01*
X863759Y1221499D01*
X866758D01*
X868757Y1219500D02*
X870757D01*
X869757D01*
Y1225498D01*
X868757D01*
X821773Y1314498D02*
X822772Y1315498D01*
X824772D01*
X825771Y1314498D01*
Y1313499D01*
X824772Y1312499D01*
X823772D01*
X824772D01*
X825771Y1311499D01*
Y1310500D01*
X824772Y1309500D01*
X822772D01*
X821773Y1310500D01*
X825771Y1300498D02*
X821773D01*
Y1297499D01*
X823772Y1298499D01*
X824772D01*
X825771Y1297499D01*
Y1295500D01*
X824772Y1294500D01*
X822772D01*
X821773Y1295500D01*
Y1284498D02*
X822772Y1285498D01*
X824772D01*
X825771Y1284498D01*
Y1283499D01*
X824772Y1282499D01*
X825771Y1281499D01*
Y1280500D01*
X824772Y1279500D01*
X822772D01*
X821773Y1280500D01*
Y1281499D01*
X822772Y1282499D01*
X821773Y1283499D01*
Y1284498D01*
X822772Y1282499D02*
X824772D01*
X825771Y1270498D02*
X821773D01*
Y1267499D01*
X823772Y1268499D01*
X824772D01*
X825771Y1267499D01*
Y1265500D01*
X824772Y1264500D01*
X822772D01*
X821773Y1265500D01*
X830770Y1264500D02*
Y1270498D01*
X827771Y1267499D01*
X831769D01*
X821773Y1249500D02*
X823772D01*
X822772D01*
Y1255498D01*
X821773Y1254498D01*
X830770Y1249500D02*
X826771D01*
X830770Y1253499D01*
Y1254498D01*
X829770Y1255498D01*
X827771D01*
X826771Y1254498D01*
X836768Y1249500D02*
X832769D01*
X836768Y1253499D01*
Y1254498D01*
X835768Y1255498D01*
X833769D01*
X832769Y1254498D01*
X821773Y1234500D02*
X823772D01*
X822772D01*
Y1240498D01*
X821773Y1239498D01*
X826771Y1235500D02*
X827771Y1234500D01*
X829770D01*
X830770Y1235500D01*
Y1239498D01*
X829770Y1240498D01*
X827771D01*
X826771Y1239498D01*
Y1238499D01*
X827771Y1237499D01*
X830770D01*
X836768Y1240498D02*
X834768Y1239498D01*
X832769Y1237499D01*
Y1235500D01*
X833769Y1234500D01*
X835768D01*
X836768Y1235500D01*
Y1236499D01*
X835768Y1237499D01*
X832769D01*
D13*
X402500Y1160500D02*
X406499D01*
X402500Y1157834D01*
X406499D01*
X402500Y1155835D02*
Y1154502D01*
X403166Y1153835D01*
X404499D01*
X405166Y1154502D01*
Y1155835D01*
X404499Y1156501D01*
X403166D01*
X402500Y1155835D01*
X405832Y1151836D02*
X405166D01*
Y1152503D01*
Y1151170D01*
Y1151836D01*
X403166D01*
X402500Y1151170D01*
X405166Y1146504D02*
Y1148504D01*
X404499Y1149170D01*
X403166D01*
X402500Y1148504D01*
Y1146504D01*
X406499Y1145172D02*
X402500D01*
X404499D01*
X405166Y1144505D01*
Y1143172D01*
X404499Y1142506D01*
X402500D01*
X327913Y1092813D02*
Y1085315D01*
X331662D01*
X332912Y1086565D01*
Y1091563D01*
X331662Y1092813D01*
X327913D01*
X335411Y1090313D02*
Y1085315D01*
Y1087814D01*
X336661Y1089064D01*
X337910Y1090313D01*
X339160D01*
X342909Y1085315D02*
X345408D01*
X344158D01*
Y1090313D01*
X342909D01*
X349156Y1085315D02*
X351656D01*
X350406D01*
Y1092813D01*
X349156D01*
X355404Y1085315D02*
X357904D01*
X356654D01*
Y1092813D01*
X355404D01*
X369150D02*
Y1085315D01*
X372899D01*
X374148Y1086565D01*
Y1091563D01*
X372899Y1092813D01*
X369150D01*
X376648Y1090313D02*
Y1085315D01*
Y1087814D01*
X377897Y1089064D01*
X379147Y1090313D01*
X380396D01*
X385395D02*
X387894D01*
X389144Y1089064D01*
Y1085315D01*
X385395D01*
X384145Y1086565D01*
X385395Y1087814D01*
X389144D01*
X391643Y1090313D02*
Y1086565D01*
X392892Y1085315D01*
X394142Y1086565D01*
X395392Y1085315D01*
X396641Y1086565D01*
Y1090313D01*
X399140Y1085315D02*
X401640D01*
X400390D01*
Y1090313D01*
X399140D01*
X405388Y1085315D02*
Y1090313D01*
X409137D01*
X410387Y1089064D01*
Y1085315D01*
X415385Y1082816D02*
X416635D01*
X417884Y1084065D01*
Y1090313D01*
X414136D01*
X412886Y1089064D01*
Y1086565D01*
X414136Y1085315D01*
X417884D01*
D14*
X490811Y1115653D02*
X492810D01*
X491810D01*
Y1121651D01*
X490811Y1120651D01*
X499808Y1115653D02*
X495809D01*
X499808Y1119652D01*
Y1120651D01*
X498808Y1121651D01*
X496809D01*
X495809Y1120651D01*
X501807D02*
X502807Y1121651D01*
X504806D01*
X505806Y1120651D01*
Y1116653D01*
X504806Y1115653D01*
X502807D01*
X501807Y1116653D01*
Y1120651D01*
X507805Y1115653D02*
Y1116653D01*
X508805D01*
Y1115653D01*
X507805D01*
X512804Y1120651D02*
X513803Y1121651D01*
X515802D01*
X516802Y1120651D01*
Y1116653D01*
X515802Y1115653D01*
X513803D01*
X512804Y1116653D01*
Y1120651D01*
X518802D02*
X519801Y1121651D01*
X521801D01*
X522800Y1120651D01*
Y1116653D01*
X521801Y1115653D01*
X519801D01*
X518802Y1116653D01*
Y1120651D01*
X232477Y1314256D02*
Y1316255D01*
Y1315255D01*
X226479D01*
X227479Y1314256D01*
Y1319254D02*
X226479Y1320254D01*
Y1322253D01*
X227479Y1323253D01*
X231477D01*
X232477Y1322253D01*
Y1320254D01*
X231477Y1319254D01*
X227479D01*
Y1325252D02*
X226479Y1326252D01*
Y1328251D01*
X227479Y1329251D01*
X231477D01*
X232477Y1328251D01*
Y1326252D01*
X231477Y1325252D01*
X227479D01*
X232477Y1331250D02*
X231477D01*
Y1332250D01*
X232477D01*
Y1331250D01*
X227479Y1336248D02*
X226479Y1337248D01*
Y1339248D01*
X227479Y1340247D01*
X231477D01*
X232477Y1339248D01*
Y1337248D01*
X231477Y1336248D01*
X227479D01*
Y1342247D02*
X226479Y1343246D01*
Y1345245D01*
X227479Y1346245D01*
X231477D01*
X232477Y1345245D01*
Y1343246D01*
X231477Y1342247D01*
X227479D01*
D52*
X773997Y1237000D02*
G03*
X773997Y1237000I-2500J0D01*
G01*
X311352Y1192500D02*
G03*
X311352Y1192500I-1667J0D01*
G01*
X317257D02*
G03*
X317257Y1192500I-1667J0D01*
G01*
X683852Y1250000D02*
G03*
X683852Y1250000I-1667J0D01*
G01*
Y1260000D02*
G03*
X683852Y1260000I-1667J0D01*
G01*
Y1270000D02*
G03*
X683852Y1270000I-1667J0D01*
G01*
Y1280000D02*
G03*
X683852Y1280000I-1667J0D01*
G01*
Y1290000D02*
G03*
X683852Y1290000I-1667J0D01*
G01*
Y1300000D02*
G03*
X683852Y1300000I-1667J0D01*
G01*
Y1240000D02*
G03*
X683852Y1240000I-1667J0D01*
G01*
X653852Y1300000D02*
G03*
X653852Y1300000I-1667J0D01*
G01*
Y1290000D02*
G03*
X653852Y1290000I-1667J0D01*
G01*
Y1280000D02*
G03*
X653852Y1280000I-1667J0D01*
G01*
Y1270000D02*
G03*
X653852Y1270000I-1667J0D01*
G01*
Y1260000D02*
G03*
X653852Y1260000I-1667J0D01*
G01*
Y1250000D02*
G03*
X653852Y1250000I-1667J0D01*
G01*
Y1240000D02*
G03*
X653852Y1240000I-1667J0D01*
G01*
X583852Y1250000D02*
G03*
X583852Y1250000I-1667J0D01*
G01*
Y1260000D02*
G03*
X583852Y1260000I-1667J0D01*
G01*
Y1270000D02*
G03*
X583852Y1270000I-1667J0D01*
G01*
Y1280000D02*
G03*
X583852Y1280000I-1667J0D01*
G01*
Y1290000D02*
G03*
X583852Y1290000I-1667J0D01*
G01*
Y1300000D02*
G03*
X583852Y1300000I-1667J0D01*
G01*
Y1240000D02*
G03*
X583852Y1240000I-1667J0D01*
G01*
X553852Y1300000D02*
G03*
X553852Y1300000I-1667J0D01*
G01*
Y1290000D02*
G03*
X553852Y1290000I-1667J0D01*
G01*
Y1280000D02*
G03*
X553852Y1280000I-1667J0D01*
G01*
Y1270000D02*
G03*
X553852Y1270000I-1667J0D01*
G01*
Y1260000D02*
G03*
X553852Y1260000I-1667J0D01*
G01*
Y1250000D02*
G03*
X553852Y1250000I-1667J0D01*
G01*
Y1240000D02*
G03*
X553852Y1240000I-1667J0D01*
G01*
X328852Y1502500D02*
G03*
X328852Y1502500I-1667J0D01*
G01*
Y1492500D02*
G03*
X328852Y1492500I-1667J0D01*
G01*
Y1472500D02*
G03*
X328852Y1472500I-1667J0D01*
G01*
Y1482500D02*
G03*
X328852Y1482500I-1667J0D01*
G01*
X298852Y1442500D02*
G03*
X298852Y1442500I-1667J0D01*
G01*
Y1452500D02*
G03*
X298852Y1452500I-1667J0D01*
G01*
Y1462500D02*
G03*
X298852Y1462500I-1667J0D01*
G01*
Y1472500D02*
G03*
X298852Y1472500I-1667J0D01*
G01*
Y1482500D02*
G03*
X298852Y1482500I-1667J0D01*
G01*
Y1492500D02*
G03*
X298852Y1492500I-1667J0D01*
G01*
Y1502500D02*
G03*
X298852Y1502500I-1667J0D01*
G01*
Y1432500D02*
G03*
X298852Y1432500I-1667J0D01*
G01*
X328852Y1442500D02*
G03*
X328852Y1442500I-1667J0D01*
G01*
Y1432500D02*
G03*
X328852Y1432500I-1667J0D01*
G01*
Y1422500D02*
G03*
X328852Y1422500I-1667J0D01*
G01*
Y1412500D02*
G03*
X328852Y1412500I-1667J0D01*
G01*
X298852D02*
G03*
X298852Y1412500I-1667J0D01*
G01*
Y1422500D02*
G03*
X298852Y1422500I-1667J0D01*
G01*
X328852Y1452500D02*
G03*
X328852Y1452500I-1667J0D01*
G01*
Y1462500D02*
G03*
X328852Y1462500I-1667J0D01*
G01*
X326352Y1347500D02*
G03*
X326352Y1347500I-1667J0D01*
G01*
Y1337500D02*
G03*
X326352Y1337500I-1667J0D01*
G01*
Y1317500D02*
G03*
X326352Y1317500I-1667J0D01*
G01*
Y1327500D02*
G03*
X326352Y1327500I-1667J0D01*
G01*
X296352Y1287500D02*
G03*
X296352Y1287500I-1667J0D01*
G01*
Y1297500D02*
G03*
X296352Y1297500I-1667J0D01*
G01*
Y1307500D02*
G03*
X296352Y1307500I-1667J0D01*
G01*
Y1317500D02*
G03*
X296352Y1317500I-1667J0D01*
G01*
Y1327500D02*
G03*
X296352Y1327500I-1667J0D01*
G01*
Y1337500D02*
G03*
X296352Y1337500I-1667J0D01*
G01*
Y1347500D02*
G03*
X296352Y1347500I-1667J0D01*
G01*
Y1277500D02*
G03*
X296352Y1277500I-1667J0D01*
G01*
X326352Y1287500D02*
G03*
X326352Y1287500I-1667J0D01*
G01*
Y1277500D02*
G03*
X326352Y1277500I-1667J0D01*
G01*
Y1267500D02*
G03*
X326352Y1267500I-1667J0D01*
G01*
Y1257500D02*
G03*
X326352Y1257500I-1667J0D01*
G01*
X296352D02*
G03*
X296352Y1257500I-1667J0D01*
G01*
Y1267500D02*
G03*
X296352Y1267500I-1667J0D01*
G01*
X326352Y1297500D02*
G03*
X326352Y1297500I-1667J0D01*
G01*
Y1307500D02*
G03*
X326352Y1307500I-1667J0D01*
G01*
X448852Y1290000D02*
G03*
X448852Y1290000I-1667J0D01*
G01*
Y1280000D02*
G03*
X448852Y1280000I-1667J0D01*
G01*
Y1220000D02*
G03*
X448852Y1220000I-1667J0D01*
G01*
Y1230000D02*
G03*
X448852Y1230000I-1667J0D01*
G01*
Y1240000D02*
G03*
X448852Y1240000I-1667J0D01*
G01*
Y1250000D02*
G03*
X448852Y1250000I-1667J0D01*
G01*
Y1260000D02*
G03*
X448852Y1260000I-1667J0D01*
G01*
Y1270000D02*
G03*
X448852Y1270000I-1667J0D01*
G01*
X418852Y1220000D02*
G03*
X418852Y1220000I-1667J0D01*
G01*
Y1290000D02*
G03*
X418852Y1290000I-1667J0D01*
G01*
Y1280000D02*
G03*
X418852Y1280000I-1667J0D01*
G01*
Y1270000D02*
G03*
X418852Y1270000I-1667J0D01*
G01*
Y1260000D02*
G03*
X418852Y1260000I-1667J0D01*
G01*
Y1250000D02*
G03*
X418852Y1250000I-1667J0D01*
G01*
Y1240000D02*
G03*
X418852Y1240000I-1667J0D01*
G01*
Y1230000D02*
G03*
X418852Y1230000I-1667J0D01*
G01*
X633852Y1250000D02*
G03*
X633852Y1250000I-1667J0D01*
G01*
Y1260000D02*
G03*
X633852Y1260000I-1667J0D01*
G01*
Y1270000D02*
G03*
X633852Y1270000I-1667J0D01*
G01*
Y1280000D02*
G03*
X633852Y1280000I-1667J0D01*
G01*
Y1290000D02*
G03*
X633852Y1290000I-1667J0D01*
G01*
Y1300000D02*
G03*
X633852Y1300000I-1667J0D01*
G01*
Y1240000D02*
G03*
X633852Y1240000I-1667J0D01*
G01*
X603852Y1300000D02*
G03*
X603852Y1300000I-1667J0D01*
G01*
Y1290000D02*
G03*
X603852Y1290000I-1667J0D01*
G01*
Y1280000D02*
G03*
X603852Y1280000I-1667J0D01*
G01*
Y1270000D02*
G03*
X603852Y1270000I-1667J0D01*
G01*
Y1260000D02*
G03*
X603852Y1260000I-1667J0D01*
G01*
Y1250000D02*
G03*
X603852Y1250000I-1667J0D01*
G01*
Y1240000D02*
G03*
X603852Y1240000I-1667J0D01*
G01*
X536352Y1347500D02*
G03*
X536352Y1347500I-1667J0D01*
G01*
Y1357500D02*
G03*
X536352Y1357500I-1667J0D01*
G01*
Y1367500D02*
G03*
X536352Y1367500I-1667J0D01*
G01*
Y1377500D02*
G03*
X536352Y1377500I-1667J0D01*
G01*
Y1387500D02*
G03*
X536352Y1387500I-1667J0D01*
G01*
Y1397500D02*
G03*
X536352Y1397500I-1667J0D01*
G01*
Y1407500D02*
G03*
X536352Y1407500I-1667J0D01*
G01*
Y1417500D02*
G03*
X536352Y1417500I-1667J0D01*
G01*
Y1427500D02*
G03*
X536352Y1427500I-1667J0D01*
G01*
Y1437500D02*
G03*
X536352Y1437500I-1667J0D01*
G01*
Y1447500D02*
G03*
X536352Y1447500I-1667J0D01*
G01*
Y1457500D02*
G03*
X536352Y1457500I-1667J0D01*
G01*
Y1467500D02*
G03*
X536352Y1467500I-1667J0D01*
G01*
Y1477500D02*
G03*
X536352Y1477500I-1667J0D01*
G01*
Y1487500D02*
G03*
X536352Y1487500I-1667J0D01*
G01*
Y1497500D02*
G03*
X536352Y1497500I-1667J0D01*
G01*
X476352Y1347500D02*
G03*
X476352Y1347500I-1667J0D01*
G01*
Y1357500D02*
G03*
X476352Y1357500I-1667J0D01*
G01*
Y1367500D02*
G03*
X476352Y1367500I-1667J0D01*
G01*
Y1377500D02*
G03*
X476352Y1377500I-1667J0D01*
G01*
Y1387500D02*
G03*
X476352Y1387500I-1667J0D01*
G01*
Y1397500D02*
G03*
X476352Y1397500I-1667J0D01*
G01*
Y1407500D02*
G03*
X476352Y1407500I-1667J0D01*
G01*
Y1417500D02*
G03*
X476352Y1417500I-1667J0D01*
G01*
Y1427500D02*
G03*
X476352Y1427500I-1667J0D01*
G01*
Y1437500D02*
G03*
X476352Y1437500I-1667J0D01*
G01*
Y1447500D02*
G03*
X476352Y1447500I-1667J0D01*
G01*
Y1457500D02*
G03*
X476352Y1457500I-1667J0D01*
G01*
Y1467500D02*
G03*
X476352Y1467500I-1667J0D01*
G01*
Y1477500D02*
G03*
X476352Y1477500I-1667J0D01*
G01*
Y1487500D02*
G03*
X476352Y1487500I-1667J0D01*
G01*
Y1497500D02*
G03*
X476352Y1497500I-1667J0D01*
G01*
X628852Y1347500D02*
G03*
X628852Y1347500I-1667J0D01*
G01*
Y1357500D02*
G03*
X628852Y1357500I-1667J0D01*
G01*
Y1367500D02*
G03*
X628852Y1367500I-1667J0D01*
G01*
Y1377500D02*
G03*
X628852Y1377500I-1667J0D01*
G01*
Y1387500D02*
G03*
X628852Y1387500I-1667J0D01*
G01*
Y1397500D02*
G03*
X628852Y1397500I-1667J0D01*
G01*
Y1407500D02*
G03*
X628852Y1407500I-1667J0D01*
G01*
Y1417500D02*
G03*
X628852Y1417500I-1667J0D01*
G01*
Y1427500D02*
G03*
X628852Y1427500I-1667J0D01*
G01*
Y1437500D02*
G03*
X628852Y1437500I-1667J0D01*
G01*
Y1447500D02*
G03*
X628852Y1447500I-1667J0D01*
G01*
Y1457500D02*
G03*
X628852Y1457500I-1667J0D01*
G01*
Y1467500D02*
G03*
X628852Y1467500I-1667J0D01*
G01*
Y1477500D02*
G03*
X628852Y1477500I-1667J0D01*
G01*
Y1487500D02*
G03*
X628852Y1487500I-1667J0D01*
G01*
Y1497500D02*
G03*
X628852Y1497500I-1667J0D01*
G01*
X568852Y1347500D02*
G03*
X568852Y1347500I-1667J0D01*
G01*
Y1357500D02*
G03*
X568852Y1357500I-1667J0D01*
G01*
Y1367500D02*
G03*
X568852Y1367500I-1667J0D01*
G01*
Y1377500D02*
G03*
X568852Y1377500I-1667J0D01*
G01*
Y1387500D02*
G03*
X568852Y1387500I-1667J0D01*
G01*
Y1397500D02*
G03*
X568852Y1397500I-1667J0D01*
G01*
Y1407500D02*
G03*
X568852Y1407500I-1667J0D01*
G01*
Y1417500D02*
G03*
X568852Y1417500I-1667J0D01*
G01*
Y1427500D02*
G03*
X568852Y1427500I-1667J0D01*
G01*
Y1437500D02*
G03*
X568852Y1437500I-1667J0D01*
G01*
Y1447500D02*
G03*
X568852Y1447500I-1667J0D01*
G01*
Y1457500D02*
G03*
X568852Y1457500I-1667J0D01*
G01*
Y1467500D02*
G03*
X568852Y1467500I-1667J0D01*
G01*
Y1477500D02*
G03*
X568852Y1477500I-1667J0D01*
G01*
Y1487500D02*
G03*
X568852Y1487500I-1667J0D01*
G01*
Y1497500D02*
G03*
X568852Y1497500I-1667J0D01*
G01*
X362474Y1303189D02*
G03*
X362474Y1303189I-1667J0D01*
G01*
Y1278189D02*
G03*
X362474Y1278189I-1667J0D01*
G01*
X421352Y1307500D02*
G03*
X421352Y1307500I-1667J0D01*
G01*
X441037D02*
G03*
X441037Y1307500I-1667J0D01*
G01*
X578852Y1320000D02*
G03*
X578852Y1320000I-1667J0D01*
G01*
X559167D02*
G03*
X559167Y1320000I-1667J0D01*
G01*
X628852D02*
G03*
X628852Y1320000I-1667J0D01*
G01*
X609167D02*
G03*
X609167Y1320000I-1667J0D01*
G01*
X678852D02*
G03*
X678852Y1320000I-1667J0D01*
G01*
X659167D02*
G03*
X659167Y1320000I-1667J0D01*
G01*
X731352D02*
G03*
X731352Y1320000I-1667J0D01*
G01*
Y1339685D02*
G03*
X731352Y1339685I-1667J0D01*
G01*
X578852Y1512500D02*
G03*
X578852Y1512500I-1667J0D01*
G01*
X553852D02*
G03*
X553852Y1512500I-1667J0D01*
G01*
X608852D02*
G03*
X608852Y1512500I-1667J0D01*
G01*
X589167D02*
G03*
X589167Y1512500I-1667J0D01*
G01*
X661352Y1495000D02*
G03*
X661352Y1495000I-1667J0D01*
G01*
Y1514685D02*
G03*
X661352Y1514685I-1667J0D01*
G01*
X446352Y1510000D02*
G03*
X446352Y1510000I-1667J0D01*
G01*
X452257D02*
G03*
X452257Y1510000I-1667J0D01*
G01*
X516352Y1512500D02*
G03*
X516352Y1512500I-1667J0D01*
G01*
X496667D02*
G03*
X496667Y1512500I-1667J0D01*
G01*
X303852Y1517500D02*
G03*
X303852Y1517500I-1667J0D01*
G01*
X323537D02*
G03*
X323537Y1517500I-1667J0D01*
G01*
X303852Y1365000D02*
G03*
X303852Y1365000I-1667J0D01*
G01*
X323537D02*
G03*
X323537Y1365000I-1667J0D01*
G01*
X323852Y1382500D02*
G03*
X323852Y1382500I-1667J0D01*
G01*
X298852D02*
G03*
X298852Y1382500I-1667J0D01*
G01*
X382474Y1303189D02*
G03*
X382474Y1303189I-1667J0D01*
G01*
Y1278189D02*
G03*
X382474Y1278189I-1667J0D01*
G01*
X726352Y1240000D02*
G03*
X726352Y1240000I-1667J0D01*
G01*
Y1215000D02*
G03*
X726352Y1215000I-1667J0D01*
G01*
X768997Y1309500D02*
X771497Y1310750D01*
X773997Y1309500D01*
X772748Y1312000D02*
X773997Y1309500D01*
X772748Y1312000D02*
X773997Y1314500D01*
X771497Y1313250D02*
X773997Y1314500D01*
X768997D02*
X771497Y1313250D01*
X768997Y1314500D02*
X770248Y1312000D01*
X768997Y1309500D02*
X770248Y1312000D01*
Y1295750D02*
X771497Y1294500D01*
X768997Y1295750D02*
X770248D01*
X768997D02*
X770248Y1297000D01*
X768997Y1298250D02*
X770248Y1297000D01*
X768997Y1298250D02*
X770248D01*
X771497Y1299500D01*
X772748Y1298250D01*
X773997D01*
X772748Y1297000D02*
X773997Y1298250D01*
X772748Y1297000D02*
X773997Y1295750D01*
X772748D02*
X773997D01*
X771497Y1294500D02*
X772748Y1295750D01*
X768997Y1280750D02*
X770248D01*
X768997D02*
Y1283250D01*
X770248D01*
Y1284500D01*
X772748D01*
Y1283250D02*
Y1284500D01*
Y1283250D02*
X773997D01*
Y1280750D02*
Y1283250D01*
X772748Y1280750D02*
X773997D01*
X772748Y1279500D02*
Y1280750D01*
X770248Y1279500D02*
X772748D01*
X770248D02*
Y1280750D01*
X771497Y1264500D02*
X773997Y1269500D01*
X768997D02*
X773997D01*
X768997D02*
X771497Y1264500D01*
X768997Y1249500D02*
X773997D01*
Y1254500D01*
X768997D02*
X773997D01*
X768997Y1249500D02*
Y1254500D01*
X353333Y1178333D02*
X356667D01*
Y1181667D01*
X353333D02*
X356667D01*
X353333Y1178333D02*
Y1181667D01*
Y1170833D02*
X356667D01*
Y1174167D01*
X353333D02*
X356667D01*
X353333Y1170833D02*
Y1174167D01*
X417270Y1175833D02*
X420604D01*
Y1179167D01*
X417270D02*
X420604D01*
X417270Y1175833D02*
Y1179167D01*
X663333Y1170833D02*
X666667D01*
Y1174167D01*
X663333D02*
X666667D01*
X663333Y1170833D02*
Y1174167D01*
Y1178333D02*
X666667D01*
Y1181667D01*
X663333D02*
X666667D01*
X663333Y1178333D02*
Y1181667D01*
X396955Y1178333D02*
X400289D01*
Y1181667D01*
X396955D02*
X400289D01*
X396955Y1178333D02*
Y1181667D01*
X389455Y1178333D02*
X392789D01*
Y1181667D01*
X389455D02*
X392789D01*
X389455Y1178333D02*
Y1181667D01*
X705518Y1483333D02*
X708852D01*
Y1486667D01*
X705518D02*
X708852D01*
X705518Y1483333D02*
Y1486667D01*
X700518Y1493333D02*
X703852D01*
Y1496667D01*
X700518D02*
X703852D01*
X700518Y1493333D02*
Y1496667D01*
X695518Y1473333D02*
X698852D01*
Y1476667D01*
X695518D02*
X698852D01*
X695518Y1473333D02*
Y1476667D01*
X613018Y1490833D02*
X616352D01*
Y1494167D01*
X613018D02*
X616352D01*
X613018Y1490833D02*
Y1494167D01*
X335518Y1285833D02*
X338852D01*
Y1289167D01*
X335518D02*
X338852D01*
X335518Y1285833D02*
Y1289167D01*
X345518Y1285833D02*
X348852D01*
Y1289167D01*
X345518D02*
X348852D01*
X345518Y1285833D02*
Y1289167D01*
X403018Y1358333D02*
X406352D01*
Y1361667D01*
X403018D02*
X406352D01*
X403018Y1358333D02*
Y1361667D01*
X303018Y1310833D02*
X306352D01*
Y1314167D01*
X303018D02*
X306352D01*
X303018Y1310833D02*
Y1314167D01*
Y1333333D02*
X306352D01*
Y1336667D01*
X303018D02*
X306352D01*
X303018Y1333333D02*
Y1336667D01*
X308018Y1393333D02*
X311352D01*
Y1396667D01*
X308018D02*
X311352D01*
X308018Y1393333D02*
Y1396667D01*
X315518Y1220833D02*
X318852D01*
Y1224167D01*
X315518D02*
X318852D01*
X315518Y1220833D02*
Y1224167D01*
Y1230833D02*
X318852D01*
Y1234167D01*
X315518D02*
X318852D01*
X315518Y1230833D02*
Y1234167D01*
X313018Y1235833D02*
X316352D01*
Y1239167D01*
X313018D02*
X316352D01*
X313018Y1235833D02*
Y1239167D01*
Y1245833D02*
X316352D01*
Y1249167D01*
X313018D02*
X316352D01*
X313018Y1245833D02*
Y1249167D01*
X378333Y1180833D02*
X381667D01*
Y1184167D01*
X378333D02*
X381667D01*
X378333Y1180833D02*
Y1184167D01*
X408333Y1180833D02*
X411667D01*
Y1184167D01*
X408333D02*
X411667D01*
X408333Y1180833D02*
Y1184167D01*
X423333Y1180833D02*
X426667D01*
Y1184167D01*
X423333D02*
X426667D01*
X423333Y1180833D02*
Y1184167D01*
X433333Y1180833D02*
X436667D01*
Y1184167D01*
X433333D02*
X436667D01*
X433333Y1180833D02*
Y1184167D01*
X453333Y1180833D02*
X456667D01*
Y1184167D01*
X453333D02*
X456667D01*
X453333Y1180833D02*
Y1184167D01*
X473333Y1180833D02*
X476667D01*
Y1184167D01*
X473333D02*
X476667D01*
X473333Y1180833D02*
Y1184167D01*
X493333Y1180833D02*
X496667D01*
Y1184167D01*
X493333D02*
X496667D01*
X493333Y1180833D02*
Y1184167D01*
X533333Y1180833D02*
X536667D01*
Y1184167D01*
X533333D02*
X536667D01*
X533333Y1180833D02*
Y1184167D01*
X543333Y1180833D02*
X546667D01*
Y1184167D01*
X543333D02*
X546667D01*
X543333Y1180833D02*
Y1184167D01*
X583333Y1180833D02*
X586667D01*
Y1184167D01*
X583333D02*
X586667D01*
X583333Y1180833D02*
Y1184167D01*
X593333Y1180833D02*
X596667D01*
Y1184167D01*
X593333D02*
X596667D01*
X593333Y1180833D02*
Y1184167D01*
X633333Y1180833D02*
X636667D01*
Y1184167D01*
X633333D02*
X636667D01*
X633333Y1180833D02*
Y1184167D01*
X438333Y1180833D02*
X441667D01*
Y1184167D01*
X438333D02*
X441667D01*
X438333Y1180833D02*
Y1184167D01*
X448333Y1180833D02*
X451667D01*
Y1184167D01*
X448333D02*
X451667D01*
X448333Y1180833D02*
Y1184167D01*
X458333Y1180833D02*
X461667D01*
Y1184167D01*
X458333D02*
X461667D01*
X458333Y1180833D02*
Y1184167D01*
X468333Y1180833D02*
X471667D01*
Y1184167D01*
X468333D02*
X471667D01*
X468333Y1180833D02*
Y1184167D01*
X478333Y1180833D02*
X481667D01*
Y1184167D01*
X478333D02*
X481667D01*
X478333Y1180833D02*
Y1184167D01*
X488333Y1180833D02*
X491667D01*
Y1184167D01*
X488333D02*
X491667D01*
X488333Y1180833D02*
Y1184167D01*
X508333Y1180833D02*
X511667D01*
Y1184167D01*
X508333D02*
X511667D01*
X508333Y1180833D02*
Y1184167D01*
X518333Y1180833D02*
X521667D01*
Y1184167D01*
X518333D02*
X521667D01*
X518333Y1180833D02*
Y1184167D01*
X548333Y1180833D02*
X551667D01*
Y1184167D01*
X548333D02*
X551667D01*
X548333Y1180833D02*
Y1184167D01*
X578333Y1180833D02*
X581667D01*
Y1184167D01*
X578333D02*
X581667D01*
X578333Y1180833D02*
Y1184167D01*
X405518Y1423333D02*
X408852D01*
Y1426667D01*
X405518D02*
X408852D01*
X405518Y1423333D02*
Y1426667D01*
X410518Y1413333D02*
X413852D01*
Y1416667D01*
X410518D02*
X413852D01*
X410518Y1413333D02*
Y1416667D01*
X413018Y1403333D02*
X416352D01*
Y1406667D01*
X413018D02*
X416352D01*
X413018Y1403333D02*
Y1406667D01*
X368018Y1403333D02*
X371352D01*
Y1406667D01*
X368018D02*
X371352D01*
X368018Y1403333D02*
Y1406667D01*
X323018Y1403333D02*
X326352D01*
Y1406667D01*
X323018D02*
X326352D01*
X323018Y1403333D02*
Y1406667D01*
X335518Y1455833D02*
X338852D01*
Y1459167D01*
X335518D02*
X338852D01*
X335518Y1455833D02*
Y1459167D01*
Y1445833D02*
X338852D01*
Y1449167D01*
X335518D02*
X338852D01*
X335518Y1445833D02*
Y1449167D01*
Y1435833D02*
X338852D01*
Y1439167D01*
X335518D02*
X338852D01*
X335518Y1435833D02*
Y1439167D01*
Y1425833D02*
X338852D01*
Y1429167D01*
X335518D02*
X338852D01*
X335518Y1425833D02*
Y1429167D01*
Y1415833D02*
X338852D01*
Y1419167D01*
X335518D02*
X338852D01*
X335518Y1415833D02*
Y1419167D01*
X343018Y1373333D02*
X346352D01*
Y1376667D01*
X343018D02*
X346352D01*
X343018Y1373333D02*
Y1376667D01*
X435518Y1368333D02*
X438852D01*
Y1371667D01*
X435518D02*
X438852D01*
X435518Y1368333D02*
Y1371667D01*
X445518Y1380833D02*
X448852D01*
Y1384167D01*
X445518D02*
X448852D01*
X445518Y1380833D02*
Y1384167D01*
Y1373333D02*
X448852D01*
Y1376667D01*
X445518D02*
X448852D01*
X445518Y1373333D02*
Y1376667D01*
Y1365833D02*
X448852D01*
Y1369167D01*
X445518D02*
X448852D01*
X445518Y1365833D02*
Y1369167D01*
X415518Y1368333D02*
X418852D01*
Y1371667D01*
X415518D02*
X418852D01*
X415518Y1368333D02*
Y1371667D01*
Y1383333D02*
X418852D01*
Y1386667D01*
X415518D02*
X418852D01*
X415518Y1383333D02*
Y1386667D01*
Y1393333D02*
X418852D01*
Y1396667D01*
X415518D02*
X418852D01*
X415518Y1393333D02*
Y1396667D01*
X375518Y1343333D02*
X378852D01*
Y1346667D01*
X375518D02*
X378852D01*
X375518Y1343333D02*
Y1346667D01*
X370518Y1333333D02*
X373852D01*
Y1336667D01*
X370518D02*
X373852D01*
X370518Y1333333D02*
Y1336667D01*
X380518Y1353333D02*
X383852D01*
Y1356667D01*
X380518D02*
X383852D01*
X380518Y1353333D02*
Y1356667D01*
X385518Y1363333D02*
X388852D01*
Y1366667D01*
X385518D02*
X388852D01*
X385518Y1363333D02*
Y1366667D01*
X390518Y1368333D02*
X393852D01*
Y1371667D01*
X390518D02*
X393852D01*
X390518Y1368333D02*
Y1371667D01*
X395518Y1383333D02*
X398852D01*
Y1386667D01*
X395518D02*
X398852D01*
X395518Y1383333D02*
Y1386667D01*
X373018Y1443333D02*
X376352D01*
Y1446667D01*
X373018D02*
X376352D01*
X373018Y1443333D02*
Y1446667D01*
X380518Y1463333D02*
X383852D01*
Y1466667D01*
X380518D02*
X383852D01*
X380518Y1463333D02*
Y1466667D01*
X378018Y1433333D02*
X381352D01*
Y1436667D01*
X378018D02*
X381352D01*
X378018Y1433333D02*
Y1436667D01*
X385518Y1423333D02*
X388852D01*
Y1426667D01*
X385518D02*
X388852D01*
X385518Y1423333D02*
Y1426667D01*
X395518Y1413333D02*
X398852D01*
Y1416667D01*
X395518D02*
X398852D01*
X395518Y1413333D02*
Y1416667D01*
X448018Y1325833D02*
X451352D01*
Y1329167D01*
X448018D02*
X451352D01*
X448018Y1325833D02*
Y1329167D01*
X388018Y1315833D02*
X391352D01*
Y1319167D01*
X388018D02*
X391352D01*
X388018Y1315833D02*
Y1319167D01*
Y1238333D02*
X391352D01*
Y1241667D01*
X388018D02*
X391352D01*
X388018Y1238333D02*
Y1241667D01*
X328467Y1393767D02*
X329300Y1392933D01*
X327633Y1393767D02*
X328467D01*
X327633D02*
X328467Y1394600D01*
X327633Y1395433D02*
X328467Y1394600D01*
X327633Y1395433D02*
X328467D01*
X329300Y1396267D01*
X330133Y1395433D01*
X330967D01*
X330133Y1394600D02*
X330967Y1395433D01*
X330133Y1394600D02*
X330967Y1393767D01*
X330133D02*
X330967D01*
X329300Y1392933D02*
X330133Y1393767D01*
X614733Y1322233D02*
X618067D01*
Y1325567D01*
X614733D02*
X618067D01*
X614733Y1322233D02*
Y1325567D01*
X499533Y1189633D02*
X502867D01*
Y1192967D01*
X499533D02*
X502867D01*
X499533Y1189633D02*
Y1192967D01*
X490733Y1189133D02*
X494067D01*
Y1192467D01*
X490733D02*
X494067D01*
X490733Y1189133D02*
Y1192467D01*
X476133Y1189533D02*
X479467D01*
Y1192867D01*
X476133D02*
X479467D01*
X476133Y1189533D02*
Y1192867D01*
X573333Y1182433D02*
X576667D01*
Y1185767D01*
X573333D02*
X576667D01*
X573333Y1182433D02*
Y1185767D01*
X553933Y1177233D02*
X557267D01*
Y1180567D01*
X553933D02*
X557267D01*
X553933Y1177233D02*
Y1180567D01*
X568018Y1175833D02*
X571352D01*
Y1179167D01*
X568018D02*
X571352D01*
X568018Y1175833D02*
Y1179167D01*
X639467Y1231667D02*
X640300Y1230833D01*
X638633Y1231667D02*
X639467D01*
X638633D02*
X639467Y1232500D01*
X638633Y1233333D02*
X639467Y1232500D01*
X638633Y1233333D02*
X639467D01*
X640300Y1234167D01*
X641133Y1233333D01*
X641967D01*
X641133Y1232500D02*
X641967Y1233333D01*
X641133Y1232500D02*
X641967Y1231667D01*
X641133D02*
X641967D01*
X640300Y1230833D02*
X641133Y1231667D01*
X585518Y1220833D02*
X588852D01*
Y1224167D01*
X585518D02*
X588852D01*
X585518Y1220833D02*
Y1224167D01*
X565518Y1288333D02*
X568852D01*
Y1291667D01*
X565518D02*
X568852D01*
X565518Y1288333D02*
Y1291667D01*
X550518Y1445833D02*
X553852D01*
Y1449167D01*
X550518D02*
X553852D01*
X550518Y1445833D02*
Y1449167D01*
X533018Y1220833D02*
X536352D01*
Y1224167D01*
X533018D02*
X536352D01*
X533018Y1220833D02*
Y1224167D01*
X498018Y1283333D02*
X501352D01*
Y1286667D01*
X498018D02*
X501352D01*
X498018Y1283333D02*
Y1286667D01*
X497602Y1376667D02*
X498435Y1375833D01*
X496768Y1376667D02*
X497602D01*
X496768D02*
X497602Y1377500D01*
X496768Y1378333D02*
X497602Y1377500D01*
X496768Y1378333D02*
X497602D01*
X498435Y1379167D01*
X499268Y1378333D01*
X500102D01*
X499268Y1377500D02*
X500102Y1378333D01*
X499268Y1377500D02*
X500102Y1376667D01*
X499268D02*
X500102D01*
X498435Y1375833D02*
X499268Y1376667D01*
X498852Y1356667D02*
X499685Y1355833D01*
X498018Y1356667D02*
X498852D01*
X498018D02*
X498852Y1357500D01*
X498018Y1358333D02*
X498852Y1357500D01*
X498018Y1358333D02*
X498852D01*
X499685Y1359167D01*
X500518Y1358333D01*
X501352D01*
X500518Y1357500D02*
X501352Y1358333D01*
X500518Y1357500D02*
X501352Y1356667D01*
X500518D02*
X501352D01*
X499685Y1355833D02*
X500518Y1356667D01*
X495518Y1400833D02*
X498852D01*
Y1404167D01*
X495518D02*
X498852D01*
X495518Y1400833D02*
Y1404167D01*
X430518Y1260833D02*
X433852D01*
Y1264167D01*
X430518D02*
X433852D01*
X430518Y1260833D02*
Y1264167D01*
X560518Y1308333D02*
X563852D01*
Y1311667D01*
X560518D02*
X563852D01*
X560518Y1308333D02*
Y1311667D01*
X570518Y1308333D02*
X573852D01*
Y1311667D01*
X570518D02*
X573852D01*
X570518Y1308333D02*
Y1311667D01*
X555518Y1195833D02*
X558852D01*
Y1199167D01*
X555518D02*
X558852D01*
X555518Y1195833D02*
Y1199167D01*
X369140Y1235833D02*
X372474D01*
Y1239167D01*
X369140D02*
X372474D01*
X369140Y1235833D02*
Y1239167D01*
X573333Y1230833D02*
X576667D01*
Y1234167D01*
X573333D02*
X576667D01*
X573333Y1230833D02*
Y1234167D01*
X610518Y1210833D02*
X613852D01*
Y1214167D01*
X610518D02*
X613852D01*
X610518Y1210833D02*
Y1214167D01*
X498018Y1248333D02*
X501352D01*
Y1251667D01*
X498018D02*
X501352D01*
X498018Y1248333D02*
Y1251667D01*
Y1235833D02*
X501352D01*
Y1239167D01*
X498018D02*
X501352D01*
X498018Y1235833D02*
Y1239167D01*
X468018Y1330833D02*
X471352D01*
Y1334167D01*
X468018D02*
X471352D01*
X468018Y1330833D02*
Y1334167D01*
X458018Y1193333D02*
X461352D01*
Y1196667D01*
X458018D02*
X461352D01*
X458018Y1193333D02*
Y1196667D01*
X466352Y1361667D02*
X467185Y1360833D01*
X465518Y1361667D02*
X466352D01*
X465518D02*
X466352Y1362500D01*
X465518Y1363333D02*
X466352Y1362500D01*
X465518Y1363333D02*
X466352D01*
X467185Y1364167D01*
X468018Y1363333D01*
X468852D01*
X468018Y1362500D02*
X468852Y1363333D01*
X468018Y1362500D02*
X468852Y1361667D01*
X468018D02*
X468852D01*
X467185Y1360833D02*
X468018Y1361667D01*
X348018Y1293333D02*
X351352D01*
Y1296667D01*
X348018D02*
X351352D01*
X348018Y1293333D02*
Y1296667D01*
X400518Y1408333D02*
X403852D01*
Y1411667D01*
X400518D02*
X403852D01*
X400518Y1408333D02*
Y1411667D01*
X398018Y1318333D02*
X401352D01*
Y1321667D01*
X398018D02*
X401352D01*
X398018Y1318333D02*
Y1321667D01*
X428018Y1318333D02*
X431352D01*
Y1321667D01*
X428018D02*
X431352D01*
X428018Y1318333D02*
Y1321667D01*
X455518Y1475833D02*
X458852D01*
Y1479167D01*
X455518D02*
X458852D01*
X455518Y1475833D02*
Y1479167D01*
X450518Y1480833D02*
X453852D01*
Y1484167D01*
X450518D02*
X453852D01*
X450518Y1480833D02*
Y1484167D01*
X580518Y1465833D02*
X583852D01*
Y1469167D01*
X580518D02*
X583852D01*
X580518Y1465833D02*
Y1469167D01*
X510518Y1313333D02*
X513852D01*
Y1316667D01*
X510518D02*
X513852D01*
X510518Y1313333D02*
Y1316667D01*
X640518Y1330833D02*
X643852D01*
Y1334167D01*
X640518D02*
X643852D01*
X640518Y1330833D02*
Y1334167D01*
X645518Y1430833D02*
X648852D01*
Y1434167D01*
X645518D02*
X648852D01*
X645518Y1430833D02*
Y1434167D01*
X650518Y1415833D02*
X653852D01*
Y1419167D01*
X650518D02*
X653852D01*
X650518Y1415833D02*
Y1419167D01*
X610518Y1303333D02*
X613852D01*
Y1306667D01*
X610518D02*
X613852D01*
X610518Y1303333D02*
Y1306667D01*
X645518Y1308333D02*
X648852D01*
Y1311667D01*
X645518D02*
X648852D01*
X645518Y1308333D02*
Y1311667D01*
X698018Y1283333D02*
X701352D01*
Y1286667D01*
X698018D02*
X701352D01*
X698018Y1283333D02*
Y1286667D01*
X713018Y1283333D02*
X716352D01*
Y1286667D01*
X713018D02*
X716352D01*
X713018Y1283333D02*
Y1286667D01*
X623018Y1195833D02*
X626352D01*
Y1199167D01*
X623018D02*
X626352D01*
X623018Y1195833D02*
Y1199167D01*
X608018Y1195833D02*
X611352D01*
Y1199167D01*
X608018D02*
X611352D01*
X608018Y1195833D02*
Y1199167D01*
X348018Y1215833D02*
X351352D01*
Y1219167D01*
X348018D02*
X351352D01*
X348018Y1215833D02*
Y1219167D01*
X330518Y1203333D02*
X333852D01*
Y1206667D01*
X330518D02*
X333852D01*
X330518Y1203333D02*
Y1206667D01*
X343018Y1340833D02*
X346352D01*
Y1344167D01*
X343018D02*
X346352D01*
X343018Y1340833D02*
Y1344167D01*
X647185Y1475833D02*
X648852Y1479167D01*
X645518D02*
X648852D01*
X645518D02*
X647185Y1475833D01*
Y1485833D02*
X648852Y1489167D01*
X645518D02*
X648852D01*
X645518D02*
X647185Y1485833D01*
X684685Y1513333D02*
X686352Y1516667D01*
X683018D02*
X686352D01*
X683018D02*
X684685Y1513333D01*
Y1503333D02*
X686352Y1506667D01*
X683018D02*
X686352D01*
X683018D02*
X684685Y1503333D01*
Y1493333D02*
X686352Y1496667D01*
X683018D02*
X686352D01*
X683018D02*
X684685Y1493333D01*
Y1483333D02*
X686352Y1486667D01*
X683018D02*
X686352D01*
X683018D02*
X684685Y1483333D01*
Y1473333D02*
X686352Y1476667D01*
X683018D02*
X686352D01*
X683018D02*
X684685Y1473333D01*
Y1463333D02*
X686352Y1466667D01*
X683018D02*
X686352D01*
X683018D02*
X684685Y1463333D01*
X728018Y1358576D02*
X728852D01*
X728018D02*
Y1360243D01*
X728852D01*
Y1361076D01*
X730518D01*
Y1360243D02*
Y1361076D01*
Y1360243D02*
X731352D01*
Y1358576D02*
Y1360243D01*
X730518Y1358576D02*
X731352D01*
X730518Y1357743D02*
Y1358576D01*
X728852Y1357743D02*
X730518D01*
X728852D02*
Y1358576D01*
X710302D02*
X711135D01*
X710302D02*
Y1360243D01*
X711135D01*
Y1361076D01*
X712802D01*
Y1360243D02*
Y1361076D01*
Y1360243D02*
X713635D01*
Y1358576D02*
Y1360243D01*
X712802Y1358576D02*
X713635D01*
X712802Y1357743D02*
Y1358576D01*
X711135Y1357743D02*
X712802D01*
X711135D02*
Y1358576D01*
X728018Y1384167D02*
X728852D01*
X728018D02*
Y1385833D01*
X728852D01*
Y1386667D01*
X730518D01*
Y1385833D02*
Y1386667D01*
Y1385833D02*
X731352D01*
Y1384167D02*
Y1385833D01*
X730518Y1384167D02*
X731352D01*
X730518Y1383333D02*
Y1384167D01*
X728852Y1383333D02*
X730518D01*
X728852D02*
Y1384167D01*
X710302D02*
X711135D01*
X710302D02*
Y1385833D01*
X711135D01*
Y1386667D01*
X712802D01*
Y1385833D02*
Y1386667D01*
Y1385833D02*
X713635D01*
Y1384167D02*
Y1385833D01*
X712802Y1384167D02*
X713635D01*
X712802Y1383333D02*
Y1384167D01*
X711135Y1383333D02*
X712802D01*
X711135D02*
Y1384167D01*
X728018Y1413576D02*
X728852D01*
X728018D02*
Y1415243D01*
X728852D01*
Y1416076D01*
X730518D01*
Y1415243D02*
Y1416076D01*
Y1415243D02*
X731352D01*
Y1413576D02*
Y1415243D01*
X730518Y1413576D02*
X731352D01*
X730518Y1412743D02*
Y1413576D01*
X728852Y1412743D02*
X730518D01*
X728852D02*
Y1413576D01*
X710302D02*
X711135D01*
X710302D02*
Y1415243D01*
X711135D01*
Y1416076D01*
X712802D01*
Y1415243D02*
Y1416076D01*
Y1415243D02*
X713635D01*
Y1413576D02*
Y1415243D01*
X712802Y1413576D02*
X713635D01*
X712802Y1412743D02*
Y1413576D01*
X711135Y1412743D02*
X712802D01*
X711135D02*
Y1413576D01*
X728018Y1439167D02*
X728852D01*
X728018D02*
Y1440833D01*
X728852D01*
Y1441667D01*
X730518D01*
Y1440833D02*
Y1441667D01*
Y1440833D02*
X731352D01*
Y1439167D02*
Y1440833D01*
X730518Y1439167D02*
X731352D01*
X730518Y1438333D02*
Y1439167D01*
X728852Y1438333D02*
X730518D01*
X728852D02*
Y1439167D01*
X710302D02*
X711135D01*
X710302D02*
Y1440833D01*
X711135D01*
Y1441667D01*
X712802D01*
Y1440833D02*
Y1441667D01*
Y1440833D02*
X713635D01*
Y1439167D02*
Y1440833D01*
X712802Y1439167D02*
X713635D01*
X712802Y1438333D02*
Y1439167D01*
X711135Y1438333D02*
X712802D01*
X711135D02*
Y1439167D01*
X357185Y1518333D02*
X358852Y1521667D01*
X355518D02*
X358852D01*
X355518D02*
X357185Y1518333D01*
Y1508333D02*
X358852Y1511667D01*
X355518D02*
X358852D01*
X355518D02*
X357185Y1508333D01*
Y1498333D02*
X358852Y1501667D01*
X355518D02*
X358852D01*
X355518D02*
X357185Y1498333D01*
Y1488333D02*
X358852Y1491667D01*
X355518D02*
X358852D01*
X355518D02*
X357185Y1488333D01*
Y1478333D02*
X358852Y1481667D01*
X355518D02*
X358852D01*
X355518D02*
X357185Y1478333D01*
Y1468333D02*
X358852Y1471667D01*
X355518D02*
X358852D01*
X355518D02*
X357185Y1468333D01*
Y1458333D02*
X358852Y1461667D01*
X355518D02*
X358852D01*
X355518D02*
X357185Y1458333D01*
Y1448333D02*
X358852Y1451667D01*
X355518D02*
X358852D01*
X355518D02*
X357185Y1448333D01*
Y1438333D02*
X358852Y1441667D01*
X355518D02*
X358852D01*
X355518D02*
X357185Y1438333D01*
Y1428333D02*
X358852Y1431667D01*
X355518D02*
X358852D01*
X355518D02*
X357185Y1428333D01*
Y1418333D02*
X358852Y1421667D01*
X355518D02*
X358852D01*
X355518D02*
X357185Y1418333D01*
Y1408333D02*
X358852Y1411667D01*
X355518D02*
X358852D01*
X355518D02*
X357185Y1408333D01*
Y1398333D02*
X358852Y1401667D01*
X355518D02*
X358852D01*
X355518D02*
X357185Y1398333D01*
Y1388333D02*
X358852Y1391667D01*
X355518D02*
X358852D01*
X355518D02*
X357185Y1388333D01*
Y1378333D02*
X358852Y1381667D01*
X355518D02*
X358852D01*
X355518D02*
X357185Y1378333D01*
Y1368333D02*
X358852Y1371667D01*
X355518D02*
X358852D01*
X355518D02*
X357185Y1368333D01*
Y1358333D02*
X358852Y1361667D01*
X355518D02*
X358852D01*
X355518D02*
X357185Y1358333D01*
Y1348333D02*
X358852Y1351667D01*
X355518D02*
X358852D01*
X355518D02*
X357185Y1348333D01*
Y1338333D02*
X358852Y1341667D01*
X355518D02*
X358852D01*
X355518D02*
X357185Y1338333D01*
Y1328333D02*
X358852Y1331667D01*
X355518D02*
X358852D01*
X355518D02*
X357185Y1328333D01*
X427185D02*
X428852Y1331667D01*
X425518D02*
X428852D01*
X425518D02*
X427185Y1328333D01*
Y1338333D02*
X428852Y1341667D01*
X425518D02*
X428852D01*
X425518D02*
X427185Y1338333D01*
Y1348333D02*
X428852Y1351667D01*
X425518D02*
X428852D01*
X425518D02*
X427185Y1348333D01*
Y1358333D02*
X428852Y1361667D01*
X425518D02*
X428852D01*
X425518D02*
X427185Y1358333D01*
Y1368333D02*
X428852Y1371667D01*
X425518D02*
X428852D01*
X425518D02*
X427185Y1368333D01*
Y1378333D02*
X428852Y1381667D01*
X425518D02*
X428852D01*
X425518D02*
X427185Y1378333D01*
Y1388333D02*
X428852Y1391667D01*
X425518D02*
X428852D01*
X425518D02*
X427185Y1388333D01*
Y1398333D02*
X428852Y1401667D01*
X425518D02*
X428852D01*
X425518D02*
X427185Y1398333D01*
Y1408333D02*
X428852Y1411667D01*
X425518D02*
X428852D01*
X425518D02*
X427185Y1408333D01*
Y1418333D02*
X428852Y1421667D01*
X425518D02*
X428852D01*
X425518D02*
X427185Y1418333D01*
Y1428333D02*
X428852Y1431667D01*
X425518D02*
X428852D01*
X425518D02*
X427185Y1428333D01*
Y1438333D02*
X428852Y1441667D01*
X425518D02*
X428852D01*
X425518D02*
X427185Y1438333D01*
Y1448333D02*
X428852Y1451667D01*
X425518D02*
X428852D01*
X425518D02*
X427185Y1448333D01*
Y1458333D02*
X428852Y1461667D01*
X425518D02*
X428852D01*
X425518D02*
X427185Y1458333D01*
Y1468333D02*
X428852Y1471667D01*
X425518D02*
X428852D01*
X425518D02*
X427185Y1468333D01*
Y1478333D02*
X428852Y1481667D01*
X425518D02*
X428852D01*
X425518D02*
X427185Y1478333D01*
Y1488333D02*
X428852Y1491667D01*
X425518D02*
X428852D01*
X425518D02*
X427185Y1488333D01*
Y1498333D02*
X428852Y1501667D01*
X425518D02*
X428852D01*
X425518D02*
X427185Y1498333D01*
Y1508333D02*
X428852Y1511667D01*
X425518D02*
X428852D01*
X425518D02*
X427185Y1508333D01*
Y1518333D02*
X428852Y1521667D01*
X425518D02*
X428852D01*
X425518D02*
X427185Y1518333D01*
X722185Y1185833D02*
X723852Y1189167D01*
X720518D02*
X723852D01*
X720518D02*
X722185Y1185833D01*
Y1195833D02*
X723852Y1199167D01*
X720518D02*
X723852D01*
X720518D02*
X722185Y1195833D01*
X712185Y1185833D02*
X713852Y1189167D01*
X710518D02*
X713852D01*
X710518D02*
X712185Y1185833D01*
Y1195833D02*
X713852Y1199167D01*
X710518D02*
X713852D01*
X710518D02*
X712185Y1195833D01*
X379140Y1261522D02*
X382474D01*
Y1264856D01*
X379140D02*
X382474D01*
X379140Y1261522D02*
Y1264856D01*
X369140Y1261522D02*
X372474D01*
Y1264856D01*
X369140D02*
X372474D01*
X369140Y1261522D02*
Y1264856D01*
X359140Y1261522D02*
X362474D01*
Y1264856D01*
X359140D02*
X362474D01*
X359140Y1261522D02*
Y1264856D01*
X703018Y1255833D02*
X704685Y1256667D01*
X706352Y1255833D01*
X705518Y1257500D02*
X706352Y1255833D01*
X705518Y1257500D02*
X706352Y1259167D01*
X704685Y1258333D02*
X706352Y1259167D01*
X703018D02*
X704685Y1258333D01*
X703018Y1259167D02*
X703852Y1257500D01*
X703018Y1255833D02*
X703852Y1257500D01*
X703018Y1265833D02*
X704685Y1266667D01*
X706352Y1265833D01*
X705518Y1267500D02*
X706352Y1265833D01*
X705518Y1267500D02*
X706352Y1269167D01*
X704685Y1268333D02*
X706352Y1269167D01*
X703018D02*
X704685Y1268333D01*
X703018Y1269167D02*
X703852Y1267500D01*
X703018Y1265833D02*
X703852Y1267500D01*
X703018Y1275833D02*
X704685Y1276667D01*
X706352Y1275833D01*
X705518Y1277500D02*
X706352Y1275833D01*
X705518Y1277500D02*
X706352Y1279167D01*
X704685Y1278333D02*
X706352Y1279167D01*
X703018D02*
X704685Y1278333D01*
X703018Y1279167D02*
X703852Y1277500D01*
X703018Y1275833D02*
X703852Y1277500D01*
X401122Y1506463D02*
X402789Y1509797D01*
X399455D02*
X402789D01*
X399455D02*
X401122Y1506463D01*
Y1456463D02*
X402789Y1459797D01*
X399455D02*
X402789D01*
X399455D02*
X401122Y1456463D01*
D53*
X762185Y1320000D02*
X1385614D01*
X762185Y1230000D02*
X1385614D01*
X762185Y1215000D02*
X1385614D01*
Y1335000D01*
X762185D02*
X1385614D01*
X762185Y1215000D02*
Y1335000D01*
X1259749Y1215000D02*
Y1335000D01*
X1145582Y1215000D02*
Y1335000D01*
X1072202Y1215000D02*
Y1335000D01*
X1021614Y1215000D02*
Y1335000D01*
X887054Y1215000D02*
Y1335000D01*
X817273Y1215000D02*
Y1335000D01*
D54*
X1264249Y1324500D02*
Y1331698D01*
X1267848D01*
X1269048Y1330498D01*
Y1328099D01*
X1267848Y1326899D01*
X1264249D01*
X1266648D02*
X1269048Y1324500D01*
X1272646D02*
X1275046D01*
X1276245Y1325700D01*
Y1328099D01*
X1275046Y1329298D01*
X1272646D01*
X1271447Y1328099D01*
Y1325700D01*
X1272646Y1324500D01*
X1278644Y1329298D02*
Y1325700D01*
X1279844Y1324500D01*
X1283443D01*
Y1329298D01*
X1287042Y1330498D02*
Y1329298D01*
X1285842D01*
X1288241D01*
X1287042D01*
Y1325700D01*
X1288241Y1324500D01*
X1299038D02*
Y1331698D01*
X1302637D01*
X1303836Y1330498D01*
Y1328099D01*
X1302637Y1326899D01*
X1299038D01*
X1307435Y1329298D02*
X1309834D01*
X1311034Y1328099D01*
Y1324500D01*
X1307435D01*
X1306236Y1325700D01*
X1307435Y1326899D01*
X1311034D01*
X1314633Y1330498D02*
Y1329298D01*
X1313433D01*
X1315832D01*
X1314633D01*
Y1325700D01*
X1315832Y1324500D01*
X1319431Y1331698D02*
Y1324500D01*
Y1328099D01*
X1320631Y1329298D01*
X1323030D01*
X1324230Y1328099D01*
Y1324500D01*
X1333827Y1331698D02*
Y1324500D01*
X1338625D01*
X1344623D02*
X1342224D01*
X1341024Y1325700D01*
Y1328099D01*
X1342224Y1329298D01*
X1344623D01*
X1345823Y1328099D01*
Y1326899D01*
X1341024D01*
X1348222Y1324500D02*
Y1329298D01*
X1351821D01*
X1353020Y1328099D01*
Y1324500D01*
X1357819Y1322101D02*
X1359018D01*
X1360218Y1323300D01*
Y1329298D01*
X1356619D01*
X1355420Y1328099D01*
Y1325700D01*
X1356619Y1324500D01*
X1360218D01*
X1363817Y1330498D02*
Y1329298D01*
X1362617D01*
X1365016D01*
X1363817D01*
Y1325700D01*
X1365016Y1324500D01*
X1368615Y1331698D02*
Y1324500D01*
Y1328099D01*
X1369815Y1329298D01*
X1372214D01*
X1373414Y1328099D01*
Y1324500D01*
X1150082D02*
Y1331698D01*
X1153681D01*
X1154881Y1330498D01*
Y1328099D01*
X1153681Y1326899D01*
X1150082D01*
X1157280Y1331698D02*
Y1324500D01*
Y1328099D01*
X1158479Y1329298D01*
X1160879D01*
X1162078Y1328099D01*
Y1324500D01*
X1164477Y1329298D02*
Y1325700D01*
X1165677Y1324500D01*
X1169276D01*
Y1323300D01*
X1168076Y1322101D01*
X1166877D01*
X1169276Y1324500D02*
Y1329298D01*
X1171675Y1324500D02*
X1175274D01*
X1176474Y1325700D01*
X1175274Y1326899D01*
X1172875D01*
X1171675Y1328099D01*
X1172875Y1329298D01*
X1176474D01*
X1178873Y1324500D02*
X1181272D01*
X1180072D01*
Y1329298D01*
X1178873D01*
X1189669D02*
X1186071D01*
X1184871Y1328099D01*
Y1325700D01*
X1186071Y1324500D01*
X1189669D01*
X1193268Y1329298D02*
X1195667D01*
X1196867Y1328099D01*
Y1324500D01*
X1193268D01*
X1192068Y1325700D01*
X1193268Y1326899D01*
X1196867D01*
X1199266Y1324500D02*
X1201665D01*
X1200466D01*
Y1331698D01*
X1199266D01*
X1212462D02*
Y1324500D01*
X1217260D01*
X1223258D02*
X1220859D01*
X1219660Y1325700D01*
Y1328099D01*
X1220859Y1329298D01*
X1223258D01*
X1224458Y1328099D01*
Y1326899D01*
X1219660D01*
X1226857Y1324500D02*
Y1329298D01*
X1230456D01*
X1231656Y1328099D01*
Y1324500D01*
X1236454Y1322101D02*
X1237654D01*
X1238853Y1323300D01*
Y1329298D01*
X1235254D01*
X1234055Y1328099D01*
Y1325700D01*
X1235254Y1324500D01*
X1238853D01*
X1242452Y1330498D02*
Y1329298D01*
X1241253D01*
X1243652D01*
X1242452D01*
Y1325700D01*
X1243652Y1324500D01*
X1247251Y1331698D02*
Y1324500D01*
Y1328099D01*
X1248450Y1329298D01*
X1250850D01*
X1252049Y1328099D01*
Y1324500D01*
X1076702Y1331698D02*
Y1324500D01*
Y1328099D01*
X1081500D01*
Y1331698D01*
Y1324500D01*
X1085099D02*
X1087498D01*
X1088698Y1325700D01*
Y1328099D01*
X1087498Y1329298D01*
X1085099D01*
X1083900Y1328099D01*
Y1325700D01*
X1085099Y1324500D01*
X1091097D02*
X1093497D01*
X1092297D01*
Y1331698D01*
X1091097D01*
X1100694Y1324500D02*
X1098295D01*
X1097095Y1325700D01*
Y1328099D01*
X1098295Y1329298D01*
X1100694D01*
X1101894Y1328099D01*
Y1326899D01*
X1097095D01*
X1111491Y1331698D02*
X1116289D01*
X1113890D01*
Y1324500D01*
X1118688Y1329298D02*
Y1325700D01*
X1119888Y1324500D01*
X1123487D01*
Y1323300D01*
X1122287Y1322101D01*
X1121087D01*
X1123487Y1324500D02*
Y1329298D01*
X1125886Y1322101D02*
Y1329298D01*
X1129485D01*
X1130684Y1328099D01*
Y1325700D01*
X1129485Y1324500D01*
X1125886D01*
X1136683D02*
X1134283D01*
X1133084Y1325700D01*
Y1328099D01*
X1134283Y1329298D01*
X1136683D01*
X1137882Y1328099D01*
Y1326899D01*
X1133084D01*
X1026114Y1324500D02*
Y1331698D01*
X1029713D01*
X1030913Y1330498D01*
Y1328099D01*
X1029713Y1326899D01*
X1026114D01*
X1033312Y1324500D02*
X1035711D01*
X1034512D01*
Y1331698D01*
X1033312D01*
X1040510Y1329298D02*
X1042909D01*
X1044108Y1328099D01*
Y1324500D01*
X1040510D01*
X1039310Y1325700D01*
X1040510Y1326899D01*
X1044108D01*
X1047707Y1330498D02*
Y1329298D01*
X1046508D01*
X1048907D01*
X1047707D01*
Y1325700D01*
X1048907Y1324500D01*
X1056105D02*
X1053705D01*
X1052506Y1325700D01*
Y1328099D01*
X1053705Y1329298D01*
X1056105D01*
X1057304Y1328099D01*
Y1326899D01*
X1052506D01*
X1064502Y1331698D02*
Y1324500D01*
X1060903D01*
X1059704Y1325700D01*
Y1328099D01*
X1060903Y1329298D01*
X1064502D01*
X896352Y1331698D02*
X891554D01*
Y1328099D01*
X893953D01*
X891554D01*
Y1324500D01*
X898752D02*
X901151D01*
X899951D01*
Y1329298D01*
X898752D01*
X904750Y1324500D02*
Y1329298D01*
X908348D01*
X909548Y1328099D01*
Y1324500D01*
X911947D02*
X914347D01*
X913147D01*
Y1329298D01*
X911947D01*
X917945Y1324500D02*
X921544D01*
X922744Y1325700D01*
X921544Y1326899D01*
X919145D01*
X917945Y1328099D01*
X919145Y1329298D01*
X922744D01*
X925143Y1331698D02*
Y1324500D01*
Y1328099D01*
X926343Y1329298D01*
X928742D01*
X929941Y1328099D01*
Y1324500D01*
X935940D02*
X933540D01*
X932341Y1325700D01*
Y1328099D01*
X933540Y1329298D01*
X935940D01*
X937139Y1328099D01*
Y1326899D01*
X932341D01*
X944337Y1331698D02*
Y1324500D01*
X940738D01*
X939538Y1325700D01*
Y1328099D01*
X940738Y1329298D01*
X944337D01*
X953934Y1331698D02*
Y1324500D01*
Y1328099D01*
X958732D01*
Y1331698D01*
Y1324500D01*
X962331D02*
X964730D01*
X965930Y1325700D01*
Y1328099D01*
X964730Y1329298D01*
X962331D01*
X961131Y1328099D01*
Y1325700D01*
X962331Y1324500D01*
X968329D02*
X970728D01*
X969529D01*
Y1331698D01*
X968329D01*
X977926Y1324500D02*
X975527D01*
X974327Y1325700D01*
Y1328099D01*
X975527Y1329298D01*
X977926D01*
X979126Y1328099D01*
Y1326899D01*
X974327D01*
X993521Y1330498D02*
X992321Y1331698D01*
X989922D01*
X988723Y1330498D01*
Y1329298D01*
X989922Y1328099D01*
X992321D01*
X993521Y1326899D01*
Y1325700D01*
X992321Y1324500D01*
X989922D01*
X988723Y1325700D01*
X995920Y1324500D02*
X998319D01*
X997120D01*
Y1329298D01*
X995920D01*
X1001918D02*
X1006717D01*
X1001918Y1324500D01*
X1006717D01*
X1012715D02*
X1010316D01*
X1009116Y1325700D01*
Y1328099D01*
X1010316Y1329298D01*
X1012715D01*
X1013914Y1328099D01*
Y1326899D01*
X1009116D01*
X821773Y1331698D02*
Y1324500D01*
Y1328099D01*
X826571D01*
Y1331698D01*
Y1324500D01*
X828970D02*
X831369D01*
X830170D01*
Y1329298D01*
X828970D01*
X836168Y1330498D02*
Y1329298D01*
X834968D01*
X837368D01*
X836168D01*
Y1325700D01*
X837368Y1324500D01*
X852962Y1330498D02*
X851763Y1331698D01*
X849364D01*
X848164Y1330498D01*
Y1325700D01*
X849364Y1324500D01*
X851763D01*
X852962Y1325700D01*
X856561Y1324500D02*
X858961D01*
X860160Y1325700D01*
Y1328099D01*
X858961Y1329298D01*
X856561D01*
X855362Y1328099D01*
Y1325700D01*
X856561Y1324500D01*
X862559Y1329298D02*
Y1325700D01*
X863759Y1324500D01*
X867358D01*
Y1329298D01*
X869757Y1324500D02*
Y1329298D01*
X873356D01*
X874555Y1328099D01*
Y1324500D01*
X878154Y1330498D02*
Y1329298D01*
X876955D01*
X879354D01*
X878154D01*
Y1325700D01*
X879354Y1324500D01*
X775983Y1330498D02*
X774784Y1331698D01*
X772385D01*
X771185Y1330498D01*
Y1329298D01*
X772385Y1328099D01*
X774784D01*
X775983Y1326899D01*
Y1325700D01*
X774784Y1324500D01*
X772385D01*
X771185Y1325700D01*
X778383Y1329298D02*
Y1325700D01*
X779582Y1324500D01*
X783181D01*
Y1323300D01*
X781982Y1322101D01*
X780782D01*
X783181Y1324500D02*
Y1329298D01*
X785580Y1324500D02*
Y1329298D01*
X786780D01*
X787980Y1328099D01*
Y1324500D01*
Y1328099D01*
X789179Y1329298D01*
X790379Y1328099D01*
Y1324500D01*
X792778Y1331698D02*
Y1324500D01*
X796377D01*
X797577Y1325700D01*
Y1326899D01*
Y1328099D01*
X796377Y1329298D01*
X792778D01*
X801175Y1324500D02*
X803574D01*
X804774Y1325700D01*
Y1328099D01*
X803574Y1329298D01*
X801175D01*
X799976Y1328099D01*
Y1325700D01*
X801175Y1324500D01*
X807173D02*
X809573D01*
X808373D01*
Y1331698D01*
X807173D01*
M02*
