G04*
G04 #@! TF.GenerationSoftware,Altium Limited,CircuitStudio,1.5.2 (30)*
G04*
G04 Layer_Physical_Order=4*
G04 Layer_Color=16711680*
%FSLAX25Y25*%
%MOIN*%
G70*
G01*
G75*
%ADD10R,0.06500X0.32500*%
%ADD11C,0.01000*%
%ADD12C,0.05000*%
%ADD13C,0.00800*%
%ADD14C,0.00600*%
%ADD15C,0.07000*%
%ADD16C,0.04000*%
%ADD17R,0.06500X0.06500*%
%ADD18C,0.06500*%
%ADD19R,0.04000X0.04000*%
%ADD20R,0.10000X0.05000*%
%ADD21O,0.10000X0.05000*%
%ADD22R,0.07000X0.07000*%
%ADD23C,0.05906*%
%ADD24C,0.06300*%
%ADD25R,0.06300X0.06300*%
%ADD26C,0.05000*%
%ADD37C,0.02500*%
D10*
X395000Y1152500D02*
D03*
X665000D02*
D03*
X655000D02*
D03*
X645000D02*
D03*
X635000D02*
D03*
X355000D02*
D03*
X365000D02*
D03*
X375000D02*
D03*
X385000D02*
D03*
X415000D02*
D03*
X425000D02*
D03*
X435000D02*
D03*
X445000D02*
D03*
X455000D02*
D03*
X465000D02*
D03*
X475000D02*
D03*
X485000D02*
D03*
X495000D02*
D03*
X505000D02*
D03*
X515000D02*
D03*
X525000D02*
D03*
X535000D02*
D03*
X545000D02*
D03*
X555000D02*
D03*
X565000D02*
D03*
X575000D02*
D03*
X585000D02*
D03*
X595000D02*
D03*
X605000D02*
D03*
X615000D02*
D03*
X625000D02*
D03*
D11*
X364685Y1377500D02*
Y1480000D01*
X359685Y1485000D02*
X364685Y1480000D01*
X339685Y1485000D02*
X359685D01*
X332185Y1492500D02*
X339685Y1485000D01*
X327185Y1492500D02*
X332185D01*
X357185Y1370000D02*
X364685Y1377500D01*
X339685Y1337500D02*
X344685Y1342500D01*
X324685Y1337500D02*
X339685D01*
X332185Y1205000D02*
Y1232500D01*
X327185Y1237500D02*
X332185Y1232500D01*
X314685Y1237500D02*
X327185D01*
X349685Y1217500D02*
Y1235000D01*
X609685Y1197500D02*
X624685D01*
X699685Y1285000D02*
X714685D01*
X699685Y1197500D02*
Y1212500D01*
X714685Y1227500D01*
Y1275000D01*
X712185Y1277500D02*
X714685Y1275000D01*
X704685Y1277500D02*
X712185D01*
X624685Y1280000D02*
X632185D01*
X622185Y1277500D02*
X624685Y1280000D01*
X622185Y1267500D02*
Y1277500D01*
X704685Y1240000D02*
Y1257500D01*
X697185Y1232500D02*
X704685Y1240000D01*
X649685Y1232500D02*
X697185D01*
X644685Y1237500D02*
X649685Y1232500D01*
X644685Y1237500D02*
Y1260000D01*
X639685Y1265000D02*
X644685Y1260000D01*
X624685Y1265000D02*
X639685D01*
X622185Y1267500D02*
X624685Y1265000D01*
X622185Y1260000D02*
X632185D01*
X617185Y1265000D02*
X622185Y1260000D01*
X617185Y1265000D02*
Y1323115D01*
X616400Y1323900D02*
X617185Y1323115D01*
Y1245000D02*
X622185Y1240000D01*
X612185Y1257500D02*
Y1305000D01*
X617185Y1245000D02*
Y1252500D01*
X612185Y1257500D02*
X617185Y1252500D01*
X612185Y1257500D02*
Y1287500D01*
X697185Y1187500D02*
X707185Y1197500D01*
X712185D01*
Y1210000D01*
X717185Y1215000D01*
X724685D01*
X647185Y1310000D02*
Y1432500D01*
X657185Y1330000D02*
X689685D01*
X652185Y1335000D02*
X657185Y1330000D01*
X652185Y1335000D02*
Y1417500D01*
X694685Y1290000D02*
Y1325000D01*
X689685Y1330000D02*
X694685Y1325000D01*
X589685Y1292500D02*
Y1452500D01*
X584685Y1457500D02*
X589685Y1452500D01*
X567185Y1457500D02*
X584685D01*
X642185Y1275000D02*
Y1332500D01*
X512185Y1232500D02*
Y1315000D01*
X582185Y1467500D02*
Y1477500D01*
X577185Y1482500D02*
X582185Y1477500D01*
X519685Y1482500D02*
X577185D01*
X514685Y1477500D02*
X519685Y1482500D01*
X474685Y1477500D02*
X514685D01*
X452185Y1477500D02*
Y1482500D01*
Y1477500D02*
X454685Y1475000D01*
X457185Y1312500D02*
Y1477500D01*
X487185Y1270000D02*
Y1405000D01*
X484685Y1407500D02*
X487185Y1405000D01*
X474685Y1407500D02*
X484685D01*
X527185Y1457500D02*
X534685D01*
X522185Y1452500D02*
X527185Y1457500D01*
X522185Y1435000D02*
Y1452500D01*
X547185Y1320000D02*
Y1465000D01*
X544685Y1467500D02*
X547185Y1465000D01*
X534685Y1467500D02*
X544685D01*
X599685Y1372500D02*
X634685D01*
X592600Y1365415D02*
X599685Y1372500D01*
X592600Y1190100D02*
Y1365415D01*
X639685Y1377500D02*
Y1435000D01*
X634685Y1372500D02*
X639685Y1377500D01*
Y1435000D02*
X644685Y1440000D01*
X711968D01*
X562185Y1447500D02*
X567185D01*
X559685Y1445000D02*
X562185Y1447500D01*
X559685Y1335000D02*
Y1445000D01*
X684685Y1495000D02*
X702185D01*
X407185Y1307500D02*
Y1330000D01*
X399685Y1337500D02*
X407185Y1330000D01*
X399685Y1337500D02*
Y1370000D01*
X417185Y1290000D02*
Y1297500D01*
X407185Y1307500D02*
X417185Y1297500D01*
X429685Y1320000D02*
X437185Y1327500D01*
X394685Y1315000D02*
X399685Y1320000D01*
Y1370000D02*
X402185Y1372500D01*
Y1410000D01*
X344685Y1267500D02*
X352185Y1275000D01*
X348435Y1271250D02*
X352185Y1275000D01*
Y1292500D01*
X349685Y1295000D02*
X352185Y1292500D01*
X287185Y1327500D02*
X294685D01*
X284685Y1330000D02*
X287185Y1327500D01*
Y1502500D02*
X297185D01*
X284685Y1500000D02*
X287185Y1502500D01*
X284685Y1330000D02*
Y1500000D01*
X457185Y1210000D02*
Y1255000D01*
X435000Y1187815D02*
X457185Y1210000D01*
X435000Y1182500D02*
Y1187815D01*
X522185Y1232500D02*
Y1435000D01*
X507185Y1217500D02*
X522185Y1232500D01*
X507185Y1189685D02*
Y1217500D01*
X500000Y1182500D02*
X507185Y1189685D01*
X501200Y1216515D02*
X517185Y1232500D01*
X501200Y1191300D02*
Y1216515D01*
X517185Y1232500D02*
Y1460000D01*
X497185Y1217500D02*
X512185Y1232500D01*
X497185Y1187500D02*
Y1217500D01*
X495000Y1185315D02*
X497185Y1187500D01*
X507185Y1232500D02*
Y1370000D01*
X492400Y1217715D02*
X507185Y1232500D01*
X492400Y1190800D02*
Y1217715D01*
X504685Y1235000D02*
Y1280000D01*
X487185Y1217500D02*
X504685Y1235000D01*
X487185Y1185315D02*
Y1217500D01*
Y1185315D02*
X490000Y1182500D01*
X489685Y1237500D02*
X499685D01*
X484685Y1232500D02*
X489685Y1237500D01*
X484685Y1187185D02*
Y1232500D01*
X480000Y1182500D02*
X484685Y1187185D01*
X482185Y1250000D02*
X494685Y1262500D01*
X482185Y1189685D02*
Y1250000D01*
X475000Y1182500D02*
X482185Y1189685D01*
X494685Y1262500D02*
Y1342515D01*
X492185Y1265000D02*
Y1382500D01*
X477800Y1250615D02*
X492185Y1265000D01*
X477800Y1191200D02*
Y1250615D01*
X489685Y1267500D02*
Y1415000D01*
X470000Y1247815D02*
X489685Y1267500D01*
X470000Y1182500D02*
Y1247815D01*
X467185Y1250000D02*
X487185Y1270000D01*
X467185Y1189685D02*
Y1250000D01*
X460000Y1182500D02*
X467185Y1189685D01*
X479685Y1362500D02*
X482185Y1360000D01*
Y1330000D02*
Y1360000D01*
X469685Y1317500D02*
X482185Y1330000D01*
X467185Y1362500D02*
X479685D01*
X469685Y1257500D02*
Y1317500D01*
X464685Y1252500D02*
X469685Y1257500D01*
X464685Y1192500D02*
Y1252500D01*
X462185Y1190000D02*
X464685Y1192500D01*
X457185Y1190000D02*
X462185D01*
X455000Y1187815D02*
X457185Y1190000D01*
X455000Y1182500D02*
Y1187815D01*
X459685Y1252500D02*
X467185Y1260000D01*
X459685Y1195000D02*
Y1252500D01*
X469685Y1322500D02*
Y1332500D01*
X467185Y1320000D02*
X469685Y1322500D01*
X467185Y1260000D02*
Y1320000D01*
X457185Y1255000D02*
X464685Y1262500D01*
X454685Y1257500D02*
X462185Y1265000D01*
X454685Y1212185D02*
Y1257500D01*
X425000Y1182500D02*
X454685Y1212185D01*
X464685Y1262500D02*
Y1355000D01*
Y1262500D02*
Y1265000D01*
X462185D02*
Y1365000D01*
X667185Y1250000D02*
X672185Y1245000D01*
X667185Y1250000D02*
Y1257500D01*
X664685Y1260000D02*
X667185Y1257500D01*
X652185Y1260000D02*
X664685D01*
X672185Y1245000D02*
X689685D01*
X694685Y1250000D01*
Y1290000D01*
X682185D02*
X694685D01*
X622185Y1240000D02*
X632185D01*
X589685Y1225000D02*
Y1247500D01*
X587185Y1250000D02*
X589685Y1247500D01*
X582185Y1250000D02*
X587185D01*
X575000Y1252815D02*
X582185Y1260000D01*
X575000Y1232500D02*
Y1252815D01*
X569685Y1285000D02*
X574685Y1290000D01*
X562185Y1300000D02*
Y1310000D01*
Y1287500D02*
Y1300000D01*
X552185D02*
X562185D01*
X549685Y1182815D02*
Y1230000D01*
Y1182815D02*
X550000Y1182500D01*
X549685Y1317500D02*
Y1445000D01*
X537185Y1242500D02*
X549685Y1230000D01*
X537185Y1242500D02*
Y1305000D01*
X549685Y1317500D01*
Y1330000D01*
X534685Y1307500D02*
X547185Y1320000D01*
X534685Y1240000D02*
Y1307500D01*
X544685Y1322500D02*
Y1435000D01*
X532185Y1310000D02*
X544685Y1322500D01*
X532185Y1237500D02*
Y1310000D01*
X542185Y1325000D02*
Y1402500D01*
X530000Y1312815D02*
X542185Y1325000D01*
X530000Y1177500D02*
Y1312815D01*
X549685Y1445000D02*
X552185Y1447500D01*
X545000Y1182500D02*
Y1229685D01*
X534685Y1240000D02*
X545000Y1229685D01*
X532185Y1237500D02*
X540000Y1229685D01*
Y1182500D02*
Y1229685D01*
X567185Y1196185D02*
Y1327500D01*
X587185Y1290000D02*
X589685Y1292500D01*
X582185Y1290000D02*
X587185D01*
X499685Y1237500D02*
Y1250000D01*
X612185Y1212500D02*
Y1247500D01*
X575000Y1184100D02*
Y1232500D01*
X370807Y1237500D02*
Y1263189D01*
X645000Y1180315D02*
X652185Y1187500D01*
X645000Y1152500D02*
Y1180315D01*
X694685Y1192500D02*
X699685Y1197500D01*
X612900Y1192500D02*
X694685D01*
X652185Y1187500D02*
X697185D01*
X534685Y1182815D02*
Y1222500D01*
Y1182815D02*
X535000Y1182500D01*
X564685Y1205000D02*
Y1285000D01*
X557185Y1197500D02*
X564685Y1205000D01*
X342185Y1242500D02*
X349685Y1235000D01*
X317185Y1242500D02*
X342185D01*
X572185Y1310000D02*
Y1332500D01*
X652185Y1270000D02*
X659685D01*
X662185Y1272500D01*
Y1277500D01*
X659685Y1280000D02*
X662185Y1277500D01*
X652185Y1280000D02*
X659685D01*
X432185Y1287500D02*
X457185Y1312500D01*
X432185Y1262500D02*
Y1287500D01*
X427185Y1232500D02*
Y1287500D01*
X424685Y1230000D02*
X427185Y1232500D01*
X417185Y1230000D02*
X424685D01*
X637185Y1270000D02*
X642185Y1275000D01*
X632185Y1270000D02*
X637185D01*
X687500Y1280000D02*
X689685Y1277815D01*
Y1252485D02*
Y1277815D01*
X687200Y1250000D02*
X689685Y1252485D01*
X595000Y1174600D02*
X612900Y1192500D01*
X454685Y1315000D02*
Y1327500D01*
X427185Y1287500D02*
X454685Y1315000D01*
X467185Y1357500D02*
X474685D01*
X464685Y1355000D02*
X467185Y1357500D01*
X464685Y1367500D02*
X474685D01*
X462185Y1365000D02*
X464685Y1367500D01*
X487185Y1417500D02*
X489685Y1415000D01*
X474685Y1417500D02*
X487185D01*
X492185Y1382500D02*
X497185Y1387500D01*
Y1402500D01*
X462185Y1475000D02*
Y1490000D01*
X459685Y1472500D02*
X462185Y1475000D01*
X459685Y1377500D02*
Y1472500D01*
Y1377500D02*
X467185D01*
X410000Y1182500D02*
X437185Y1209685D01*
Y1260000D01*
X442185Y1265000D01*
X457185D01*
X459685Y1267500D01*
Y1377500D01*
X499685Y1347515D02*
Y1357500D01*
X494685Y1342515D02*
X499685Y1347515D01*
Y1377500D02*
X507185Y1370000D01*
X498435Y1377500D02*
X499685D01*
Y1285000D02*
X504685Y1280000D01*
X495000Y1182500D02*
Y1185315D01*
X524685Y1424785D02*
X527400Y1427500D01*
X524685Y1187185D02*
Y1424785D01*
X520000Y1182500D02*
X524685Y1187185D01*
X534685Y1407500D02*
X537185D01*
X542185Y1402500D01*
X530000Y1177500D02*
X535000Y1172500D01*
X534685Y1437500D02*
X542185D01*
X544685Y1435000D01*
X567185Y1437500D02*
X574685D01*
X577185Y1435000D01*
Y1337500D02*
Y1435000D01*
X572185Y1332500D02*
X577185Y1337500D01*
X562185Y1287500D02*
X564685Y1285000D01*
X559685Y1335000D02*
X567185Y1327500D01*
X602185Y1250000D02*
X609685D01*
X612185Y1247500D01*
X587185Y1222500D02*
X589685Y1225000D01*
X640300Y1232500D02*
Y1247300D01*
X437185Y1327500D02*
Y1370000D01*
X569685Y1177500D02*
X570000D01*
X575000Y1172500D01*
X555600Y1184600D02*
X567185Y1196185D01*
X569685Y1192185D02*
Y1285000D01*
X574685Y1290000D02*
X582185D01*
X595000Y1172500D02*
Y1174600D01*
X560000Y1182500D02*
X569685Y1192185D01*
X509685Y1467500D02*
X517185Y1460000D01*
X474685Y1467500D02*
X509685D01*
X344685Y1405000D02*
X349685Y1400000D01*
X324685Y1405000D02*
X344685D01*
X349685Y1321815D02*
Y1400000D01*
Y1321815D02*
X355300Y1316200D01*
X492400Y1190800D02*
X493100Y1191500D01*
X632185Y1250000D02*
X637600D01*
X640300Y1247300D01*
X585000Y1182500D02*
X592600Y1190100D01*
X527400Y1427500D02*
X534685D01*
X595000Y1182500D02*
Y1298200D01*
X596800Y1300000D01*
X602185D01*
X355300Y1235100D02*
Y1316200D01*
Y1235100D02*
X380000Y1210400D01*
Y1182500D02*
Y1210400D01*
X555600Y1178900D02*
Y1184600D01*
X309685Y1395000D02*
X310085Y1394600D01*
X329300D01*
X682185Y1280000D02*
X687500D01*
X682185Y1250000D02*
X687200D01*
X729685Y1359409D02*
Y1385000D01*
Y1339685D02*
Y1359409D01*
X711968Y1414409D02*
Y1440000D01*
X324685Y1267500D02*
X344685D01*
X399685Y1270000D02*
X417185D01*
X394685Y1275000D02*
X399685Y1270000D01*
X394685Y1275000D02*
Y1315000D01*
X389685Y1240000D02*
Y1317500D01*
X449685Y1327500D02*
X452185Y1330000D01*
Y1435000D01*
X447185Y1440000D02*
X452185Y1435000D01*
X427185Y1440000D02*
X447185D01*
X454685Y1327500D02*
Y1475000D01*
X457185Y1495000D02*
X462185Y1490000D01*
X394685Y1495000D02*
X457185D01*
X384685Y1505000D02*
X394685Y1495000D01*
X339685Y1505000D02*
X384685D01*
X467185Y1377500D02*
X474685D01*
X382185Y1355000D02*
Y1430000D01*
Y1465000D02*
X384685Y1462500D01*
Y1432500D02*
Y1462500D01*
X382185Y1430000D02*
X384685Y1432500D01*
X377185Y1345000D02*
Y1432500D01*
X379685Y1435000D01*
X387185Y1495000D02*
X392185Y1490000D01*
X374685Y1380000D02*
Y1445000D01*
X372185Y1377500D02*
X374685Y1380000D01*
X372185Y1335000D02*
Y1377500D01*
X387185Y1365000D02*
Y1425000D01*
X397185Y1385000D02*
Y1415000D01*
X392185Y1370000D02*
Y1490000D01*
X417185Y1395000D02*
X442185D01*
X447185Y1390000D01*
Y1382500D02*
Y1390000D01*
X417185Y1385000D02*
X434685D01*
X444685Y1375000D01*
X447185D01*
X417185Y1370000D02*
X422185Y1375000D01*
X439685D01*
X447185Y1367500D01*
X412185Y1345000D02*
Y1402500D01*
Y1345000D02*
X417185Y1340000D01*
X427185D01*
X417185Y1330000D02*
X427185D01*
X409685Y1337500D02*
X417185Y1330000D01*
X409685Y1337500D02*
Y1412500D01*
X404685Y1360000D02*
X407185Y1362500D01*
Y1425000D01*
X409685Y1412500D02*
X412185Y1415000D01*
Y1402500D02*
X414685Y1405000D01*
X337185Y1507500D02*
X339685Y1505000D01*
X319685Y1507500D02*
X337185D01*
X304685Y1492500D02*
X319685Y1507500D01*
X297185Y1492500D02*
X304685D01*
X339685Y1495000D02*
X387185D01*
X337185Y1497500D02*
X339685Y1495000D01*
X319685Y1497500D02*
X337185D01*
X304685Y1482500D02*
X319685Y1497500D01*
X297185Y1482500D02*
X304685D01*
X297185Y1472500D02*
X307185D01*
X322185Y1457500D02*
X337185D01*
X307185Y1472500D02*
X322185Y1457500D01*
X307185Y1422500D02*
X324685Y1405000D01*
X297185Y1422500D02*
X307185D01*
X322185Y1417500D02*
X337185D01*
X307185Y1432500D02*
X322185Y1417500D01*
X297185Y1432500D02*
X307185D01*
X322185Y1427500D02*
X337185D01*
X307185Y1442500D02*
X322185Y1427500D01*
X297185Y1442500D02*
X307185D01*
X322185Y1437500D02*
X337185D01*
X307185Y1452500D02*
X322185Y1437500D01*
X297185Y1452500D02*
X307185D01*
X322185Y1447500D02*
X337185D01*
X307185Y1462500D02*
X322185Y1447500D01*
X297185Y1462500D02*
X307185D01*
X342185Y1372500D02*
X344685Y1375000D01*
X317185Y1372500D02*
X342185D01*
X297185Y1337500D02*
X309685Y1350000D01*
Y1365000D02*
X317185Y1372500D01*
X309685Y1350000D02*
Y1365000D01*
X294685Y1337500D02*
X297185D01*
X595000Y1152500D02*
Y1172500D01*
X585000Y1152500D02*
Y1172500D01*
X580000Y1177500D02*
X585000Y1172500D01*
X580000Y1177500D02*
Y1182500D01*
X575000Y1152500D02*
Y1172500D01*
X565000Y1152500D02*
Y1172500D01*
X560000Y1177500D02*
X565000Y1172500D01*
X560000Y1177500D02*
Y1182500D01*
X555000Y1152500D02*
Y1172500D01*
X550000Y1177500D02*
X555000Y1172500D01*
X550000Y1177500D02*
Y1182500D01*
X545000Y1152500D02*
Y1172500D01*
X540000Y1177500D02*
X545000Y1172500D01*
X540000Y1177500D02*
Y1182500D01*
X535000Y1152500D02*
Y1172500D01*
X525000Y1152500D02*
Y1172500D01*
X520000Y1177500D02*
X525000Y1172500D01*
X520000Y1177500D02*
Y1182500D01*
X515000Y1152500D02*
Y1172500D01*
X510000Y1177500D02*
X515000Y1172500D01*
X510000Y1177500D02*
Y1182500D01*
X505000Y1152500D02*
Y1172500D01*
X500000Y1177500D02*
X505000Y1172500D01*
X500000Y1177500D02*
Y1182500D01*
X495000Y1152500D02*
Y1172500D01*
X490000Y1177500D02*
X495000Y1172500D01*
X490000Y1177500D02*
Y1182500D01*
X485000Y1152500D02*
Y1172500D01*
X480000Y1177500D02*
X485000Y1172500D01*
X480000Y1177500D02*
Y1182500D01*
X475000Y1152500D02*
Y1172500D01*
X470000Y1177500D02*
X475000Y1172500D01*
X470000Y1177500D02*
Y1182500D01*
X465000Y1152500D02*
Y1172500D01*
X460000Y1177500D02*
X465000Y1172500D01*
X460000Y1177500D02*
Y1182500D01*
X455000Y1152500D02*
Y1172500D01*
X450000Y1177500D02*
X455000Y1172500D01*
X450000Y1177500D02*
Y1182500D01*
X440000Y1177500D02*
Y1182500D01*
Y1177500D02*
X445000Y1172500D01*
Y1152500D02*
Y1172500D01*
X309685Y1245000D02*
X312185Y1242500D01*
X317185D01*
X307185Y1237500D02*
X312185Y1232500D01*
X317185D01*
X304685Y1227500D02*
X309685Y1222500D01*
X317185D01*
X309685Y1245000D02*
Y1302500D01*
X307185Y1237500D02*
Y1285000D01*
X304685Y1312500D02*
Y1335000D01*
Y1307500D02*
X309685Y1302500D01*
X294685Y1307500D02*
X304685D01*
Y1287500D02*
X307185Y1285000D01*
X294685Y1287500D02*
X304685D01*
Y1227500D02*
Y1265000D01*
X302185Y1267500D02*
X304685Y1265000D01*
X294685Y1267500D02*
X302185D01*
X337185Y1287500D02*
X347185D01*
X617185Y1397500D02*
X627185D01*
X614685Y1400000D02*
X617185Y1397500D01*
X614685Y1400000D02*
Y1492500D01*
X684685Y1475000D02*
X684685D01*
Y1485000D02*
X707185D01*
X684685Y1495000D02*
X684685D01*
X744626Y1118252D02*
Y1131063D01*
X272185Y1111378D02*
Y1120252D01*
X524400Y1119252D02*
X744626D01*
X272185D02*
X489211D01*
X738626Y1121252D02*
X744626Y1119252D01*
X738626Y1117252D02*
X744626Y1119252D01*
X272185D02*
X278185Y1117252D01*
X272185Y1119252D02*
X278185Y1121252D01*
X227878Y1528701D02*
X236752D01*
X213130Y1135000D02*
X229878D01*
X228878Y1347845D02*
Y1528701D01*
Y1135000D02*
Y1312656D01*
X226878Y1522701D02*
X228878Y1528701D01*
X230878Y1522701D01*
X228878Y1135000D02*
X230878Y1141000D01*
X226878D02*
X228878Y1135000D01*
X401000Y1167500D02*
X409000D01*
X401000Y1135000D02*
Y1167500D01*
X350000Y1135000D02*
X401000D01*
X409000D02*
Y1167500D01*
Y1135000D02*
X670000D01*
X272185Y1131063D02*
Y1138937D01*
X268248Y1135000D02*
X276122D01*
X349700D02*
X401000D01*
X409000D02*
Y1167500D01*
X401000Y1135000D02*
Y1167500D01*
X409000Y1135000D02*
X670300D01*
X674300Y1139000D02*
Y1167500D01*
X670300Y1135000D02*
X674300Y1139000D01*
X344937D02*
Y1167480D01*
Y1139000D02*
X348937Y1135000D01*
X349700D01*
X272185Y1167480D02*
Y1528701D01*
X744626D01*
Y1167500D02*
Y1528701D01*
X674300Y1167500D02*
X744449D01*
X272185Y1167480D02*
X344937D01*
D12*
X388622Y1180000D02*
X398622D01*
X385000Y1152500D02*
Y1176378D01*
X415070Y1510000D02*
X427185D01*
X413200Y1508130D02*
X415070Y1510000D01*
X401122Y1508130D02*
X413200D01*
X355000Y1172500D02*
Y1180000D01*
Y1152500D02*
Y1172500D01*
X385000Y1176378D02*
X388622Y1180000D01*
X665000Y1152500D02*
Y1172500D01*
Y1180000D01*
X425000Y1152500D02*
Y1171437D01*
X415000Y1152500D02*
Y1173563D01*
X418937Y1177500D02*
X425000Y1171437D01*
X415000Y1173563D02*
X418937Y1177500D01*
D13*
X327913Y1092813D02*
Y1085315D01*
X331662D01*
X332912Y1086565D01*
Y1087814D01*
X331662Y1089064D01*
X327913D01*
X331662D01*
X332912Y1090313D01*
Y1091563D01*
X331662Y1092813D01*
X327913D01*
X336661Y1085315D02*
X339160D01*
X340409Y1086565D01*
Y1089064D01*
X339160Y1090313D01*
X336661D01*
X335411Y1089064D01*
Y1086565D01*
X336661Y1085315D01*
X344158Y1091563D02*
Y1090313D01*
X342909D01*
X345408D01*
X344158D01*
Y1086565D01*
X345408Y1085315D01*
X350406Y1091563D02*
Y1090313D01*
X349156D01*
X351656D01*
X350406D01*
Y1086565D01*
X351656Y1085315D01*
X356654D02*
X359153D01*
X360403Y1086565D01*
Y1089064D01*
X359153Y1090313D01*
X356654D01*
X355404Y1089064D01*
Y1086565D01*
X356654Y1085315D01*
X362902D02*
Y1090313D01*
X364152D01*
X365401Y1089064D01*
Y1085315D01*
Y1089064D01*
X366651Y1090313D01*
X367900Y1089064D01*
Y1085315D01*
X377897Y1092813D02*
Y1085315D01*
X382896D01*
X386644Y1090313D02*
X389144D01*
X390393Y1089064D01*
Y1085315D01*
X386644D01*
X385395Y1086565D01*
X386644Y1087814D01*
X390393D01*
X392892Y1090313D02*
Y1086565D01*
X394142Y1085315D01*
X397891D01*
Y1084065D01*
X396641Y1082816D01*
X395392D01*
X397891Y1085315D02*
Y1090313D01*
X404139Y1085315D02*
X401640D01*
X400390Y1086565D01*
Y1089064D01*
X401640Y1090313D01*
X404139D01*
X405388Y1089064D01*
Y1087814D01*
X400390D01*
X407888Y1090313D02*
Y1085315D01*
Y1087814D01*
X409137Y1089064D01*
X410387Y1090313D01*
X411636D01*
X402500Y1160500D02*
X406499D01*
X402500Y1157834D01*
X406499D01*
X402500Y1155835D02*
Y1154502D01*
X403166Y1153835D01*
X404499D01*
X405166Y1154502D01*
Y1155835D01*
X404499Y1156501D01*
X403166D01*
X402500Y1155835D01*
X405832Y1151836D02*
X405166D01*
Y1152503D01*
Y1151170D01*
Y1151836D01*
X403166D01*
X402500Y1151170D01*
X405166Y1146504D02*
Y1148504D01*
X404499Y1149170D01*
X403166D01*
X402500Y1148504D01*
Y1146504D01*
X406499Y1145172D02*
X402500D01*
X404499D01*
X405166Y1144505D01*
Y1143172D01*
X404499Y1142506D01*
X402500D01*
D14*
X490811Y1115653D02*
X492810D01*
X491810D01*
Y1121651D01*
X490811Y1120651D01*
X499808Y1115653D02*
X495809D01*
X499808Y1119652D01*
Y1120651D01*
X498808Y1121651D01*
X496809D01*
X495809Y1120651D01*
X501807D02*
X502807Y1121651D01*
X504806D01*
X505806Y1120651D01*
Y1116653D01*
X504806Y1115653D01*
X502807D01*
X501807Y1116653D01*
Y1120651D01*
X507805Y1115653D02*
Y1116653D01*
X508805D01*
Y1115653D01*
X507805D01*
X512804Y1120651D02*
X513803Y1121651D01*
X515802D01*
X516802Y1120651D01*
Y1116653D01*
X515802Y1115653D01*
X513803D01*
X512804Y1116653D01*
Y1120651D01*
X518802D02*
X519801Y1121651D01*
X521801D01*
X522800Y1120651D01*
Y1116653D01*
X521801Y1115653D01*
X519801D01*
X518802Y1116653D01*
Y1120651D01*
X232477Y1314256D02*
Y1316255D01*
Y1315255D01*
X226479D01*
X227479Y1314256D01*
Y1319254D02*
X226479Y1320254D01*
Y1322253D01*
X227479Y1323253D01*
X231477D01*
X232477Y1322253D01*
Y1320254D01*
X231477Y1319254D01*
X227479D01*
Y1325252D02*
X226479Y1326252D01*
Y1328251D01*
X227479Y1329251D01*
X231477D01*
X232477Y1328251D01*
Y1326252D01*
X231477Y1325252D01*
X227479D01*
X232477Y1331250D02*
X231477D01*
Y1332250D01*
X232477D01*
Y1331250D01*
X227479Y1336248D02*
X226479Y1337248D01*
Y1339248D01*
X227479Y1340247D01*
X231477D01*
X232477Y1339248D01*
Y1337248D01*
X231477Y1336248D01*
X227479D01*
Y1342247D02*
X226479Y1343246D01*
Y1345245D01*
X227479Y1346245D01*
X231477D01*
X232477Y1345245D01*
Y1343246D01*
X231477Y1342247D01*
X227479D01*
D15*
X401122Y1458130D02*
D03*
Y1508130D02*
D03*
X427185Y1520000D02*
D03*
Y1510000D02*
D03*
Y1500000D02*
D03*
Y1490000D02*
D03*
Y1480000D02*
D03*
Y1470000D02*
D03*
Y1460000D02*
D03*
Y1450000D02*
D03*
Y1440000D02*
D03*
Y1430000D02*
D03*
Y1420000D02*
D03*
Y1410000D02*
D03*
Y1400000D02*
D03*
Y1390000D02*
D03*
Y1380000D02*
D03*
Y1370000D02*
D03*
Y1360000D02*
D03*
Y1350000D02*
D03*
Y1340000D02*
D03*
Y1330000D02*
D03*
X357185D02*
D03*
Y1340000D02*
D03*
Y1350000D02*
D03*
Y1360000D02*
D03*
Y1370000D02*
D03*
Y1380000D02*
D03*
Y1390000D02*
D03*
Y1400000D02*
D03*
Y1410000D02*
D03*
Y1420000D02*
D03*
Y1430000D02*
D03*
Y1440000D02*
D03*
Y1450000D02*
D03*
Y1460000D02*
D03*
Y1470000D02*
D03*
Y1480000D02*
D03*
Y1490000D02*
D03*
Y1500000D02*
D03*
Y1510000D02*
D03*
D16*
X724685Y1215000D02*
D03*
Y1240000D02*
D03*
X380807Y1278189D02*
D03*
Y1303189D02*
D03*
X297185Y1382500D02*
D03*
X322185D02*
D03*
X321870Y1365000D02*
D03*
X302185D02*
D03*
X321870Y1517500D02*
D03*
X302185D02*
D03*
X495000Y1512500D02*
D03*
X514685D02*
D03*
X450591Y1510000D02*
D03*
X444685D02*
D03*
X659685Y1514685D02*
D03*
Y1495000D02*
D03*
X587500Y1512500D02*
D03*
X607185D02*
D03*
X552185D02*
D03*
X577185D02*
D03*
X729685Y1339685D02*
D03*
Y1320000D02*
D03*
X657500D02*
D03*
X677185D02*
D03*
X607500D02*
D03*
X627185D02*
D03*
X557500D02*
D03*
X577185D02*
D03*
X439370Y1307500D02*
D03*
X419685D02*
D03*
X360807Y1263189D02*
D03*
X370807D02*
D03*
X360807Y1278189D02*
D03*
Y1303189D02*
D03*
X315591Y1192500D02*
D03*
X309685D02*
D03*
X344685Y1342500D02*
D03*
X332185Y1205000D02*
D03*
X349685Y1217500D02*
D03*
X609685Y1197500D02*
D03*
X624685D02*
D03*
X714685Y1285000D02*
D03*
X699685D02*
D03*
X647185Y1310000D02*
D03*
X612185Y1305000D02*
D03*
X652185Y1417500D02*
D03*
X647185Y1432500D02*
D03*
X642185Y1332500D02*
D03*
X512185Y1315000D02*
D03*
X582185Y1467500D02*
D03*
X452185Y1482500D02*
D03*
X457185Y1477500D02*
D03*
X429685Y1320000D02*
D03*
X399685D02*
D03*
X402185Y1410000D02*
D03*
X349685Y1295000D02*
D03*
X459685Y1195000D02*
D03*
X469685Y1332500D02*
D03*
X499685Y1237500D02*
D03*
Y1250000D02*
D03*
X612185Y1212500D02*
D03*
X575000Y1232500D02*
D03*
X370807Y1237500D02*
D03*
X557185Y1197500D02*
D03*
X572185Y1310000D02*
D03*
X562185D02*
D03*
X432185Y1262500D02*
D03*
X497185Y1402500D02*
D03*
X499685Y1285000D02*
D03*
X534685Y1222500D02*
D03*
X552185Y1447500D02*
D03*
X567185Y1290000D02*
D03*
X587185Y1222500D02*
D03*
X569685Y1177500D02*
D03*
X555600Y1178900D02*
D03*
X575000Y1184100D02*
D03*
X477800Y1191200D02*
D03*
X492400Y1190800D02*
D03*
X501200Y1191300D02*
D03*
X616400Y1323900D02*
D03*
X389685Y1240000D02*
D03*
Y1317500D02*
D03*
X449685Y1327500D02*
D03*
X397185Y1415000D02*
D03*
X387185Y1425000D02*
D03*
X379685Y1435000D02*
D03*
X382185Y1465000D02*
D03*
X374685Y1445000D02*
D03*
X397185Y1385000D02*
D03*
X392185Y1370000D02*
D03*
X387185Y1365000D02*
D03*
X382185Y1355000D02*
D03*
X372185Y1335000D02*
D03*
X377185Y1345000D02*
D03*
X417185Y1395000D02*
D03*
Y1385000D02*
D03*
Y1370000D02*
D03*
X447185Y1367500D02*
D03*
Y1375000D02*
D03*
Y1382500D02*
D03*
X437185Y1370000D02*
D03*
X344685Y1375000D02*
D03*
X337185Y1417500D02*
D03*
Y1427500D02*
D03*
Y1437500D02*
D03*
Y1447500D02*
D03*
Y1457500D02*
D03*
X324685Y1405000D02*
D03*
X369685D02*
D03*
X414685D02*
D03*
X412185Y1415000D02*
D03*
X407185Y1425000D02*
D03*
X580000Y1182500D02*
D03*
X550000D02*
D03*
X520000D02*
D03*
X510000D02*
D03*
X490000D02*
D03*
X480000D02*
D03*
X470000D02*
D03*
X460000D02*
D03*
X450000D02*
D03*
X440000D02*
D03*
X635000D02*
D03*
X595000D02*
D03*
X585000D02*
D03*
X545000D02*
D03*
X535000D02*
D03*
X495000D02*
D03*
X475000D02*
D03*
X455000D02*
D03*
X435000D02*
D03*
X425000D02*
D03*
X410000D02*
D03*
X380000D02*
D03*
X314685Y1247500D02*
D03*
Y1237500D02*
D03*
X317185Y1232500D02*
D03*
Y1222500D02*
D03*
X309685Y1395000D02*
D03*
X304685Y1335000D02*
D03*
Y1312500D02*
D03*
X404685Y1360000D02*
D03*
X347185Y1287500D02*
D03*
X337185D02*
D03*
X614685Y1492500D02*
D03*
X697185Y1475000D02*
D03*
X702185Y1495000D02*
D03*
X707185Y1485000D02*
D03*
X391122Y1180000D02*
D03*
X398622D02*
D03*
X665000D02*
D03*
Y1172500D02*
D03*
X418937Y1177500D02*
D03*
X355000Y1172500D02*
D03*
Y1180000D02*
D03*
D17*
X704685Y1277500D02*
D03*
X712185Y1197500D02*
D03*
X722185D02*
D03*
X647185Y1487500D02*
D03*
D18*
X704685Y1267500D02*
D03*
Y1257500D02*
D03*
X712185Y1187500D02*
D03*
X722185D02*
D03*
X647185Y1477500D02*
D03*
D19*
X380807Y1263189D02*
D03*
D20*
X567185Y1497500D02*
D03*
X474685Y1497500D02*
D03*
X602185Y1300000D02*
D03*
X417185Y1290000D02*
D03*
X294685Y1347500D02*
D03*
X297185Y1502500D02*
D03*
X552185Y1300000D02*
D03*
X652185D02*
D03*
D21*
X567185Y1487500D02*
D03*
Y1477500D02*
D03*
Y1467500D02*
D03*
Y1457500D02*
D03*
Y1447500D02*
D03*
Y1437500D02*
D03*
Y1427500D02*
D03*
Y1417500D02*
D03*
Y1407500D02*
D03*
Y1397500D02*
D03*
Y1387500D02*
D03*
Y1377500D02*
D03*
Y1367500D02*
D03*
Y1357500D02*
D03*
Y1347500D02*
D03*
X627185Y1497500D02*
D03*
Y1487500D02*
D03*
Y1477500D02*
D03*
Y1467500D02*
D03*
Y1457500D02*
D03*
Y1447500D02*
D03*
Y1437500D02*
D03*
Y1427500D02*
D03*
Y1417500D02*
D03*
Y1407500D02*
D03*
Y1397500D02*
D03*
Y1387500D02*
D03*
Y1377500D02*
D03*
Y1367500D02*
D03*
Y1357500D02*
D03*
Y1347500D02*
D03*
X474685Y1487500D02*
D03*
Y1477500D02*
D03*
Y1467500D02*
D03*
Y1457500D02*
D03*
Y1447500D02*
D03*
Y1437500D02*
D03*
Y1427500D02*
D03*
Y1417500D02*
D03*
Y1407500D02*
D03*
Y1397500D02*
D03*
Y1387500D02*
D03*
Y1377500D02*
D03*
Y1367500D02*
D03*
Y1357500D02*
D03*
Y1347500D02*
D03*
X534685Y1497500D02*
D03*
Y1487500D02*
D03*
Y1477500D02*
D03*
Y1467500D02*
D03*
Y1457500D02*
D03*
Y1447500D02*
D03*
Y1437500D02*
D03*
Y1427500D02*
D03*
Y1417500D02*
D03*
Y1407500D02*
D03*
Y1397500D02*
D03*
Y1387500D02*
D03*
Y1377500D02*
D03*
Y1367500D02*
D03*
Y1357500D02*
D03*
Y1347500D02*
D03*
X602185Y1240000D02*
D03*
Y1250000D02*
D03*
Y1260000D02*
D03*
Y1270000D02*
D03*
Y1280000D02*
D03*
Y1290000D02*
D03*
X632185Y1240000D02*
D03*
Y1300000D02*
D03*
Y1290000D02*
D03*
Y1280000D02*
D03*
Y1270000D02*
D03*
Y1260000D02*
D03*
Y1250000D02*
D03*
X417185Y1230000D02*
D03*
Y1240000D02*
D03*
Y1250000D02*
D03*
Y1260000D02*
D03*
Y1270000D02*
D03*
Y1280000D02*
D03*
Y1220000D02*
D03*
X447185Y1270000D02*
D03*
Y1260000D02*
D03*
Y1250000D02*
D03*
Y1240000D02*
D03*
Y1230000D02*
D03*
Y1220000D02*
D03*
Y1280000D02*
D03*
Y1290000D02*
D03*
X324685Y1307500D02*
D03*
Y1297500D02*
D03*
X294685Y1267500D02*
D03*
Y1257500D02*
D03*
X324685D02*
D03*
Y1267500D02*
D03*
Y1277500D02*
D03*
Y1287500D02*
D03*
X294685Y1277500D02*
D03*
Y1337500D02*
D03*
Y1327500D02*
D03*
Y1317500D02*
D03*
Y1307500D02*
D03*
Y1297500D02*
D03*
Y1287500D02*
D03*
X324685Y1327500D02*
D03*
Y1317500D02*
D03*
Y1337500D02*
D03*
Y1347500D02*
D03*
X327185Y1462500D02*
D03*
Y1452500D02*
D03*
X297185Y1422500D02*
D03*
Y1412500D02*
D03*
X327185D02*
D03*
Y1422500D02*
D03*
Y1432500D02*
D03*
Y1442500D02*
D03*
X297185Y1432500D02*
D03*
Y1492500D02*
D03*
Y1482500D02*
D03*
Y1472500D02*
D03*
Y1462500D02*
D03*
Y1452500D02*
D03*
Y1442500D02*
D03*
X327185Y1482500D02*
D03*
Y1472500D02*
D03*
Y1492500D02*
D03*
Y1502500D02*
D03*
X552185Y1240000D02*
D03*
Y1250000D02*
D03*
Y1260000D02*
D03*
Y1270000D02*
D03*
Y1280000D02*
D03*
Y1290000D02*
D03*
X582185Y1240000D02*
D03*
Y1300000D02*
D03*
Y1290000D02*
D03*
Y1280000D02*
D03*
Y1270000D02*
D03*
Y1260000D02*
D03*
Y1250000D02*
D03*
X652185Y1240000D02*
D03*
Y1250000D02*
D03*
Y1260000D02*
D03*
Y1270000D02*
D03*
Y1280000D02*
D03*
Y1290000D02*
D03*
X682185Y1240000D02*
D03*
Y1300000D02*
D03*
Y1290000D02*
D03*
Y1280000D02*
D03*
Y1270000D02*
D03*
Y1260000D02*
D03*
Y1250000D02*
D03*
D22*
X357185Y1520000D02*
D03*
D23*
X711968Y1440000D02*
D03*
X729685D02*
D03*
X711968Y1414409D02*
D03*
X729685D02*
D03*
X711968Y1385000D02*
D03*
X729685D02*
D03*
X711968Y1359409D02*
D03*
X729685D02*
D03*
D24*
X684685Y1465000D02*
D03*
Y1475000D02*
D03*
Y1485000D02*
D03*
Y1495000D02*
D03*
Y1505000D02*
D03*
D25*
Y1515000D02*
D03*
D26*
X467185Y1362500D02*
D03*
X499685Y1357500D02*
D03*
X498435Y1377500D02*
D03*
X640300Y1232500D02*
D03*
X329300Y1394600D02*
D03*
D37*
X427185Y1510000D02*
X444685D01*
M02*
