G04*
G04 #@! TF.GenerationSoftware,Altium Limited,CircuitStudio,1.5.2 (30)*
G04*
G04 Layer_Color=128*
%FSLAX25Y25*%
%MOIN*%
G70*
G01*
G75*
%ADD11C,0.01000*%
%ADD13C,0.00800*%
%ADD14C,0.00600*%
%ADD55C,0.00500*%
D11*
X744626Y1118252D02*
Y1131063D01*
X272185Y1111378D02*
Y1120252D01*
X524400Y1119252D02*
X744626D01*
X272185D02*
X489211D01*
X738626Y1121252D02*
X744626Y1119252D01*
X738626Y1117252D02*
X744626Y1119252D01*
X272185D02*
X278185Y1117252D01*
X272185Y1119252D02*
X278185Y1121252D01*
X227878Y1528701D02*
X236752D01*
X213130Y1135000D02*
X229878D01*
X228878Y1347845D02*
Y1528701D01*
Y1135000D02*
Y1312656D01*
X226878Y1522701D02*
X228878Y1528701D01*
X230878Y1522701D01*
X228878Y1135000D02*
X230878Y1141000D01*
X226878D02*
X228878Y1135000D01*
X401000Y1167500D02*
X409000D01*
X401000Y1135000D02*
Y1167500D01*
X350000Y1135000D02*
X401000D01*
X409000D02*
Y1167500D01*
Y1135000D02*
X670000D01*
X272185Y1131063D02*
Y1138937D01*
X268248Y1135000D02*
X276122D01*
X349700D02*
X401000D01*
X409000D02*
Y1167500D01*
X401000Y1135000D02*
Y1167500D01*
X409000Y1135000D02*
X670300D01*
X674300Y1139000D02*
Y1167500D01*
X670300Y1135000D02*
X674300Y1139000D01*
X344937D02*
Y1167480D01*
Y1139000D02*
X348937Y1135000D01*
X349700D01*
X272185Y1167480D02*
Y1528701D01*
X744626D01*
Y1167500D02*
Y1528701D01*
X674300Y1167500D02*
X744449D01*
X272185Y1167480D02*
X344937D01*
D13*
X402500Y1160500D02*
X406499D01*
X402500Y1157834D01*
X406499D01*
X402500Y1155835D02*
Y1154502D01*
X403166Y1153835D01*
X404499D01*
X405166Y1154502D01*
Y1155835D01*
X404499Y1156501D01*
X403166D01*
X402500Y1155835D01*
X405832Y1151836D02*
X405166D01*
Y1152503D01*
Y1151170D01*
Y1151836D01*
X403166D01*
X402500Y1151170D01*
X405166Y1146504D02*
Y1148504D01*
X404499Y1149170D01*
X403166D01*
X402500Y1148504D01*
Y1146504D01*
X406499Y1145172D02*
X402500D01*
X404499D01*
X405166Y1144505D01*
Y1143172D01*
X404499Y1142506D01*
X402500D01*
X327913Y1092813D02*
Y1085315D01*
X331662D01*
X332912Y1086565D01*
Y1091563D01*
X331662Y1092813D01*
X327913D01*
X335411Y1090313D02*
Y1085315D01*
Y1087814D01*
X336661Y1089064D01*
X337910Y1090313D01*
X339160D01*
X342909Y1085315D02*
X345408D01*
X344158D01*
Y1090313D01*
X342909D01*
X349156Y1085315D02*
X351656D01*
X350406D01*
Y1092813D01*
X349156D01*
X355404Y1085315D02*
X357904D01*
X356654D01*
Y1092813D01*
X355404D01*
X374148Y1091563D02*
X372899Y1092813D01*
X370400D01*
X369150Y1091563D01*
Y1086565D01*
X370400Y1085315D01*
X372899D01*
X374148Y1086565D01*
Y1089064D01*
X371649D01*
X376648Y1090313D02*
Y1086565D01*
X377897Y1085315D01*
X381646D01*
Y1090313D01*
X384145Y1085315D02*
X386644D01*
X385395D01*
Y1090313D01*
X384145D01*
X395392Y1092813D02*
Y1085315D01*
X391643D01*
X390393Y1086565D01*
Y1089064D01*
X391643Y1090313D01*
X395392D01*
X401640Y1085315D02*
X399140D01*
X397891Y1086565D01*
Y1089064D01*
X399140Y1090313D01*
X401640D01*
X402889Y1089064D01*
Y1087814D01*
X397891D01*
D14*
X490811Y1115653D02*
X492810D01*
X491810D01*
Y1121651D01*
X490811Y1120651D01*
X499808Y1115653D02*
X495809D01*
X499808Y1119652D01*
Y1120651D01*
X498808Y1121651D01*
X496809D01*
X495809Y1120651D01*
X501807D02*
X502807Y1121651D01*
X504806D01*
X505806Y1120651D01*
Y1116653D01*
X504806Y1115653D01*
X502807D01*
X501807Y1116653D01*
Y1120651D01*
X507805Y1115653D02*
Y1116653D01*
X508805D01*
Y1115653D01*
X507805D01*
X512804Y1120651D02*
X513803Y1121651D01*
X515802D01*
X516802Y1120651D01*
Y1116653D01*
X515802Y1115653D01*
X513803D01*
X512804Y1116653D01*
Y1120651D01*
X518802D02*
X519801Y1121651D01*
X521801D01*
X522800Y1120651D01*
Y1116653D01*
X521801Y1115653D01*
X519801D01*
X518802Y1116653D01*
Y1120651D01*
X232477Y1314256D02*
Y1316255D01*
Y1315255D01*
X226479D01*
X227479Y1314256D01*
Y1319254D02*
X226479Y1320254D01*
Y1322253D01*
X227479Y1323253D01*
X231477D01*
X232477Y1322253D01*
Y1320254D01*
X231477Y1319254D01*
X227479D01*
Y1325252D02*
X226479Y1326252D01*
Y1328251D01*
X227479Y1329251D01*
X231477D01*
X232477Y1328251D01*
Y1326252D01*
X231477Y1325252D01*
X227479D01*
X232477Y1331250D02*
X231477D01*
Y1332250D01*
X232477D01*
Y1331250D01*
X227479Y1336248D02*
X226479Y1337248D01*
Y1339248D01*
X227479Y1340247D01*
X231477D01*
X232477Y1339248D01*
Y1337248D01*
X231477Y1336248D01*
X227479D01*
Y1342247D02*
X226479Y1343246D01*
Y1345245D01*
X227479Y1346245D01*
X231477D01*
X232477Y1345245D01*
Y1343246D01*
X231477Y1342247D01*
X227479D01*
D55*
X399122Y1458130D02*
X403122D01*
X401122Y1456130D02*
Y1460130D01*
X399122Y1508130D02*
X403122D01*
X401122Y1506130D02*
Y1510130D01*
X723435Y1215000D02*
X725935D01*
X724685Y1213750D02*
Y1216250D01*
X723435Y1240000D02*
X725935D01*
X724685Y1238750D02*
Y1241250D01*
X702785Y1277500D02*
X706585D01*
X704685Y1275600D02*
Y1279400D01*
X702785Y1267500D02*
X706585D01*
X704685Y1265600D02*
Y1269400D01*
X702785Y1257500D02*
X706585D01*
X704685Y1255600D02*
Y1259400D01*
X379557Y1278189D02*
X382057D01*
X380807Y1276939D02*
Y1279439D01*
X379557Y1303189D02*
X382057D01*
X380807Y1301939D02*
Y1304439D01*
X295935Y1382500D02*
X298435D01*
X297185Y1381250D02*
Y1383750D01*
X320935Y1382500D02*
X323435D01*
X322185Y1381250D02*
Y1383750D01*
X320620Y1365000D02*
X323120D01*
X321870Y1363750D02*
Y1366250D01*
X300935Y1365000D02*
X303435D01*
X302185Y1363750D02*
Y1366250D01*
X320620Y1517500D02*
X323120D01*
X321870Y1516250D02*
Y1518750D01*
X300935Y1517500D02*
X303435D01*
X302185Y1516250D02*
Y1518750D01*
X493750Y1512500D02*
X496250D01*
X495000Y1511250D02*
Y1513750D01*
X513435Y1512500D02*
X515935D01*
X514685Y1511250D02*
Y1513750D01*
X449341Y1510000D02*
X451841D01*
X450591Y1508750D02*
Y1511250D01*
X443435Y1510000D02*
X445935D01*
X444685Y1508750D02*
Y1511250D01*
X658435Y1514685D02*
X660935D01*
X659685Y1513435D02*
Y1515935D01*
X658435Y1495000D02*
X660935D01*
X659685Y1493750D02*
Y1496250D01*
X586250Y1512500D02*
X588750D01*
X587500Y1511250D02*
Y1513750D01*
X605935Y1512500D02*
X608435D01*
X607185Y1511250D02*
Y1513750D01*
X550935Y1512500D02*
X553435D01*
X552185Y1511250D02*
Y1513750D01*
X575935Y1512500D02*
X578435D01*
X577185Y1511250D02*
Y1513750D01*
X728435Y1339685D02*
X730935D01*
X729685Y1338435D02*
Y1340935D01*
X728435Y1320000D02*
X730935D01*
X729685Y1318750D02*
Y1321250D01*
X656250Y1320000D02*
X658750D01*
X657500Y1318750D02*
Y1321250D01*
X675935Y1320000D02*
X678435D01*
X677185Y1318750D02*
Y1321250D01*
X606250Y1320000D02*
X608750D01*
X607500Y1318750D02*
Y1321250D01*
X625935Y1320000D02*
X628435D01*
X627185Y1318750D02*
Y1321250D01*
X556250Y1320000D02*
X558750D01*
X557500Y1318750D02*
Y1321250D01*
X575935Y1320000D02*
X578435D01*
X577185Y1318750D02*
Y1321250D01*
X438120Y1307500D02*
X440620D01*
X439370Y1306250D02*
Y1308750D01*
X418435Y1307500D02*
X420935D01*
X419685Y1306250D02*
Y1308750D01*
X359807Y1263189D02*
X361807D01*
X360807Y1262189D02*
Y1264189D01*
X369807Y1263189D02*
X371807D01*
X370807Y1262189D02*
Y1264189D01*
X379807Y1263189D02*
X381807D01*
X380807Y1262189D02*
Y1264189D01*
X359557Y1278189D02*
X362057D01*
X360807Y1276939D02*
Y1279439D01*
X359557Y1303189D02*
X362057D01*
X360807Y1301939D02*
Y1304439D01*
X710185Y1197500D02*
X714185D01*
X712185Y1195500D02*
Y1199500D01*
X710185Y1187500D02*
X714185D01*
X712185Y1185500D02*
Y1189500D01*
X720185Y1197500D02*
X724185D01*
X722185Y1195500D02*
Y1199500D01*
X720185Y1187500D02*
X724185D01*
X722185Y1185500D02*
Y1189500D01*
X565935Y1497500D02*
X568435D01*
X567185Y1496250D02*
Y1498750D01*
X565935Y1487500D02*
X568435D01*
X567185Y1486250D02*
Y1488750D01*
X565935Y1477500D02*
X568435D01*
X567185Y1476250D02*
Y1478750D01*
X565935Y1467500D02*
X568435D01*
X567185Y1466250D02*
Y1468750D01*
X565935Y1457500D02*
X568435D01*
X567185Y1456250D02*
Y1458750D01*
X565935Y1447500D02*
X568435D01*
X567185Y1446250D02*
Y1448750D01*
X565935Y1437500D02*
X568435D01*
X567185Y1436250D02*
Y1438750D01*
X565935Y1427500D02*
X568435D01*
X567185Y1426250D02*
Y1428750D01*
X565935Y1417500D02*
X568435D01*
X567185Y1416250D02*
Y1418750D01*
X565935Y1407500D02*
X568435D01*
X567185Y1406250D02*
Y1408750D01*
X565935Y1397500D02*
X568435D01*
X567185Y1396250D02*
Y1398750D01*
X565935Y1387500D02*
X568435D01*
X567185Y1386250D02*
Y1388750D01*
X565935Y1377500D02*
X568435D01*
X567185Y1376250D02*
Y1378750D01*
X565935Y1367500D02*
X568435D01*
X567185Y1366250D02*
Y1368750D01*
X565935Y1357500D02*
X568435D01*
X567185Y1356250D02*
Y1358750D01*
X565935Y1347500D02*
X568435D01*
X567185Y1346250D02*
Y1348750D01*
X625935Y1497500D02*
X628435D01*
X627185Y1496250D02*
Y1498750D01*
X625935Y1487500D02*
X628435D01*
X627185Y1486250D02*
Y1488750D01*
X625935Y1477500D02*
X628435D01*
X627185Y1476250D02*
Y1478750D01*
X625935Y1467500D02*
X628435D01*
X627185Y1466250D02*
Y1468750D01*
X625935Y1457500D02*
X628435D01*
X627185Y1456250D02*
Y1458750D01*
X625935Y1447500D02*
X628435D01*
X627185Y1446250D02*
Y1448750D01*
X625935Y1437500D02*
X628435D01*
X627185Y1436250D02*
Y1438750D01*
X625935Y1427500D02*
X628435D01*
X627185Y1426250D02*
Y1428750D01*
X625935Y1417500D02*
X628435D01*
X627185Y1416250D02*
Y1418750D01*
X625935Y1407500D02*
X628435D01*
X627185Y1406250D02*
Y1408750D01*
X625935Y1397500D02*
X628435D01*
X627185Y1396250D02*
Y1398750D01*
X625935Y1387500D02*
X628435D01*
X627185Y1386250D02*
Y1388750D01*
X625935Y1377500D02*
X628435D01*
X627185Y1376250D02*
Y1378750D01*
X625935Y1367500D02*
X628435D01*
X627185Y1366250D02*
Y1368750D01*
X625935Y1357500D02*
X628435D01*
X627185Y1356250D02*
Y1358750D01*
X625935Y1347500D02*
X628435D01*
X627185Y1346250D02*
Y1348750D01*
X473435Y1497500D02*
X475935D01*
X474685Y1496250D02*
Y1498750D01*
X473435Y1487500D02*
X475935D01*
X474685Y1486250D02*
Y1488750D01*
X473435Y1477500D02*
X475935D01*
X474685Y1476250D02*
Y1478750D01*
X473435Y1467500D02*
X475935D01*
X474685Y1466250D02*
Y1468750D01*
X473435Y1457500D02*
X475935D01*
X474685Y1456250D02*
Y1458750D01*
X473435Y1447500D02*
X475935D01*
X474685Y1446250D02*
Y1448750D01*
X473435Y1437500D02*
X475935D01*
X474685Y1436250D02*
Y1438750D01*
X473435Y1427500D02*
X475935D01*
X474685Y1426250D02*
Y1428750D01*
X473435Y1417500D02*
X475935D01*
X474685Y1416250D02*
Y1418750D01*
X473435Y1407500D02*
X475935D01*
X474685Y1406250D02*
Y1408750D01*
X473435Y1397500D02*
X475935D01*
X474685Y1396250D02*
Y1398750D01*
X473435Y1387500D02*
X475935D01*
X474685Y1386250D02*
Y1388750D01*
X473435Y1377500D02*
X475935D01*
X474685Y1376250D02*
Y1378750D01*
X473435Y1367500D02*
X475935D01*
X474685Y1366250D02*
Y1368750D01*
X473435Y1357500D02*
X475935D01*
X474685Y1356250D02*
Y1358750D01*
X473435Y1347500D02*
X475935D01*
X474685Y1346250D02*
Y1348750D01*
X533435Y1497500D02*
X535935D01*
X534685Y1496250D02*
Y1498750D01*
X533435Y1487500D02*
X535935D01*
X534685Y1486250D02*
Y1488750D01*
X533435Y1477500D02*
X535935D01*
X534685Y1476250D02*
Y1478750D01*
X533435Y1467500D02*
X535935D01*
X534685Y1466250D02*
Y1468750D01*
X533435Y1457500D02*
X535935D01*
X534685Y1456250D02*
Y1458750D01*
X533435Y1447500D02*
X535935D01*
X534685Y1446250D02*
Y1448750D01*
X533435Y1437500D02*
X535935D01*
X534685Y1436250D02*
Y1438750D01*
X533435Y1427500D02*
X535935D01*
X534685Y1426250D02*
Y1428750D01*
X533435Y1417500D02*
X535935D01*
X534685Y1416250D02*
Y1418750D01*
X533435Y1407500D02*
X535935D01*
X534685Y1406250D02*
Y1408750D01*
X533435Y1397500D02*
X535935D01*
X534685Y1396250D02*
Y1398750D01*
X533435Y1387500D02*
X535935D01*
X534685Y1386250D02*
Y1388750D01*
X533435Y1377500D02*
X535935D01*
X534685Y1376250D02*
Y1378750D01*
X533435Y1367500D02*
X535935D01*
X534685Y1366250D02*
Y1368750D01*
X533435Y1357500D02*
X535935D01*
X534685Y1356250D02*
Y1358750D01*
X533435Y1347500D02*
X535935D01*
X534685Y1346250D02*
Y1348750D01*
X425185Y1520000D02*
X429185D01*
X427185Y1518000D02*
Y1522000D01*
X425185Y1510000D02*
X429185D01*
X427185Y1508000D02*
Y1512000D01*
X425185Y1500000D02*
X429185D01*
X427185Y1498000D02*
Y1502000D01*
X425185Y1490000D02*
X429185D01*
X427185Y1488000D02*
Y1492000D01*
X425185Y1480000D02*
X429185D01*
X427185Y1478000D02*
Y1482000D01*
X425185Y1470000D02*
X429185D01*
X427185Y1468000D02*
Y1472000D01*
X425185Y1460000D02*
X429185D01*
X427185Y1458000D02*
Y1462000D01*
X425185Y1450000D02*
X429185D01*
X427185Y1448000D02*
Y1452000D01*
X425185Y1440000D02*
X429185D01*
X427185Y1438000D02*
Y1442000D01*
X425185Y1430000D02*
X429185D01*
X427185Y1428000D02*
Y1432000D01*
X425185Y1420000D02*
X429185D01*
X427185Y1418000D02*
Y1422000D01*
X425185Y1410000D02*
X429185D01*
X427185Y1408000D02*
Y1412000D01*
X425185Y1400000D02*
X429185D01*
X427185Y1398000D02*
Y1402000D01*
X425185Y1390000D02*
X429185D01*
X427185Y1388000D02*
Y1392000D01*
X425185Y1380000D02*
X429185D01*
X427185Y1378000D02*
Y1382000D01*
X425185Y1370000D02*
X429185D01*
X427185Y1368000D02*
Y1372000D01*
X425185Y1360000D02*
X429185D01*
X427185Y1358000D02*
Y1362000D01*
X425185Y1350000D02*
X429185D01*
X427185Y1348000D02*
Y1352000D01*
X425185Y1340000D02*
X429185D01*
X427185Y1338000D02*
Y1342000D01*
X425185Y1330000D02*
X429185D01*
X427185Y1328000D02*
Y1332000D01*
X355185Y1330000D02*
X359185D01*
X357185Y1328000D02*
Y1332000D01*
X355185Y1340000D02*
X359185D01*
X357185Y1338000D02*
Y1342000D01*
X355185Y1350000D02*
X359185D01*
X357185Y1348000D02*
Y1352000D01*
X355185Y1360000D02*
X359185D01*
X357185Y1358000D02*
Y1362000D01*
X355185Y1370000D02*
X359185D01*
X357185Y1368000D02*
Y1372000D01*
X355185Y1380000D02*
X359185D01*
X357185Y1378000D02*
Y1382000D01*
X355185Y1390000D02*
X359185D01*
X357185Y1388000D02*
Y1392000D01*
X355185Y1400000D02*
X359185D01*
X357185Y1398000D02*
Y1402000D01*
X355185Y1410000D02*
X359185D01*
X357185Y1408000D02*
Y1412000D01*
X355185Y1420000D02*
X359185D01*
X357185Y1418000D02*
Y1422000D01*
X355185Y1430000D02*
X359185D01*
X357185Y1428000D02*
Y1432000D01*
X355185Y1440000D02*
X359185D01*
X357185Y1438000D02*
Y1442000D01*
X355185Y1450000D02*
X359185D01*
X357185Y1448000D02*
Y1452000D01*
X355185Y1460000D02*
X359185D01*
X357185Y1458000D02*
Y1462000D01*
X355185Y1470000D02*
X359185D01*
X357185Y1468000D02*
Y1472000D01*
X355185Y1480000D02*
X359185D01*
X357185Y1478000D02*
Y1482000D01*
X355185Y1490000D02*
X359185D01*
X357185Y1488000D02*
Y1492000D01*
X355185Y1500000D02*
X359185D01*
X357185Y1498000D02*
Y1502000D01*
X355185Y1510000D02*
X359185D01*
X357185Y1508000D02*
Y1512000D01*
X355185Y1520000D02*
X359185D01*
X357185Y1518000D02*
Y1522000D01*
X600935Y1240000D02*
X603435D01*
X602185Y1238750D02*
Y1241250D01*
X600935Y1250000D02*
X603435D01*
X602185Y1248750D02*
Y1251250D01*
X600935Y1260000D02*
X603435D01*
X602185Y1258750D02*
Y1261250D01*
X600935Y1270000D02*
X603435D01*
X602185Y1268750D02*
Y1271250D01*
X600935Y1280000D02*
X603435D01*
X602185Y1278750D02*
Y1281250D01*
X600935Y1290000D02*
X603435D01*
X602185Y1288750D02*
Y1291250D01*
X600935Y1300000D02*
X603435D01*
X602185Y1298750D02*
Y1301250D01*
X630935Y1240000D02*
X633435D01*
X632185Y1238750D02*
Y1241250D01*
X630935Y1300000D02*
X633435D01*
X632185Y1298750D02*
Y1301250D01*
X630935Y1290000D02*
X633435D01*
X632185Y1288750D02*
Y1291250D01*
X630935Y1280000D02*
X633435D01*
X632185Y1278750D02*
Y1281250D01*
X630935Y1270000D02*
X633435D01*
X632185Y1268750D02*
Y1271250D01*
X630935Y1260000D02*
X633435D01*
X632185Y1258750D02*
Y1261250D01*
X630935Y1250000D02*
X633435D01*
X632185Y1248750D02*
Y1251250D01*
X415935Y1230000D02*
X418435D01*
X417185Y1228750D02*
Y1231250D01*
X415935Y1240000D02*
X418435D01*
X417185Y1238750D02*
Y1241250D01*
X415935Y1250000D02*
X418435D01*
X417185Y1248750D02*
Y1251250D01*
X415935Y1260000D02*
X418435D01*
X417185Y1258750D02*
Y1261250D01*
X415935Y1270000D02*
X418435D01*
X417185Y1268750D02*
Y1271250D01*
X415935Y1280000D02*
X418435D01*
X417185Y1278750D02*
Y1281250D01*
X415935Y1290000D02*
X418435D01*
X417185Y1288750D02*
Y1291250D01*
X415935Y1220000D02*
X418435D01*
X417185Y1218750D02*
Y1221250D01*
X445935Y1270000D02*
X448435D01*
X447185Y1268750D02*
Y1271250D01*
X445935Y1260000D02*
X448435D01*
X447185Y1258750D02*
Y1261250D01*
X445935Y1250000D02*
X448435D01*
X447185Y1248750D02*
Y1251250D01*
X445935Y1240000D02*
X448435D01*
X447185Y1238750D02*
Y1241250D01*
X445935Y1230000D02*
X448435D01*
X447185Y1228750D02*
Y1231250D01*
X445935Y1220000D02*
X448435D01*
X447185Y1218750D02*
Y1221250D01*
X445935Y1280000D02*
X448435D01*
X447185Y1278750D02*
Y1281250D01*
X445935Y1290000D02*
X448435D01*
X447185Y1288750D02*
Y1291250D01*
X323435Y1307500D02*
X325935D01*
X324685Y1306250D02*
Y1308750D01*
X323435Y1297500D02*
X325935D01*
X324685Y1296250D02*
Y1298750D01*
X293435Y1267500D02*
X295935D01*
X294685Y1266250D02*
Y1268750D01*
X293435Y1257500D02*
X295935D01*
X294685Y1256250D02*
Y1258750D01*
X323435Y1257500D02*
X325935D01*
X324685Y1256250D02*
Y1258750D01*
X323435Y1267500D02*
X325935D01*
X324685Y1266250D02*
Y1268750D01*
X323435Y1277500D02*
X325935D01*
X324685Y1276250D02*
Y1278750D01*
X323435Y1287500D02*
X325935D01*
X324685Y1286250D02*
Y1288750D01*
X293435Y1277500D02*
X295935D01*
X294685Y1276250D02*
Y1278750D01*
X293435Y1347500D02*
X295935D01*
X294685Y1346250D02*
Y1348750D01*
X293435Y1337500D02*
X295935D01*
X294685Y1336250D02*
Y1338750D01*
X293435Y1327500D02*
X295935D01*
X294685Y1326250D02*
Y1328750D01*
X293435Y1317500D02*
X295935D01*
X294685Y1316250D02*
Y1318750D01*
X293435Y1307500D02*
X295935D01*
X294685Y1306250D02*
Y1308750D01*
X293435Y1297500D02*
X295935D01*
X294685Y1296250D02*
Y1298750D01*
X293435Y1287500D02*
X295935D01*
X294685Y1286250D02*
Y1288750D01*
X323435Y1327500D02*
X325935D01*
X324685Y1326250D02*
Y1328750D01*
X323435Y1317500D02*
X325935D01*
X324685Y1316250D02*
Y1318750D01*
X323435Y1337500D02*
X325935D01*
X324685Y1336250D02*
Y1338750D01*
X323435Y1347500D02*
X325935D01*
X324685Y1346250D02*
Y1348750D01*
X325935Y1462500D02*
X328435D01*
X327185Y1461250D02*
Y1463750D01*
X325935Y1452500D02*
X328435D01*
X327185Y1451250D02*
Y1453750D01*
X295935Y1422500D02*
X298435D01*
X297185Y1421250D02*
Y1423750D01*
X295935Y1412500D02*
X298435D01*
X297185Y1411250D02*
Y1413750D01*
X325935Y1412500D02*
X328435D01*
X327185Y1411250D02*
Y1413750D01*
X325935Y1422500D02*
X328435D01*
X327185Y1421250D02*
Y1423750D01*
X325935Y1432500D02*
X328435D01*
X327185Y1431250D02*
Y1433750D01*
X325935Y1442500D02*
X328435D01*
X327185Y1441250D02*
Y1443750D01*
X295935Y1432500D02*
X298435D01*
X297185Y1431250D02*
Y1433750D01*
X295935Y1502500D02*
X298435D01*
X297185Y1501250D02*
Y1503750D01*
X295935Y1492500D02*
X298435D01*
X297185Y1491250D02*
Y1493750D01*
X295935Y1482500D02*
X298435D01*
X297185Y1481250D02*
Y1483750D01*
X295935Y1472500D02*
X298435D01*
X297185Y1471250D02*
Y1473750D01*
X295935Y1462500D02*
X298435D01*
X297185Y1461250D02*
Y1463750D01*
X295935Y1452500D02*
X298435D01*
X297185Y1451250D02*
Y1453750D01*
X295935Y1442500D02*
X298435D01*
X297185Y1441250D02*
Y1443750D01*
X325935Y1482500D02*
X328435D01*
X327185Y1481250D02*
Y1483750D01*
X325935Y1472500D02*
X328435D01*
X327185Y1471250D02*
Y1473750D01*
X325935Y1492500D02*
X328435D01*
X327185Y1491250D02*
Y1493750D01*
X325935Y1502500D02*
X328435D01*
X327185Y1501250D02*
Y1503750D01*
X550935Y1240000D02*
X553435D01*
X552185Y1238750D02*
Y1241250D01*
X550935Y1250000D02*
X553435D01*
X552185Y1248750D02*
Y1251250D01*
X550935Y1260000D02*
X553435D01*
X552185Y1258750D02*
Y1261250D01*
X550935Y1270000D02*
X553435D01*
X552185Y1268750D02*
Y1271250D01*
X550935Y1280000D02*
X553435D01*
X552185Y1278750D02*
Y1281250D01*
X550935Y1290000D02*
X553435D01*
X552185Y1288750D02*
Y1291250D01*
X550935Y1300000D02*
X553435D01*
X552185Y1298750D02*
Y1301250D01*
X580935Y1240000D02*
X583435D01*
X582185Y1238750D02*
Y1241250D01*
X580935Y1300000D02*
X583435D01*
X582185Y1298750D02*
Y1301250D01*
X580935Y1290000D02*
X583435D01*
X582185Y1288750D02*
Y1291250D01*
X580935Y1280000D02*
X583435D01*
X582185Y1278750D02*
Y1281250D01*
X580935Y1270000D02*
X583435D01*
X582185Y1268750D02*
Y1271250D01*
X580935Y1260000D02*
X583435D01*
X582185Y1258750D02*
Y1261250D01*
X580935Y1250000D02*
X583435D01*
X582185Y1248750D02*
Y1251250D01*
X650935Y1240000D02*
X653435D01*
X652185Y1238750D02*
Y1241250D01*
X650935Y1250000D02*
X653435D01*
X652185Y1248750D02*
Y1251250D01*
X650935Y1260000D02*
X653435D01*
X652185Y1258750D02*
Y1261250D01*
X650935Y1270000D02*
X653435D01*
X652185Y1268750D02*
Y1271250D01*
X650935Y1280000D02*
X653435D01*
X652185Y1278750D02*
Y1281250D01*
X650935Y1290000D02*
X653435D01*
X652185Y1288750D02*
Y1291250D01*
X650935Y1300000D02*
X653435D01*
X652185Y1298750D02*
Y1301250D01*
X680935Y1240000D02*
X683435D01*
X682185Y1238750D02*
Y1241250D01*
X680935Y1300000D02*
X683435D01*
X682185Y1298750D02*
Y1301250D01*
X680935Y1290000D02*
X683435D01*
X682185Y1288750D02*
Y1291250D01*
X680935Y1280000D02*
X683435D01*
X682185Y1278750D02*
Y1281250D01*
X680935Y1270000D02*
X683435D01*
X682185Y1268750D02*
Y1271250D01*
X680935Y1260000D02*
X683435D01*
X682185Y1258750D02*
Y1261250D01*
X680935Y1250000D02*
X683435D01*
X682185Y1248750D02*
Y1251250D01*
X710000Y1440000D02*
X713937D01*
X711968Y1438031D02*
Y1441969D01*
X727716Y1440000D02*
X731653D01*
X729685Y1438031D02*
Y1441969D01*
X710000Y1414409D02*
X713937D01*
X711968Y1412441D02*
Y1416378D01*
X727716Y1414409D02*
X731653D01*
X729685Y1412441D02*
Y1416378D01*
X710000Y1385000D02*
X713937D01*
X711968Y1383031D02*
Y1386969D01*
X727716Y1385000D02*
X731653D01*
X729685Y1383031D02*
Y1386969D01*
X710000Y1359409D02*
X713937D01*
X711968Y1357441D02*
Y1361378D01*
X727716Y1359409D02*
X731653D01*
X729685Y1357441D02*
Y1361378D01*
X314341Y1192500D02*
X316841D01*
X315591Y1191250D02*
Y1193750D01*
X308435Y1192500D02*
X310935D01*
X309685Y1191250D02*
Y1193750D01*
X682685Y1465000D02*
X686685D01*
X684685Y1463000D02*
Y1467000D01*
X682685Y1475000D02*
X686685D01*
X684685Y1473000D02*
Y1477000D01*
X682685Y1485000D02*
X686685D01*
X684685Y1483000D02*
Y1487000D01*
X682685Y1495000D02*
X686685D01*
X684685Y1493000D02*
Y1497000D01*
X682685Y1505000D02*
X686685D01*
X684685Y1503000D02*
Y1507000D01*
X682685Y1515000D02*
X686685D01*
X684685Y1513000D02*
Y1517000D01*
X645185Y1487500D02*
X649185D01*
X647185Y1485500D02*
Y1489500D01*
X645185Y1477500D02*
X649185D01*
X647185Y1475500D02*
Y1479500D01*
X343685Y1342500D02*
X345685D01*
X344685Y1341500D02*
Y1343500D01*
X331185Y1205000D02*
X333185D01*
X332185Y1204000D02*
Y1206000D01*
X348685Y1217500D02*
X350685D01*
X349685Y1216500D02*
Y1218500D01*
X608685Y1197500D02*
X610685D01*
X609685Y1196500D02*
Y1198500D01*
X623685Y1197500D02*
X625685D01*
X624685Y1196500D02*
Y1198500D01*
X713685Y1285000D02*
X715685D01*
X714685Y1284000D02*
Y1286000D01*
X698685Y1285000D02*
X700685D01*
X699685Y1284000D02*
Y1286000D01*
X646185Y1310000D02*
X648185D01*
X647185Y1309000D02*
Y1311000D01*
X611185Y1305000D02*
X613185D01*
X612185Y1304000D02*
Y1306000D01*
X651185Y1417500D02*
X653185D01*
X652185Y1416500D02*
Y1418500D01*
X646185Y1432500D02*
X648185D01*
X647185Y1431500D02*
Y1433500D01*
X641185Y1332500D02*
X643185D01*
X642185Y1331500D02*
Y1333500D01*
X511185Y1315000D02*
X513185D01*
X512185Y1314000D02*
Y1316000D01*
X581185Y1467500D02*
X583185D01*
X582185Y1466500D02*
Y1468500D01*
X451185Y1482500D02*
X453185D01*
X452185Y1481500D02*
Y1483500D01*
X456185Y1477500D02*
X458185D01*
X457185Y1476500D02*
Y1478500D01*
X428685Y1320000D02*
X430685D01*
X429685Y1319000D02*
Y1321000D01*
X398685Y1320000D02*
X400685D01*
X399685Y1319000D02*
Y1321000D01*
X401185Y1410000D02*
X403185D01*
X402185Y1409000D02*
Y1411000D01*
X348685Y1295000D02*
X350685D01*
X349685Y1294000D02*
Y1296000D01*
X465785Y1362500D02*
X468585D01*
X467185Y1361100D02*
Y1363900D01*
X458685Y1195000D02*
X460685D01*
X459685Y1194000D02*
Y1196000D01*
X468685Y1332500D02*
X470685D01*
X469685Y1331500D02*
Y1333500D01*
X498685Y1237500D02*
X500685D01*
X499685Y1236500D02*
Y1238500D01*
X498685Y1250000D02*
X500685D01*
X499685Y1249000D02*
Y1251000D01*
X611185Y1212500D02*
X613185D01*
X612185Y1211500D02*
Y1213500D01*
X574000Y1232500D02*
X576000D01*
X575000Y1231500D02*
Y1233500D01*
X369807Y1237500D02*
X371807D01*
X370807Y1236500D02*
Y1238500D01*
X556185Y1197500D02*
X558185D01*
X557185Y1196500D02*
Y1198500D01*
X571185Y1310000D02*
X573185D01*
X572185Y1309000D02*
Y1311000D01*
X561185Y1310000D02*
X563185D01*
X562185Y1309000D02*
Y1311000D01*
X431185Y1262500D02*
X433185D01*
X432185Y1261500D02*
Y1263500D01*
X496185Y1402500D02*
X498185D01*
X497185Y1401500D02*
Y1403500D01*
X498285Y1357500D02*
X501085D01*
X499685Y1356100D02*
Y1358900D01*
X497035Y1377500D02*
X499835D01*
X498435Y1376100D02*
Y1378900D01*
X498685Y1285000D02*
X500685D01*
X499685Y1284000D02*
Y1286000D01*
X533685Y1222500D02*
X535685D01*
X534685Y1221500D02*
Y1223500D01*
X551185Y1447500D02*
X553185D01*
X552185Y1446500D02*
Y1448500D01*
X566185Y1290000D02*
X568185D01*
X567185Y1289000D02*
Y1291000D01*
X586185Y1222500D02*
X588185D01*
X587185Y1221500D02*
Y1223500D01*
X638900Y1232500D02*
X641700D01*
X640300Y1231100D02*
Y1233900D01*
X568685Y1177500D02*
X570685D01*
X569685Y1176500D02*
Y1178500D01*
X554600Y1178900D02*
X556600D01*
X555600Y1177900D02*
Y1179900D01*
X574000Y1184100D02*
X576000D01*
X575000Y1183100D02*
Y1185100D01*
X476800Y1191200D02*
X478800D01*
X477800Y1190200D02*
Y1192200D01*
X491400Y1190800D02*
X493400D01*
X492400Y1189800D02*
Y1191800D01*
X500200Y1191300D02*
X502200D01*
X501200Y1190300D02*
Y1192300D01*
X615400Y1323900D02*
X617400D01*
X616400Y1322900D02*
Y1324900D01*
X327900Y1394600D02*
X330700D01*
X329300Y1393200D02*
Y1396000D01*
X388685Y1240000D02*
X390685D01*
X389685Y1239000D02*
Y1241000D01*
X388685Y1317500D02*
X390685D01*
X389685Y1316500D02*
Y1318500D01*
X448685Y1327500D02*
X450685D01*
X449685Y1326500D02*
Y1328500D01*
X396185Y1415000D02*
X398185D01*
X397185Y1414000D02*
Y1416000D01*
X386185Y1425000D02*
X388185D01*
X387185Y1424000D02*
Y1426000D01*
X378685Y1435000D02*
X380685D01*
X379685Y1434000D02*
Y1436000D01*
X381185Y1465000D02*
X383185D01*
X382185Y1464000D02*
Y1466000D01*
X373685Y1445000D02*
X375685D01*
X374685Y1444000D02*
Y1446000D01*
X396185Y1385000D02*
X398185D01*
X397185Y1384000D02*
Y1386000D01*
X391185Y1370000D02*
X393185D01*
X392185Y1369000D02*
Y1371000D01*
X386185Y1365000D02*
X388185D01*
X387185Y1364000D02*
Y1366000D01*
X381185Y1355000D02*
X383185D01*
X382185Y1354000D02*
Y1356000D01*
X371185Y1335000D02*
X373185D01*
X372185Y1334000D02*
Y1336000D01*
X376185Y1345000D02*
X378185D01*
X377185Y1344000D02*
Y1346000D01*
X416185Y1395000D02*
X418185D01*
X417185Y1394000D02*
Y1396000D01*
X416185Y1385000D02*
X418185D01*
X417185Y1384000D02*
Y1386000D01*
X416185Y1370000D02*
X418185D01*
X417185Y1369000D02*
Y1371000D01*
X446185Y1367500D02*
X448185D01*
X447185Y1366500D02*
Y1368500D01*
X446185Y1375000D02*
X448185D01*
X447185Y1374000D02*
Y1376000D01*
X446185Y1382500D02*
X448185D01*
X447185Y1381500D02*
Y1383500D01*
X436185Y1370000D02*
X438185D01*
X437185Y1369000D02*
Y1371000D01*
X343685Y1375000D02*
X345685D01*
X344685Y1374000D02*
Y1376000D01*
X336185Y1417500D02*
X338185D01*
X337185Y1416500D02*
Y1418500D01*
X336185Y1427500D02*
X338185D01*
X337185Y1426500D02*
Y1428500D01*
X336185Y1437500D02*
X338185D01*
X337185Y1436500D02*
Y1438500D01*
X336185Y1447500D02*
X338185D01*
X337185Y1446500D02*
Y1448500D01*
X336185Y1457500D02*
X338185D01*
X337185Y1456500D02*
Y1458500D01*
X323685Y1405000D02*
X325685D01*
X324685Y1404000D02*
Y1406000D01*
X368685Y1405000D02*
X370685D01*
X369685Y1404000D02*
Y1406000D01*
X413685Y1405000D02*
X415685D01*
X414685Y1404000D02*
Y1406000D01*
X411185Y1415000D02*
X413185D01*
X412185Y1414000D02*
Y1416000D01*
X406185Y1425000D02*
X408185D01*
X407185Y1424000D02*
Y1426000D01*
X579000Y1182500D02*
X581000D01*
X580000Y1181500D02*
Y1183500D01*
X549000Y1182500D02*
X551000D01*
X550000Y1181500D02*
Y1183500D01*
X519000Y1182500D02*
X521000D01*
X520000Y1181500D02*
Y1183500D01*
X509000Y1182500D02*
X511000D01*
X510000Y1181500D02*
Y1183500D01*
X489000Y1182500D02*
X491000D01*
X490000Y1181500D02*
Y1183500D01*
X479000Y1182500D02*
X481000D01*
X480000Y1181500D02*
Y1183500D01*
X469000Y1182500D02*
X471000D01*
X470000Y1181500D02*
Y1183500D01*
X459000Y1182500D02*
X461000D01*
X460000Y1181500D02*
Y1183500D01*
X449000Y1182500D02*
X451000D01*
X450000Y1181500D02*
Y1183500D01*
X439000Y1182500D02*
X441000D01*
X440000Y1181500D02*
Y1183500D01*
X634000Y1182500D02*
X636000D01*
X635000Y1181500D02*
Y1183500D01*
X594000Y1182500D02*
X596000D01*
X595000Y1181500D02*
Y1183500D01*
X584000Y1182500D02*
X586000D01*
X585000Y1181500D02*
Y1183500D01*
X544000Y1182500D02*
X546000D01*
X545000Y1181500D02*
Y1183500D01*
X534000Y1182500D02*
X536000D01*
X535000Y1181500D02*
Y1183500D01*
X494000Y1182500D02*
X496000D01*
X495000Y1181500D02*
Y1183500D01*
X474000Y1182500D02*
X476000D01*
X475000Y1181500D02*
Y1183500D01*
X454000Y1182500D02*
X456000D01*
X455000Y1181500D02*
Y1183500D01*
X434000Y1182500D02*
X436000D01*
X435000Y1181500D02*
Y1183500D01*
X424000Y1182500D02*
X426000D01*
X425000Y1181500D02*
Y1183500D01*
X409000Y1182500D02*
X411000D01*
X410000Y1181500D02*
Y1183500D01*
X379000Y1182500D02*
X381000D01*
X380000Y1181500D02*
Y1183500D01*
X313685Y1247500D02*
X315685D01*
X314685Y1246500D02*
Y1248500D01*
X313685Y1237500D02*
X315685D01*
X314685Y1236500D02*
Y1238500D01*
X316185Y1232500D02*
X318185D01*
X317185Y1231500D02*
Y1233500D01*
X316185Y1222500D02*
X318185D01*
X317185Y1221500D02*
Y1223500D01*
X308685Y1395000D02*
X310685D01*
X309685Y1394000D02*
Y1396000D01*
X303685Y1335000D02*
X305685D01*
X304685Y1334000D02*
Y1336000D01*
X303685Y1312500D02*
X305685D01*
X304685Y1311500D02*
Y1313500D01*
X403685Y1360000D02*
X405685D01*
X404685Y1359000D02*
Y1361000D01*
X346185Y1287500D02*
X348185D01*
X347185Y1286500D02*
Y1288500D01*
X336185Y1287500D02*
X338185D01*
X337185Y1286500D02*
Y1288500D01*
X613685Y1492500D02*
X615685D01*
X614685Y1491500D02*
Y1493500D01*
X696185Y1475000D02*
X698185D01*
X697185Y1474000D02*
Y1476000D01*
X701185Y1495000D02*
X703185D01*
X702185Y1494000D02*
Y1496000D01*
X706185Y1485000D02*
X708185D01*
X707185Y1484000D02*
Y1486000D01*
X390122Y1180000D02*
X392122D01*
X391122Y1179000D02*
Y1181000D01*
X397622Y1180000D02*
X399622D01*
X398622Y1179000D02*
Y1181000D01*
X664000Y1180000D02*
X666000D01*
X665000Y1179000D02*
Y1181000D01*
X664000Y1172500D02*
X666000D01*
X665000Y1171500D02*
Y1173500D01*
X417937Y1177500D02*
X419937D01*
X418937Y1176500D02*
Y1178500D01*
X354000Y1172500D02*
X356000D01*
X355000Y1171500D02*
Y1173500D01*
X354000Y1180000D02*
X356000D01*
X355000Y1179000D02*
Y1181000D01*
M02*
